<svg width="201" height="197" viewBox="0 0 201 197" fill="none" xmlns="http://www.w3.org/2000/svg">
<path d="M199.318 97.0024C199.318 118.958 192.012 139.316 179.768 155.682C173.054 164.465 164.957 172.249 155.676 178.236C140.668 188.216 122.698 194.004 103.345 194.004C50.2242 194.004 7.1745 150.493 7.1745 97.0024C7.1745 43.3122 50.2242 0.000747681 103.148 0.000747681C122.5 0.000747681 140.47 5.78891 155.479 15.5689C164.76 21.5567 172.856 29.3408 179.571 38.1228C192.012 54.6889 199.318 75.0473 199.318 97.0024Z" fill="#EAEEF9"/>
<path d="M19.6971 21.1884C21.4743 21.1884 22.8567 19.5917 22.8567 17.7953C22.8567 15.999 21.4743 14.4023 19.4996 14.4023C17.7223 14.4023 16.1425 15.7994 16.1425 17.7953C16.34 19.5917 17.9198 21.1884 19.6971 21.1884Z" fill="url(#paint0_linear_3:704)"/>
<path d="M12.1119 182.028C13.8892 182.028 15.469 180.631 15.469 178.635C15.469 176.839 14.0867 175.242 12.1119 175.242C10.3346 175.242 8.75484 176.639 8.75484 178.635C8.95231 180.432 10.3346 182.028 12.1119 182.028Z" fill="url(#paint1_linear_3:704)"/>
<path d="M188.208 23.5569C191.17 20.7627 191.367 16.172 188.603 13.1782C185.838 10.1843 181.296 9.98469 178.136 12.779C175.174 15.5733 174.977 20.1639 177.741 23.1578C180.506 25.952 185.246 26.1516 188.208 23.5569Z" fill="#EAEEF9"/>
<path d="M166.388 6.38694C168.166 6.38694 169.548 4.98979 169.548 3.19347C169.548 1.39714 168.166 0 166.388 0C164.611 0 163.229 1.39714 163.229 3.19347C163.229 4.98979 164.611 6.38694 166.388 6.38694Z" fill="url(#paint2_linear_3:704)"/>
<path d="M22.9716 195.001H200" stroke="#B1B9CC" stroke-width="2" stroke-miterlimit="10" stroke-linecap="round" stroke-linejoin="round"/>
<path d="M8.55594 195.001H16.06" stroke="#B1B9CC" stroke-width="2" stroke-miterlimit="10" stroke-linecap="round" stroke-linejoin="round"/>
<path d="M52.6342 60.9537L47.669 35.6799H7.593C5.81972 35.6799 4.4011 34.9679 3.33714 33.9L0.4999 30.6963C-0.564064 29.6284 0.145245 27.4926 1.91852 27.4926H50.8609C52.6342 27.4926 54.4074 28.9164 54.7621 30.6963L60.4366 59.1739L52.6342 60.9537Z" fill="#BFC6D7"/>
<path d="M24.5121 30.5706L16.8611 32.1063L22.564 60.7295L30.215 59.1938L24.5121 30.5706Z" fill="#BFC6D7"/>
<path d="M169.315 194.441C176.954 194.441 183.147 188.225 183.147 180.558C183.147 172.891 176.954 166.675 169.315 166.675C161.676 166.675 155.484 172.891 155.484 180.558C155.484 188.225 161.676 194.441 169.315 194.441Z" fill="#1C3754"/>
<path d="M71.7861 194.441C79.425 194.441 85.6176 188.225 85.6176 180.558C85.6176 172.891 79.425 166.675 71.7861 166.675C64.1471 166.675 57.9545 172.891 57.9545 180.558C57.9545 188.225 64.1471 194.441 71.7861 194.441Z" fill="#1C3754"/>
<path d="M168.962 184.473H49.0887C47.3154 184.473 45.5422 183.05 45.1875 181.27L36.6758 139.977C36.3211 137.841 37.7398 135.706 39.8677 135.35C41.9956 134.994 44.1236 136.418 44.4782 138.553L52.2806 176.642H169.317C171.445 176.642 173.218 178.422 173.218 180.558C173.218 182.694 171.445 184.473 168.962 184.473Z" fill="#BFC6D7"/>
<path d="M70.5822 147.699L62.9359 149.259L69.4322 181.353L77.0785 179.794L70.5822 147.699Z" fill="#BFC6D7"/>
<path d="M48.3789 194.441C56.0179 194.441 62.2105 188.225 62.2105 180.558C62.2105 172.891 56.0179 166.675 48.3789 166.675C40.74 166.675 34.5474 172.891 34.5474 180.558C34.5474 188.225 40.74 194.441 48.3789 194.441Z" fill="#2D5887"/>
<path d="M48.3778 187.321C52.0993 187.321 55.1162 184.293 55.1162 180.558C55.1162 176.823 52.0993 173.795 48.3778 173.795C44.6562 173.795 41.6393 176.823 41.6393 180.558C41.6393 184.293 44.6562 187.321 48.3778 187.321Z" fill="#1C3754"/>
<path d="M145.909 194.441C153.548 194.441 159.741 188.225 159.741 180.558C159.741 172.891 153.548 166.675 145.909 166.675C138.27 166.675 132.078 172.891 132.078 180.558C132.078 188.225 138.27 194.441 145.909 194.441Z" fill="#2D5887"/>
<path d="M145.907 187.321C149.629 187.321 152.646 184.293 152.646 180.558C152.646 176.823 149.629 173.795 145.907 173.795C142.186 173.795 139.169 176.823 139.169 180.558C139.169 184.293 142.186 187.321 145.907 187.321Z" fill="#1C3754"/>
<path d="M197.687 58.1058L183.147 141.759C182.083 147.098 177.827 150.658 172.507 150.658H47.6684C42.3486 150.658 38.0928 147.098 37.0288 141.759L20.7147 58.1058H197.687Z" fill="url(#paint3_linear_3:704)"/>
<path d="M94.8376 139.266C96.6109 139.266 98.3842 137.842 98.3842 135.706V73.4113C98.3842 71.6315 96.9656 69.8516 94.8376 69.8516C93.0644 69.8516 91.2911 71.2755 91.2911 73.4113V135.706C91.2911 137.842 92.7097 139.266 94.8376 139.266Z" fill="url(#paint4_linear_3:704)"/>
<path d="M112.925 139.266C114.698 139.622 116.472 138.198 116.826 136.062L122.856 74.1237C123.21 72.3438 121.792 70.564 119.664 70.208C117.89 69.852 116.117 71.2759 115.762 73.4117L109.733 135.35C109.733 137.486 110.797 138.91 112.925 139.266Z" fill="url(#paint5_linear_3:704)"/>
<path d="M131.368 138.91C133.141 139.266 134.914 137.842 135.269 136.062L146.618 74.8353C146.973 73.0554 145.554 71.2756 143.781 70.9196C142.007 70.5636 140.234 71.9875 139.879 73.7674L128.885 134.994C128.176 136.774 129.594 138.554 131.368 138.91Z" fill="url(#paint6_linear_3:704)"/>
<path d="M76.3959 139.266C74.6226 139.622 72.8494 138.198 72.4947 136.062L66.4656 74.1237C66.1109 72.3438 67.5295 70.564 69.6575 70.208C71.4307 69.852 73.204 71.2759 73.5587 73.4117L79.5878 135.35C79.5878 137.486 78.5238 138.91 76.3959 139.266Z" fill="url(#paint7_linear_3:704)"/>
<path d="M57.954 138.91C56.1808 139.266 54.4075 137.842 54.0528 136.062L42.7039 74.8353C42.3492 73.0554 43.7678 71.2756 45.5411 70.9196C47.3144 70.5636 49.0877 71.9875 49.4423 73.7674L60.4366 134.994C61.1459 136.774 59.7273 138.554 57.954 138.91Z" fill="url(#paint8_linear_3:704)"/>
<path d="M197.689 58.1058L183.148 141.759C182.084 147.098 177.828 150.658 172.509 150.658H139.526C145.555 150.658 150.52 146.386 151.584 140.691L166.834 58.1058H197.689Z" fill="#9381FF"/>
<g filter="url(#filter0_d_3:704)">
<path d="M141.056 62.0989C140.728 63.7421 140.399 65.0563 139.741 66.6995C139.741 67.0282 139.413 67.6868 139.084 68.0154C136.455 74.9169 131.526 80.5037 125.61 84.4474C123.639 85.762 121.666 86.7479 119.366 87.7339C117.065 88.7198 114.765 89.3758 112.136 89.7044C107.863 90.3617 103.591 90.363 99.3191 89.3771C80.2579 85.4334 68.098 67.0292 72.0417 47.968C75.9854 28.9068 94.3888 16.7461 113.45 20.6898C120.023 22.0044 126.267 25.2921 131.197 30.2217C140.07 38.7664 143.357 50.5965 141.056 62.0989Z" fill="url(#paint9_linear_3:704)"/>
</g>
<path d="M139.696 66.667C139.696 66.9956 139.368 67.6529 139.039 67.9815C136.41 74.883 131.48 80.4699 125.565 84.4136C123.593 85.7281 121.621 86.7141 119.321 87.7L114.391 81.4558L104.532 70.6106L111.762 50.2349L101.574 41.033L112.419 39.3898L139.696 66.667Z" fill="url(#paint10_linear_3:704)"/>
<path d="M104.705 70.5083C105.691 71.8229 107.335 71.8229 108.649 70.837C108.978 70.837 108.978 70.5083 108.978 70.5083L119.166 57.3627C120.151 56.3767 119.823 54.4049 118.837 53.7476C118.508 53.419 117.851 53.0903 117.194 53.0903H112.264V45.203C112.264 44.8743 111.935 44.217 111.278 44.217H109.635H102.405C102.076 44.217 101.419 44.5457 101.419 45.203V53.0903H96.4893C95.1748 53.0903 93.8602 54.4049 93.8602 55.7195C93.8602 56.3767 94.1889 57.034 94.5175 57.3627L104.705 70.5083Z" fill="url(#paint11_linear_3:704)"/>
<path d="M111.279 41.2589H102.077C101.748 41.2589 101.419 40.9302 101.419 40.6016V39.287C101.419 38.9584 101.748 38.6297 102.077 38.6297H111.279C111.607 38.6297 111.936 38.9584 111.936 39.287V40.6016C112.264 40.9302 111.936 41.2589 111.279 41.2589Z" fill="url(#paint12_linear_3:704)"/>
<defs>
<filter id="filter0_d_3:704" x="63.2995" y="16.9477" width="86.4672" height="86.2154" filterUnits="userSpaceOnUse" color-interpolation-filters="sRGB">
<feFlood flood-opacity="0" result="BackgroundImageFix"/>
<feColorMatrix in="SourceAlpha" type="matrix" values="0 0 0 0 0 0 0 0 0 0 0 0 0 0 0 0 0 0 127 0" result="hardAlpha"/>
<feOffset dy="5"/>
<feGaussianBlur stdDeviation="4"/>
<feColorMatrix type="matrix" values="0 0 0 0 0.968627 0 0 0 0 0.254902 0 0 0 0 0.564706 0 0 0 0.3 0"/>
<feBlend mode="normal" in2="BackgroundImageFix" result="effect1_dropShadow_3:704"/>
<feBlend mode="normal" in="SourceGraphic" in2="effect1_dropShadow_3:704" result="shape"/>
</filter>
<linearGradient id="paint0_linear_3:704" x1="16.3583" y1="17.8548" x2="22.7419" y2="17.8548" gradientUnits="userSpaceOnUse">
<stop stop-color="#AC76FF"/>
<stop offset="1" stop-color="#5A78FF"/>
</linearGradient>
<linearGradient id="paint1_linear_3:704" x1="8.91045" y1="178.655" x2="15.2938" y2="178.655" gradientUnits="userSpaceOnUse">
<stop stop-color="#FF66A9"/>
<stop offset="1" stop-color="#F53689"/>
</linearGradient>
<linearGradient id="paint2_linear_3:704" x1="163.253" y1="3.18098" x2="169.603" y2="3.18098" gradientUnits="userSpaceOnUse">
<stop stop-color="#FF66A9"/>
<stop offset="1" stop-color="#F53689"/>
</linearGradient>
<linearGradient id="paint3_linear_3:704" x1="20.7654" y1="104.596" x2="197.703" y2="104.596" gradientUnits="userSpaceOnUse">
<stop stop-color="#9B54FF"/>
<stop offset="1" stop-color="#715AFF"/>
</linearGradient>
<linearGradient id="paint4_linear_3:704" x1="94.667" y1="138.125" x2="94.667" y2="70.6163" gradientUnits="userSpaceOnUse">
<stop stop-color="#BDCFFF"/>
<stop offset="1" stop-color="#91A5FF" stop-opacity="0.5"/>
</linearGradient>
<linearGradient id="paint5_linear_3:704" x1="116.249" y1="138.126" x2="116.249" y2="70.6167" gradientUnits="userSpaceOnUse">
<stop stop-color="#BDCFFF"/>
<stop offset="1" stop-color="#91A5FF" stop-opacity="0.5"/>
</linearGradient>
<linearGradient id="paint6_linear_3:704" x1="137.554" y1="138.125" x2="137.554" y2="70.6163" gradientUnits="userSpaceOnUse">
<stop stop-color="#BDCFFF"/>
<stop offset="1" stop-color="#91A5FF" stop-opacity="0.5"/>
</linearGradient>
<linearGradient id="paint7_linear_3:704" x1="73.0859" y1="138.126" x2="73.0859" y2="70.6167" gradientUnits="userSpaceOnUse">
<stop stop-color="#BDCFFF"/>
<stop offset="1" stop-color="#91A5FF" stop-opacity="0.5"/>
</linearGradient>
<linearGradient id="paint8_linear_3:704" x1="51.7813" y1="138.125" x2="51.7813" y2="70.6163" gradientUnits="userSpaceOnUse">
<stop stop-color="#BDCFFF"/>
<stop offset="1" stop-color="#91A5FF" stop-opacity="0.5"/>
</linearGradient>
<linearGradient id="paint9_linear_3:704" x1="71.6671" y1="55.0715" x2="141.815" y2="55.0715" gradientUnits="userSpaceOnUse">
<stop stop-color="#FF66A9"/>
<stop offset="1" stop-color="#F53689"/>
</linearGradient>
<linearGradient id="paint10_linear_3:704" x1="102.927" y1="50.4705" x2="132.375" y2="79.9184" gradientUnits="userSpaceOnUse">
<stop stop-color="#E81778"/>
<stop offset="1" stop-color="#E01F79" stop-opacity="0"/>
</linearGradient>
<linearGradient id="paint11_linear_3:704" x1="132.339" y1="81.8895" x2="97.0181" y2="46.5682" gradientUnits="userSpaceOnUse">
<stop offset="0.0113208" stop-color="#FFC9E3"/>
<stop offset="1" stop-color="white"/>
</linearGradient>
<linearGradient id="paint12_linear_3:704" x1="116.584" y1="49.7233" x2="102.968" y2="36.1074" gradientUnits="userSpaceOnUse">
<stop offset="0.0113208" stop-color="#FFC9E3"/>
<stop offset="1" stop-color="white"/>
</linearGradient>
</defs>
</svg>
