<svg width="194" height="156" viewBox="0 0 194 156" fill="none" xmlns="http://www.w3.org/2000/svg">
<path d="M191.794 156H12.3518C11.2983 156 10.596 155.293 10.596 154.233C10.596 153.173 11.2983 152.466 12.3518 152.466H191.618C192.672 152.466 193.374 153.173 193.374 154.233C193.374 155.293 192.672 156 191.794 156Z" fill="url(#paint0_linear_4:742)"/>
<path d="M141.227 152.644C127.883 152.997 111.906 152.644 100.668 152.467C89.4314 152.82 73.4536 152.997 60.1096 152.644C73.2781 145.047 77.8431 131.09 78.5455 121.903H122.616C123.494 131.09 128.059 145.224 141.227 152.644Z" fill="url(#paint1_linear_4:742)"/>
<path d="M183.892 4.94678V120.489C183.892 123.316 181.609 125.436 178.976 125.436H22.8854C20.2517 125.436 17.9691 123.14 17.9691 120.489V4.94678C17.9691 2.29672 20.2517 0 22.8854 0H178.976C181.785 0 183.892 2.29672 183.892 4.94678Z" fill="#F5F8FF"/>
<path d="M183.892 4.94678V104.412H17.9691V4.94678C17.9691 2.29672 20.2517 0 22.8854 0H178.976C181.785 0 183.892 2.29672 183.892 4.94678Z" fill="#172D45"/>
<path d="M177.573 6.18317H23.5893V98.7587H177.573V6.18317Z" fill="white"/>
<path d="M100.668 119.606C102.899 119.606 104.707 117.787 104.707 115.543C104.707 113.299 102.899 111.479 100.668 111.479C98.4379 111.479 96.6299 113.299 96.6299 115.543C96.6299 117.787 98.4379 119.606 100.668 119.606Z" fill="#DBDFE6"/>
<path opacity="0.2" d="M177.572 6.18317H23.5885V66.4279H177.572V6.18317Z" fill="url(#paint2_linear_4:742)"/>
<path opacity="0.3" d="M193.023 17.6668H1.29016C1.8169 16.7834 2.51922 16.0767 3.5727 15.5467L23.5888 6.18317H178.099L191.267 15.5467C192.145 16.0767 192.672 16.7834 193.023 17.6668Z" fill="url(#paint3_linear_4:742)"/>
<path d="M193.375 20.1404V19.6104C193.375 18.9037 193.199 18.3737 193.024 17.667C192.672 16.7837 192.146 16.077 191.268 15.3703L178.099 6.00677H23.5893L3.57323 15.547C2.51976 16.077 1.81744 16.7837 1.2907 17.667C0.763961 18.3737 0.588381 19.2571 0.588381 20.1404C-0.289516 27.914 5.85577 35.5108 14.2836 35.5108C21.8335 35.5108 28.2578 28.444 28.2578 20.6705C28.2578 28.444 34.1241 35.5108 41.8496 35.5108C49.5751 35.5108 55.7204 28.444 55.7204 20.6705C55.7204 28.444 61.6901 35.5108 69.4156 35.5108C76.6143 35.5108 82.8031 29.1507 83.3298 21.7305C84.2077 29.6807 90.6607 35.6875 96.9816 35.6875C104.531 35.6875 110.677 29.504 110.852 21.7305C110.852 21.9071 110.852 22.0838 110.852 22.2605V21.7305C114.54 42.2243 138.243 37.2775 138.243 21.0238C138.243 21.3771 138.243 21.5538 138.243 21.9072C138.243 21.9072 138.243 21.9072 138.243 22.0838C138.243 21.5538 138.814 20.6331 138.814 20.1031C138.814 27.1699 143.686 33.9208 150.358 34.9808C152.64 35.3341 154.747 35.1575 157.03 34.4508C157.381 34.2741 157.732 34.2741 158.083 34.0974C161.595 32.6841 164.404 29.8573 165.633 25.7939C165.633 25.6172 165.809 25.4406 165.809 25.0872C165.984 24.5572 165.984 24.2039 166.16 23.6739C167.565 30.034 173.007 35.1575 179.504 35.1575C188.458 35.6875 194.428 27.3839 193.375 20.1404Z" fill="url(#paint4_linear_4:742)"/>
<path d="M166.511 21.3764C166.511 22.2597 166.511 23.1431 166.335 24.0264C166.335 24.5564 166.16 24.9098 165.984 25.4398C165.984 25.6165 165.808 25.7931 165.808 26.1465C164.579 29.8566 161.77 32.86 158.258 34.45C157.907 34.6267 157.556 34.8033 157.205 34.8033C155.8 35.3334 154.22 35.51 152.816 35.51C152.113 35.51 151.411 35.51 150.709 35.3334C144.037 34.0967 138.769 27.7365 138.769 20.6697C138.769 21.3764 138.769 21.9064 138.594 22.4364V22.6131V22.2597L138.769 16.9596L132.975 6.18268H155.274L157.907 9.00941L166.686 17.4896L166.511 21.3764Z" fill="white"/>
<path d="M55.8955 16.96L56.0711 22.6135C56.0711 21.9068 55.8955 21.3768 55.8955 20.6701C55.8955 28.4436 49.5747 35.5105 42.0247 35.5105C34.4748 35.5105 28.1539 29.1503 28.1539 21.3768C28.1539 21.7301 28.1539 21.9068 28.1539 22.2602L28.3295 17.49L37.1085 9.00984L40.0934 6.18311H61.6896L55.8955 16.96Z" fill="white"/>
<path d="M83.111 17.3129V22.9664C83.111 22.2597 83.2866 21.7297 83.2866 21.023C83.2866 28.7965 89.6075 35.8634 97.1574 35.8634C104.707 35.8634 111.028 29.5032 111.028 21.7297C111.028 22.0831 111.028 22.2597 111.028 22.6131L110.853 17.843L108.394 9.36275L107.341 6.18268H86.2715L83.111 17.3129Z" fill="white"/>
<defs>
<linearGradient id="paint0_linear_4:742" x1="100.645" y1="151.889" x2="100.645" y2="124.331" gradientUnits="userSpaceOnUse">
<stop stop-color="#F5F8FF"/>
<stop offset="0.9913" stop-color="#D8E0EB"/>
</linearGradient>
<linearGradient id="paint1_linear_4:742" x1="100.645" y1="151.889" x2="100.645" y2="124.331" gradientUnits="userSpaceOnUse">
<stop stop-color="#F5F8FF"/>
<stop offset="0.9913" stop-color="#D8E0EB"/>
</linearGradient>
<linearGradient id="paint2_linear_4:742" x1="100.6" y1="62.6196" x2="100.6" y2="26.2602" gradientUnits="userSpaceOnUse">
<stop offset="0.00289017" stop-color="#606673" stop-opacity="0"/>
<stop offset="1" stop-color="#373C47"/>
</linearGradient>
<linearGradient id="paint3_linear_4:742" x1="97.1875" y1="17.6864" x2="97.1875" y2="6.03282" gradientUnits="userSpaceOnUse">
<stop offset="0.00289017" stop-color="#3F5073" stop-opacity="0"/>
<stop offset="1" stop-color="#283247"/>
</linearGradient>
<linearGradient id="paint4_linear_4:742" x1="0.588381" y1="21.021" x2="193.518" y2="21.021" gradientUnits="userSpaceOnUse">
<stop stop-color="#AF75FF"/>
<stop offset="1" stop-color="#9636F5"/>
</linearGradient>
</defs>
</svg>
