<svg width="69" height="45" viewBox="0 0 69 45" fill="none" xmlns="http://www.w3.org/2000/svg">
<path d="M39.4211 31.3174C41.0171 30.2356 42.2298 28.657 42.8797 26.8156C43.5296 24.9741 43.5821 22.9677 43.0295 21.0933C42.4769 19.219 41.3484 17.5764 39.8113 16.4089C38.2742 15.2413 36.4102 14.6108 34.4952 14.6108C32.5803 14.6108 30.7163 15.2413 29.1792 16.4089C27.6421 17.5764 26.5136 19.219 25.961 21.0933C25.4084 22.9677 25.4609 24.9741 26.1108 26.8156C26.7607 28.657 27.9734 30.2356 29.5693 31.3174C26.8292 32.3476 24.4637 34.2113 22.7911 36.6577C21.1186 39.104 20.2195 42.0155 20.2148 45.0002H22.5933C22.5933 41.7745 23.8468 38.6809 26.078 36.4C28.3091 34.1191 31.3352 32.8377 34.4905 32.8377C37.6459 32.8377 40.672 34.1191 42.9031 36.4C45.1343 38.6809 46.3878 41.7745 46.3878 45.0002H48.7663C48.7623 42.0167 47.8645 39.106 46.1938 36.6598C44.5231 34.2135 42.1595 32.3492 39.4211 31.3174ZM34.4999 30.4062C33.1997 30.4119 31.9272 30.023 30.8434 29.2887C29.7596 28.5544 28.9134 27.5077 28.412 26.2814C27.9106 25.055 27.7765 23.7041 28.0267 22.3998C28.2769 21.0954 28.9003 19.8964 29.8177 18.9545C30.7351 18.0126 31.9053 17.3703 33.1801 17.1089C34.4549 16.8475 35.7769 16.9787 36.9787 17.486C38.1804 17.9934 39.2078 18.8539 39.9308 19.9587C40.6537 21.0635 41.0396 22.3628 41.0396 23.6919C41.0397 25.4677 40.3515 27.1711 39.1259 28.4295C37.9003 29.6878 36.237 30.3986 34.4999 30.4062Z" fill="#710BFF"/>
<path d="M51.3184 25.2602C52.4363 24.5037 53.373 23.4992 54.0586 22.3214C54.7442 21.1436 55.1611 19.8229 55.2782 18.4576C55.3953 17.0923 55.2097 15.7175 54.7351 14.4357C54.2605 13.1539 53.5091 11.9981 52.537 11.0543C51.5649 10.1104 50.397 9.40295 49.1204 8.98447C47.8437 8.56599 46.4912 8.44731 45.1635 8.63725C43.8357 8.8272 42.567 9.32088 41.4518 10.0815C40.3365 10.8422 39.4035 11.8502 38.7222 13.0306C39.4602 13.3341 40.1647 13.7167 40.8239 14.172C41.2439 13.4741 41.7843 12.8598 42.4189 12.3592C43.2432 11.7184 44.2047 11.2872 45.2241 11.1011C46.2435 10.9151 47.2915 10.9795 48.2817 11.2891C49.272 11.5987 50.176 12.1446 50.9192 12.8817C51.6624 13.6189 52.2234 14.5261 52.5561 15.5286C52.8887 16.5311 52.9834 17.6001 52.8322 18.6474C52.6811 19.6946 52.2886 20.6901 51.6869 21.5517C51.0853 22.4133 50.2919 23.1163 49.3721 23.6027C48.4524 24.089 47.4327 24.3448 46.3972 24.3489C46.1861 24.3489 45.975 24.3489 45.7732 24.3154C45.7331 25.1755 45.5978 26.0282 45.3698 26.8572C45.7122 26.8236 46.0453 26.7805 46.3972 26.7805C49.546 26.8006 52.5602 28.0886 54.7863 30.3653C57.0125 32.642 58.2712 35.7239 58.2897 38.9429H60.6729C60.6669 35.9586 59.7672 33.0477 58.0949 30.6016C56.4226 28.1555 54.0577 26.2915 51.3184 25.2602Z" fill="#710BFF"/>
<path d="M22.6027 26.7563C22.9499 26.7563 23.2876 26.7994 23.6254 26.833C23.399 26.0039 23.2652 25.1511 23.2267 24.2912C23.0203 24.2912 22.8138 24.3247 22.6027 24.3247C22.0045 24.324 21.4093 24.2385 20.8341 24.0706C19.9053 23.8049 19.0456 23.3326 18.3164 22.6874C17.5871 22.0422 17.0065 21.2401 16.6162 20.3386C16.2258 19.4371 16.0352 18.4585 16.0582 17.4729C16.0812 16.4872 16.3172 15.519 16.7492 14.6376C17.1812 13.7561 17.7985 12.9832 18.557 12.3743C19.3155 11.7654 20.1963 11.3355 21.1364 11.1155C22.0764 10.8954 23.0525 10.8906 23.9946 11.1015C24.9367 11.3123 25.8215 11.7335 26.5857 12.335C27.2217 12.8354 27.7637 13.4496 28.1854 14.1478C28.844 13.6916 29.5486 13.3089 30.2871 13.0064C29.8671 12.2829 29.3526 11.6214 28.7577 11.0401C27.8562 10.1984 26.7951 9.55513 25.6402 9.15003C24.4854 8.74494 23.2615 8.58669 22.0444 8.68511C20.8272 8.78354 19.6429 9.13653 18.5647 9.7222C17.4865 10.3079 16.5376 11.1137 15.7766 12.0898C15.0157 13.0659 14.459 14.1914 14.1412 15.3964C13.8233 16.6015 13.7509 17.8605 13.9287 19.0954C14.1064 20.3302 14.5304 21.5146 15.1743 22.575C15.8183 23.6354 16.6684 24.5493 17.6721 25.2599C14.932 26.2901 12.5664 28.1538 10.8939 30.6002C9.22141 33.0465 8.3223 35.958 8.31763 38.9427H10.6961C10.7146 35.7228 11.974 32.6402 14.2011 30.3634C16.4283 28.0866 19.4437 26.7991 22.5933 26.7803L22.6027 26.7563Z" fill="#710BFF"/>
<path d="M59.6455 16.7233C60.675 16.0244 61.5511 15.1144 62.2181 14.0509C62.8852 12.9875 63.3286 11.7939 63.5203 10.5459C63.712 9.29784 63.6478 8.02271 63.3317 6.80143C63.0156 5.58015 62.4546 4.43941 61.6842 3.45163C60.9138 2.46385 59.9509 1.65063 58.8567 1.06359C57.7625 0.476548 56.5608 0.128522 55.3279 0.0416103C54.0951 -0.0453017 52.8581 0.130797 51.6954 0.558728C50.5327 0.986658 49.4697 1.65707 48.574 2.52739C47.9806 3.10885 47.4676 3.77039 47.0493 4.49371C47.7874 4.79721 48.4919 5.17983 49.151 5.63514C49.571 4.93717 50.1115 4.32293 50.7461 3.82229C51.4753 3.24312 52.3163 2.8285 53.2136 2.60578C54.111 2.38305 55.0443 2.35727 55.9522 2.53014C56.86 2.703 57.7216 3.07059 58.4804 3.60866C59.2391 4.14674 59.8777 4.84308 60.354 5.65181C60.8303 6.46054 61.1336 7.36328 61.2438 8.30054C61.354 9.2378 61.2686 10.1883 60.9934 11.0894C60.7181 11.9905 60.2591 12.8217 59.6468 13.5283C59.0344 14.2348 58.2825 14.8007 57.4406 15.1886C57.5475 15.7738 57.6024 16.3677 57.6048 16.9631C57.6007 17.5064 57.5537 18.0485 57.4641 18.5841C60.0676 19.2148 62.3873 20.724 64.0488 22.868C65.7103 25.0121 66.6166 27.6659 66.6215 30.4012H69C68.993 27.4177 68.093 24.5079 66.4207 22.0628C64.7484 19.6176 62.3841 17.7543 59.6455 16.7233Z" fill="#CCA7FF"/>
<path d="M11.3906 16.968C11.4012 16.3706 11.4624 15.7753 11.5735 15.1887C10.6435 14.7552 9.82582 14.1048 9.18632 13.2896C8.54682 12.4744 8.10329 11.5172 7.89137 10.495C7.67945 9.47276 7.70504 8.41395 7.9661 7.40366C8.22716 6.39336 8.71639 5.45976 9.3945 4.67787C10.0726 3.89598 10.9207 3.28761 11.8706 2.90164C12.8204 2.51567 13.8456 2.36286 14.8638 2.45551C15.8819 2.54815 16.8646 2.88366 17.7328 3.43507C18.6011 3.98648 19.3307 4.73842 19.8631 5.63045C20.5233 5.17419 21.2295 4.79153 21.9695 4.48902C21.5495 3.76555 21.035 3.104 20.4401 2.5227C19.5448 1.64987 18.4816 0.977125 17.3181 0.547286C16.1545 0.117447 14.9162 -0.0600723 13.6819 0.0260195C12.4476 0.112111 11.2444 0.459931 10.1488 1.04735C9.05313 1.63476 8.08911 2.4489 7.31805 3.43797C6.547 4.42703 5.9858 5.56935 5.67015 6.79223C5.3545 8.01512 5.29133 9.29179 5.48465 10.541C5.67797 11.7902 6.12356 12.9846 6.79304 14.0482C7.46253 15.1117 8.34125 16.0211 9.3733 16.7186C6.63317 17.7487 4.26759 19.6125 2.59509 22.0588C0.922586 24.5052 0.0234701 27.4167 0.0187988 30.4013H2.3973C2.40219 27.666 3.30851 25.0122 4.97 22.8681C6.63149 20.7241 8.95121 19.2149 11.5548 18.5842C11.4575 18.0508 11.4026 17.5104 11.3906 16.968Z" fill="#CCA7FF"/>
<path d="M34.5 2.43167C36.0158 2.43739 37.4825 2.9816 38.649 3.97112C39.8155 4.96064 40.6092 6.33393 40.8943 7.85585C41.5855 7.413 42.343 7.08898 43.1367 6.89667C42.6471 4.93499 41.5323 3.19589 39.9683 1.95385C38.4044 0.71182 36.4804 0.0375977 34.5 0.0375977C32.5196 0.0375977 30.5956 0.71182 29.0317 1.95385C27.4677 3.19589 26.353 4.93499 25.8633 6.89667C26.6568 7.08972 27.4142 7.41369 28.1057 7.85585C28.39 6.33351 29.1835 4.9597 30.3502 3.97003C31.5168 2.98035 32.984 2.43648 34.5 2.43167Z" fill="#CCA7FF"/>
</svg>
