<svg width="22" height="21" viewBox="0 0 22 21" fill="none" xmlns="http://www.w3.org/2000/svg">
<path d="M10.0767 1.71993C10.4183 0.898635 11.5817 0.898636 11.9233 1.71993L13.9395 6.56735C14.0835 6.91358 14.4091 7.15015 14.7829 7.18012L20.0161 7.59966C20.9027 7.67074 21.2623 8.77725 20.5867 9.35592L16.5996 12.7713C16.3148 13.0153 16.1904 13.3981 16.2774 13.7628L17.4956 18.8695C17.702 19.7348 16.7607 20.4186 16.0016 19.955L11.5213 17.2184C11.2012 17.0229 10.7988 17.0229 10.4787 17.2184L5.9984 19.955C5.2393 20.4186 4.29805 19.7348 4.50444 18.8695L5.72257 13.7628C5.80958 13.3981 5.68521 13.0153 5.40042 12.7713L1.41328 9.35592C0.73774 8.77725 1.09727 7.67074 1.98392 7.59966L7.21712 7.18012C7.59091 7.15015 7.91652 6.91358 8.06052 6.56735L10.0767 1.71993Z" stroke="#C8CFD9" stroke-width="1.5"/>
</svg>
