<svg width="32" height="32" viewBox="0 0 32 32" fill="none" xmlns="http://www.w3.org/2000/svg">
<g clip-path="url(#clip0)">
<path d="M32 22.3828C32 18.1091 30.3357 14.0911 27.3137 11.0691C24.2917 8.04706 20.2738 6.38281 16 6.38281C11.7262 6.38281 7.70831 8.04712 4.68625 11.0691C1.66431 14.0911 0 18.1091 0 22.3828V23.3203H12.8135C13.0688 24.0905 13.5867 24.7354 14.2921 25.1519C14.8269 25.4676 15.4141 25.6177 15.9943 25.6177C17.1447 25.6177 18.2668 25.0272 18.8928 23.9669C19.0151 23.7598 19.1129 23.5431 19.1876 23.3203H32V22.3828ZM17.2782 23.0136C16.8622 23.7184 15.9503 23.9534 15.2454 23.5372C14.9039 23.3357 14.6614 23.0132 14.5626 22.6292C14.4636 22.2452 14.5201 21.8458 14.7218 21.5044C14.9234 21.1629 15.2458 20.9204 15.6298 20.8216C15.7533 20.7897 15.8783 20.7741 16.0025 20.7741C16.2646 20.7741 16.523 20.8441 16.7546 20.9808C17.0961 21.1824 17.3386 21.5048 17.4374 21.8888C17.5364 22.2727 17.4799 22.6722 17.2782 23.0136ZM19.2588 21.4453C19.2568 21.4372 19.2552 21.4291 19.2532 21.4211C19.1097 20.8638 18.8319 20.3643 18.4478 19.957L21.1419 15.3936L19.5273 14.4403L16.8331 19.0037C16.2909 18.8642 15.7194 18.8622 15.1621 19.0057C14.2931 19.2296 13.5633 19.7784 13.1071 20.5511C12.94 20.8342 12.8174 21.1351 12.7395 21.4453H1.90575C2.03025 19.5549 2.52925 17.7653 3.32763 16.1489L5.40956 17.3509L6.34706 15.7272L4.26744 14.5266C5.29519 12.9967 6.61375 11.6779 8.14356 10.6502L9.34431 12.7299L10.9681 11.7924L9.76581 9.71006C11.3821 8.91169 13.1721 8.414 15.0624 8.2895V10.6953H16.9374V8.2895C18.8278 8.414 20.6178 8.91169 22.2341 9.71006L21.0318 11.7924L22.6556 12.7299L23.8563 10.6502C25.3861 11.6779 26.7046 12.9967 27.7324 14.5266L25.6528 15.7272L26.5903 17.3509L28.6723 16.1489C29.4706 17.7653 29.9696 19.5549 30.0941 21.4453H19.2588Z" fill="#75CCC0"/>
</g>
<defs>
<clipPath id="clip0">
<rect width="32" height="32" fill="white"/>
</clipPath>
</defs>
</svg>
