<svg width="35" height="35" viewBox="0 0 35 35" fill="none" xmlns="http://www.w3.org/2000/svg">
<path d="M17.7838 23.1757C16.3648 23.1757 14.9459 22.9865 13.527 22.6081C12.2027 22.2297 11.0675 21.7568 10.2162 21.1892L11.9189 17.5C12.6756 18.0676 13.6216 18.446 14.6621 18.7297C15.7027 19.0135 16.7432 19.2027 17.7838 19.2027C19.7702 19.2027 20.6216 18.7297 20.7162 17.7838C20.7162 16.4595 18.4459 15.9865 17.2162 15.7973C15.8919 15.5135 14.7567 15.2297 13.8108 14.8514C12.8648 14.473 12.1081 14 11.4459 13.2433C10.7838 12.4865 10.4054 11.7297 10.4054 10.5C10.4054 9.45947 10.6892 8.41893 11.2567 7.56757C11.8243 6.71622 12.7702 5.95947 13.9054 5.48649C15.1351 5.01352 16.554 4.72974 18.2567 4.72974C19.3919 4.72974 20.6216 4.82433 21.7567 5.10811C22.8919 5.3919 23.9324 5.77028 24.7838 6.24325L23.2702 9.93244C21.5675 8.98649 19.9594 8.60812 18.3513 8.60812C17.3108 8.60812 16.6486 8.7973 16.1756 9.08109C15.7027 9.36487 15.5135 9.74325 15.5135 10.2162C15.5135 10.6892 15.7027 11.1622 16.2702 11.446C16.8378 11.6351 17.6892 11.9189 18.9189 12.2027C20.2432 12.4865 21.3783 12.7703 22.3243 13.1487C23.2702 13.4324 24.027 14 24.6892 14.7568C25.3513 15.4189 25.7297 16.2703 25.7297 17.5C25.7297 18.5405 25.4459 19.4865 24.8783 20.3378C24.3108 21.1892 23.3648 21.8514 22.2297 22.4189C21 22.8919 19.5811 23.1757 17.7838 23.1757Z" fill="#2F3640"/>
<path fill-rule="evenodd" clip-rule="evenodd" d="M17.4999 30.8615C13.643 30.8615 9.47282 30.1275 6.77566 28.7513L8.3792 25.3874C10.057 26.3941 13.8366 27.0777 17.4999 27.0777C21.1633 27.0777 24.9391 26.3941 26.6169 25.3874L28.1458 28.7333C25.5287 30.1677 21.3569 30.8615 17.4999 30.8615Z" fill="#2F3640"/>
</svg>
