<svg width="108" height="35" viewBox="0 0 108 35" fill="none" xmlns="http://www.w3.org/2000/svg">
<path d="M17.7838 23.1757C16.3648 23.1757 14.9459 22.9865 13.527 22.6081C12.2027 22.2297 11.0675 21.7568 10.2162 21.1892L11.9189 17.5C12.6756 18.0676 13.6216 18.446 14.6621 18.7297C15.7027 19.0135 16.7432 19.2027 17.7838 19.2027C19.7702 19.2027 20.6216 18.7297 20.7162 17.7838C20.7162 16.4595 18.4459 15.9865 17.2162 15.7973C15.8919 15.5135 14.7567 15.2297 13.8108 14.8514C12.8648 14.473 12.1081 14 11.4459 13.2433C10.7838 12.4865 10.4054 11.7297 10.4054 10.5C10.4054 9.45947 10.6892 8.41893 11.2567 7.56757C11.8243 6.71622 12.7702 5.95947 13.9054 5.48649C15.1351 5.01352 16.554 4.72974 18.2567 4.72974C19.3919 4.72974 20.6216 4.82433 21.7567 5.10811C22.8919 5.3919 23.9324 5.77028 24.7838 6.24325L23.2702 9.93244C21.5675 8.98649 19.9594 8.60812 18.3513 8.60812C17.3108 8.60812 16.6486 8.7973 16.1756 9.08109C15.7027 9.36487 15.5135 9.74325 15.5135 10.2162C15.5135 10.6892 15.7027 11.1622 16.2702 11.446C16.8378 11.6351 17.6892 11.9189 18.9189 12.2027C20.2432 12.4865 21.3783 12.7703 22.3243 13.1487C23.2702 13.4324 24.027 14 24.6892 14.7568C25.3513 15.4189 25.7297 16.2703 25.7297 17.5C25.7297 18.5405 25.4459 19.4865 24.8783 20.3378C24.3108 21.1892 23.3648 21.8514 22.2297 22.4189C21 22.8919 19.5811 23.1757 17.7838 23.1757Z" fill="white"/>
<path fill-rule="evenodd" clip-rule="evenodd" d="M17.4999 30.8615C13.643 30.8615 9.47282 30.1275 6.77566 28.7513L8.3792 25.3875C10.057 26.3941 13.8366 27.0777 17.4999 27.0777C21.1633 27.0777 24.9391 26.3941 26.6169 25.3875L28.1458 28.7333C25.5287 30.1677 21.3569 30.8615 17.4999 30.8615Z" fill="white"/>
<path d="M37.1 17.5C36.3 17.3 35.6 17 35 16.6L36 14.3C36.5 14.6 37.1 14.9 37.7 15.1C38.4 15.3 39 15.4 39.6 15.4C40.8 15.4 41.4 15.1 41.4 14.5C41.4 14.2 41.2 13.9 40.9 13.8C40.6 13.6 40 13.5 39.2 13.3C38.4 13.1 37.7 12.9 37.1 12.7C36.5 12.5 36.1 12.2 35.7 11.7C35.3 11.2 35.1 10.6 35.1 9.89999C35.1 9.19999 35.3 8.59999 35.7 8.09999C36.1 7.59999 36.6 7.09999 37.4 6.79999C38.1 6.49999 39 6.29999 40.1 6.29999C40.8 6.29999 41.5 6.39999 42.3 6.49999C43 6.69999 43.6 6.89999 44.2 7.19999L43.3 9.49999C42.2 8.89999 41.2 8.59999 40.2 8.59999C39.6 8.59999 39.1 8.69999 38.8 8.89999C38.5 9.09999 38.4 9.29999 38.4 9.59999C38.4 9.89999 38.6 10.1 38.9 10.3C39.2 10.5 39.8 10.6 40.5 10.8C41.3 11 42 11.2 42.6 11.4C43.2 11.6 43.6 11.9 44 12.4C44.4 12.9 44.6 13.5 44.6 14.2C44.6 14.9 44.4 15.5 44 16C43.6 16.5 43.1 17 42.3 17.3C41.6 17.6 40.7 17.8 39.6 17.8C38.9 17.8 38 17.7 37.1 17.5Z" fill="white"/>
<path d="M55.9 15.2V17.6H47V6.5H55.7V8.9H50.1V10.8H55V13.1H50.1V15.1H55.9V15.2Z" fill="white"/>
<path d="M58.5 6.5H61.6V15.1H66.9V17.6H58.5V6.5Z" fill="white"/>
<path d="M69 6.5H72.1V15.1H77.4V17.6H69V6.5Z" fill="white"/>
<path d="M88.3 15.2V17.6H79.4V6.5H88.1V8.9H82.5V10.8H87.4V13.1H82.5V15.1H88.3V15.2Z" fill="white"/>
<path d="M95.6001 14.6H93.9V17.6H90.8V6.5H95.9C96.9 6.5 97.8 6.7 98.5 7C99.2 7.3 99.8001 7.8 100.2 8.4C100.6 9 100.8 9.7 100.8 10.6C100.8 11.4 100.6 12.1 100.2 12.7C99.8001 13.3 99.3001 13.8 98.6001 14.1L101 17.6H97.6001L95.6001 14.6ZM97.1001 9.4C96.8001 9.1 96.3001 9 95.6001 9H93.9V12.2H95.6001C96.2001 12.2 96.7001 12.1 97.1001 11.8C97.4001 11.5 97.6001 11.1 97.6001 10.6C97.6001 10.1 97.5001 9.7 97.1001 9.4Z" fill="white"/>
<path d="M40 28.3V29.1H35.3V22.6H39.9V23.4H36.2001V25.4H39.5V26.2H36.2001V28.3H40Z" fill="white"/>
<path d="M51.5 29.2L49.5 26.5L47.6 29.2H46.5L48.9 25.9L46.6 22.7H47.7L49.5 25.2L51.3 22.7H52.3L50 25.8L52.5 29.2H51.5Z" fill="white"/>
<path d="M63.9 23.3C64.4 23.7 64.6 24.3 64.6 25C64.6 25.7 64.4 26.3 63.9 26.7C63.4 27.1 62.8 27.3 61.9 27.3H60.3V29.3H59.4V22.8H61.9C62.8 22.7 63.5 22.9 63.9 23.3ZM63.3 26C63.6 25.7 63.8 25.4 63.8 24.9C63.8 24.4 63.6 24.1 63.3 23.8C63 23.5 62.5 23.4 62 23.4H60.4V26.3H62C62.5 26.4 63 26.2 63.3 26Z" fill="white"/>
<path d="M76.6 28.3V29.1H71.9V22.6H76.5V23.4H72.8V25.4H76.1V26.2H72.8V28.3H76.6Z" fill="white"/>
<path d="M88.5001 29.2L87.1001 27.2C86.9001 27.2 86.8001 27.2 86.7001 27.2H85.1001V29.2H84.2001V22.7H86.7001C87.5001 22.7 88.2001 22.9 88.7001 23.3C89.2001 23.7 89.4001 24.3 89.4001 25C89.4001 25.5 89.3001 25.9 89.0001 26.3C88.8001 26.7 88.4001 26.9 87.9001 27.1L89.4001 29.3L88.5001 29.2ZM88.0001 26C88.3001 25.7 88.5001 25.4 88.5001 24.9C88.5001 24.4 88.3001 24.1 88.0001 23.8C87.7001 23.5 87.2001 23.4 86.7001 23.4H85.1001V26.3H86.7001C87.1001 26.4 87.6001 26.3 88.0001 26Z" fill="white"/>
<path d="M98 23.5H95.8V22.7H101.2V23.5H99V29.2H98.1001L98 23.5Z" fill="white"/>
</svg>
