<svg viewBox="0 0 16 16" fill="none" xmlns="http://www.w3.org/2000/svg">
<path fill-rule="evenodd" clip-rule="evenodd" d="M8.0001 14.4C9.69748 14.4 11.3253 13.7257 12.5256 12.5255C13.7258 11.3252 14.4001 9.69738 14.4001 8C14.4001 6.30261 13.7258 4.67475 12.5256 3.47452C11.3253 2.27428 9.69748 1.6 8.0001 1.6C6.30271 1.6 4.67485 2.27428 3.47461 3.47452C2.27438 4.67475 1.6001 6.30261 1.6001 8C1.6001 9.69738 2.27438 11.3252 3.47461 12.5255C4.67485 13.7257 6.30271 14.4 8.0001 14.4ZM10.9657 7.4344L8.5657 5.0344C8.41567 4.88442 8.21223 4.80017 8.0001 4.80017C7.78797 4.80017 7.58452 4.88442 7.4345 5.0344L5.0345 7.4344C4.88877 7.58528 4.80814 7.78736 4.80996 7.99712C4.81178 8.20688 4.89592 8.40753 5.04424 8.55585C5.19257 8.70418 5.39322 8.78831 5.60298 8.79014C5.81273 8.79196 6.01482 8.71132 6.1657 8.5656L7.2001 7.5312V10.4C7.2001 10.6122 7.28438 10.8157 7.43441 10.9657C7.58444 11.1157 7.78792 11.2 8.0001 11.2C8.21227 11.2 8.41575 11.1157 8.56578 10.9657C8.71581 10.8157 8.8001 10.6122 8.8001 10.4V7.5312L9.8345 8.5656C9.98538 8.71132 10.1875 8.79196 10.3972 8.79014C10.607 8.78831 10.8076 8.70418 10.956 8.55585C11.1043 8.40753 11.1884 8.20688 11.1902 7.99712C11.1921 7.78736 11.1114 7.58528 10.9657 7.4344Z" fill="currentColor"/>
</svg>
