<svg viewBox="0 0 16 16" fill="none" xmlns="http://www.w3.org/2000/svg">
<path fill-rule="evenodd" clip-rule="evenodd" d="M7.99996 1.6C7.15126 1.6 6.33733 1.93714 5.73722 2.53726C5.1371 3.13737 4.79996 3.95131 4.79996 4.8V5.6H3.99996C3.80301 5.59998 3.61298 5.67262 3.46626 5.80399C3.31953 5.93537 3.22642 6.11625 3.20476 6.312L2.40476 13.512C2.39238 13.6238 2.40373 13.737 2.43805 13.8441C2.47237 13.9512 2.52889 14.0499 2.60393 14.1337C2.67898 14.2175 2.77084 14.2845 2.87355 14.3304C2.97625 14.3763 3.08747 14.4 3.19996 14.4H12.8C12.9124 14.4 13.0237 14.3763 13.1264 14.3304C13.2291 14.2845 13.3209 14.2175 13.396 14.1337C13.471 14.0499 13.5275 13.9512 13.5619 13.8441C13.5962 13.737 13.6075 13.6238 13.5952 13.512L12.7952 6.312C12.7735 6.11625 12.6804 5.93537 12.5337 5.80399C12.3869 5.67262 12.1969 5.59998 12 5.6H11.2V4.8C11.2 3.95131 10.8628 3.13737 10.2627 2.53726C9.66258 1.93714 8.84865 1.6 7.99996 1.6ZM9.59996 5.6V4.8C9.59996 4.37565 9.43139 3.96869 9.13133 3.66863C8.83127 3.36857 8.4243 3.2 7.99996 3.2C7.57561 3.2 7.16864 3.36857 6.86859 3.66863C6.56853 3.96869 6.39996 4.37565 6.39996 4.8V5.6H9.59996ZM4.79996 8C4.79996 7.78783 4.88424 7.58434 5.03427 7.43431C5.1843 7.28428 5.38778 7.2 5.59996 7.2C5.81213 7.2 6.01561 7.28428 6.16564 7.43431C6.31567 7.58434 6.39996 7.78783 6.39996 8C6.39996 8.21217 6.31567 8.41565 6.16564 8.56568C6.01561 8.71571 5.81213 8.8 5.59996 8.8C5.38778 8.8 5.1843 8.71571 5.03427 8.56568C4.88424 8.41565 4.79996 8.21217 4.79996 8ZM10.4 7.2C10.1878 7.2 9.9843 7.28428 9.83427 7.43431C9.68424 7.58434 9.59996 7.78783 9.59996 8C9.59996 8.21217 9.68424 8.41565 9.83427 8.56568C9.9843 8.71571 10.1878 8.8 10.4 8.8C10.6121 8.8 10.8156 8.71571 10.9656 8.56568C11.1157 8.41565 11.2 8.21217 11.2 8C11.2 7.78783 11.1157 7.58434 10.9656 7.43431C10.8156 7.28428 10.6121 7.2 10.4 7.2Z" fill="currentColor"/>
</svg>
