<svg viewBox="0 0 12 14" fill="none" xmlns="http://www.w3.org/2000/svg">
<path d="M6.00022 0.599609C4.72718 0.599609 3.50628 1.10532 2.60611 2.0055C1.70593 2.90567 1.20022 4.12657 1.20022 5.39961V8.26841L0.63462 8.83401C0.522773 8.94589 0.446607 9.08842 0.415753 9.24358C0.384899 9.39875 0.400742 9.55957 0.461278 9.70573C0.521814 9.85189 0.624325 9.97682 0.755853 10.0647C0.887381 10.1526 1.04202 10.1996 1.20022 10.1996H10.8002C10.9584 10.1996 11.1131 10.1526 11.2446 10.0647C11.3761 9.97682 11.4786 9.85189 11.5392 9.70573C11.5997 9.55957 11.6155 9.39875 11.5847 9.24358C11.5538 9.08842 11.4777 8.94589 11.3658 8.83401L10.8002 8.26841V5.39961C10.8002 4.12657 10.2945 2.90567 9.39433 2.0055C8.49416 1.10532 7.27326 0.599609 6.00022 0.599609ZM6.00022 13.3996C5.3637 13.3996 4.75325 13.1468 4.30316 12.6967C3.85308 12.2466 3.60022 11.6361 3.60022 10.9996H8.40022C8.40022 11.6361 8.14736 12.2466 7.69728 12.6967C7.24719 13.1468 6.63674 13.3996 6.00022 13.3996Z" fill="currentColor"/>
</svg>
