<svg width="17" height="16" viewBox="0 0 17 16" fill="none" xmlns="http://www.w3.org/2000/svg">
<path d="M11.4697 4.96999C11.6105 4.83588 11.798 4.76173 11.9925 4.76321C12.187 4.76468 12.3733 4.84165 12.5121 4.97787C12.6509 5.1141 12.7314 5.29893 12.7366 5.49336C12.7417 5.68779 12.6711 5.87661 12.5397 6.01999L8.54967 11.01C8.48106 11.0839 8.39825 11.1432 8.3062 11.1844C8.21415 11.2255 8.11474 11.2477 8.01392 11.2496C7.9131 11.2514 7.81294 11.2329 7.71943 11.1952C7.62591 11.1575 7.54097 11.1013 7.46967 11.03L4.82367 8.38399C4.74998 8.31532 4.69088 8.23252 4.64989 8.14052C4.6089 8.04853 4.58685 7.94921 4.58508 7.84851C4.5833 7.74781 4.60183 7.64778 4.63955 7.55439C4.67727 7.461 4.73341 7.37617 4.80463 7.30495C4.87585 7.23373 4.96068 7.17758 5.05407 7.13986C5.14746 7.10214 5.24749 7.08362 5.34819 7.08539C5.44889 7.08717 5.54821 7.10921 5.64021 7.15021C5.73221 7.1912 5.81501 7.2503 5.88367 7.32399L7.97767 9.41699L11.4507 4.99199C11.4569 4.98429 11.4636 4.97694 11.4707 4.96999H11.4697Z" fill="#710BFF"/>
</svg>
