<svg viewBox="0 0 16 16" fill="none" xmlns="http://www.w3.org/2000/svg">
<path fill-rule="evenodd" clip-rule="evenodd" d="M4.8001 1.6C4.58792 1.6 4.38444 1.68428 4.23441 1.83431C4.08438 1.98434 4.0001 2.18783 4.0001 2.4V3.2H3.2001C2.77575 3.2 2.36878 3.36857 2.06873 3.66863C1.76867 3.96869 1.6001 4.37565 1.6001 4.8V12.8C1.6001 13.2243 1.76867 13.6313 2.06873 13.9314C2.36878 14.2314 2.77575 14.4 3.2001 14.4H12.8001C13.2244 14.4 13.6314 14.2314 13.9315 13.9314C14.2315 13.6313 14.4001 13.2243 14.4001 12.8V4.8C14.4001 4.37565 14.2315 3.96869 13.9315 3.66863C13.6314 3.36857 13.2244 3.2 12.8001 3.2H12.0001V2.4C12.0001 2.18783 11.9158 1.98434 11.7658 1.83431C11.6158 1.68428 11.4123 1.6 11.2001 1.6C10.9879 1.6 10.7844 1.68428 10.6344 1.83431C10.4844 1.98434 10.4001 2.18783 10.4001 2.4V3.2H5.6001V2.4C5.6001 2.18783 5.51581 1.98434 5.36578 1.83431C5.21575 1.68428 5.01227 1.6 4.8001 1.6ZM4.8001 5.6C4.58792 5.6 4.38444 5.68428 4.23441 5.83431C4.08438 5.98434 4.0001 6.18783 4.0001 6.4C4.0001 6.61217 4.08438 6.81565 4.23441 6.96568C4.38444 7.11571 4.58792 7.2 4.8001 7.2H11.2001C11.4123 7.2 11.6158 7.11571 11.7658 6.96568C11.9158 6.81565 12.0001 6.61217 12.0001 6.4C12.0001 6.18783 11.9158 5.98434 11.7658 5.83431C11.6158 5.68428 11.4123 5.6 11.2001 5.6H4.8001Z" fill="currentColor"/>
</svg>
