<svg viewBox="0 0 16 16" fill="none" xmlns="http://www.w3.org/2000/svg">
<path d="M2.4001 0.799999C2.18792 0.799999 1.98444 0.884285 1.83441 1.03431C1.68438 1.18434 1.6001 1.38783 1.6001 1.6C1.6001 1.81217 1.68438 2.01566 1.83441 2.16568C1.98444 2.31571 2.18792 2.4 2.4001 2.4H3.3761L3.6201 3.3776C3.62252 3.38886 3.62519 3.40006 3.6281 3.4112L4.7145 7.7552L4.0001 8.4688C2.9921 9.4768 3.7057 11.2 5.1313 11.2H12.0001C12.2123 11.2 12.4158 11.1157 12.5658 10.9657C12.7158 10.8157 12.8001 10.6122 12.8001 10.4C12.8001 10.1878 12.7158 9.98434 12.5658 9.83431C12.4158 9.68428 12.2123 9.6 12.0001 9.6H5.1313L5.9313 8.8H11.2001C11.3486 8.79992 11.4942 8.75849 11.6205 8.68036C11.7468 8.60222 11.8489 8.49046 11.9153 8.3576L14.3153 3.5576C14.3762 3.43566 14.405 3.30018 14.3989 3.164C14.3927 3.02783 14.3519 2.89548 14.2803 2.77951C14.2086 2.66355 14.1085 2.56781 13.9895 2.50139C13.8704 2.43497 13.7364 2.40007 13.6001 2.4H5.0241L4.7761 1.4056C4.73276 1.2326 4.63286 1.07905 4.49226 0.969324C4.35167 0.859601 4.17844 0.800004 4.0001 0.799999H2.4001ZM12.8001 13.2C12.8001 13.5183 12.6737 13.8235 12.4486 14.0485C12.2236 14.2736 11.9184 14.4 11.6001 14.4C11.2818 14.4 10.9766 14.2736 10.7516 14.0485C10.5265 13.8235 10.4001 13.5183 10.4001 13.2C10.4001 12.8817 10.5265 12.5765 10.7516 12.3515C10.9766 12.1264 11.2818 12 11.6001 12C11.9184 12 12.2236 12.1264 12.4486 12.3515C12.6737 12.5765 12.8001 12.8817 12.8001 13.2ZM5.2001 14.4C5.51836 14.4 5.82358 14.2736 6.04863 14.0485C6.27367 13.8235 6.4001 13.5183 6.4001 13.2C6.4001 12.8817 6.27367 12.5765 6.04863 12.3515C5.82358 12.1264 5.51836 12 5.2001 12C4.88184 12 4.57661 12.1264 4.35157 12.3515C4.12653 12.5765 4.0001 12.8817 4.0001 13.2C4.0001 13.5183 4.12653 13.8235 4.35157 14.0485C4.57661 14.2736 4.88184 14.4 5.2001 14.4Z" fill="currentColor"/>
</svg>
