<svg viewBox="0 0 16 16" fill="none" xmlns="http://www.w3.org/2000/svg">
<path fill-rule="evenodd" clip-rule="evenodd" d="M6.60548 2.4792C7.21748 1.3912 8.78308 1.3912 9.39428 2.4792L13.8583 10.4152C14.4583 11.4824 13.6879 12.7992 12.4647 12.7992H3.53588C2.31188 12.7992 1.54148 11.4824 2.14148 10.4152L6.60548 2.4792ZM8.79988 10.4C8.79988 10.6122 8.71559 10.8157 8.56556 10.9657C8.41553 11.1157 8.21205 11.2 7.99988 11.2C7.78771 11.2 7.58422 11.1157 7.43419 10.9657C7.28416 10.8157 7.19988 10.6122 7.19988 10.4C7.19988 10.1878 7.28416 9.98434 7.43419 9.83431C7.58422 9.68428 7.78771 9.6 7.99988 9.6C8.21205 9.6 8.41553 9.68428 8.56556 9.83431C8.71559 9.98434 8.79988 10.1878 8.79988 10.4ZM7.99988 4C7.78771 4 7.58422 4.08428 7.43419 4.23431C7.28416 4.38434 7.19988 4.58782 7.19988 4.8V7.2C7.19988 7.41217 7.28416 7.61565 7.43419 7.76568C7.58422 7.91571 7.78771 8 7.99988 8C8.21205 8 8.41553 7.91571 8.56556 7.76568C8.71559 7.61565 8.79988 7.41217 8.79988 7.2V4.8C8.79988 4.58782 8.71559 4.38434 8.56556 4.23431C8.41553 4.08428 8.21205 4 7.99988 4Z" fill="currentColor"/>
</svg>
