<svg viewBox="0 0 16 16" fill="none" xmlns="http://www.w3.org/2000/svg">
<path fill-rule="evenodd" clip-rule="evenodd" d="M5.33767 1.5288C5.28271 1.32384 5.14859 1.14911 4.96481 1.04304C4.78102 0.936967 4.56262 0.908249 4.35767 0.963202C4.15271 1.01816 3.97797 1.15228 3.8719 1.33606C3.76583 1.51985 3.73711 1.73824 3.79207 1.9432L3.99927 2.716C4.05422 2.92096 4.18834 3.0957 4.37213 3.20177C4.55591 3.30784 4.77431 3.33656 4.97927 3.2816C5.18423 3.22665 5.35896 3.09253 5.46503 2.90874C5.5711 2.72496 5.59982 2.50656 5.54487 2.3016L5.33687 1.5288H5.33767ZM1.94327 3.792C1.8416 3.76429 1.73547 3.75693 1.63096 3.77035C1.52644 3.78378 1.42561 3.81771 1.33425 3.87022C1.24289 3.92272 1.1628 3.99275 1.09859 4.0763C1.03437 4.15984 0.987292 4.25525 0.960053 4.35704C0.932814 4.45883 0.925953 4.56499 0.939862 4.66944C0.953772 4.77389 0.988179 4.87456 1.04111 4.96568C1.09404 5.05679 1.16444 5.13655 1.24828 5.20038C1.33213 5.2642 1.42775 5.31084 1.52967 5.3376L2.30247 5.5448C2.50706 5.59853 2.7246 5.56904 2.9075 5.46279C3.09041 5.35654 3.22379 5.18218 3.27847 4.97784C3.33315 4.7735 3.30468 4.55583 3.19928 4.37243C3.09389 4.18903 2.92015 4.05484 2.71607 3.9992L1.94327 3.7912V3.792ZM8.99447 3.3368C9.06874 3.26247 9.12765 3.17424 9.16783 3.07715C9.208 2.98006 9.22867 2.876 9.22863 2.77092C9.22859 2.66584 9.20786 2.5618 9.16761 2.46473C9.12737 2.36767 9.06839 2.27948 8.99407 2.2052C8.91974 2.13093 8.83151 2.07202 8.73441 2.03184C8.63732 1.99166 8.53326 1.971 8.42818 1.97104C8.3231 1.97108 8.21906 1.99181 8.122 2.03206C8.02493 2.0723 7.93674 2.13127 7.86247 2.2056L7.29687 2.7712C7.22254 2.84553 7.16358 2.93377 7.12335 3.03089C7.08313 3.128 7.06242 3.23209 7.06242 3.3372C7.06242 3.44232 7.08313 3.5464 7.12335 3.64352C7.16358 3.74063 7.22254 3.82887 7.29687 3.9032C7.37119 3.97753 7.45943 4.03649 7.55655 4.07672C7.65366 4.11694 7.75775 4.13765 7.86287 4.13765C7.96798 4.13765 8.07207 4.11694 8.16918 4.07672C8.2663 4.03649 8.35454 3.97753 8.42887 3.9032L8.99447 3.3368ZM3.33767 8.9944L3.90327 8.4288C4.05348 8.2788 4.13796 8.07526 4.13811 7.86297C4.13826 7.65068 4.05407 7.44702 3.90407 7.2968C3.75406 7.14658 3.55052 7.06211 3.33823 7.06196C3.12594 7.06181 2.92228 7.146 2.77207 7.296L2.20567 7.8616C2.05555 8.01171 1.97122 8.21531 1.97122 8.4276C1.97122 8.63989 2.05555 8.84349 2.20567 8.9936C2.35578 9.14371 2.55937 9.22805 2.77167 9.22805C2.98396 9.22805 3.18755 9.14371 3.33767 8.9936V8.9944ZM5.89767 4.8576C5.75228 4.79941 5.59302 4.78516 5.43962 4.81663C5.28621 4.8481 5.14542 4.9239 5.03469 5.03463C4.92396 5.14536 4.84816 5.28615 4.81669 5.43955C4.78523 5.59296 4.79947 5.75222 4.85767 5.8976L8.05767 13.8976C8.115 14.0408 8.2125 14.1643 8.33843 14.2534C8.46436 14.3424 8.61335 14.3932 8.76745 14.3995C8.92155 14.4059 9.07421 14.3675 9.20702 14.2891C9.33984 14.2107 9.44716 14.0956 9.51607 13.9576L10.6201 11.7504L13.0345 14.1664C13.1846 14.3164 13.3881 14.4006 13.6003 14.4006C13.8126 14.4005 14.0161 14.3161 14.1661 14.166C14.3161 14.0159 14.4003 13.8123 14.4002 13.6001C14.4002 13.3879 14.3158 13.1844 14.1657 13.0344L11.7505 10.6184L13.9585 9.5152C14.0962 9.44613 14.211 9.33876 14.2892 9.20599C14.3674 9.07322 14.4056 8.92069 14.3991 8.76675C14.3927 8.61281 14.342 8.464 14.253 8.3382C14.1641 8.2124 14.0407 8.11496 13.8977 8.0576L5.89767 4.8576Z" fill="currentColor"/>
</svg>
