<svg width="14" height="13" viewBox="0 0 14 13" fill="none" xmlns="http://www.w3.org/2000/svg">
<path fill-rule="evenodd" clip-rule="evenodd" d="M13.3996 0.799573C13.3995 0.66326 13.3646 0.529226 13.2982 0.41019C13.2318 0.291154 13.1361 0.191064 13.0201 0.119417C12.9041 0.0477706 12.7718 0.00694352 12.6356 0.000810302C12.4994 -0.00532292 12.3639 0.0234411 12.242 0.084373L6.01001 3.19957L2.99961 3.19957C2.36309 3.19957 1.75264 3.45243 1.30255 3.90252C0.852466 4.3526 0.599609 4.96305 0.599609 5.59957C0.599609 6.23609 0.852466 6.84654 1.30255 7.29663C1.75264 7.74672 2.36309 7.99957 2.99961 7.99957H3.22361L4.64041 12.2524C4.69349 12.4117 4.79538 12.5504 4.93165 12.6486C5.06791 12.7468 5.23164 12.7996 5.39961 12.7996H6.19961C6.41178 12.7996 6.61527 12.7153 6.76529 12.5653C6.91532 12.4152 6.99961 12.2117 6.99961 11.9996V8.49397L12.242 11.1148C12.3639 11.1757 12.4994 11.2045 12.6356 11.1983C12.7718 11.1922 12.9041 11.1514 13.0201 11.0797C13.1361 11.0081 13.2318 10.908 13.2982 10.789C13.3646 10.6699 13.3995 10.5359 13.3996 10.3996V0.799573Z" fill="white"/>
</svg>
