<svg viewBox="0 0 16 16" fill="none" xmlns="http://www.w3.org/2000/svg">
<path fill-rule="evenodd" clip-rule="evenodd" d="M14.4001 4V10.4C14.4001 10.8243 14.2315 11.2313 13.9315 11.5314C13.6314 11.8314 13.2244 12 12.8001 12H8.8001L4.8001 15.2V12H3.2001C2.77575 12 2.36878 11.8314 2.06873 11.5314C1.76867 11.2313 1.6001 10.8243 1.6001 10.4V4C1.6001 3.57566 1.76867 3.16869 2.06873 2.86863C2.36878 2.56857 2.77575 2.4 3.2001 2.4H12.8001C13.2244 2.4 13.6314 2.56857 13.9315 2.86863C14.2315 3.16869 14.4001 3.57566 14.4001 4ZM5.6001 6.4H4.0001V8H5.6001V6.4ZM7.2001 6.4H8.8001V8H7.2001V6.4ZM12.0001 6.4H10.4001V8H12.0001V6.4Z" fill="currentColor"/>
</svg>
