<svg viewBox="0 0 16 16">
<path d="M8.00002 1.90477C4.63901 1.90477 1.90479 4.63899 1.90479 8C1.90479 11.361 4.63901 14.0952 8.00002 14.0952C11.361 14.0952 14.0953 11.361 14.0953 8C14.0953 4.63899 11.361 1.90477 8.00002 1.90477ZM11.55 7.00648L10.9979 10.2232C10.9664 10.4061 10.8079 10.5397 10.6225 10.5397H5.37755C5.19215 10.5397 5.03367 10.4061 5.00218 10.2232L4.45005 7.00648C4.42567 6.86578 4.48256 6.72305 4.59685 6.63721C4.71164 6.55086 4.86352 6.53715 4.99253 6.59962L6.4625 7.31531L7.66732 5.14794C7.80142 4.90565 8.19913 4.90565 8.33323 5.14794L9.53805 7.31531L11.008 6.59962C11.1365 6.53715 11.2889 6.55086 11.4037 6.63721C11.5175 6.72305 11.5744 6.86578 11.55 7.00648Z" fill="currentColor"/>
</svg>
