<svg viewBox="0 0 16 16" fill="none" xmlns="http://www.w3.org/2000/svg">
<path d="M6.7463 5.9344C6.8703 5.852 7.0231 5.7776 7.1999 5.7208V7.0792C7.03968 7.02898 6.88707 6.95712 6.7463 6.8656C6.4559 6.672 6.3999 6.4912 6.3999 6.4C6.3999 6.3088 6.4559 6.128 6.7463 5.9344ZM8.7999 10.2792V8.9208C8.9759 8.9776 9.1295 9.052 9.2535 9.1344C9.5447 9.3288 9.5999 9.5088 9.5999 9.6C9.5999 9.6912 9.5439 9.872 9.2535 10.0656C9.11273 10.1571 8.96012 10.229 8.7999 10.2792Z" fill="currentColor"/>
<path fill-rule="evenodd" clip-rule="evenodd" d="M8.0001 14.4C9.69748 14.4 11.3253 13.7257 12.5256 12.5255C13.7258 11.3252 14.4001 9.69738 14.4001 8C14.4001 6.30261 13.7258 4.67475 12.5256 3.47452C11.3253 2.27428 9.69748 1.6 8.0001 1.6C6.30271 1.6 4.67485 2.27428 3.47461 3.47452C2.27438 4.67475 1.6001 6.30261 1.6001 8C1.6001 9.69738 2.27438 11.3252 3.47461 12.5255C4.67485 13.7257 6.30271 14.4 8.0001 14.4ZM8.8001 4C8.8001 3.78783 8.71581 3.58434 8.56578 3.43431C8.41575 3.28428 8.21227 3.2 8.0001 3.2C7.78792 3.2 7.58444 3.28428 7.43441 3.43431C7.28438 3.58434 7.2001 3.78783 7.2001 4V4.0736C6.72224 4.15866 6.2663 4.33875 5.8593 4.6032C5.2817 4.9872 4.8001 5.6072 4.8001 6.4C4.8001 7.192 5.2817 7.812 5.8593 8.1968C6.2433 8.4528 6.7025 8.6328 7.2001 8.7264V10.2792C6.8873 10.1776 6.6561 10.0256 6.5257 9.876C6.45802 9.79295 6.37435 9.72434 6.27965 9.67424C6.18496 9.62414 6.08116 9.59357 5.97443 9.58434C5.86769 9.57512 5.76019 9.58743 5.6583 9.62053C5.55641 9.65364 5.46221 9.70688 5.38129 9.77709C5.30037 9.84729 5.23437 9.93303 5.18721 10.0292C5.14005 10.1254 5.1127 10.2301 5.10677 10.3371C5.10083 10.4441 5.11645 10.5511 5.15268 10.6519C5.18892 10.7528 5.24503 10.8453 5.3177 10.924C5.7673 11.4432 6.4481 11.7848 7.2001 11.9264V12C7.2001 12.2122 7.28438 12.4157 7.43441 12.5657C7.58444 12.7157 7.78792 12.8 8.0001 12.8C8.21227 12.8 8.41575 12.7157 8.56578 12.5657C8.71581 12.4157 8.8001 12.2122 8.8001 12V11.9264C9.27796 11.8413 9.73389 11.6612 10.1409 11.3968C10.7185 11.0128 11.2001 10.3928 11.2001 9.6C11.2001 8.808 10.7185 8.188 10.1409 7.8032C9.73389 7.53875 9.27796 7.35866 8.8001 7.2736V5.7208C9.1129 5.8224 9.3441 5.9744 9.4745 6.124C9.54281 6.20505 9.62654 6.27171 9.72084 6.32013C9.81514 6.36854 9.91811 6.39772 10.0238 6.40599C10.1295 6.41427 10.2357 6.40145 10.3364 6.3683C10.4371 6.33515 10.5302 6.28233 10.6103 6.21289C10.6904 6.14346 10.7558 6.0588 10.8029 5.96384C10.85 5.86887 10.8778 5.7655 10.8846 5.65972C10.8914 5.55394 10.8771 5.44787 10.8425 5.34766C10.808 5.24745 10.7538 5.15511 10.6833 5.076C10.2329 4.5568 9.5529 4.2152 8.8001 4.0736V4Z" fill="currentColor"/>
</svg>
