<svg viewBox="0 0 16 16" fill="none" xmlns="http://www.w3.org/2000/svg">
<path d="M7.9999 4.8C7.57556 4.8 7.16859 4.63143 6.86853 4.33137C6.56847 4.03131 6.3999 3.62434 6.3999 3.2C6.3999 2.77565 6.56847 2.36869 6.86853 2.06863C7.16859 1.76857 7.57556 1.6 7.9999 1.6C8.42425 1.6 8.83121 1.76857 9.13127 2.06863C9.43133 2.36869 9.5999 2.77565 9.5999 3.2C9.5999 3.62434 9.43133 4.03131 9.13127 4.33137C8.83121 4.63143 8.42425 4.8 7.9999 4.8ZM7.9999 9.6C7.57556 9.6 7.16859 9.43143 6.86853 9.13137C6.56847 8.83131 6.3999 8.42434 6.3999 8C6.3999 7.57565 6.56847 7.16869 6.86853 6.86863C7.16859 6.56857 7.57556 6.4 7.9999 6.4C8.42425 6.4 8.83121 6.56857 9.13127 6.86863C9.43133 7.16869 9.5999 7.57565 9.5999 8C9.5999 8.42434 9.43133 8.83131 9.13127 9.13137C8.83121 9.43143 8.42425 9.6 7.9999 9.6ZM7.9999 14.4C7.57556 14.4 7.16859 14.2314 6.86853 13.9314C6.56847 13.6313 6.3999 13.2243 6.3999 12.8C6.3999 12.3757 6.56847 11.9687 6.86853 11.6686C7.16859 11.3686 7.57556 11.2 7.9999 11.2C8.42425 11.2 8.83121 11.3686 9.13127 11.6686C9.43133 11.9687 9.5999 12.3757 9.5999 12.8C9.5999 13.2243 9.43133 13.6313 9.13127 13.9314C8.83121 14.2314 8.42425 14.4 7.9999 14.4Z" fill="#7E8793"/>
</svg>
