<svg viewBox="0 0 16 16" fill="none" xmlns="http://www.w3.org/2000/svg">
<path fill-rule="evenodd" clip-rule="evenodd" d="M2.3999 4C2.3999 3.78783 2.48419 3.58434 2.63422 3.43432C2.78425 3.28429 2.98773 3.2 3.1999 3.2H12.7999C13.0121 3.2 13.2156 3.28429 13.3656 3.43432C13.5156 3.58434 13.5999 3.78783 13.5999 4C13.5999 4.21217 13.5156 4.41566 13.3656 4.56569C13.2156 4.71572 13.0121 4.8 12.7999 4.8H3.1999C2.98773 4.8 2.78425 4.71572 2.63422 4.56569C2.48419 4.41566 2.3999 4.21217 2.3999 4ZM2.3999 8C2.3999 7.78783 2.48419 7.58434 2.63422 7.43432C2.78425 7.28429 2.98773 7.2 3.1999 7.2H12.7999C13.0121 7.2 13.2156 7.28429 13.3656 7.43432C13.5156 7.58434 13.5999 7.78783 13.5999 8C13.5999 8.21217 13.5156 8.41566 13.3656 8.56569C13.2156 8.71572 13.0121 8.8 12.7999 8.8H3.1999C2.98773 8.8 2.78425 8.71572 2.63422 8.56569C2.48419 8.41566 2.3999 8.21217 2.3999 8ZM2.3999 12C2.3999 11.7878 2.48419 11.5843 2.63422 11.4343C2.78425 11.2843 2.98773 11.2 3.1999 11.2H12.7999C13.0121 11.2 13.2156 11.2843 13.3656 11.4343C13.5156 11.5843 13.5999 11.7878 13.5999 12C13.5999 12.2122 13.5156 12.4157 13.3656 12.5657C13.2156 12.7157 13.0121 12.8 12.7999 12.8H3.1999C2.98773 12.8 2.78425 12.7157 2.63422 12.5657C2.48419 12.4157 2.3999 12.2122 2.3999 12Z" fill="currentColor"/>
</svg>
