<svg width="12" height="12" viewBox="0 0 12 12" fill="none" xmlns="http://www.w3.org/2000/svg">
<path d="M8.86919 0.868832C9.01679 0.716016 9.19334 0.594124 9.38854 0.51027C9.58375 0.426415 9.7937 0.382278 10.0061 0.380432C10.2186 0.378585 10.4293 0.419068 10.6259 0.499518C10.8226 0.579967 11.0012 0.698772 11.1514 0.849C11.3017 0.999228 11.4205 1.17787 11.5009 1.37451C11.5814 1.57114 11.6218 1.78183 11.62 1.99427C11.6181 2.20672 11.574 2.41667 11.4902 2.61188C11.4063 2.80709 11.2844 2.98364 11.1316 3.13123L10.4972 3.76563L8.23479 1.50323L8.86919 0.868832ZM7.10359 2.63443L0.400391 9.33763V11.6H2.66279L9.36679 4.89683L7.10279 2.63443H7.10359Z" fill="white"/>
</svg>
