<svg viewBox="0 0 16 16" fill="none" xmlns="http://www.w3.org/2000/svg">
<path d="M7.9999 9.6C8.42425 9.6 8.83121 9.43143 9.13127 9.13137C9.43133 8.83131 9.5999 8.42435 9.5999 8C9.5999 7.57566 9.43133 7.16869 9.13127 6.86863C8.83121 6.56857 8.42425 6.4 7.9999 6.4C7.57556 6.4 7.16859 6.56857 6.86853 6.86863C6.56847 7.16869 6.3999 7.57566 6.3999 8C6.3999 8.42435 6.56847 8.83131 6.86853 9.13137C7.16859 9.43143 7.57556 9.6 7.9999 9.6Z" fill="currentColor"/>
<path fill-rule="evenodd" clip-rule="evenodd" d="M0.366455 8C1.38566 4.7544 4.41765 2.4 8.00005 2.4C11.5825 2.4 14.6145 4.7544 15.6337 8C14.6145 11.2456 11.5825 13.6 8.00005 13.6C4.41765 13.6 1.38566 11.2456 0.366455 8ZM11.2001 8C11.2001 8.84869 10.8629 9.66263 10.2628 10.2627C9.66268 10.8629 8.84875 11.2 8.00005 11.2C7.15136 11.2 6.33743 10.8629 5.73731 10.2627C5.1372 9.66263 4.80006 8.84869 4.80006 8C4.80006 7.15131 5.1372 6.33738 5.73731 5.73726C6.33743 5.13714 7.15136 4.8 8.00005 4.8C8.84875 4.8 9.66268 5.13714 10.2628 5.73726C10.8629 6.33738 11.2001 7.15131 11.2001 8Z" fill="currentColor"/>
</svg>
