<svg viewBox="0 0 16 16" fill="none" xmlns="http://www.w3.org/2000/svg">
<path fill-rule="evenodd" clip-rule="evenodd" d="M1.6001 4.8C1.6001 4.37565 1.76867 3.96869 2.06873 3.66863C2.36878 3.36857 2.77575 3.2 3.2001 3.2H6.4001L8.0001 4.8H11.2001C11.6244 4.8 12.0314 4.96857 12.3315 5.26863C12.6315 5.56869 12.8001 5.97565 12.8001 6.4V7.2H6.4001C5.76358 7.2 5.15313 7.45286 4.70304 7.90294C4.25295 8.35303 4.0001 8.96348 4.0001 9.6V10.8C4.0001 11.1183 3.87367 11.4235 3.64863 11.6485C3.42358 11.8736 3.11836 12 2.8001 12C2.48184 12 2.17661 11.8736 1.95157 11.6485C1.72653 11.4235 1.6001 11.1183 1.6001 10.8V4.8Z" fill="currentColor"/>
<path d="M4.8001 9.6C4.8001 9.17565 4.96867 8.76869 5.26873 8.46863C5.56878 8.16857 5.97575 8 6.4001 8H12.8001C13.2244 8 13.6314 8.16857 13.9315 8.46863C14.2315 8.76869 14.4001 9.17565 14.4001 9.6V11.2C14.4001 11.6243 14.2315 12.0313 13.9315 12.3314C13.6314 12.6314 13.2244 12.8 12.8001 12.8H1.6001H3.2001C3.62444 12.8 4.03141 12.6314 4.33147 12.3314C4.63153 12.0313 4.8001 11.6243 4.8001 11.2V9.6Z" fill="currentColor"/>
</svg>
