<svg viewBox="0 0 16 16" fill="none" xmlns="http://www.w3.org/2000/svg">
<path fill-rule="evenodd" clip-rule="evenodd" d="M2.06873 3.66863C1.76867 3.96869 1.6001 4.37565 1.6001 4.8V11.2C1.6001 11.6243 1.76867 12.0313 2.06873 12.3314C2.36878 12.6314 2.77575 12.8 3.2001 12.8H12.8001C13.2244 12.8 13.6314 12.6314 13.9315 12.3314C14.2315 12.0313 14.4001 11.6243 14.4001 11.2V6.4C14.4001 5.97565 14.2315 5.56869 13.9315 5.26863C13.6314 4.96857 13.2244 4.8 12.8001 4.8H8.8001L7.2001 3.2H3.2001C2.77575 3.2 2.36878 3.36857 2.06873 3.66863ZM6.4001 8C5.95827 8 5.6001 8.35817 5.6001 8.8C5.6001 9.24183 5.95827 9.6 6.4001 9.6H9.6001C10.0419 9.6 10.4001 9.24183 10.4001 8.8C10.4001 8.35817 10.0419 8 9.6001 8H6.4001Z" fill="currentColor"/>
</svg>
