<svg viewBox="0 0 16 16" fill="none" xmlns="http://www.w3.org/2000/svg">
<path fill-rule="evenodd" clip-rule="evenodd" d="M14.4001 8C14.4001 9.69739 13.7258 11.3253 12.5256 12.5255C11.3253 13.7257 9.69748 14.4 8.0001 14.4C6.30271 14.4 4.67485 13.7257 3.47461 12.5255C2.27438 11.3253 1.6001 9.69739 1.6001 8C1.6001 6.30262 2.27438 4.67475 3.47461 3.47452C4.67485 2.27429 6.30271 1.6 8.0001 1.6C9.69748 1.6 11.3253 2.27429 12.5256 3.47452C13.7258 4.67475 14.4001 6.30262 14.4001 8ZM8.8001 4.8C8.8001 5.01218 8.71581 5.21566 8.56578 5.36569C8.41575 5.51572 8.21227 5.6 8.0001 5.6C7.78792 5.6 7.58444 5.51572 7.43441 5.36569C7.28438 5.21566 7.2001 5.01218 7.2001 4.8C7.2001 4.58783 7.28438 4.38435 7.43441 4.23432C7.58444 4.08429 7.78792 4 8.0001 4C8.21227 4 8.41575 4.08429 8.56578 4.23432C8.71581 4.38435 8.8001 4.58783 8.8001 4.8ZM7.2001 7.2C6.98792 7.2 6.78444 7.28429 6.63441 7.43432C6.48438 7.58435 6.4001 7.78783 6.4001 8C6.4001 8.21217 6.48438 8.41566 6.63441 8.56569C6.78444 8.71572 6.98792 8.8 7.2001 8.8V11.2C7.2001 11.4122 7.28438 11.6157 7.43441 11.7657C7.58444 11.9157 7.78792 12 8.0001 12H8.8001C9.01227 12 9.21575 11.9157 9.36578 11.7657C9.51581 11.6157 9.6001 11.4122 9.6001 11.2C9.6001 10.9878 9.51581 10.7843 9.36578 10.6343C9.21575 10.4843 9.01227 10.4 8.8001 10.4V8C8.8001 7.78783 8.71581 7.58435 8.56578 7.43432C8.41575 7.28429 8.21227 7.2 8.0001 7.2H7.2001Z" fill="currentColor"/>
</svg>
