<svg viewBox="0 0 16 16" fill="none" xmlns="http://www.w3.org/2000/svg">
<path fill-rule="evenodd" clip-rule="evenodd" d="M3.9999 7.2V5.6C3.9999 4.53913 4.42133 3.52172 5.17148 2.77157C5.92162 2.02143 6.93904 1.6 7.9999 1.6C9.06077 1.6 10.0782 2.02143 10.8283 2.77157C11.5785 3.52172 11.9999 4.53913 11.9999 5.6V7.2C12.4242 7.2 12.8312 7.36857 13.1313 7.66863C13.4313 7.96869 13.5999 8.37565 13.5999 8.8V12.8C13.5999 13.2243 13.4313 13.6313 13.1313 13.9314C12.8312 14.2314 12.4242 14.4 11.9999 14.4H3.9999C3.57556 14.4 3.16859 14.2314 2.86853 13.9314C2.56847 13.6313 2.3999 13.2243 2.3999 12.8V8.8C2.3999 8.37565 2.56847 7.96869 2.86853 7.66863C3.16859 7.36857 3.57556 7.2 3.9999 7.2ZM10.3999 5.6V7.2H5.5999V5.6C5.5999 4.96348 5.85276 4.35303 6.30285 3.90294C6.75293 3.45285 7.36338 3.2 7.9999 3.2C8.63642 3.2 9.24687 3.45285 9.69696 3.90294C10.147 4.35303 10.3999 4.96348 10.3999 5.6Z" fill="currentColor"/>
</svg>
