<svg viewBox="0 0 16 16" fill="none" xmlns="http://www.w3.org/2000/svg">
<path fill-rule="evenodd" clip-rule="evenodd" d="M3.2001 3.2C2.77575 3.2 2.36878 3.36857 2.06873 3.66863C1.76867 3.96869 1.6001 4.37565 1.6001 4.8V8C1.6001 8.42435 1.76867 8.83131 2.06873 9.13137C2.36878 9.43143 2.77575 9.6 3.2001 9.6V4.8H11.2001C11.2001 4.37565 11.0315 3.96869 10.7315 3.66863C10.4314 3.36857 10.0244 3.2 9.6001 3.2H3.2001ZM4.8001 8C4.8001 7.57565 4.96867 7.16869 5.26873 6.86863C5.56878 6.56857 5.97575 6.4 6.4001 6.4H12.8001C13.2244 6.4 13.6314 6.56857 13.9315 6.86863C14.2315 7.16869 14.4001 7.57565 14.4001 8V11.2C14.4001 11.6243 14.2315 12.0313 13.9315 12.3314C13.6314 12.6314 13.2244 12.8 12.8001 12.8H6.4001C5.97575 12.8 5.56878 12.6314 5.26873 12.3314C4.96867 12.0313 4.8001 11.6243 4.8001 11.2V8ZM9.6001 11.2C10.0244 11.2 10.4314 11.0314 10.7315 10.7314C11.0315 10.4313 11.2001 10.0243 11.2001 9.6C11.2001 9.17565 11.0315 8.76869 10.7315 8.46863C10.4314 8.16857 10.0244 8 9.6001 8C9.17575 8 8.76878 8.16857 8.46873 8.46863C8.16867 8.76869 8.0001 9.17565 8.0001 9.6C8.0001 10.0243 8.16867 10.4313 8.46873 10.7314C8.76878 11.0314 9.17575 11.2 9.6001 11.2Z" fill="currentColor"/>
</svg>
