<svg viewBox="0 0 20 20" fill="none" xmlns="http://www.w3.org/2000/svg">
    <path d="M6.666 10.833v-6.25a1.25 1.25 0 0 1 2.5 0v5.416" fill="currentColor"/>
    <path d="M14.532 5.365a1.25 1.25 0 0 1 2.134.884v7.084a5 5 0 0 1-5 5H10.17a5.001 5.001 0 0 1-4.175-2.25l-.163-.25c-.26-.4-1.173-1.99-2.739-4.774a1.25 1.25 0 0 1 .447-1.685 1.556 1.556 0 0 1 1.9.234l1.225 1.225v-6.25a1.25 1.25 0 0 1 2.5 0V2.916a1.25 1.25 0 0 1 2.5 0v1.667a1.25 1.25 0 0 1 2.5 0v1.655a1.25 1.25 0 0 1 .366-.873Z" fill="currentColor"/>
</svg>
