<svg viewBox="0 0 16 16" fill="none" xmlns="http://www.w3.org/2000/svg">
<path fill-rule="evenodd" clip-rule="evenodd" d="M14.4001 8C14.4001 9.69738 13.7258 11.3252 12.5256 12.5255C11.3253 13.7257 9.69748 14.4 8.0001 14.4C6.30271 14.4 4.67485 13.7257 3.47461 12.5255C2.27438 11.3252 1.6001 9.69738 1.6001 8C1.6001 6.30261 2.27438 4.67475 3.47461 3.47452C4.67485 2.27428 6.30271 1.6 8.0001 1.6C9.69748 1.6 11.3253 2.27428 12.5256 3.47452C13.7258 4.67475 14.4001 6.30261 14.4001 8ZM5.6001 6.4C5.6001 6.18783 5.68438 5.98434 5.83441 5.83431C5.98444 5.68428 6.18792 5.6 6.4001 5.6C6.61227 5.6 6.81575 5.68428 6.96578 5.83431C7.11581 5.98434 7.2001 6.18783 7.2001 6.4V9.6C7.2001 9.81217 7.11581 10.0157 6.96578 10.1657C6.81575 10.3157 6.61227 10.4 6.4001 10.4C6.18792 10.4 5.98444 10.3157 5.83441 10.1657C5.68438 10.0157 5.6001 9.81217 5.6001 9.6V6.4ZM9.6001 5.6C9.38792 5.6 9.18444 5.68428 9.03441 5.83431C8.88438 5.98434 8.8001 6.18783 8.8001 6.4V9.6C8.8001 9.81217 8.88438 10.0157 9.03441 10.1657C9.18444 10.3157 9.38792 10.4 9.6001 10.4C9.81227 10.4 10.0158 10.3157 10.1658 10.1657C10.3158 10.0157 10.4001 9.81217 10.4001 9.6V6.4C10.4001 6.18783 10.3158 5.98434 10.1658 5.83431C10.0158 5.68428 9.81227 5.6 9.6001 5.6Z" fill="currentColor"/>
</svg>
