<svg viewBox="0 0 16 16" fill="none" xmlns="http://www.w3.org/2000/svg">
<path d="M1.6001 8.8C1.6001 8.58783 1.68438 8.38435 1.83441 8.23432C1.98444 8.08429 2.18792 8 2.4001 8H4.0001C4.21227 8 4.41575 8.08429 4.56578 8.23432C4.71581 8.38435 4.8001 8.58783 4.8001 8.8V12.8C4.8001 13.0122 4.71581 13.2157 4.56578 13.3657C4.41575 13.5157 4.21227 13.6 4.0001 13.6H2.4001C2.18792 13.6 1.98444 13.5157 1.83441 13.3657C1.68438 13.2157 1.6001 13.0122 1.6001 12.8V8.8ZM6.4001 5.6C6.4001 5.38783 6.48438 5.18435 6.63441 5.03432C6.78444 4.88429 6.98792 4.8 7.2001 4.8H8.8001C9.01227 4.8 9.21575 4.88429 9.36578 5.03432C9.51581 5.18435 9.6001 5.38783 9.6001 5.6V12.8C9.6001 13.0122 9.51581 13.2157 9.36578 13.3657C9.21575 13.5157 9.01227 13.6 8.8001 13.6H7.2001C6.98792 13.6 6.78444 13.5157 6.63441 13.3657C6.48438 13.2157 6.4001 13.0122 6.4001 12.8V5.6ZM11.2001 3.2C11.2001 2.98783 11.2844 2.78435 11.4344 2.63432C11.5844 2.48429 11.7879 2.4 12.0001 2.4H13.6001C13.8123 2.4 14.0158 2.48429 14.1658 2.63432C14.3158 2.78435 14.4001 2.98783 14.4001 3.2V12.8C14.4001 13.0122 14.3158 13.2157 14.1658 13.3657C14.0158 13.5157 13.8123 13.6 13.6001 13.6H12.0001C11.7879 13.6 11.5844 13.5157 11.4344 13.3657C11.2844 13.2157 11.2001 13.0122 11.2001 12.8V3.2Z" fill="currentColor"/>
</svg>
