<svg viewBox="0 0 16 16" fill="none" xmlns="http://www.w3.org/2000/svg">
<path fill-rule="evenodd" clip-rule="evenodd" d="M14.4001 8C14.4001 9.69738 13.7258 11.3252 12.5256 12.5255C11.3253 13.7257 9.69748 14.4 8.0001 14.4C6.30271 14.4 4.67485 13.7257 3.47461 12.5255C2.27438 11.3252 1.6001 9.69738 1.6001 8C1.6001 6.30261 2.27438 4.67475 3.47461 3.47452C4.67485 2.27428 6.30271 1.6 8.0001 1.6C9.69748 1.6 11.3253 2.27428 12.5256 3.47452C13.7258 4.67475 14.4001 6.30261 14.4001 8ZM8.0001 5.6C7.85954 5.59986 7.72142 5.63676 7.59966 5.70698C7.47789 5.7772 7.37678 5.87827 7.3065 6C7.25575 6.0943 7.18659 6.17745 7.10311 6.24453C7.01963 6.3116 6.92353 6.36123 6.82051 6.39048C6.71749 6.41973 6.60965 6.42799 6.50338 6.41479C6.39711 6.40158 6.29457 6.36718 6.20184 6.31361C6.10912 6.26004 6.02809 6.1884 5.96356 6.10293C5.89904 6.01747 5.85233 5.91992 5.8262 5.81606C5.80007 5.71221 5.79506 5.60417 5.81147 5.49835C5.82787 5.39252 5.86536 5.29107 5.9217 5.2C6.18587 4.74249 6.59362 4.38493 7.08172 4.18277C7.56981 3.98061 8.11097 3.94515 8.62127 4.08188C9.13157 4.21862 9.5825 4.51991 9.90412 4.93904C10.2257 5.35816 10.4001 5.8717 10.4001 6.4C10.4002 6.89649 10.2465 7.38082 9.95991 7.78628C9.67336 8.19174 9.26816 8.49839 8.8001 8.664V8.8C8.8001 9.01217 8.71581 9.21565 8.56578 9.36568C8.41575 9.51571 8.21227 9.6 8.0001 9.6C7.78792 9.6 7.58444 9.51571 7.43441 9.36568C7.28438 9.21565 7.2001 9.01217 7.2001 8.8V8C7.2001 7.78783 7.28438 7.58434 7.43441 7.43431C7.58444 7.28428 7.78792 7.2 8.0001 7.2C8.21227 7.2 8.41575 7.11571 8.56578 6.96568C8.71581 6.81565 8.8001 6.61217 8.8001 6.4C8.8001 6.18783 8.71581 5.98434 8.56578 5.83431C8.41575 5.68428 8.21227 5.6 8.0001 5.6ZM8.0001 12C8.21227 12 8.41575 11.9157 8.56578 11.7657C8.71581 11.6157 8.8001 11.4122 8.8001 11.2C8.8001 10.9878 8.71581 10.7843 8.56578 10.6343C8.41575 10.4843 8.21227 10.4 8.0001 10.4C7.78792 10.4 7.58444 10.4843 7.43441 10.6343C7.28438 10.7843 7.2001 10.9878 7.2001 11.2C7.2001 11.4122 7.28438 11.6157 7.43441 11.7657C7.58444 11.9157 7.78792 12 8.0001 12Z" fill="currentColor"/>
</svg>
