<svg viewBox="0 0 16 16" fill="none" xmlns="http://www.w3.org/2000/svg">
<path d="M6.1657 8.2344C6.0919 8.15799 6.00362 8.09705 5.90602 8.05512C5.80842 8.01319 5.70344 7.99112 5.59722 7.9902C5.49099 7.98928 5.38565 8.00952 5.28733 8.04975C5.18902 8.08997 5.0997 8.14937 5.02458 8.22449C4.94947 8.2996 4.89006 8.38892 4.84984 8.48724C4.80962 8.58556 4.78937 8.6909 4.7903 8.79712C4.79122 8.90335 4.81329 9.00832 4.85522 9.10593C4.89714 9.20353 4.95809 9.2918 5.0345 9.3656L7.4345 11.7656C7.58452 11.9156 7.78797 11.9998 8.0001 11.9998C8.21223 11.9998 8.41567 11.9156 8.5657 11.7656L10.9657 9.3656C11.1114 9.21472 11.1921 9.01264 11.1902 8.80288C11.1884 8.59312 11.1043 8.39247 10.956 8.24415C10.8076 8.09582 10.607 8.01169 10.3972 8.00986C10.1875 8.00804 9.98538 8.08868 9.8345 8.2344L8.8001 9.2688V4.8H12.8001C13.2244 4.8 13.6314 4.96857 13.9315 5.26863C14.2315 5.56869 14.4001 5.97566 14.4001 6.4V12C14.4001 12.4243 14.2315 12.8313 13.9315 13.1314C13.6314 13.4314 13.2244 13.6 12.8001 13.6H3.2001C2.77575 13.6 2.36878 13.4314 2.06873 13.1314C1.76867 12.8313 1.6001 12.4243 1.6001 12V6.4C1.6001 5.97566 1.76867 5.56869 2.06873 5.26863C2.36878 4.96857 2.77575 4.8 3.2001 4.8H7.2001V9.2688L6.1657 8.2344ZM7.2001 3.2C7.2001 2.98783 7.28438 2.78435 7.43441 2.63432C7.58444 2.48429 7.78792 2.4 8.0001 2.4C8.21227 2.4 8.41575 2.48429 8.56578 2.63432C8.71581 2.78435 8.8001 2.98783 8.8001 3.2V4.8H7.2001V3.2Z" fill="currentColor"/>
</svg>
