<svg viewBox="0 0 16 16" fill="none" xmlns="http://www.w3.org/2000/svg">
<path fill-rule="evenodd" clip-rule="evenodd" d="M9.1919 2.536C8.8879 1.288 7.1119 1.288 6.8079 2.536C6.76251 2.72353 6.67349 2.8977 6.54808 3.04433C6.42266 3.19096 6.2644 3.3059 6.08617 3.37981C5.90794 3.45373 5.71478 3.48451 5.52241 3.46967C5.33003 3.45483 5.14388 3.39477 4.9791 3.2944C3.8815 2.6256 2.6255 3.8816 3.2943 4.9792C3.7263 5.688 3.3431 6.6128 2.5367 6.8088C1.2879 7.112 1.2879 8.8888 2.5367 9.1912C2.72428 9.23664 2.89848 9.32575 3.04511 9.45126C3.19174 9.57676 3.30665 9.73513 3.38049 9.91346C3.45433 10.0918 3.48501 10.285 3.47003 10.4775C3.45506 10.6699 3.39484 10.856 3.2943 11.0208C2.6255 12.1184 3.8815 13.3744 4.9791 12.7056C5.14385 12.6051 5.33002 12.5448 5.52244 12.5299C5.71487 12.5149 5.90812 12.5456 6.08644 12.6194C6.26477 12.6932 6.42313 12.8082 6.54864 12.9548C6.67415 13.1014 6.76325 13.2756 6.8087 13.4632C7.1119 14.712 8.8887 14.712 9.1911 13.4632C9.2367 13.2757 9.32589 13.1016 9.45142 12.9551C9.57696 12.8086 9.7353 12.6937 9.91357 12.6199C10.0918 12.5461 10.285 12.5154 10.4774 12.5303C10.6698 12.5452 10.8559 12.6052 11.0207 12.7056C12.1183 13.3744 13.3743 12.1184 12.7055 11.0208C12.6051 10.856 12.5451 10.6699 12.5302 10.4775C12.5153 10.2851 12.546 10.0919 12.6198 9.91367C12.6936 9.7354 12.8085 9.57706 12.955 9.45152C13.1015 9.32599 13.2756 9.2368 13.4631 9.1912C14.7119 8.888 14.7119 7.1112 13.4631 6.8088C13.2755 6.76335 13.1013 6.67425 12.9547 6.54874C12.8081 6.42323 12.6931 6.26487 12.6193 6.08654C12.5455 5.90822 12.5148 5.71497 12.5298 5.52255C12.5447 5.33012 12.605 5.14395 12.7055 4.9792C13.3743 3.8816 12.1183 2.6256 11.0207 3.2944C10.8559 3.39494 10.6698 3.45516 10.4773 3.47013C10.2849 3.48511 10.0917 3.45443 9.91335 3.38059C9.73503 3.30675 9.57666 3.19184 9.45115 3.04521C9.32565 2.89858 9.23654 2.72438 9.1911 2.5368L9.1919 2.536ZM7.9999 10.4C8.63642 10.4 9.24687 10.1471 9.69695 9.69705C10.147 9.24697 10.3999 8.63652 10.3999 8C10.3999 7.36348 10.147 6.75303 9.69695 6.30294C9.24687 5.85286 8.63642 5.6 7.9999 5.6C7.36338 5.6 6.75293 5.85286 6.30284 6.30294C5.85275 6.75303 5.5999 7.36348 5.5999 8C5.5999 8.63652 5.85275 9.24697 6.30284 9.69705C6.75293 10.1471 7.36338 10.4 7.9999 10.4Z" fill="currentColor"/>
</svg>
