<svg viewBox="0 0 16 16" fill="none" xmlns="http://www.w3.org/2000/svg">
<path d="M11.9999 6.4C12.4872 6.40002 12.963 6.25168 13.364 5.97472C13.7649 5.69776 14.0721 5.3053 14.2446 4.84952C14.4171 4.39375 14.4468 3.89627 14.3296 3.42323C14.2125 2.95019 13.9542 2.52401 13.589 2.20136C13.2237 1.87871 12.769 1.67489 12.2851 1.617C11.8012 1.5591 11.3112 1.64988 10.8802 1.87726C10.4491 2.10464 10.0975 2.45784 9.87214 2.8899C9.64673 3.32196 9.55819 3.8124 9.61829 4.296L5.6663 6.272C5.32728 5.94508 4.89957 5.72513 4.43645 5.63955C3.97333 5.55398 3.49526 5.60655 3.0618 5.79072C2.62834 5.9749 2.25865 6.28253 1.99878 6.67531C1.73891 7.06808 1.60034 7.52864 1.60034 7.9996C1.60034 8.47056 1.73891 8.93112 1.99878 9.32389C2.25865 9.71667 2.62834 10.0243 3.0618 10.2085C3.49526 10.3927 3.97333 10.4452 4.43645 10.3596C4.89957 10.2741 5.32728 10.0541 5.6663 9.7272L9.61829 11.7032C9.54829 12.265 9.67914 12.8334 9.98772 13.3081C10.2963 13.7827 10.7627 14.133 11.3046 14.297C11.8464 14.461 12.4288 14.4282 12.9488 14.2044C13.4688 13.9805 13.893 13.5801 14.1463 13.0737C14.3996 12.5674 14.4657 11.9879 14.333 11.4375C14.2004 10.8871 13.8774 10.4014 13.4212 10.0661C12.9651 9.73083 12.405 9.5676 11.8402 9.60528C11.2753 9.64295 10.7419 9.87911 10.3343 10.272L6.38229 8.296C6.40651 8.09941 6.40651 7.90059 6.38229 7.704L10.3343 5.728C10.7647 6.144 11.3519 6.4 11.9999 6.4Z" fill="currentColor"/>
</svg>
