<svg  viewBox="0 0 16 16" fill="none" xmlns="http://www.w3.org/2000/svg">
<path fill-rule="evenodd" clip-rule="evenodd" d="M4.23423 6.15558C4.38425 6.30556 4.5877 6.38981 4.79983 6.38981C5.01196 6.38981 5.21541 6.30556 5.36543 6.15558L7.99983 3.52118L10.6342 6.15558C10.708 6.23199 10.7963 6.29293 10.8939 6.33486C10.9915 6.37679 11.0965 6.39886 11.2027 6.39978C11.3089 6.4007 11.4143 6.38046 11.5126 6.34024C11.6109 6.30001 11.7002 6.24061 11.7753 6.1655C11.8505 6.09038 11.9099 6.00106 11.9501 5.90274C11.9903 5.80443 12.0106 5.69908 12.0096 5.59286C12.0087 5.48664 11.9866 5.38166 11.9447 5.28406C11.9028 5.18645 11.8418 5.09818 11.7654 5.02438L8.56543 1.82438C8.41541 1.6744 8.21196 1.59015 7.99983 1.59015C7.7877 1.59015 7.58425 1.6744 7.43423 1.82438L4.23423 5.02438C4.08425 5.1744 4 5.37785 4 5.58998C4 5.80211 4.08425 6.00556 4.23423 6.15558Z" fill="currentColor"/>
<path fill-rule="evenodd" clip-rule="evenodd" d="M4.23423 9.83441C4.38425 9.68443 4.5877 9.60018 4.79983 9.60018C5.01196 9.60018 5.21541 9.68443 5.36543 9.83441L7.99983 12.4688L10.6342 9.83441C10.708 9.758 10.7963 9.69706 10.8939 9.65513C10.9915 9.6132 11.0965 9.59113 11.2027 9.59021C11.3089 9.58929 11.4143 9.60953 11.5126 9.64975C11.6109 9.68998 11.7002 9.74938 11.7753 9.82449C11.8505 9.89961 11.9099 9.98893 11.9501 10.0872C11.9903 10.1856 12.0106 10.2909 12.0096 10.3971C12.0087 10.5034 11.9866 10.6083 11.9447 10.7059C11.9028 10.8035 11.8418 10.8918 11.7654 10.9656L8.56543 14.1656C8.41541 14.3156 8.21196 14.3998 7.99983 14.3998C7.7877 14.3998 7.58425 14.3156 7.43423 14.1656L4.23423 10.9656C4.08425 10.8156 4 10.6121 4 10.4C4 10.1879 4.08425 9.98443 4.23423 9.83441Z" fill="currentColor"/>
</svg>
