<svg viewBox="0 0 16 16" fill="none" xmlns="http://www.w3.org/2000/svg">
<path fill-rule="evenodd" clip-rule="evenodd" d="M4.0001 1.6C4.21227 1.6 4.41575 1.68428 4.56578 1.83431C4.71581 1.98434 4.8001 2.18783 4.8001 2.4V3.2H5.6001C5.81227 3.2 6.01575 3.28428 6.16578 3.43431C6.31581 3.58434 6.4001 3.78783 6.4001 4C6.4001 4.21217 6.31581 4.41565 6.16578 4.56568C6.01575 4.71571 5.81227 4.8 5.6001 4.8H4.8001V5.6C4.8001 5.81217 4.71581 6.01565 4.56578 6.16568C4.41575 6.31571 4.21227 6.4 4.0001 6.4C3.78792 6.4 3.58444 6.31571 3.43441 6.16568C3.28438 6.01565 3.2001 5.81217 3.2001 5.6V4.8H2.4001C2.18792 4.8 1.98444 4.71571 1.83441 4.56568C1.68438 4.41565 1.6001 4.21217 1.6001 4C1.6001 3.78783 1.68438 3.58434 1.83441 3.43431C1.98444 3.28428 2.18792 3.2 2.4001 3.2H3.2001V2.4C3.2001 2.18783 3.28438 1.98434 3.43441 1.83431C3.58444 1.68428 3.78792 1.6 4.0001 1.6ZM4.0001 9.6C4.21227 9.6 4.41575 9.68428 4.56578 9.83431C4.71581 9.98434 4.8001 10.1878 4.8001 10.4V11.2H5.6001C5.81227 11.2 6.01575 11.2843 6.16578 11.4343C6.31581 11.5843 6.4001 11.7878 6.4001 12C6.4001 12.2122 6.31581 12.4157 6.16578 12.5657C6.01575 12.7157 5.81227 12.8 5.6001 12.8H4.8001V13.6C4.8001 13.8122 4.71581 14.0157 4.56578 14.1657C4.41575 14.3157 4.21227 14.4 4.0001 14.4C3.78792 14.4 3.58444 14.3157 3.43441 14.1657C3.28438 14.0157 3.2001 13.8122 3.2001 13.6V12.8H2.4001C2.18792 12.8 1.98444 12.7157 1.83441 12.5657C1.68438 12.4157 1.6001 12.2122 1.6001 12C1.6001 11.7878 1.68438 11.5843 1.83441 11.4343C1.98444 11.2843 2.18792 11.2 2.4001 11.2H3.2001V10.4C3.2001 10.1878 3.28438 9.98434 3.43441 9.83431C3.58444 9.68428 3.78792 9.6 4.0001 9.6ZM9.6001 1.6C9.77665 1.59994 9.94826 1.65829 10.0882 1.76595C10.2281 1.87361 10.3285 2.02453 10.3737 2.1952L11.3169 5.76L14.0001 7.3072C14.1217 7.37742 14.2227 7.4784 14.2929 7.60002C14.3631 7.72163 14.4001 7.85958 14.4001 8C14.4001 8.14042 14.3631 8.27837 14.2929 8.39998C14.2227 8.52159 14.1217 8.62258 14.0001 8.6928L11.3169 10.2408L10.3729 13.8048C10.3276 13.9753 10.2273 14.1261 10.0874 14.2336C9.94758 14.3412 9.77611 14.3995 9.5997 14.3995C9.42329 14.3995 9.25182 14.3412 9.11198 14.2336C8.97214 14.1261 8.87178 13.9753 8.8265 13.8048L7.8833 10.24L5.2001 8.6928C5.07849 8.62258 4.97751 8.52159 4.9073 8.39998C4.83709 8.27837 4.80013 8.14042 4.80013 8C4.80013 7.85958 4.83709 7.72163 4.9073 7.60002C4.97751 7.4784 5.07849 7.37742 5.2001 7.3072L7.8833 5.7592L8.8273 2.1952C8.87246 2.02466 8.97272 1.87384 9.11249 1.76619C9.25226 1.65855 9.42368 1.60012 9.6001 1.6Z" fill="currentColor"/>
</svg>
