<svg viewBox="0 0 16 16" fill="none" xmlns="http://www.w3.org/2000/svg">
<path fill-rule="evenodd" clip-rule="evenodd" d="M14.4001 2.79957C14.4 2.66326 14.3651 2.52923 14.2987 2.41019C14.2323 2.29115 14.1365 2.19106 14.0206 2.11942C13.9046 2.04777 13.7723 2.00694 13.6361 2.00081C13.4999 1.99468 13.3644 2.02344 13.2425 2.08437L7.0105 5.19957H4.0001C3.36358 5.19957 2.75313 5.45243 2.30304 5.90252C1.85295 6.3526 1.6001 6.96305 1.6001 7.59957C1.6001 8.23609 1.85295 8.84654 2.30304 9.29663C2.75313 9.74672 3.36358 9.99957 4.0001 9.99957H4.2241L5.6409 14.2524C5.69398 14.4117 5.79587 14.5504 5.93214 14.6486C6.0684 14.7468 6.23213 14.7996 6.4001 14.7996H7.2001C7.41227 14.7996 7.61575 14.7153 7.76578 14.5653C7.91581 14.4152 8.0001 14.2117 8.0001 13.9996V10.494L13.2425 13.1148C13.3644 13.1757 13.4999 13.2045 13.6361 13.1983C13.7723 13.1922 13.9046 13.1514 14.0206 13.0797C14.1365 13.0081 14.2323 12.908 14.2987 12.789C14.3651 12.6699 14.4 12.5359 14.4001 12.3996V2.79957Z" fill="currentColor"/>
</svg>
