<svg viewBox="0 0 16 16" fill="none" xmlns="http://www.w3.org/2000/svg">
<path fill-rule="evenodd" clip-rule="evenodd" d="M10.7425 1.55026C10.6743 1.43225 10.577 1.33362 10.46 1.26375C10.3429 1.19387 10.21 1.15505 10.0737 1.15099C9.93748 1.14692 9.80245 1.17774 9.68145 1.24052C9.56045 1.30329 9.4575 1.39594 9.38237 1.50968L5.5429 7.32352L2.93582 8.82872C2.38457 9.14698 1.98234 9.67119 1.81759 10.286C1.65285 10.9008 1.73909 11.5559 2.05735 12.1072C2.37561 12.6584 2.89982 13.0607 3.51465 13.2254C4.12948 13.3901 4.78457 13.3039 5.33582 12.9856L5.52981 12.8736L8.88319 15.8483C9.00884 15.9598 9.16639 16.0288 9.33351 16.0458C9.50062 16.0627 9.66883 16.0266 9.81428 15.9426L10.5071 15.5426C10.6908 15.4365 10.8249 15.2617 10.8798 15.0568C10.9348 14.8519 10.906 14.6335 10.7999 14.4497L9.04712 11.4138L14.8976 11.0623C15.0336 11.0541 15.1653 11.0113 15.2802 10.9379C15.3951 10.8645 15.4893 10.7629 15.5539 10.6429C15.6185 10.5229 15.6514 10.3883 15.6494 10.252C15.6474 10.1157 15.6106 9.98219 15.5425 9.86411L10.7425 1.55026Z" fill="currentColor"/>
</svg>
