<svg viewBox="0 0 16 16" fill="none" xmlns="http://www.w3.org/2000/svg">
<path fill-rule="evenodd" clip-rule="evenodd" d="M8.0001 14.4C9.69748 14.4 11.3253 13.7257 12.5256 12.5255C13.7258 11.3252 14.4001 9.69738 14.4001 8C14.4001 6.30261 13.7258 4.67475 12.5256 3.47452C11.3253 2.27428 9.69748 1.6 8.0001 1.6C6.30271 1.6 4.67485 2.27428 3.47461 3.47452C2.27438 4.67475 1.6001 6.30261 1.6001 8C1.6001 9.69738 2.27438 11.3252 3.47461 12.5255C4.67485 13.7257 6.30271 14.4 8.0001 14.4ZM6.4001 5.6C6.18792 5.6 5.98444 5.68428 5.83441 5.83431C5.68438 5.98434 5.6001 6.18783 5.6001 6.4V9.6C5.6001 9.81217 5.68438 10.0157 5.83441 10.1657C5.98444 10.3157 6.18792 10.4 6.4001 10.4H9.6001C9.81227 10.4 10.0158 10.3157 10.1658 10.1657C10.3158 10.0157 10.4001 9.81217 10.4001 9.6V6.4C10.4001 6.18783 10.3158 5.98434 10.1658 5.83431C10.0158 5.68428 9.81227 5.6 9.6001 5.6H6.4001Z" fill="currentColor"/>
</svg>
