<svg viewBox="0 0 16 16" fill="none" xmlns="http://www.w3.org/2000/svg">
<path fill-rule="evenodd" clip-rule="evenodd" d="M3.19995 3.2C3.19995 2.77565 3.36852 2.36869 3.66858 2.06863C3.96864 1.76857 4.3756 1.6 4.79995 1.6H8.46875C8.89306 1.60009 9.29996 1.76872 9.59995 2.0688L12.3312 4.8C12.6312 5.09999 12.7999 5.50689 12.8 5.9312V12.8C12.8 13.2243 12.6314 13.6313 12.3313 13.9314C12.0313 14.2314 11.6243 14.4 11.2 14.4H4.79995C4.3756 14.4 3.96864 14.2314 3.66858 13.9314C3.36852 13.6313 3.19995 13.2243 3.19995 12.8V3.2ZM4.79995 8C4.79995 7.78783 4.88424 7.58434 5.03427 7.43431C5.1843 7.28428 5.38778 7.2 5.59995 7.2H10.4C10.6121 7.2 10.8156 7.28428 10.9656 7.43431C11.1157 7.58434 11.2 7.78783 11.2 8C11.2 8.21217 11.1157 8.41565 10.9656 8.56568C10.8156 8.71571 10.6121 8.8 10.4 8.8H5.59995C5.38778 8.8 5.1843 8.71571 5.03427 8.56568C4.88424 8.41565 4.79995 8.21217 4.79995 8ZM5.59995 10.4C5.38778 10.4 5.1843 10.4843 5.03427 10.6343C4.88424 10.7843 4.79995 10.9878 4.79995 11.2C4.79995 11.4122 4.88424 11.6157 5.03427 11.7657C5.1843 11.9157 5.38778 12 5.59995 12H10.4C10.6121 12 10.8156 11.9157 10.9656 11.7657C11.1157 11.6157 11.2 11.4122 11.2 11.2C11.2 10.9878 11.1157 10.7843 10.9656 10.6343C10.8156 10.4843 10.6121 10.4 10.4 10.4H5.59995Z" fill="currentColor"/>
</svg>
