<svg  viewBox="0 0 16 16" fill="none" xmlns="http://www.w3.org/2000/svg">
<path fill-rule="evenodd" clip-rule="evenodd" d="M8.0001 14.4C9.69748 14.4 11.3253 13.7257 12.5256 12.5255C13.7258 11.3252 14.4001 9.69738 14.4001 8C14.4001 6.30261 13.7258 4.67475 12.5256 3.47452C11.3253 2.27428 9.69748 1.6 8.0001 1.6C6.30271 1.6 4.67485 2.27428 3.47461 3.47452C2.27438 4.67475 1.6001 6.30261 1.6001 8C1.6001 9.69738 2.27438 11.3252 3.47461 12.5255C4.67485 13.7257 6.30271 14.4 8.0001 14.4ZM8.8001 4.8C8.8001 4.58783 8.71581 4.38434 8.56578 4.23431C8.41575 4.08428 8.21227 4 8.0001 4C7.78792 4 7.58444 4.08428 7.43441 4.23431C7.28438 4.38434 7.2001 4.58783 7.2001 4.8V8C7.20014 8.21215 7.28446 8.4156 7.4345 8.5656L9.6969 10.8288C9.77123 10.9031 9.85947 10.9621 9.95658 11.0023C10.0537 11.0425 10.1578 11.0632 10.2629 11.0632C10.368 11.0632 10.4721 11.0425 10.5692 11.0023C10.6663 10.9621 10.7546 10.9031 10.8289 10.8288C10.9032 10.7545 10.9622 10.6662 11.0024 10.5691C11.0426 10.472 11.0633 10.3679 11.0633 10.2628C11.0633 10.1577 11.0426 10.0536 11.0024 9.95648C10.9622 9.85937 10.9032 9.77113 10.8289 9.6968L8.8001 7.6688V4.8Z" fill="currentColor"/>
</svg>
