<svg viewBox="0 0 22 21" fill="none" xmlns="http://www.w3.org/2000/svg">
<path fill-rule="evenodd" clip-rule="evenodd" d="M8.55983 2.33816C9.63083 0.434156 12.3706 0.434156 13.4402 2.33816L21.2522 16.2262C22.3022 18.0938 20.954 20.3982 18.8134 20.3982H3.18803C1.04603 20.3982 -0.302168 18.0938 0.747832 16.2262L8.55983 2.33816ZM12.4 16.1996C12.4 16.5709 12.2525 16.927 11.99 17.1895C11.7274 17.4521 11.3713 17.5996 11 17.5996C10.6287 17.5996 10.2726 17.4521 10.0101 17.1895C9.74753 16.927 9.60003 16.5709 9.60003 16.1996C9.60003 15.8283 9.74753 15.4722 10.0101 15.2096C10.2726 14.9471 10.6287 14.7996 11 14.7996C11.3713 14.7996 11.7274 14.9471 11.99 15.2096C12.2525 15.4722 12.4 15.8283 12.4 16.1996ZM11 4.99956C10.6287 4.99956 10.2726 5.14706 10.0101 5.40961C9.74753 5.67216 9.60003 6.02825 9.60003 6.39956V10.5996C9.60003 10.9709 9.74753 11.327 10.0101 11.5895C10.2726 11.8521 10.6287 11.9996 11 11.9996C11.3713 11.9996 11.7274 11.8521 11.99 11.5895C12.2525 11.327 12.4 10.9709 12.4 10.5996V6.39956C12.4 6.02825 12.2525 5.67216 11.99 5.40961C11.7274 5.14706 11.3713 4.99956 11 4.99956Z" fill="currentColor"/>
</svg>
