<svg width="89" height="90" viewBox="0 0 89 90" fill="none" xmlns="http://www.w3.org/2000/svg">
<g opacity="0.06">
<path fill-rule="evenodd" clip-rule="evenodd" d="M44.4999 9.1499C39.7791 9.1499 35.2516 11.0253 31.9134 14.3634C28.5753 17.7015 26.6999 22.229 26.6999 26.9499V31.3999H22.2499C21.1544 31.3998 20.0974 31.8039 19.2812 32.5346C18.465 33.2654 17.9471 34.2715 17.8266 35.3604L13.3766 75.4104C13.3078 76.0323 13.3709 76.6617 13.5618 77.2576C13.7527 77.8535 14.0671 78.4024 14.4845 78.8685C14.902 79.3347 15.413 79.7075 15.9842 79.9628C16.5555 80.218 17.1742 80.3499 17.7999 80.3499H71.1999C71.8256 80.3499 72.4443 80.218 73.0156 79.9628C73.5869 79.7075 74.0979 79.3347 74.5153 78.8685C74.9327 78.4024 75.2471 77.8535 75.438 77.2576C75.6289 76.6617 75.692 76.0323 75.6232 75.4104L71.1732 35.3604C71.0527 34.2715 70.5348 33.2654 69.7186 32.5346C68.9025 31.8039 67.8454 31.3998 66.7499 31.3999H62.2999V26.9499C62.2999 22.229 60.4246 17.7015 57.0864 14.3634C53.7483 11.0253 49.2208 9.1499 44.4999 9.1499ZM53.3999 31.3999V26.9499C53.3999 24.5895 52.4622 22.3257 50.7932 20.6567C49.1241 18.9876 46.8603 18.0499 44.4999 18.0499C42.1395 18.0499 39.8757 18.9876 38.2067 20.6567C36.5376 22.3257 35.5999 24.5895 35.5999 26.9499V31.3999H53.3999ZM26.6999 44.7499C26.6999 43.5697 27.1688 42.4378 28.0033 41.6033C28.8378 40.7687 29.9697 40.2999 31.1499 40.2999C32.3301 40.2999 33.462 40.7687 34.2965 41.6033C35.1311 42.4378 35.5999 43.5697 35.5999 44.7499C35.5999 45.9301 35.1311 47.062 34.2965 47.8965C33.462 48.7311 32.3301 49.1999 31.1499 49.1999C29.9697 49.1999 28.8378 48.7311 28.0033 47.8965C27.1688 47.062 26.6999 45.9301 26.6999 44.7499ZM57.8499 40.2999C56.6697 40.2999 55.5378 40.7687 54.7033 41.6033C53.8688 42.4378 53.3999 43.5697 53.3999 44.7499C53.3999 45.9301 53.8688 47.062 54.7033 47.8965C55.5378 48.7311 56.6697 49.1999 57.8499 49.1999C59.0301 49.1999 60.162 48.7311 60.9965 47.8965C61.8311 47.062 62.2999 45.9301 62.2999 44.7499C62.2999 43.5697 61.8311 42.4378 60.9965 41.6033C60.162 40.7687 59.0301 40.2999 57.8499 40.2999Z" fill="url(#paint0_linear_2201_39713)"/>
</g>
<defs>
<linearGradient id="paint0_linear_2201_39713" x1="44.4999" y1="9.1499" x2="44.4999" y2="80.3499" gradientUnits="userSpaceOnUse">
<stop stop-color="#2F3640"/>
<stop offset="1" stop-color="#2F3640" stop-opacity="0"/>
</linearGradient>
</defs>
</svg>
