<svg width="89" height="77" viewBox="0 0 89 77" fill="none" xmlns="http://www.w3.org/2000/svg">
<g opacity="0.06">
<path d="M13.3504 5.2002C12.1702 5.2002 11.0383 5.66903 10.2038 6.50357C9.36923 7.33811 8.90039 8.46998 8.90039 9.6502C8.90039 10.8304 9.36923 11.9623 10.2038 12.7968C11.0383 13.6314 12.1702 14.1002 13.3504 14.1002H18.7794L20.1366 19.5381C20.1501 19.6007 20.165 19.663 20.1811 19.725L26.2242 43.8885L22.2504 47.8579C16.6434 53.4649 20.6128 63.0502 28.5427 63.0502H66.7504C67.9306 63.0502 69.0625 62.5814 69.897 61.7468C70.7315 60.9123 71.2004 59.7804 71.2004 58.6002C71.2004 57.42 70.7315 56.2881 69.897 55.4536C69.0625 54.619 67.9306 54.1502 66.7504 54.1502H28.5427L32.9927 49.7002H62.3004C63.1266 49.6998 63.9363 49.4693 64.639 49.0347C65.3416 48.6001 65.9094 47.9784 66.2787 47.2393L79.6287 20.5393C79.9676 19.8611 80.1276 19.1074 80.0935 18.35C80.0594 17.5925 79.8323 16.8563 79.4337 16.2113C79.0352 15.5662 78.4785 15.0337 77.8163 14.6642C77.1542 14.2947 76.4086 14.1006 75.6504 14.1002H27.9464L26.5669 8.56885C26.3258 7.60655 25.7701 6.75239 24.9881 6.14206C24.206 5.53173 23.2424 5.20022 22.2504 5.2002H13.3504ZM71.2004 74.1752C71.2004 75.9455 70.4971 77.6433 69.2453 78.8951C67.9935 80.1469 66.2957 80.8502 64.5254 80.8502C62.7551 80.8502 61.0572 80.1469 59.8054 78.8951C58.5536 77.6433 57.8504 75.9455 57.8504 74.1752C57.8504 72.4049 58.5536 70.7071 59.8054 69.4553C61.0572 68.2035 62.7551 67.5002 64.5254 67.5002C66.2957 67.5002 67.9935 68.2035 69.2453 69.4553C70.4971 70.7071 71.2004 72.4049 71.2004 74.1752ZM28.9254 80.8502C30.6957 80.8502 32.3935 80.1469 33.6453 78.8951C34.8971 77.6433 35.6004 75.9455 35.6004 74.1752C35.6004 72.4049 34.8971 70.7071 33.6453 69.4553C32.3935 68.2035 30.6957 67.5002 28.9254 67.5002C27.1551 67.5002 25.4573 68.2035 24.2054 69.4553C22.9536 70.7071 22.2504 72.4049 22.2504 74.1752C22.2504 75.9455 22.9536 77.6433 24.2054 78.8951C25.4573 80.1469 27.1551 80.8502 28.9254 80.8502V80.8502Z" fill="url(#paint0_linear_2201_39812)"/>
</g>
<defs>
<linearGradient id="paint0_linear_2201_39812" x1="44.4992" y1="5.2002" x2="44.4992" y2="80.8502" gradientUnits="userSpaceOnUse">
<stop stop-color="#2F3640"/>
<stop offset="1" stop-color="#2F3640" stop-opacity="0"/>
</linearGradient>
</defs>
</svg>
