<svg width="89" height="77" viewBox="0 0 89 77" fill="none" xmlns="http://www.w3.org/2000/svg">
<g opacity="0.06">
<path fill-rule="evenodd" clip-rule="evenodd" d="M8.90039 27.4498C8.90039 25.0894 9.83807 22.8256 11.5071 21.1566C13.1762 19.4875 15.44 18.5498 17.8004 18.5498H35.6004L44.5004 27.4498H62.3004C64.6608 27.4498 66.9246 28.3875 68.5936 30.0566C70.2627 31.7256 71.2004 33.9894 71.2004 36.3498V40.7998H35.6004C32.0598 40.7998 28.6641 42.2063 26.1605 44.7099C23.6569 47.2135 22.2504 50.6092 22.2504 54.1498V60.8248C22.2504 62.5951 21.5471 64.2929 20.2953 65.5447C19.0435 66.7965 17.3457 67.4998 15.5754 67.4998C13.8051 67.4998 12.1073 66.7965 10.8555 65.5447C9.60365 64.2929 8.90039 62.5951 8.90039 60.8248V27.4498Z" fill="url(#paint0_linear_2201_16595)"/>
<path d="M26.7004 54.15C26.7004 51.7896 27.6381 49.5258 29.3071 47.8568C30.9762 46.1877 33.24 45.25 35.6004 45.25H71.2004C73.5608 45.25 75.8246 46.1877 77.4936 47.8568C79.1627 49.5258 80.1004 51.7896 80.1004 54.15V63.05C80.1004 65.4104 79.1627 67.6742 77.4936 69.3433C75.8246 71.0123 73.5608 71.95 71.2004 71.95H8.90039H17.8004C20.1608 71.95 22.4246 71.0123 24.0936 69.3433C25.7627 67.6742 26.7004 65.4104 26.7004 63.05V54.15Z" fill="url(#paint1_linear_2201_16595)"/>
</g>
<defs>
<linearGradient id="paint0_linear_2201_16595" x1="40.0504" y1="18.5498" x2="40.0504" y2="67.4998" gradientUnits="userSpaceOnUse">
<stop stop-color="#2F3640"/>
<stop offset="1" stop-color="#2F3640" stop-opacity="0"/>
</linearGradient>
<linearGradient id="paint1_linear_2201_16595" x1="44.5004" y1="19.75" x2="44.5004" y2="71.95" gradientUnits="userSpaceOnUse">
<stop stop-color="#2F3640"/>
<stop offset="1" stop-color="#2F3640" stop-opacity="0"/>
</linearGradient>
</defs>
</svg>
