<svg width="89" height="90" viewBox="0 0 89 90" fill="none" xmlns="http://www.w3.org/2000/svg">
<g opacity="0.06">
<path fill-rule="evenodd" clip-rule="evenodd" d="M17.8004 18.0498C15.44 18.0498 13.1762 18.9875 11.5071 20.6566C9.83807 22.3256 8.90039 24.5894 8.90039 26.9498V44.7498C8.90039 47.1102 9.83807 49.374 11.5071 51.0431C13.1762 52.7121 15.44 53.6498 17.8004 53.6498V26.9498H62.3004C62.3004 24.5894 61.3627 22.3256 59.6936 20.6566C58.0246 18.9875 55.7608 18.0498 53.4004 18.0498H17.8004ZM26.7004 44.7498C26.7004 42.3894 27.6381 40.1256 29.3071 38.4566C30.9762 36.7875 33.24 35.8498 35.6004 35.8498H71.2004C73.5608 35.8498 75.8246 36.7875 77.4936 38.4566C79.1627 40.1256 80.1004 42.3894 80.1004 44.7498V62.5498C80.1004 64.9102 79.1627 67.174 77.4936 68.8431C75.8246 70.5121 73.5608 71.4498 71.2004 71.4498H35.6004C33.24 71.4498 30.9762 70.5121 29.3071 68.8431C27.6381 67.174 26.7004 64.9102 26.7004 62.5498V44.7498ZM53.4004 62.5498C55.7608 62.5498 58.0246 61.6121 59.6936 59.9431C61.3627 58.274 62.3004 56.0102 62.3004 53.6498C62.3004 51.2894 61.3627 49.0256 59.6936 47.3566C58.0246 45.6875 55.7608 44.7498 53.4004 44.7498C51.04 44.7498 48.7762 45.6875 47.1071 47.3566C45.4381 49.0256 44.5004 51.2894 44.5004 53.6498C44.5004 56.0102 45.4381 58.274 47.1071 59.9431C48.7762 61.6121 51.04 62.5498 53.4004 62.5498Z" fill="url(#paint0_linear_2201_39894)"/>
</g>
<defs>
<linearGradient id="paint0_linear_2201_39894" x1="44.5004" y1="18.0498" x2="44.5004" y2="71.4498" gradientUnits="userSpaceOnUse">
<stop stop-color="#2F3640"/>
<stop offset="1" stop-color="#2F3640" stop-opacity="0"/>
</linearGradient>
</defs>
</svg>
