<svg width="89" height="90" viewBox="0 0 89 90" fill="none" xmlns="http://www.w3.org/2000/svg">
<g opacity="0.06">
<path d="M8.90039 49.2001C8.90039 48.0199 9.36923 46.888 10.2038 46.0535C11.0383 45.2189 12.1702 44.7501 13.3504 44.7501H22.2504C23.4306 44.7501 24.5625 45.2189 25.397 46.0535C26.2316 46.888 26.7004 48.0199 26.7004 49.2001V71.4501C26.7004 72.6303 26.2316 73.7622 25.397 74.5967C24.5625 75.4313 23.4306 75.9001 22.2504 75.9001H13.3504C12.1702 75.9001 11.0383 75.4313 10.2038 74.5967C9.36923 73.7622 8.90039 72.6303 8.90039 71.4501V49.2001ZM35.6004 31.4001C35.6004 30.2199 36.0692 29.088 36.9038 28.2535C37.7383 27.4189 38.8702 26.9501 40.0504 26.9501H48.9504C50.1306 26.9501 51.2625 27.4189 52.097 28.2535C52.9315 29.088 53.4004 30.2199 53.4004 31.4001V71.4501C53.4004 72.6303 52.9315 73.7622 52.097 74.5967C51.2625 75.4313 50.1306 75.9001 48.9504 75.9001H40.0504C38.8702 75.9001 37.7383 75.4313 36.9038 74.5967C36.0692 73.7622 35.6004 72.6303 35.6004 71.4501V31.4001ZM62.3004 18.0501C62.3004 16.8699 62.7692 15.738 63.6038 14.9035C64.4383 14.0689 65.5702 13.6001 66.7504 13.6001H75.6504C76.8306 13.6001 77.9625 14.0689 78.797 14.9035C79.6316 15.738 80.1004 16.8699 80.1004 18.0501V71.4501C80.1004 72.6303 79.6316 73.7622 78.797 74.5967C77.9625 75.4313 76.8306 75.9001 75.6504 75.9001H66.7504C65.5702 75.9001 64.4383 75.4313 63.6038 74.5967C62.7692 73.7622 62.3004 72.6303 62.3004 71.4501V18.0501Z" fill="url(#paint0_linear_2201_39658)"/>
</g>
<defs>
<linearGradient id="paint0_linear_2201_39658" x1="44.5004" y1="13.6001" x2="44.5004" y2="75.9001" gradientUnits="userSpaceOnUse">
<stop stop-color="#2F3640"/>
<stop offset="1" stop-color="#2F3640" stop-opacity="0"/>
</linearGradient>
</defs>
</svg>
