<svg width="89" height="77" viewBox="0 0 89 77" fill="none" xmlns="http://www.w3.org/2000/svg">
<g opacity="0.06">
<path fill-rule="evenodd" clip-rule="evenodd" d="M35.6004 18.5499C30.8795 18.5499 26.352 20.4252 23.0139 23.7634C19.6757 27.1015 17.8004 31.629 17.8004 36.3499C17.8004 41.0708 19.6757 45.5983 23.0139 48.9364C26.352 52.2745 30.8795 54.1499 35.6004 54.1499C40.3212 54.1499 44.8487 52.2745 48.1869 48.9364C51.525 45.5983 53.4004 41.0708 53.4004 36.3499C53.4004 31.629 51.525 27.1015 48.1869 23.7634C44.8487 20.4252 40.3212 18.5499 35.6004 18.5499ZM8.90039 36.3499C8.89985 32.1478 9.89115 28.0049 11.7937 24.2581C13.6962 20.5113 16.4561 17.2665 19.8492 14.7875C23.2422 12.3086 27.1724 10.6654 31.3201 9.9918C35.4679 9.31816 39.7161 9.63303 43.7193 10.9108C47.7224 12.1886 51.3674 14.3932 54.3579 17.3453C57.3483 20.2974 59.5998 23.9136 60.9291 27.8999C62.2585 31.8862 62.6282 36.13 62.0081 40.2862C61.3881 44.4423 59.7959 48.3934 57.3609 51.8181L78.7965 73.2537C79.6072 74.093 80.0557 75.2171 80.0455 76.3839C80.0354 77.5507 79.5674 78.6668 78.7423 79.4918C77.9173 80.3169 76.8012 80.7849 75.6344 80.7951C74.4676 80.8052 73.3435 80.3567 72.5042 79.5461L51.073 58.1148C47.0786 60.9552 42.3793 62.6412 37.4902 62.9881C32.6011 63.335 27.7109 62.3295 23.3553 60.0816C18.9998 57.8338 15.347 54.4304 12.7974 50.2444C10.2477 46.0584 8.89944 41.2513 8.90039 36.3499V36.3499Z" fill="url(#paint0_linear_2201_39875)"/>
</g>
<defs>
<linearGradient id="paint0_linear_2201_39875" x1="44.4731" y1="9.64648" x2="44.4731" y2="80.7952" gradientUnits="userSpaceOnUse">
<stop stop-color="#2F3640"/>
<stop offset="1" stop-color="#2F3640" stop-opacity="0"/>
</linearGradient>
</defs>
</svg>
