<svg width="89" height="77" viewBox="0 0 89 77" fill="none" xmlns="http://www.w3.org/2000/svg">
<g opacity="0.06">
<path d="M40.2683 13.775C41.6033 9.67656 47.4017 9.67656 48.7322 13.775L53.4937 28.4244C53.7846 29.3166 54.3501 30.094 55.1094 30.6454C55.8687 31.1969 56.7828 31.4942 57.7212 31.4949H73.1271C77.4392 31.4949 79.2281 37.0129 75.7437 39.5494L63.2837 48.6007C62.5229 49.1526 61.9564 49.9313 61.6654 50.8251C61.3744 51.7188 61.3739 52.6817 61.6639 53.5758L66.4254 68.2252C67.7604 72.3237 63.0657 75.7368 59.5724 73.2003L47.1124 64.149C46.3524 63.5972 45.4373 63.3001 44.4981 63.3001C43.5588 63.3001 42.6437 63.5972 41.8837 64.149L29.4237 73.2003C25.9349 75.7368 21.2446 72.3237 22.5751 68.2252L27.3366 53.5758C27.6267 52.6817 27.6261 51.7188 27.3351 50.8251C27.0442 49.9313 26.4776 49.1526 25.7168 48.6007L13.2613 39.5539C9.77693 37.0174 11.5703 31.4994 15.8779 31.4994H31.2793C32.2185 31.4996 33.1337 31.2027 33.8938 30.6512C34.654 30.0996 35.2201 29.3218 35.5113 28.4289L40.2728 13.7795L40.2683 13.775Z" fill="url(#paint0_linear_2201_39854)"/>
</g>
<defs>
<linearGradient id="paint0_linear_2201_39854" x1="44.5031" y1="10.7012" x2="44.5031" y2="74.0713" gradientUnits="userSpaceOnUse">
<stop stop-color="#2F3640"/>
<stop offset="1" stop-color="#2F3640" stop-opacity="0"/>
</linearGradient>
</defs>
</svg>
