<svg width="89" height="90" viewBox="0 0 89 90" fill="none" xmlns="http://www.w3.org/2000/svg">
<g opacity="0.06">
<path d="M44.4996 53.6501C46.86 53.6501 49.1238 52.7124 50.7929 51.0433C52.4619 49.3743 53.3996 47.1105 53.3996 44.7501C53.3996 42.3897 52.4619 40.1259 50.7929 38.4568C49.1238 36.7878 46.86 35.8501 44.4996 35.8501C42.1392 35.8501 39.8754 36.7878 38.2064 38.4568C36.5373 40.1259 35.5996 42.3897 35.5996 44.7501C35.5996 47.1105 36.5373 49.3743 38.2064 51.0433C39.8754 52.7124 42.1392 53.6501 44.4996 53.6501Z" fill="black"/>
<path fill-rule="evenodd" clip-rule="evenodd" d="M2.03809 44.7501C7.70739 26.6964 24.5729 13.6001 44.5 13.6001C64.4271 13.6001 81.2926 26.6964 86.9619 44.7501C81.2926 62.8038 64.4271 75.9001 44.5 75.9001C24.5729 75.9001 7.70739 62.8038 2.03809 44.7501ZM62.3 44.7501C62.3 49.471 60.4246 53.9985 57.0865 57.3366C53.7483 60.6747 49.2208 62.5501 44.5 62.5501C39.7791 62.5501 35.2516 60.6747 31.9135 57.3366C28.5753 53.9985 26.7 49.471 26.7 44.7501C26.7 40.0292 28.5753 35.5017 31.9135 32.1636C35.2516 28.8254 39.7791 26.9501 44.5 26.9501C49.2208 26.9501 53.7483 28.8254 57.0865 32.1636C60.4246 35.5017 62.3 40.0292 62.3 44.7501V44.7501Z" fill="black"/>
</g>
</svg>
