<svg width="14" height="14" viewBox="0 0 14 14" fill="none" xmlns="http://www.w3.org/2000/svg">
    <path fill-rule="evenodd" clip-rule="evenodd" d="M7.0001 13.4001C8.69748 13.4001 10.3253 12.7258 11.5256 11.5256C12.7258 10.3253 13.4001 8.69748 13.4001 7.0001C13.4001 5.30271 12.7258 3.67485 11.5256 2.47461C10.3253 1.27438 8.69748 0.600098 7.0001 0.600098C5.30271 0.600098 3.67485 1.27438 2.47461 2.47461C1.27438 3.67485 0.600098 5.30271 0.600098 7.0001C0.600098 8.69748 1.27438 10.3253 2.47461 11.5256C3.67485 12.7258 5.30271 13.4001 7.0001 13.4001ZM9.9657 5.9657C10.1114 5.81482 10.1921 5.61273 10.1902 5.40298C10.1884 5.19322 10.1043 4.99257 9.95595 4.84424C9.80763 4.69592 9.60698 4.61178 9.39722 4.60996C9.18746 4.60814 8.98538 4.68877 8.8345 4.8345L6.2001 7.4689L5.1657 6.4345C5.01482 6.28877 4.81273 6.20814 4.60298 6.20996C4.39322 6.21178 4.19257 6.29592 4.04424 6.44424C3.89592 6.59257 3.81178 6.79322 3.80996 7.00298C3.80814 7.21273 3.88877 7.41482 4.0345 7.5657L5.6345 9.1657C5.78452 9.31567 5.98797 9.39993 6.2001 9.39993C6.41223 9.39993 6.61567 9.31567 6.7657 9.1657L9.9657 5.9657Z" fill="#710BFF"/>
</svg>
