<svg width="14" height="14" viewBox="0 0 14 14" fill="none" xmlns="http://www.w3.org/2000/svg">
<path fill-rule="evenodd" clip-rule="evenodd" d="M7.0001 13.4001C8.69748 13.4001 10.3253 12.7258 11.5256 11.5256C12.7258 10.3253 13.4001 8.69748 13.4001 7.0001C13.4001 5.30271 12.7258 3.67485 11.5256 2.47461C10.3253 1.27438 8.69748 0.600098 7.0001 0.600098C5.30271 0.600098 3.67485 1.27438 2.47461 2.47461C1.27438 3.67485 0.600098 5.30271 0.600098 7.0001C0.600098 8.69748 1.27438 10.3253 2.47461 11.5256C3.67485 12.7258 5.30271 13.4001 7.0001 13.4001ZM5.9657 4.8345C5.81482 4.68877 5.61273 4.60814 5.40298 4.60996C5.19322 4.61178 4.99257 4.69592 4.84424 4.84424C4.69592 4.99257 4.61178 5.19322 4.60996 5.40298C4.60814 5.61273 4.68877 5.81482 4.8345 5.9657L5.8689 7.0001L4.8345 8.0345C4.75809 8.10829 4.69714 8.19657 4.65522 8.29417C4.61329 8.39178 4.59122 8.49675 4.5903 8.60298C4.58937 8.7092 4.60962 8.81454 4.64984 8.91286C4.69006 9.01118 4.74947 9.1005 4.82458 9.17561C4.8997 9.25073 4.98902 9.31013 5.08733 9.35035C5.18565 9.39058 5.291 9.41082 5.39722 9.4099C5.50344 9.40897 5.60842 9.38691 5.70602 9.34498C5.80362 9.30305 5.8919 9.24211 5.9657 9.1657L7.0001 8.1313L8.0345 9.1657C8.18538 9.31142 8.38746 9.39206 8.59722 9.39024C8.80698 9.38841 9.00763 9.30428 9.15595 9.15595C9.30428 9.00763 9.38841 8.80698 9.39024 8.59722C9.39206 8.38746 9.31142 8.18538 9.1657 8.0345L8.1313 7.0001L9.1657 5.9657C9.31142 5.81482 9.39206 5.61273 9.39024 5.40298C9.38841 5.19322 9.30428 4.99257 9.15595 4.84424C9.00763 4.69592 8.80698 4.61178 8.59722 4.60996C8.38746 4.60814 8.18538 4.68877 8.0345 4.8345L7.0001 5.8689L5.9657 4.8345Z" fill="#C8CFD9"/>
</svg>
