<svg width="24" height="24" viewBox="0 0 24 24" fill="none" xmlns="http://www.w3.org/2000/svg">
<path fill-rule="evenodd" clip-rule="evenodd" d="M12 23.1998C14.9705 23.1998 17.8192 22.0198 19.9196 19.9194C22.0201 17.819 23.2 14.9702 23.2 11.9998C23.2 9.02938 22.0201 6.18062 19.9196 4.08021C17.8192 1.9798 14.9705 0.799805 12 0.799805C9.02962 0.799805 6.18086 1.9798 4.08045 4.08021C1.98005 6.18062 0.800049 9.02938 0.800049 11.9998C0.800049 14.9702 1.98005 17.819 4.08045 19.9194C6.18086 22.0198 9.02962 23.1998 12 23.1998ZM17.1898 10.1896C17.4449 9.92556 17.586 9.57192 17.5828 9.20484C17.5796 8.83777 17.4324 8.48663 17.1728 8.22706C16.9132 7.96749 16.5621 7.82025 16.195 7.81706C15.8279 7.81387 15.4743 7.95498 15.2102 8.21L10.6 12.8202L8.78985 11.01C8.5258 10.755 8.17216 10.6139 7.80509 10.6171C7.43801 10.6202 7.08687 10.7675 6.8273 11.0271C6.56773 11.2866 6.42049 11.6378 6.4173 12.0048C6.41411 12.3719 6.55523 12.7256 6.81025 12.9896L9.61025 15.7896C9.87279 16.0521 10.2288 16.1995 10.6 16.1995C10.9713 16.1995 11.3273 16.0521 11.5898 15.7896L17.1898 10.1896Z" fill="#46C03B"/>
</svg>
