<svg width="20" height="18" viewBox="0 0 20 18" fill="none" xmlns="http://www.w3.org/2000/svg">
<path fill-rule="evenodd" clip-rule="evenodd" d="M7.91017 2.21619C8.82817 0.584187 11.1766 0.584187 12.0934 2.21619L18.7894 14.1202C19.6894 15.721 18.5338 17.6962 16.699 17.6962H3.30577C1.46977 17.6962 0.314171 15.721 1.21417 14.1202L7.91017 2.21619ZM11.2018 14.0974C11.2018 14.4156 11.0753 14.7209 10.8503 14.9459C10.6253 15.171 10.32 15.2974 10.0018 15.2974C9.68351 15.2974 9.37829 15.171 9.15324 14.9459C8.9282 14.7209 8.80177 14.4156 8.80177 14.0974C8.80177 13.7791 8.9282 13.4739 9.15324 13.2489C9.37829 13.0238 9.68351 12.8974 10.0018 12.8974C10.32 12.8974 10.6253 13.0238 10.8503 13.2489C11.0753 13.4739 11.2018 13.7791 11.2018 14.0974ZM10.0018 4.49739C9.68351 4.49739 9.37829 4.62382 9.15324 4.84886C8.9282 5.0739 8.80177 5.37913 8.80177 5.69739V9.29739C8.80177 9.61565 8.9282 9.92087 9.15324 10.1459C9.37829 10.371 9.68351 10.4974 10.0018 10.4974C10.32 10.4974 10.6253 10.371 10.8503 10.1459C11.0753 9.92087 11.2018 9.61565 11.2018 9.29739V5.69739C11.2018 5.37913 11.0753 5.0739 10.8503 4.84886C10.6253 4.62382 10.32 4.49739 10.0018 4.49739Z" fill="#FF3981"/>
</svg>
