<svg width="12" height="14" viewBox="0 0 12 14" fill="none" xmlns="http://www.w3.org/2000/svg">
<path fill-rule="evenodd" clip-rule="evenodd" d="M0.400391 1.40156C0.400391 1.18939 0.484676 0.985906 0.634705 0.835877C0.784734 0.685848 0.988217 0.601563 1.20039 0.601562H10.8004C11.0126 0.601563 11.216 0.685848 11.3661 0.835877C11.5161 0.985906 11.6004 1.18939 11.6004 1.40156V3.80156C11.6003 4.01372 11.516 4.21717 11.366 4.36716L7.60039 8.13276V11.0016C7.60035 11.2137 7.51603 11.4172 7.36599 11.5672L5.76599 13.1672C5.65411 13.279 5.51158 13.3552 5.35642 13.386C5.20125 13.4169 5.04043 13.401 4.89427 13.3405C4.74811 13.28 4.62318 13.1775 4.53527 13.0459C4.44736 12.9144 4.40042 12.7598 4.40039 12.6016V8.13276L0.634791 4.36716C0.484751 4.21717 0.400436 4.01372 0.400391 3.80156V1.40156Z" fill="#7E8793"/>
</svg>
