<svg width="4" height="14" viewBox="0 0 4 14" fill="none" xmlns="http://www.w3.org/2000/svg">
<path d="M1.99844 3.80156C1.57409 3.80156 1.16713 3.63299 0.867067 3.33293C0.567009 3.03288 0.398438 2.62591 0.398438 2.20156C0.398438 1.77722 0.567009 1.37025 0.867067 1.07019C1.16713 0.770133 1.57409 0.601563 1.99844 0.601562C2.42278 0.601563 2.82975 0.770133 3.12981 1.07019C3.42987 1.37025 3.59844 1.77722 3.59844 2.20156C3.59844 2.62591 3.42987 3.03288 3.12981 3.33293C2.82975 3.63299 2.42278 3.80156 1.99844 3.80156ZM1.99844 8.60156C1.57409 8.60156 1.16713 8.43299 0.867067 8.13293C0.567009 7.83287 0.398438 7.42591 0.398438 7.00156C0.398438 6.57722 0.567009 6.17025 0.867067 5.87019C1.16713 5.57013 1.57409 5.40156 1.99844 5.40156C2.42278 5.40156 2.82975 5.57013 3.12981 5.87019C3.42987 6.17025 3.59844 6.57722 3.59844 7.00156C3.59844 7.42591 3.42987 7.83287 3.12981 8.13293C2.82975 8.43299 2.42278 8.60156 1.99844 8.60156ZM1.99844 13.4016C1.57409 13.4016 1.16713 13.233 0.867067 12.9329C0.567009 12.6329 0.398438 12.2259 0.398438 11.8016C0.398438 11.3772 0.567009 10.9702 0.867067 10.6702C1.16713 10.3701 1.57409 10.2016 1.99844 10.2016C2.42278 10.2016 2.82975 10.3701 3.12981 10.6702C3.42987 10.9702 3.59844 11.3772 3.59844 11.8016C3.59844 12.2259 3.42987 12.6329 3.12981 12.9329C2.82975 13.233 2.42278 13.4016 1.99844 13.4016Z" fill="#7E8793"/>
</svg>
