<svg width="32" height="32" viewBox="0 0 32 32" fill="none" xmlns="http://www.w3.org/2000/svg">
<path fill-rule="evenodd" clip-rule="evenodd" d="M16.0002 28.7992C19.395 28.7992 22.6507 27.4507 25.0512 25.0502C27.4516 22.6497 28.8002 19.394 28.8002 15.9992C28.8002 12.6044 27.4516 9.34872 25.0512 6.94825C22.6507 4.54779 19.395 3.19922 16.0002 3.19922C12.6054 3.19922 9.34969 4.54779 6.94923 6.94825C4.54876 9.34872 3.2002 12.6044 3.2002 15.9992C3.2002 19.394 4.54876 22.6497 6.94923 25.0502C9.34969 27.4507 12.6054 28.7992 16.0002 28.7992ZM21.9314 13.9304C22.2228 13.6287 22.3841 13.2245 22.3805 12.805C22.3768 12.3855 22.2086 11.9842 21.9119 11.6875C21.6153 11.3909 21.214 11.2226 20.7944 11.2189C20.3749 11.2153 19.9708 11.3766 19.669 11.668L14.4002 16.9368L12.3314 14.868C12.0296 14.5766 11.6255 14.4153 11.206 14.4189C10.7864 14.4226 10.3851 14.5909 10.0885 14.8875C9.79183 15.1842 9.62356 15.5855 9.61992 16.005C9.61627 16.4245 9.77754 16.8287 10.069 17.1304L13.269 20.3304C13.569 20.6304 13.9759 20.7989 14.4002 20.7989C14.8245 20.7989 15.2313 20.6304 15.5314 20.3304L21.9314 13.9304Z" fill="#C8CFD9"/>
</svg>
