<svg width="16" height="16" viewBox="0 0 16 16" fill="none" xmlns="http://www.w3.org/2000/svg">
<path fill-rule="evenodd" clip-rule="evenodd" d="M8.83366 2.66797C8.83366 2.39183 9.05752 2.16797 9.33366 2.16797H13.3337C13.6098 2.16797 13.8337 2.39183 13.8337 2.66797V6.66797C13.8337 6.94411 13.6098 7.16797 13.3337 7.16797C13.0575 7.16797 12.8337 6.94411 12.8337 6.66797V3.87508L7.02055 9.68819C6.82528 9.88345 6.5087 9.88345 6.31344 9.68819C6.11818 9.49293 6.11818 9.17634 6.31344 8.98108L12.1266 3.16797H9.33366C9.05752 3.16797 8.83366 2.94411 8.83366 2.66797ZM2.70396 4.03827C3.04778 3.69446 3.5141 3.5013 4.00033 3.5013H6.66699C6.94313 3.5013 7.16699 3.72516 7.16699 4.0013C7.16699 4.27744 6.94313 4.5013 6.66699 4.5013H4.00033C3.77931 4.5013 3.56735 4.5891 3.41107 4.74538C3.25479 4.90166 3.16699 5.11362 3.16699 5.33464V12.0013C3.16699 12.2223 3.25479 12.4343 3.41107 12.5906C3.56735 12.7468 3.77931 12.8346 4.00033 12.8346H10.667C10.888 12.8346 11.1 12.7468 11.2562 12.5906C11.4125 12.4343 11.5003 12.2223 11.5003 12.0013V9.33463C11.5003 9.05849 11.7242 8.83463 12.0003 8.83463C12.2765 8.83463 12.5003 9.05849 12.5003 9.33463V12.0013C12.5003 12.4875 12.3072 12.9538 11.9634 13.2977C11.6195 13.6415 11.1532 13.8346 10.667 13.8346H4.00033C3.51409 13.8346 3.04778 13.6415 2.70396 13.2977C2.36015 12.9538 2.16699 12.4875 2.16699 12.0013V5.33464C2.16699 4.84841 2.36015 4.38209 2.70396 4.03827Z" fill="#A6AFBD"/>
</svg>
