<svg width="112" height="39" viewBox="0 0 112 39" fill="none" xmlns="http://www.w3.org/2000/svg">
<path d="M17.7838 27.1757C16.3649 27.1757 14.9459 26.9865 13.527 26.6081C12.2027 26.2297 11.0676 25.7568 10.2162 25.1892L11.9189 21.5C12.6757 22.0676 13.6216 22.446 14.6621 22.7297C15.7027 23.0135 16.7432 23.2027 17.7838 23.2027C19.7703 23.2027 20.6216 22.7297 20.7162 21.7838C20.7162 20.4595 18.4459 19.9865 17.2162 19.7973C15.8919 19.5135 14.7567 19.2297 13.8108 18.8514C12.8649 18.473 12.1081 18 11.4459 17.2433C10.7838 16.4865 10.4054 15.7297 10.4054 14.5C10.4054 13.4595 10.6892 12.4189 11.2567 11.5676C11.8243 10.7162 12.7703 9.95947 13.9054 9.48649C15.1351 9.01352 16.554 8.72974 18.2567 8.72974C19.3919 8.72974 20.6216 8.82433 21.7567 9.10811C22.8919 9.3919 23.9324 9.77028 24.7838 10.2433L23.2703 13.9324C21.5676 12.9865 19.9594 12.6081 18.3513 12.6081C17.3108 12.6081 16.6486 12.7973 16.1757 13.0811C15.7027 13.3649 15.5135 13.7432 15.5135 14.2162C15.5135 14.6892 15.7027 15.1622 16.2703 15.446C16.8378 15.6351 17.6892 15.9189 18.9189 16.2027C20.2432 16.4865 21.3784 16.7703 22.3243 17.1487C23.2703 17.4324 24.027 18 24.6892 18.7568C25.3513 19.4189 25.7297 20.2703 25.7297 21.5C25.7297 22.5405 25.4459 23.4865 24.8784 24.3378C24.3108 25.1892 23.3649 25.8514 22.2297 26.4189C21 26.8919 19.5811 27.1757 17.7838 27.1757Z" fill="#2F3640"/>
<path fill-rule="evenodd" clip-rule="evenodd" d="M17.5 34.8615C13.6431 34.8615 9.47288 34.1275 6.77571 32.7513L8.37925 29.3875C10.057 30.3941 13.8366 31.0777 17.5 31.0777C21.1633 31.0777 24.9392 30.3941 26.617 29.3875L28.1458 32.7333C25.5288 34.1677 21.3569 34.8615 17.5 34.8615Z" fill="#2F3640"/>
<path d="M37.1 21.5C36.3 21.3 35.6 21 35 20.6L36 18.3C36.5 18.6 37.1 18.9 37.7 19.1C38.4 19.3 39 19.4 39.6 19.4C40.8 19.4 41.4 19.1 41.4 18.5C41.4 18.2 41.2 17.9 40.9 17.8C40.6 17.6 40 17.5 39.2 17.3C38.4 17.1 37.7 16.9 37.1 16.7C36.5 16.5 36.1 16.2 35.7 15.7C35.3 15.2 35.1 14.6 35.1 13.9C35.1 13.2 35.3 12.6 35.7 12.1C36.1 11.6 36.6 11.1 37.4 10.8C38.1 10.5 39 10.3 40.1 10.3C40.8 10.3 41.5 10.4 42.3 10.5C43 10.7 43.6 10.9 44.2 11.2L43.3 13.5C42.2 12.9 41.2 12.6 40.2 12.6C39.6 12.6 39.1 12.7 38.8 12.9C38.5 13.1 38.4 13.3 38.4 13.6C38.4 13.9 38.6 14.1 38.9 14.3C39.2 14.5 39.8 14.6 40.5 14.8C41.3 15 42 15.2 42.6 15.4C43.2 15.6 43.6 15.9 44 16.4C44.4 16.9 44.6 17.5 44.6 18.2C44.6 18.9 44.4 19.5 44 20C43.6 20.5 43.1 21 42.3 21.3C41.6 21.6 40.7 21.8 39.6 21.8C38.9 21.8 38 21.7 37.1 21.5Z" fill="#2F3640"/>
<path d="M55.9 19.2V21.6H47V10.5H55.7V12.9H50.1V14.8H55V17.1H50.1V19.1H55.9V19.2Z" fill="#2F3640"/>
<path d="M58.5 10.5H61.6V19.1H66.9V21.6H58.5V10.5V10.5Z" fill="#2F3640"/>
<path d="M69 10.5H72.1V19.1H77.4V21.6H69V10.5V10.5Z" fill="#2F3640"/>
<path d="M88.3 19.2V21.6H79.4V10.5H88.1V12.9H82.5V14.8H87.4V17.1H82.5V19.1H88.3V19.2Z" fill="#2F3640"/>
<path d="M95.6 18.6H93.9V21.6H90.8V10.5H95.9C96.9 10.5 97.8 10.7 98.5 11C99.2 11.3 99.8 11.8 100.2 12.4C100.6 13 100.8 13.7 100.8 14.6C100.8 15.4 100.6 16.1 100.2 16.7C99.8 17.3 99.3 17.8 98.6 18.1L101 21.6H97.6L95.6 18.6ZM97.1 13.4C96.8 13.1 96.3 13 95.6 13H93.9V16.2H95.6C96.2 16.2 96.7 16.1 97.1 15.8C97.4 15.5 97.6 15.1 97.6 14.6C97.6 14.1 97.5 13.7 97.1 13.4Z" fill="#2F3640"/>
<path d="M40 32.3V33.1H35.3V26.6H39.9V27.4H36.2V29.4H39.5V30.2H36.2V32.3C36.2 32.3 40 32.3 40 32.3Z" fill="#2F3640"/>
<path d="M51.5 33.2L49.5 30.5L47.6 33.2H46.5L48.9 29.9L46.6 26.7H47.7L49.5 29.2L51.3 26.7H52.3L50 29.7999L52.5 33.2H51.5Z" fill="#2F3640"/>
<path d="M63.9 27.3C64.4 27.7 64.6 28.3 64.6 29C64.6 29.7 64.4 30.3 63.9 30.7C63.4 31.1 62.8 31.3 61.9 31.3H60.3V33.3H59.4V26.8H61.9C62.8 26.7 63.5 26.9 63.9 27.3ZM63.3 30C63.6 29.7 63.8 29.4 63.8 28.9C63.8 28.4 63.6 28.1 63.3 27.8C63 27.5 62.5 27.4 62 27.4H60.4V30.3H62C62.5 30.4 63 30.2 63.3 30Z" fill="#2F3640"/>
<path d="M76.6 32.3V33.1H71.9V26.6H76.5V27.4H72.8V29.4H76.1V30.2H72.8V32.3C72.8 32.3 76.6 32.3 76.6 32.3Z" fill="#2F3640"/>
<path d="M88.5 33.2L87.1 31.2C86.9 31.2 86.8 31.2 86.7 31.2H85.1V33.2H84.2V26.7H86.7C87.5 26.7 88.2 26.8999 88.7 27.2999C89.2 27.6999 89.4 28.3 89.4 29C89.4 29.5 89.3 29.8999 89 30.2999C88.8 30.6999 88.4 30.8999 87.9 31.0999L89.4 33.2999L88.5 33.2ZM88 30C88.3 29.7 88.5 29.4 88.5 28.9C88.5 28.4 88.3 28.0999 88 27.7999C87.7 27.4999 87.2 27.4 86.7 27.4H85.1V30.2999H86.7C87.1 30.3999 87.6 30.3 88 30Z" fill="#2F3640"/>
<path d="M98 27.5H95.8V26.7H101.2V27.5H99V33.2H98.1L98 27.5Z" fill="#2F3640"/>
<rect x="83.7204" width="28.5292" height="10.5108" rx="5.25538" transform="rotate(15 83.7204 0)" fill="#FFF176"/>
<path d="M86.6084 9.0224L88.0123 3.78296L89.8614 4.27841C90.5019 4.45004 90.955 4.70257 91.2205 5.036C91.4867 5.36703 91.5569 5.76764 91.4309 6.23785C91.3621 6.49454 91.2349 6.70344 91.0492 6.86454C90.8642 7.02324 90.6411 7.11643 90.3798 7.14412C90.6325 7.28383 90.8089 7.47637 90.9089 7.72174C91.0114 7.96775 91.0231 8.2383 90.944 8.53338C90.809 9.03717 90.5449 9.37522 90.1516 9.54752C89.7582 9.71983 89.2612 9.72808 88.6605 9.57226L86.6084 9.0224ZM88.3074 7.03238L87.9285 8.4466L88.8603 8.69627C89.1165 8.76492 89.3319 8.75838 89.5067 8.67664C89.6845 8.59315 89.802 8.44465 89.8592 8.23114C89.9878 7.75133 89.8029 7.4408 89.3045 7.29954L88.3074 7.03238ZM88.5118 6.2695L89.3167 6.48517C89.868 6.62259 90.2005 6.47899 90.3143 6.05436C90.3779 5.81686 90.3534 5.62775 90.2409 5.48703C90.1314 5.34455 89.9268 5.23316 89.6271 5.15285L88.8657 4.94884L88.5118 6.2695Z" fill="#2F3640"/>
<path d="M95.1352 8.87345L93.0468 8.31388L92.6708 9.7173L95.1217 10.374L94.8893 11.2413L91.3507 10.2931L92.7546 5.05366L96.286 5.99988L96.0517 6.87432L93.608 6.21954L93.2734 7.46822L95.3618 8.0278L95.1352 8.87345Z" fill="#2F3640"/>
<path d="M100.743 8.13141L99.1262 7.69813L97.9566 12.0631L96.8689 11.7717L98.0385 7.40669L96.4432 6.97924L96.6775 6.1048L100.978 7.25697L100.743 8.13141Z" fill="#2F3640"/>
<path d="M103.032 12.2659L101.125 11.7549L100.473 12.7373L99.3162 12.4274L102.685 7.71454L103.693 7.98461L104.265 13.7535L103.109 13.4436L103.032 12.2659ZM101.653 10.9592L102.972 11.3128L102.834 9.17383L101.653 10.9592Z" fill="#2F3640"/>
</svg>
