<svg viewBox="0 0 24 24" fill="none" xmlns="http://www.w3.org/2000/svg">
<path d="M11 3.05505C9.31549 3.24331 7.71836 3.90338 6.39244 4.95929C5.06652 6.0152 4.06569 7.42405 3.50514 9.02368C2.9446 10.6233 2.84711 12.3487 3.22391 14.0013C3.60071 15.6539 4.43648 17.1665 5.63502 18.365C6.83357 19.5636 8.34618 20.3993 9.99877 20.7761C11.6514 21.1529 13.3768 21.0555 14.9764 20.4949C16.576 19.9344 17.9849 18.9335 19.0408 17.6076C20.0967 16.2817 20.7567 14.6846 20.945 13.0001H11V3.05505Z" stroke="currentColor" stroke-width="1.5" stroke-linecap="round" stroke-linejoin="round"/>
<path d="M20.5 8.99994L15 8.99996V3.51196C16.2654 3.96089 17.4147 4.6865 18.3641 5.6359C19.3135 6.5853 20.0391 7.73458 20.488 8.99996L20.5 8.99994Z" stroke="currentColor" stroke-width="1.5" stroke-linecap="round" stroke-linejoin="round"/>
</svg>
