<svg viewBox="0 0 24 25" fill="none" xmlns="http://www.w3.org/2000/svg">
    <path fill-rule="evenodd" clip-rule="evenodd" d="M15 13.25a2.25 2.25 0 1 0 0 4.5 2.25 2.25 0 0 0 0-4.5Zm-3.75 2.25a3.75 3.75 0 1 1 7.5 0 3.75 3.75 0 0 1-7.5 0Z" fill="currentColor"/>
    <path fill-rule="evenodd" clip-rule="evenodd" d="M13 17.25a.75.75 0 0 1 .75.75v3l.8-.6a.75.75 0 0 1 .9 0l.8.6v-3a.75.75 0 0 1 1.5 0v4.5a.75.75 0 0 1-1.2.6L15 21.937 13.45 23.1a.75.75 0 0 1-1.2-.6V18a.75.75 0 0 1 .75-.75Z" fill="currentColor"/>
    <path fill-rule="evenodd" clip-rule="evenodd" d="M5 6.25c-.686 0-1.25.564-1.25 1.25v10A1.25 1.25 0 0 0 5 18.75h5a.75.75 0 0 1 0 1.5H5a2.75 2.75 0 0 1-2.75-2.75v-10A2.756 2.756 0 0 1 5 4.75h14a2.75 2.75 0 0 1 2.75 2.75v10a2.753 2.753 0 0 1-1.375 2.38.75.75 0 0 1-.75-1.3 1.25 1.25 0 0 0 .625-1.08v-10A1.25 1.25 0 0 0 19 6.25H5Z" fill="currentColor"/>
    <path fill-rule="evenodd" clip-rule="evenodd" d="M5.25 9.5A.75.75 0 0 1 6 8.75h12a.75.75 0 0 1 0 1.5H6a.75.75 0 0 1-.75-.75ZM5.25 12.5a.75.75 0 0 1 .75-.75h3a.75.75 0 0 1 0 1.5H6a.75.75 0 0 1-.75-.75ZM5.25 15.5a.75.75 0 0 1 .75-.75h2a.75.75 0 0 1 0 1.5H6a.75.75 0 0 1-.75-.75Z" fill="currentColor"/>
</svg>
