<svg viewBox="0 0 24 24" fill="none" xmlns="http://www.w3.org/2000/svg">
<path d="M12 21.1636C17.0609 21.1636 21.1636 17.0609 21.1636 11.9999C21.1636 6.939 17.0609 2.8363 12 2.8363C6.93906 2.8363 2.83636 6.939 2.83636 11.9999C2.83636 17.0609 6.93906 21.1636 12 21.1636Z" stroke="currentColor" stroke-width="1.5" stroke-linecap="round" stroke-linejoin="round"/>
<path d="M12 15.9272V15.9382" stroke="currentColor" stroke-width="1.5" stroke-linecap="round" stroke-linejoin="round"/>
<path d="M11.9998 12C12.3293 12.0002 12.6536 11.9174 12.9427 11.7594C13.2318 11.6013 13.4765 11.3731 13.6542 11.0956C13.832 10.8182 13.9371 10.5005 13.9598 10.1717C13.9825 9.84302 13.9221 9.51387 13.7842 9.21461C13.6463 8.91535 13.4353 8.6556 13.1707 8.45929C12.906 8.26299 12.5963 8.13643 12.2699 8.09128C11.9435 8.04613 11.611 8.08384 11.303 8.20093C10.995 8.31803 10.7214 8.51075 10.5074 8.76134" stroke="currentColor" stroke-width="1.5" stroke-linecap="round" stroke-linejoin="round"/>
</svg>
