<svg viewBox="0 0 17 16" fill="none" xmlns="http://www.w3.org/2000/svg">
    <path d="m13.601 4.673-1.45.645c-1.417.63-2.833 1.262-4.248 1.894a.578.578 0 0 1-.514-.005C5.57 6.39 3.75 5.58 1.929 4.773c-.069-.03-.139-.057-.229-.094v.179c0 2.195-.001 4.39-.004 6.585 0 .128.036.19.154.242 1.878.83 3.753 1.665 5.627 2.503.113.05.204.059.318-.003.217-.117.428-.056.518.131.09.188 0 .364-.208.5-.297.19-.563.178-.887.03-1.972-.896-3.955-1.77-5.937-2.649-.196-.087-.281-.215-.28-.429.003-2.518.003-5.037-.001-7.555 0-.224.092-.35.291-.438 2.037-.902 4.072-1.807 6.105-2.716a.577.577 0 0 1 .514.003c2.023.905 4.048 1.806 6.075 2.703.228.1.319.244.317.492-.008 1.095-.003.19-.005 1.285a.712.712 0 0 1-.03.224.332.332 0 0 1-.365.216.336.336 0 0 1-.296-.303 1.647 1.647 0 0 1-.005-.18v-.826Zm-.528-.536c-.047-.025-.068-.04-.09-.05-.758-.337-1.515-.677-2.276-1.007a.318.318 0 0 0-.227.014c-1.716.76-3.432 1.522-5.146 2.287-.043.02-.082.044-.14.075.075.035.128.062.182.088.708.315 1.417.626 2.123.946a.34.34 0 0 0 .307-.003c1.644-.735 3.29-1.468 4.935-2.198.103-.046.205-.095.332-.152ZM2.215 4.133c.666.297 1.29.57 1.91.856a.416.416 0 0 0 .381-.003A1470.58 1470.58 0 0 1 9.56 2.732l.178-.082c-.044-.023-.06-.034-.08-.044-.637-.284-1.274-.57-1.916-.848a.318.318 0 0 0-.227.016c-1.421.63-2.842 1.262-4.263 1.897l-1.037.462Z" fill="currentColor"/>
    <path d="m10 10.5 2 2.5 3.5-4.5" stroke="currentColor" stroke-width="1.3" stroke-linecap="round"/>
</svg>
