<svg width="24" height="24" viewBox="0 0 24 24" fill="none" xmlns="http://www.w3.org/2000/svg">
<path fill-rule="evenodd" clip-rule="evenodd" d="M12 3.42802L22.0296 9L12 14.572L1.97046 9L12 3.42802ZM4.02959 9L12 13.428L19.9705 9L12 4.57198L4.02959 9Z" fill="currentColor"/>
<path fill-rule="evenodd" clip-rule="evenodd" d="M5.58499 9.86376L12 13.428L18.4161 9.86377L18.6252 10.3948C19.4693 12.538 19.7088 14.8719 19.3178 17.1419L19.253 17.5178L18.8733 17.5547C16.443 17.7905 14.1517 18.797 12.3338 20.4272L12 20.7266L11.6662 20.4272C9.8486 18.7972 7.55766 17.7907 5.12767 17.5547L4.74808 17.5178L4.68328 17.1419C4.29193 14.8719 4.53148 12.538 5.37581 10.3947L5.58499 9.86376ZM17.8914 11.2992L12 14.572L6.10953 11.2992C5.53373 13.0035 5.36269 14.8196 5.61124 16.603C7.96338 16.906 10.18 17.8745 12 19.3939C13.8203 17.8744 16.0373 16.9058 18.3898 16.603C18.6381 14.8195 18.4671 13.0035 17.8914 11.2992Z" fill="currentColor"/>
<path fill-rule="evenodd" clip-rule="evenodd" d="M11.6358 3.34438C11.8623 3.21854 12.1377 3.21854 12.3642 3.34438L21.3642 8.34438C21.6023 8.47666 21.75 8.72762 21.75 9C21.75 9.27238 21.6023 9.52334 21.3642 9.65562L19.0836 10.9226C19.7588 12.9346 19.9256 15.0862 19.5641 17.1843C19.5067 17.5173 19.2338 17.7708 18.8975 17.8035C16.5202 18.0342 14.2789 19.0188 12.5007 20.6134C12.2158 20.8689 11.7842 20.8689 11.4993 20.6134C10.6721 19.8715 9.74469 19.2618 8.75 18.7985V20C8.75 20.4142 8.41421 20.75 8 20.75C7.58579 20.75 7.25 20.4142 7.25 20V18.2267C6.55373 18.017 5.83505 17.8746 5.10348 17.8035C4.76721 17.7708 4.4943 17.5174 4.4369 17.1844C4.07521 15.0864 4.24191 12.9349 4.91719 10.9231L2.63577 9.65562C2.39767 9.52334 2.25 9.27238 2.25 9C2.25 8.72762 2.39767 8.47666 2.63577 8.34438L11.6358 3.34438ZM6.25381 11.6656C5.78377 13.1892 5.64033 14.7963 5.83431 16.3812C6.31273 16.4502 6.78534 16.5463 7.25 16.6684V12.5C7.25 12.4113 7.26566 12.3249 7.295 12.2441L6.25381 11.6656ZM8.75 13.0524V17.1644C9.91706 17.6327 11.0132 18.2736 12 19.0704C13.776 17.6364 15.9065 16.707 18.1666 16.3811C18.3605 14.7961 18.217 13.1891 17.747 11.6654L12.3642 14.6556C12.3642 14.6556 12.3642 14.6556 12.3642 14.6556C12.1377 14.7815 11.8623 14.7815 11.6358 14.6556M8.75 13.0524L11.6338 14.6545L8.75 13.0524ZM11.6338 14.6545L11.6357 14.6556L11.6338 14.6545ZM12 13.142L19.4557 9L12 4.85797L4.54434 9L6.1868 9.91248C6.19299 9.91569 6.19914 9.919 6.20526 9.9224L8.65023 11.2808L11.6358 9.62237C11.9979 9.42122 12.4545 9.5517 12.6556 9.9138C12.8568 10.2759 12.7263 10.7325 12.3642 10.9336L10.1945 12.1389L12 13.142Z" fill="currentColor"/>
</svg>
