<svg width="201" height="159" viewBox="0 0 201 159" fill="none" xmlns="http://www.w3.org/2000/svg">
<path d="M163.898 86.9587C163.898 102.586 158.642 117.076 149.835 128.725C145.005 134.976 139.181 140.516 132.504 144.778C121.708 151.882 108.781 156.001 94.8591 156.001C56.646 156.001 25.6777 125.032 25.6777 86.9587C25.6777 48.7437 56.646 17.916 94.717 17.916C108.639 17.916 121.566 22.0358 132.362 28.9969C139.039 33.2588 144.863 38.7993 149.693 45.0501C158.642 56.8413 163.898 71.3318 163.898 86.9587Z" fill="#EAEEF9"/>
<path d="M61.7128 37.119C62.9913 37.119 64.1278 36.1246 64.1278 34.704C64.1278 33.4255 63.1334 32.2891 61.7128 32.2891C60.4343 32.2891 59.2979 33.2835 59.2979 34.704C59.2979 35.9825 60.4343 37.119 61.7128 37.119Z" fill="url(#paint0_linear)"/>
<path d="M31.6444 136.824C32.923 136.824 34.0594 135.83 34.0594 134.409C34.0594 132.989 33.065 131.994 31.6444 131.994C30.3659 131.994 29.2295 132.989 29.2295 134.409C29.2295 135.83 30.3659 136.824 31.6444 136.824Z" fill="url(#paint1_linear)"/>
<path d="M97.1327 148.189C98.4112 148.189 99.5477 147.195 99.5477 145.774C99.5477 144.354 98.5533 143.359 97.1327 143.359C95.8542 143.359 94.7178 144.354 94.7178 145.774C94.7178 147.195 95.8542 148.189 97.1327 148.189Z" fill="url(#paint2_linear)"/>
<path d="M54.6578 105.001C53.6634 112.389 53.2373 114.662 54.7999 117.077C56.3625 119.492 57.4989 119.066 56.7887 121.907C56.0784 124.89 56.0784 130.004 57.783 132.277C59.0616 133.982 60.7662 135.119 63.4653 135.829C65.0279 136.255 65.4541 138.244 64.1756 139.381C59.3457 143.358 55.9363 143.5 53.9475 142.79C51.5326 141.938 45.1401 135.971 43.1513 126.027C41.1625 116.082 41.1625 112.957 41.1625 112.957C39.0316 111.536 37.0429 109.405 37.1849 107.843C37.327 106.28 37.327 104.291 37.327 104.291L54.6578 105.001Z" fill="#1C3754"/>
<path d="M52.9518 107.273L54.5144 106.278L50.8209 105.426L51.3892 111.25L47.2695 120.2L52.8097 138.953L52.5256 143.499L57.2135 142.93L56.5032 134.975L55.2247 127.161" fill="#1C3754"/>
<path d="M16.1598 90.7921C17.1542 97.4691 22.4103 104.146 29.229 103.72C30.0813 103.72 31.0757 103.578 32.0701 103.436C39.1729 102.725 41.872 102.441 45.9916 102.583C42.5823 98.1794 40.1673 92.781 39.315 87.2405C38.4626 81.7001 39.0308 75.7334 41.0196 70.6191C37.0421 72.0398 34.4851 72.608 27.5243 74.0287C26.5299 74.1707 25.5355 74.4548 24.6832 74.5969C21.2738 75.3072 18.8589 77.7223 17.4383 80.7056C16.1598 83.831 15.7336 87.5246 16.1598 90.7921Z" fill="#CED7E2"/>
<g filter="url(#filter0_d)">
<path d="M131.367 114.941C131.083 118.067 130.799 121.334 129.378 124.175C129.094 124.744 128.81 125.312 128.242 125.454C127.531 125.738 126.679 125.028 126.111 124.602C113.184 113.379 95.8529 108.69 79.0903 106.986C58.9183 104.855 46.1333 107.412 39.8828 107.412C22.8361 106.702 18.4323 85.6762 24.9669 74.8794C27.666 70.3334 31.9277 68.6286 36.7576 67.3501C36.7576 67.3501 55.6511 63.0882 70.5669 56.8374C86.4772 50.0184 101.251 40.0739 110.769 25.1573C113.042 21.6057 116.167 26.72 118.724 32.9708C121.565 39.6477 123.838 47.6033 123.838 47.6033C125.259 73.3167 123.554 61.3834 131.793 99.4563C131.793 99.4563 132.077 107.696 131.367 114.941Z" fill="white"/>
</g>
<path d="M40.1681 107.273C40.3102 107.273 40.3102 107.273 40.4523 107.273C44.2878 107.273 48.2653 106.563 51.9588 106.421C55.6523 106.137 59.3457 106.137 63.0392 106.137C58.6354 100.17 54.942 92.0725 53.8055 84.9693C52.6691 78.0082 54.0896 68.7741 56.5046 61.9551C32.4971 69.6265 29.0878 66.217 24.2579 76.3035C17.7233 89.9415 26.6728 108.126 40.1681 107.273Z" fill="url(#paint3_linear)"/>
<path d="M63.8905 106.136C63.6064 106.136 63.3223 106.136 63.0382 106.136H62.1858C57.7821 100.027 54.2307 91.7873 53.2363 85.1103C52.2419 78.8596 53.2363 69.9096 55.7933 62.2382C56.0774 62.0961 56.3615 62.0961 56.6456 61.954C56.9297 61.812 57.2139 61.812 57.498 61.6699C57.498 61.812 57.3559 61.9541 57.3559 62.2382C54.7989 69.7675 53.8045 78.7175 54.7989 84.9683C55.7933 91.5032 59.3447 99.7428 63.8905 105.709C63.6064 105.852 63.7484 105.994 63.8905 106.136Z" fill="#D62D7B"/>
<path d="M32.4966 75.5922L42.1565 74.0296C42.8667 73.8875 43.435 73.1772 43.2929 72.467C43.1508 71.7567 42.4406 71.1885 41.7303 71.3305L32.0705 72.8931C31.3602 73.0352 30.792 73.7455 30.934 74.4557C31.0761 75.166 31.6443 75.7342 32.4966 75.5922Z" fill="#D62D7B"/>
<path d="M30.65 81.6996L40.3098 80.137C41.0201 79.9949 41.5883 79.2847 41.4462 78.5744C41.3042 77.8641 40.5939 77.2959 39.8836 77.4379L30.2238 79.0005C29.5135 79.1426 28.9453 79.8529 29.0873 80.5632C29.2294 81.2734 29.9397 81.8417 30.65 81.6996Z" fill="#D62D7B"/>
<path d="M30.9327 87.5258L40.5925 85.9632C41.3028 85.8211 41.8711 85.1108 41.729 84.4005C41.5869 83.6903 40.8767 83.122 40.1664 83.2641L30.5066 84.8267C29.7963 84.9688 29.3701 85.537 29.3701 86.3893C29.5122 87.0996 30.2225 87.6678 30.9327 87.5258Z" fill="#D62D7B"/>
<path d="M52.9517 107.273L54.5143 106.278L50.8209 105.426L46.9854 105.994L47.2695 120.2L52.8097 138.953L52.5255 143.499L57.2134 142.93L56.5031 134.975L55.2246 127.161" fill="#1C3754"/>
<path d="M50.8209 105.426C49.8265 112.813 49.4003 115.086 50.963 117.501C52.5256 119.774 53.662 119.49 52.9517 122.331C52.2415 125.315 52.2415 130.429 53.9461 132.702C55.2246 134.407 56.9293 135.543 59.6284 136.253C61.191 136.68 61.6172 138.669 60.3387 139.805C55.5088 143.783 52.0994 143.925 50.1106 143.215C47.6957 142.362 41.3031 136.396 39.3144 126.451C37.3256 116.507 37.3256 113.239 37.3256 113.239C35.1947 111.819 33.2059 109.688 33.348 108.125C33.4901 106.704 33.4901 105.994 33.4901 105.994L50.8209 105.426Z" fill="#2D5887"/>
<path d="M138.5 129.489C152.069 127.391 159.182 100.546 154.386 69.53C149.591 38.5135 134.703 15.0703 121.134 17.1682C107.565 19.2661 100.453 46.1106 105.248 77.1271C110.044 108.144 124.931 131.587 138.5 129.489Z" fill="#FF75B6"/>
<path d="M137.76 124.747C130.231 125.884 119.719 112.956 113.469 92.3571C111.906 87.3849 110.769 81.9865 109.775 76.304C108.781 70.3373 108.354 64.5127 108.354 59.1143C108.354 38.089 114.321 22.8882 121.85 21.7517C131.226 20.3311 145.147 40.6461 149.693 70.1952C154.239 99.6023 147.136 123.327 137.76 124.747Z" fill="url(#paint4_linear)"/>
<path d="M132.789 88.3795L113.611 92.3573C112.048 87.3851 110.912 81.9867 109.918 76.3041C108.923 70.3375 108.497 64.5129 108.497 59.1145L127.391 57.8359L129.948 70.0534L132.789 88.3795Z" fill="#EAEEF9"/>
<path d="M132.22 88.6631C135.061 88.2369 137.192 81.1338 135.772 72.3259C134.351 63.518 130.231 57.4092 127.39 57.8354C124.549 58.2616 122.418 65.3648 123.839 74.1727C125.259 82.9806 129.379 89.0893 132.22 88.6631Z" fill="white"/>
<path d="M131.083 81.5596C132.646 81.2755 133.782 77.44 133.072 72.7521C132.362 67.9222 130.089 64.6549 128.526 64.9391C126.964 65.2232 125.827 69.0587 126.538 73.7465C127.39 78.5764 129.521 81.8437 131.083 81.5596Z" fill="#EAEEF9"/>
<path d="M152.108 19.052L158.217 23.3139L151.398 33.2584C150.688 34.2528 151.966 35.5314 152.961 34.821L171.286 21.6092C172.138 20.8989 172.28 19.6203 171.286 18.91L164.467 13.9378L171.286 1.57827C171.854 0.583831 170.576 -0.552674 169.723 0.299705L151.966 16.3528C151.114 17.2052 151.256 18.4838 152.108 19.052Z" fill="url(#paint5_linear)"/>
<path d="M169.438 21.1825C169.296 21.1825 169.296 21.1825 169.154 21.0404L163.472 16.7787C163.046 16.4946 163.046 15.9264 163.33 15.5002C163.614 15.0741 164.182 15.0741 164.608 15.3582L170.291 19.6198C170.717 19.904 170.717 20.4722 170.433 20.8984C170.149 21.1825 169.722 21.3245 169.438 21.1825Z" fill="#B196FF"/>
<path d="M153.954 16.6375L167.45 3.28428C167.592 3.14222 168.018 3.14222 168.16 3.28428C168.302 3.42633 168.302 3.8525 168.16 3.99456L155.233 17.774C154.949 18.0581 154.38 18.2002 153.954 17.774C153.67 17.4899 153.67 16.9217 153.954 16.6375Z" fill="#B196FF"/>
<path d="M173.417 56.9831L175.548 64.0859L164.041 67.4952C162.905 67.7794 163.047 69.6261 164.325 69.6261L186.912 70.9046C188.049 70.9046 188.901 69.9102 188.617 68.7737L186.486 60.5345L199.697 55.2784C200.834 54.8522 200.407 53.1476 199.271 53.2896L175.121 54.8522C173.843 54.8522 173.133 55.9887 173.417 56.9831Z" fill="url(#paint6_linear)"/>
<path d="M185.491 69.4844C185.491 69.3424 185.349 69.3424 185.349 69.2003L183.645 62.2396C183.503 61.8134 183.787 61.2452 184.355 61.2452C184.781 61.1031 185.349 61.3872 185.349 61.9555L187.054 68.9162C187.196 69.3424 186.912 69.9106 186.344 69.9106C186.06 70.0527 185.633 69.9106 185.491 69.4844Z" fill="#B196FF"/>
<path d="M176.4 56.2725L195.294 54.4258C195.578 54.4258 195.862 54.5678 195.862 54.8519C195.862 55.1361 195.72 55.4202 195.436 55.4202L176.542 57.9772C176.116 57.9772 175.69 57.6931 175.548 57.2669C175.548 56.8407 175.832 56.4146 176.4 56.2725Z" fill="#B196FF"/>
<path d="M173.984 104.718L171.711 111.82L160.346 108.127C159.21 107.701 158.358 109.263 159.352 109.974L177.251 123.753C178.103 124.463 179.524 124.037 179.808 123.043L182.649 115.088L196.429 118.071C197.565 118.355 198.133 116.792 197.139 116.224L176.399 103.723C175.546 103.297 174.268 103.723 173.984 104.718Z" fill="url(#paint7_linear)"/>
<path d="M176.824 121.904C176.824 121.762 176.824 121.762 176.824 121.62L179.381 114.943C179.523 114.517 180.092 114.233 180.518 114.375C180.944 114.517 181.228 115.085 181.086 115.511L178.529 122.188C178.387 122.614 177.819 122.898 177.392 122.756C176.966 122.614 176.824 122.33 176.824 121.904Z" fill="#B196FF"/>
<path d="M176.825 105.853L193.446 115.086C193.73 115.228 193.73 115.512 193.588 115.797C193.446 116.081 193.162 116.081 192.878 115.939L175.831 107.415C175.405 107.131 175.263 106.705 175.405 106.279C175.831 105.853 176.399 105.569 176.825 105.853Z" fill="#B196FF"/>
<path d="M55.7926 114.66C56.2188 114.66 56.9291 114.518 57.6393 114.234C56.787 111.677 56.6449 111.109 56.3608 109.689C56.2188 108.694 56.5029 105.995 56.5029 105.995H56.3608C55.3664 105.995 54.3721 105.853 53.5197 105.711L52.5253 111.109L52.2412 114.376L54.7982 114.66C55.0823 114.66 55.3664 114.66 55.7926 114.66Z" fill="#CED7E2"/>
<path d="M51.9578 105.711L51.1055 113.524C51.1055 113.524 51.2475 115.087 54.6569 113.95C53.8045 111.393 53.6625 110.825 53.3784 109.404C53.2363 108.41 53.5204 105.711 53.5204 105.711H51.9578Z" fill="white"/>
<defs>
<filter id="filter0_d" x="0.0830078" y="12.9902" width="153.766" height="145.529" filterUnits="userSpaceOnUse" color-interpolation-filters="sRGB">
<feFlood flood-opacity="0" result="BackgroundImageFix"/>
<feColorMatrix in="SourceAlpha" type="matrix" values="0 0 0 0 0 0 0 0 0 0 0 0 0 0 0 0 0 0 127 0" result="hardAlpha"/>
<feOffset dy="11"/>
<feGaussianBlur stdDeviation="11"/>
<feColorMatrix type="matrix" values="0 0 0 0 0.397708 0 0 0 0 0.47749 0 0 0 0 0.575 0 0 0 0.18 0"/>
<feBlend mode="normal" in2="BackgroundImageFix" result="effect1_dropShadow"/>
<feBlend mode="normal" in="SourceGraphic" in2="effect1_dropShadow" result="shape"/>
</filter>
<linearGradient id="paint0_linear" x1="59.3111" y1="34.6914" x2="63.9032" y2="34.6914" gradientUnits="userSpaceOnUse">
<stop stop-color="#A383FF"/>
<stop offset="1" stop-color="#AD5AFF"/>
</linearGradient>
<linearGradient id="paint1_linear" x1="29.2579" y1="134.425" x2="33.85" y2="134.425" gradientUnits="userSpaceOnUse">
<stop stop-color="#FF66A9"/>
<stop offset="1" stop-color="#F53689"/>
</linearGradient>
<linearGradient id="paint2_linear" x1="94.7638" y1="145.857" x2="99.3559" y2="145.857" gradientUnits="userSpaceOnUse">
<stop stop-color="#9C83FF"/>
<stop offset="1" stop-color="#B65AFF"/>
</linearGradient>
<linearGradient id="paint3_linear" x1="34.167" y1="69.2196" x2="57.0493" y2="106.513" gradientUnits="userSpaceOnUse">
<stop stop-color="#FF66A9"/>
<stop offset="1" stop-color="#F53689"/>
</linearGradient>
<linearGradient id="paint4_linear" x1="152.596" y1="69.8384" x2="112.082" y2="75.9151" gradientUnits="userSpaceOnUse">
<stop stop-color="#FF66A9"/>
<stop offset="1" stop-color="#F53689"/>
</linearGradient>
<linearGradient id="paint5_linear" x1="152.619" y1="14.0528" x2="171.792" y2="21.1254" gradientUnits="userSpaceOnUse">
<stop stop-color="#B283FF"/>
<stop offset="1" stop-color="#8F5AFF"/>
</linearGradient>
<linearGradient id="paint6_linear" x1="167.63" y1="56.3217" x2="195.731" y2="66.6879" gradientUnits="userSpaceOnUse">
<stop stop-color="#A383FF"/>
<stop offset="1" stop-color="#715AFF"/>
</linearGradient>
<linearGradient id="paint7_linear" x1="159.356" y1="107.437" x2="196.348" y2="121.083" gradientUnits="userSpaceOnUse">
<stop stop-color="#9C83FF"/>
<stop offset="1" stop-color="#855AFF"/>
</linearGradient>
</defs>
</svg>
