<svg width="96" height="97" viewBox="0 0 96 97" fill="none" xmlns="http://www.w3.org/2000/svg">
<path d="M48 23.6853C34.0419 23.6853 22.6875 35.0397 22.6875 48.9978C22.6875 62.9559 34.0419 74.3103 48 74.3103C61.9581 74.3103 73.3125 62.9559 73.3125 48.9978C73.3125 35.0397 61.9581 23.6853 48 23.6853ZM60.2415 46.3584L47.1759 59.4239C46.6266 59.9733 45.9069 60.248 45.1875 60.248C44.4681 60.248 43.7483 59.9733 43.1991 59.4239L34.7616 50.9864C33.663 49.8879 33.663 48.1079 34.7616 47.0094C35.8601 45.9108 37.6401 45.9108 38.7386 47.0094L45.1875 53.4582L56.2644 42.3813C57.363 41.2827 59.1429 41.2827 60.2415 42.3813C61.3401 43.4799 61.3401 45.2596 60.2415 46.3584Z" fill="#710BFF"/>
<path d="M91.6136 40.7169C89.7377 39.3849 89.1664 36.9018 90.1249 34.8117C91.5283 31.7493 91.3609 28.1787 89.6771 25.2592C87.9908 22.3396 84.7929 20.4087 81.4421 20.0956C79.1514 19.8787 77.3332 18.0605 77.1163 15.7698C76.8032 12.419 74.8723 9.22118 71.9499 7.5348C69.0304 5.85386 65.4598 5.56268 62.4 6.9663C60.3208 7.9248 57.8297 7.26293 56.4949 5.38699C54.5479 2.63749 51.3727 0.997803 48 0.997803C44.6299 0.997803 41.4549 2.63749 39.5076 5.38137C38.1756 7.26012 35.6953 8.04555 33.5996 7.08705C30.5372 5.68362 26.9638 5.84561 24.0471 7.5348C21.1275 9.22118 19.1966 12.419 18.8835 15.7698C18.6666 18.0603 16.8482 19.8785 14.5577 20.0954C11.2069 20.4086 8.00906 22.3394 6.32269 25.2618C4.63912 28.1787 4.4715 31.7493 5.87494 34.8117C6.83344 36.9018 6.16875 39.3849 4.29562 40.7169C1.54631 42.6642 0 45.8392 0 49.2121C0 52.5851 1.63969 55.76 4.38356 57.7046C6.2595 59.0394 6.83344 61.5251 5.87494 63.6151C4.4715 66.6747 4.63894 70.2427 6.32269 73.1651C8.00906 76.0846 11.2069 78.0155 14.5577 78.3286C16.8484 78.5456 18.6666 80.3637 18.8835 82.6544C19.1966 86.0052 21.1275 89.203 24.0499 90.8894C26.9694 92.5758 30.54 92.7434 33.5998 91.3372C35.6844 90.3841 38.1729 90.7385 39.5049 92.6088C41.4521 95.3581 44.6273 96.9978 48 96.9978C51.3727 96.9978 54.5479 95.3581 56.4924 92.6142C57.8301 90.7383 60.3184 90.3785 62.4004 91.337C65.4574 92.7322 69.0334 92.573 71.9529 90.8892C74.8725 89.2029 76.8034 86.0051 77.1165 82.6542C77.3334 80.3636 79.1516 78.5454 81.4423 78.3284C84.7931 78.0153 87.9909 76.0844 89.6773 73.1621C91.3609 70.2425 91.5285 66.6746 90.1251 63.6177C89.1666 61.5249 89.7405 59.0392 91.611 57.7072C94.3603 55.7598 96 52.5849 96 49.2121C96 45.8394 94.3603 42.6642 91.6136 40.7169ZM48 79.9353C30.9411 79.9353 17.0625 66.0567 17.0625 48.9978C17.0625 31.9389 30.9409 18.0603 48 18.0603C65.0591 18.0603 78.9375 31.9389 78.9375 48.9978C78.9375 66.0567 65.0589 79.9353 48 79.9353Z" fill="#710BFF"/>
</svg>
