<svg width="231" height="272" viewBox="0 0 231 272" fill="none" xmlns="http://www.w3.org/2000/svg">
<path d="M214.307 228.026V181.608C203.201 155.63 189.86 128.434 177.013 105.43C148.973 55.1883 116.224 12.2914 104.292 12.2914C103.625 12.2914 103.025 12.4265 102.492 12.6994C94.7905 16.6658 104.435 48.4982 97.4528 51.0367C97.1753 51.1327 96.8903 51.183 96.6053 51.183C91.8507 51.183 84.8239 38.3876 76.6946 25.5915C68.5728 12.7961 59.3487 0 50.2145 0C49.892 0 49.577 0.01651 49.262 0.0464935C37.8331 1.17665 27.8965 22.9442 26.9665 43.6281C27.4315 33.2775 30.1537 22.663 34.1884 14.4933C37.2556 31.042 43.5251 40.9171 49.6071 47.1408C68.8578 66.8363 90.6959 54.6544 113.389 76.5652C129.737 92.3445 122.913 103.009 142.426 123.387C159.66 141.38 168.681 136.934 183.298 152.495C200.021 170.313 199.226 187.9 208.428 215.457C209.238 217.891 210.138 220.425 211.128 223.055C212.185 224.69 213.25 226.354 214.307 228.026ZM26.8915 46.7921C26.8915 46.3804 26.899 45.9724 26.899 45.5607C26.9065 45.5187 26.9066 45.4767 26.9066 45.4347C26.9066 45.4767 26.9065 45.5187 26.899 45.5607C26.899 45.9724 26.8915 46.3804 26.8915 46.7921ZM26.9066 45.4265C26.9066 45.3845 26.9066 45.3507 26.9066 45.3087C26.9066 45.3462 26.9066 45.3882 26.9066 45.4265ZM26.9066 45.2878C26.9066 45.254 26.9066 45.2202 26.9066 45.1827C26.9066 45.2202 26.9066 45.254 26.9066 45.2878ZM26.9066 45.1572C26.914 45.1235 26.914 45.0898 26.914 45.0568C26.914 45.0898 26.914 45.1235 26.9066 45.1572ZM26.914 45.023C26.914 44.9938 26.914 44.9638 26.914 44.9345C26.914 44.9638 26.914 44.9938 26.914 45.023ZM26.914 44.897C26.914 44.8678 26.9141 44.834 26.9216 44.8048C26.9141 44.834 26.914 44.8678 26.914 44.897ZM26.9216 44.771C26.9216 44.7373 26.9216 44.708 26.9216 44.678C26.9216 44.708 26.9216 44.7373 26.9216 44.771ZM26.9216 44.6405C26.9216 44.6113 26.9215 44.5821 26.929 44.5521C26.9215 44.5821 26.9216 44.6113 26.9216 44.6405ZM26.929 44.5101C26.929 44.4808 26.929 44.4553 26.9365 44.4261C26.929 44.4553 26.929 44.4853 26.929 44.5101ZM26.9365 44.3841C26.9365 44.3548 26.9365 44.3256 26.9365 44.2956C26.9365 44.3256 26.9365 44.3548 26.9365 44.3841ZM26.9365 44.2581C26.9365 44.2289 26.9366 44.1996 26.944 44.1696C26.9366 44.1996 26.9365 44.2289 26.9365 44.2581ZM26.944 44.1321C26.944 44.0983 26.944 44.0691 26.944 44.0353C26.944 44.0691 26.944 44.0983 26.944 44.1321ZM26.944 44.0061C26.9516 43.9723 26.9515 43.9386 26.9515 43.9048C26.9515 43.9386 26.9516 43.9723 26.944 44.0061ZM26.9515 43.8801C26.9515 43.8464 26.9516 43.8081 26.9591 43.7751C26.9516 43.8081 26.9515 43.8419 26.9515 43.8801ZM26.9591 43.7541C26.9591 43.7159 26.9665 43.6784 26.9665 43.6401C26.9665 43.6784 26.9591 43.7159 26.9591 43.7541Z" fill="url(#paint0_linear)"/>
<path d="M211.127 223.055C210.137 220.425 209.237 217.891 208.427 215.457C199.226 187.899 200.02 170.313 183.297 152.495C168.681 136.934 159.659 141.38 142.426 123.386C122.912 103.009 129.737 92.3445 113.388 76.5652C90.6955 54.6544 68.8575 66.8363 49.6067 47.1408C43.5248 40.9171 37.2553 31.042 34.1881 14.4932C30.1535 22.663 27.4312 33.2775 26.9663 43.6281C26.9663 43.6318 26.9663 43.6364 26.9663 43.6401C26.9663 43.6783 26.9588 43.7159 26.9588 43.7541C26.9588 43.7578 26.9588 43.7668 26.9588 43.7751C26.9513 43.8081 26.9513 43.8463 26.9513 43.8801C26.9513 43.8883 26.9513 43.8966 26.9513 43.9048C26.9513 43.9386 26.9513 43.9723 26.9438 44.0061C26.9438 44.0143 26.9438 44.0271 26.9438 44.0353C26.9438 44.0691 26.9438 44.0983 26.9438 44.1321C26.9438 44.1448 26.9438 44.1568 26.9438 44.1696C26.9363 44.1996 26.9362 44.2288 26.9362 44.2581C26.9362 44.2708 26.9362 44.2836 26.9362 44.2956C26.9362 44.3256 26.9362 44.3548 26.9362 44.384C26.9362 44.3968 26.9362 44.4133 26.9362 44.426C26.9288 44.4553 26.9288 44.4808 26.9288 44.51C26.9288 44.5228 26.9288 44.5393 26.9288 44.552C26.9213 44.582 26.9213 44.6113 26.9213 44.6405C26.9213 44.6532 26.9213 44.666 26.9213 44.678C26.9213 44.708 26.9213 44.7373 26.9213 44.771C26.9213 44.7793 26.9213 44.792 26.9213 44.8047C26.9138 44.834 26.9138 44.8678 26.9138 44.897C26.9138 44.9098 26.9138 44.918 26.9138 44.9345C26.9138 44.9637 26.9138 44.9937 26.9138 45.023C26.9138 45.0357 26.9138 45.0485 26.9138 45.0567C26.9138 45.0897 26.9138 45.1235 26.9063 45.1572C26.9063 45.1662 26.9063 45.1737 26.9063 45.1827C26.9063 45.2202 26.9063 45.254 26.9063 45.2877C26.9063 45.296 26.9063 45.3042 26.9063 45.3087C26.9063 45.3507 26.9063 45.3844 26.9063 45.4264C26.9063 45.4302 26.9063 45.4302 26.9063 45.4347C26.9063 45.4767 26.9063 45.5187 26.8988 45.5607C26.8988 45.9724 26.8913 46.3803 26.8913 46.7921C26.8913 56.8186 29.1261 65.9919 33.6707 75.2963C38.5753 73.8587 43.5397 72.9512 48.1743 72.598C49.3442 72.5095 50.6266 72.4428 52.044 72.4428C68.1301 72.4428 100.902 80.7925 162.921 156.701C177.245 174.238 193.849 196.249 211.127 223.055Z" fill="url(#paint1_linear)"/>
<path d="M222.485 284.072L231 282.904C230.555 282.782 230.111 282.648 229.674 282.497C226.118 282.034 222.983 279.878 220.937 276.827C220.967 276.823 221.006 276.823 221.029 276.823C216.905 272.449 214.307 266.356 214.307 259.779V228.027C213.249 226.354 212.184 224.69 211.134 223.056C193.851 196.25 177.25 174.238 162.926 156.702C100.899 80.7929 68.1343 72.4427 52.047 72.4427C50.6291 72.4427 49.3415 72.5101 48.1765 72.5983C43.5396 72.9516 38.5809 73.8591 33.6681 75.2961C18.3012 79.7889 3.44788 89.4367 0.535446 103.347C0.872681 101.741 1.37083 100.195 2.01463 98.7028C9.90883 107.376 19.5964 115.822 31.4147 122.626C60.4623 139.347 72.5029 128.963 93.1965 144.777C122.221 166.955 110.755 196.707 142.079 231.313C159.063 250.081 168.513 248.05 200.151 268.335C206.812 272.604 214.33 277.781 222.485 284.072ZM0.00657654 108.541C0.00657654 106.813 0.167496 105.107 0.51239 103.426C0.520065 103.401 0.527786 103.376 0.535446 103.35C0.527786 103.376 0.520065 103.401 0.51239 103.426C0.167496 105.107 0.00657654 106.813 0.00657654 108.541Z" fill="url(#paint2_linear)"/>
<path d="M89.7802 302.299L222.473 284.07C214.326 277.78 206.807 272.602 200.147 268.332C168.508 248.049 159.058 250.078 142.074 231.311C110.75 196.705 122.216 166.953 93.1909 144.774C72.4971 128.961 60.4564 139.345 31.4162 122.624C19.5901 115.82 9.90236 107.374 2.00809 98.7005C1.36427 100.192 0.866104 101.739 0.528885 103.344V103.348C0.52121 103.373 0.521225 103.399 0.505905 103.424C0.161011 105.105 1.52588e-05 106.811 1.52588e-05 108.538C-0.0153198 140.353 55.5666 179.199 55.5436 193.785C55.5436 194.625 55.3596 195.386 54.9688 196.058C53.9571 197.81 51.903 198.353 49.2895 198.353C47.1741 198.353 44.6755 197.995 42.0697 197.634C39.4638 197.277 36.7276 196.92 34.1371 196.92C30.2666 196.92 26.7027 197.714 24.2654 200.496C22.1654 202.895 21.2993 206.329 21.2916 210.367C21.284 226.605 35.2637 252.562 39.6707 259.932C50.7994 278.57 68.665 292.264 89.7802 302.299Z" fill="url(#paint3_linear)"/>
<defs>
<linearGradient id="paint0_linear" x1="-819.221" y1="-533.275" x2="-639.595" y2="186.907" gradientUnits="userSpaceOnUse">
<stop stop-color="#AA80F9"/>
<stop offset="0.996403" stop-color="#6165D7"/>
<stop offset="1" stop-color="#6165D7"/>
</linearGradient>
<linearGradient id="paint1_linear" x1="-819.219" y1="-533.274" x2="-639.593" y2="186.907" gradientUnits="userSpaceOnUse">
<stop stop-color="#B590FA"/>
<stop offset="0.996403" stop-color="#7377DD"/>
<stop offset="1" stop-color="#7377DD"/>
</linearGradient>
<linearGradient id="paint2_linear" x1="-787.834" y1="-90.5733" x2="-1230.49" y2="-504.628" gradientUnits="userSpaceOnUse">
<stop stop-color="#E38DDD"/>
<stop offset="0.00359712" stop-color="#E38DDD"/>
<stop offset="1" stop-color="#9571F6"/>
</linearGradient>
<linearGradient id="paint3_linear" x1="-787.857" y1="-90.5813" x2="-1230.52" y2="-504.641" gradientUnits="userSpaceOnUse">
<stop stop-color="#EAA6E5"/>
<stop offset="0.00359712" stop-color="#EAA6E5"/>
<stop offset="1" stop-color="#AC8EF8"/>
</linearGradient>
</defs>
</svg>
