<svg width="217" height="212" viewBox="0 0 217 212" fill="none" xmlns="http://www.w3.org/2000/svg">
<g style="mix-blend-mode:luminosity" opacity="0.24">
<path d="M215.262 104.761C215.262 128.472 207.371 150.459 194.148 168.135C186.896 177.62 178.152 186.026 168.129 192.493C151.92 203.271 132.512 209.522 111.611 209.522C54.2413 209.522 7.74805 162.531 7.74805 104.761C7.74805 46.776 54.2413 0 111.398 0C132.299 0 151.707 6.25117 167.915 16.8135C177.939 23.2802 186.683 31.687 193.934 41.1715C207.371 59.0628 215.262 81.0497 215.262 104.761Z" fill="#EAEEF9"/>
<path d="M21.2725 22.8837C23.1919 22.8837 24.6848 21.1592 24.6848 19.2192C24.6848 17.2792 23.1919 15.5547 21.0592 15.5547C19.1398 15.5547 17.4336 17.0636 17.4336 19.2192C17.6469 21.1592 19.353 22.8837 21.2725 22.8837Z" fill="url(#paint0_linear)"/>
<path d="M13.0807 196.589C15.0001 196.589 16.7063 195.08 16.7063 192.924C16.7063 190.984 15.2134 189.26 13.0807 189.26C11.1613 189.26 9.45508 190.769 9.45508 192.924C9.66835 194.864 11.1613 196.589 13.0807 196.589Z" fill="url(#paint1_linear)"/>
<path d="M203.263 25.442C206.462 22.4242 206.676 17.4664 203.69 14.233C200.704 10.9996 195.799 10.7841 192.386 13.8019C189.187 16.8197 188.974 21.7775 191.96 25.0109C194.946 28.0287 200.064 28.2443 203.263 25.442Z" fill="#EAEEF9"/>
<path d="M179.698 6.89784C181.618 6.89784 183.111 5.38894 183.111 3.44892C183.111 1.5089 181.618 0 179.698 0C177.779 0 176.286 1.5089 176.286 3.44892C176.286 5.38894 177.779 6.89784 179.698 6.89784Z" fill="url(#paint2_linear)"/>
<path d="M24.8096 210.6H215.999" stroke="#B1B9CC" stroke-width="2" stroke-miterlimit="10" stroke-linecap="round" stroke-linejoin="round"/>
<path d="M9.24121 210.6H17.3455" stroke="#B1B9CC" stroke-width="2" stroke-miterlimit="10" stroke-linecap="round" stroke-linejoin="round"/>
<path d="M56.8445 65.8292L51.4821 38.5336H8.20038C6.28525 38.5336 4.75316 37.7647 3.60408 36.6114L0.539888 33.1514C-0.609185 31.9981 0.156864 29.6914 2.07199 29.6914H54.9294C56.8445 29.6914 58.7596 31.2292 59.1426 33.1514L65.271 63.9069L56.8445 65.8292Z" fill="#BFC6D7"/>
<path d="M26.474 33.0162L18.2109 34.6748L24.37 65.5877L32.6331 63.9291L26.474 33.0162Z" fill="#BFC6D7"/>
<path d="M182.86 209.995C191.11 209.995 197.798 203.283 197.798 195.002C197.798 186.722 191.11 180.009 182.86 180.009C174.61 180.009 167.922 186.722 167.922 195.002C167.922 203.283 174.61 209.995 182.86 209.995Z" fill="#1C3754"/>
<path d="M77.5288 209.995C85.7788 209.995 92.4667 203.283 92.4667 195.002C92.4667 186.722 85.7788 180.009 77.5288 180.009C69.2788 180.009 62.5908 186.722 62.5908 195.002C62.5908 203.283 69.2788 209.995 77.5288 209.995Z" fill="#1C3754"/>
<path d="M113.15 28.1533H59.1436V93.8933H113.15V28.1533Z" fill="#D4DAE8"/>
<path d="M102.042 28.1533H59.1436V93.8933H102.042V28.1533Z" fill="white"/>
<path d="M162.177 7.77832H108.171V73.5183H162.177V7.77832Z" fill="#D4DAE8"/>
<path d="M151.07 7.77832H108.171V73.5183H151.07V7.77832Z" fill="white"/>
<path d="M197.797 43.915H154.898V96.5839H197.797V43.915Z" fill="#D91A74"/>
<path d="M188.988 43.915H154.898V96.5839H188.988V43.915Z" fill="url(#paint3_linear)"/>
<path d="M182.478 199.232H53.0153C51.1002 199.232 49.185 197.695 48.802 195.772L39.6094 151.177C39.2264 148.87 40.7585 146.563 43.0567 146.179C45.3548 145.795 47.653 147.332 48.036 149.639L56.4625 190.775H182.861C185.159 190.775 187.074 192.697 187.074 195.003C187.074 197.31 185.159 199.232 182.478 199.232Z" fill="#BFC6D7"/>
<path d="M76.2287 159.516L67.9707 161.2L74.9866 195.862L83.2446 194.178L76.2287 159.516Z" fill="#BFC6D7"/>
<path d="M52.2495 209.995C60.4995 209.995 67.1874 203.283 67.1874 195.002C67.1874 186.722 60.4995 180.009 52.2495 180.009C43.9995 180.009 37.3115 186.722 37.3115 195.002C37.3115 203.283 43.9995 209.995 52.2495 209.995Z" fill="#2D5887"/>
<path d="M52.2472 202.306C56.2664 202.306 59.5247 199.036 59.5247 195.002C59.5247 190.968 56.2664 187.697 52.2472 187.697C48.228 187.697 44.9697 190.968 44.9697 195.002C44.9697 199.036 48.228 202.306 52.2472 202.306Z" fill="#1C3754"/>
<path d="M157.581 209.995C165.831 209.995 172.518 203.283 172.518 195.002C172.518 186.722 165.831 180.009 157.581 180.009C149.331 180.009 142.643 186.722 142.643 195.002C142.643 203.283 149.331 209.995 157.581 209.995Z" fill="#2D5887"/>
<path d="M157.579 202.306C161.598 202.306 164.857 199.036 164.857 195.002C164.857 190.968 161.598 187.697 157.579 187.697C153.56 187.697 150.302 190.968 150.302 195.002C150.302 199.036 153.56 202.306 157.579 202.306Z" fill="#1C3754"/>
<path d="M213.501 62.7539L197.797 153.098C196.648 158.865 192.052 162.709 186.307 162.709H51.4819C45.7366 162.709 41.1403 158.865 39.9912 153.098L22.3721 62.7539H213.501Z" fill="url(#paint4_linear)"/>
<path d="M102.424 150.407C104.339 150.407 106.254 148.869 106.254 146.563V79.2849C106.254 77.3627 104.722 75.4404 102.424 75.4404C100.509 75.4404 98.5938 76.9782 98.5938 79.2849V146.563C98.5938 148.869 100.126 150.407 102.424 150.407Z" fill="url(#paint5_linear)"/>
<path d="M121.959 150.407C123.874 150.791 125.789 149.253 126.172 146.947L132.684 80.0534C133.067 78.1312 131.535 76.2089 129.236 75.8245C127.321 75.4401 125.406 76.9778 125.023 79.2845L118.512 146.178C118.512 148.484 119.661 150.022 121.959 150.407Z" fill="url(#paint6_linear)"/>
<path d="M141.877 150.023C143.792 150.408 145.707 148.87 146.09 146.948L158.347 80.8233C158.73 78.9011 157.198 76.9789 155.283 76.5945C153.368 76.21 151.452 77.7478 151.069 79.67L139.196 145.794C138.43 147.717 139.962 149.639 141.877 150.023Z" fill="url(#paint7_linear)"/>
<path d="M82.507 150.407C80.5919 150.791 78.6767 149.253 78.2937 146.947L71.7823 80.0534C71.3993 78.1312 72.9314 76.2089 75.2295 75.8245C77.1446 75.4401 79.0598 76.9778 79.4428 79.2845L85.9542 146.178C85.9542 148.484 84.8051 150.022 82.507 150.407Z" fill="url(#paint8_linear)"/>
<path d="M62.5907 150.023C60.6755 150.408 58.7604 148.87 58.3774 146.948L46.1206 80.8233C45.7376 78.9011 47.2697 76.9789 49.1848 76.5945C51.0999 76.21 53.015 77.7478 53.3981 79.67L65.2718 145.794C66.0379 147.717 64.5058 149.639 62.5907 150.023Z" fill="url(#paint9_linear)"/>
<path d="M213.503 62.7539L197.799 153.098C196.649 158.865 192.053 162.709 186.308 162.709H150.687C157.198 162.709 162.56 158.096 163.709 151.945L180.179 62.7539H213.503Z" fill="#819EFF"/>
</g>
<defs>
<linearGradient id="paint0_linear" x1="17.6667" y1="19.2834" x2="24.5609" y2="19.2834" gradientUnits="userSpaceOnUse">
<stop stop-color="#83A6FF"/>
<stop offset="1" stop-color="#5A78FF"/>
</linearGradient>
<linearGradient id="paint1_linear" x1="9.62314" y1="192.946" x2="16.5172" y2="192.946" gradientUnits="userSpaceOnUse">
<stop stop-color="#FF66A9"/>
<stop offset="1" stop-color="#F53689"/>
</linearGradient>
<linearGradient id="paint2_linear" x1="176.312" y1="3.43543" x2="183.17" y2="3.43543" gradientUnits="userSpaceOnUse">
<stop stop-color="#FF66A9"/>
<stop offset="1" stop-color="#F53689"/>
</linearGradient>
<linearGradient id="paint3_linear" x1="155.029" y1="70.1464" x2="189.283" y2="70.1464" gradientUnits="userSpaceOnUse">
<stop stop-color="#FF66A9"/>
<stop offset="1" stop-color="#F53689"/>
</linearGradient>
<linearGradient id="paint4_linear" x1="22.4268" y1="112.963" x2="213.518" y2="112.963" gradientUnits="userSpaceOnUse">
<stop stop-color="#83A6FF"/>
<stop offset="1" stop-color="#5A78FF"/>
</linearGradient>
<linearGradient id="paint5_linear" x1="102.24" y1="149.175" x2="102.24" y2="76.2662" gradientUnits="userSpaceOnUse">
<stop stop-color="#BDCFFF"/>
<stop offset="1" stop-color="#91A5FF" stop-opacity="0.5"/>
</linearGradient>
<linearGradient id="paint6_linear" x1="125.549" y1="149.175" x2="125.549" y2="76.2658" gradientUnits="userSpaceOnUse">
<stop stop-color="#BDCFFF"/>
<stop offset="1" stop-color="#91A5FF" stop-opacity="0.5"/>
</linearGradient>
<linearGradient id="paint7_linear" x1="148.558" y1="149.176" x2="148.558" y2="76.2669" gradientUnits="userSpaceOnUse">
<stop stop-color="#BDCFFF"/>
<stop offset="1" stop-color="#91A5FF" stop-opacity="0.5"/>
</linearGradient>
<linearGradient id="paint8_linear" x1="78.9322" y1="149.175" x2="78.9322" y2="76.2658" gradientUnits="userSpaceOnUse">
<stop stop-color="#BDCFFF"/>
<stop offset="1" stop-color="#91A5FF" stop-opacity="0.5"/>
</linearGradient>
<linearGradient id="paint9_linear" x1="55.9241" y1="149.176" x2="55.9241" y2="76.2669" gradientUnits="userSpaceOnUse">
<stop stop-color="#BDCFFF"/>
<stop offset="1" stop-color="#91A5FF" stop-opacity="0.5"/>
</linearGradient>
</defs>
</svg>
