<svg width="7" height="8" viewBox="0 0 7 8" fill="none" xmlns="http://www.w3.org/2000/svg">
<path d="M3.50026 6.75844L4.35382 5.90489L5.72525 4.53345C5.7439 4.51633 5.76838 4.50689 5.79376 4.50711C5.81998 4.50734 5.84506 4.51786 5.8636 4.5364C5.88214 4.55494 5.89266 4.58002 5.89289 4.60624C5.89311 4.63162 5.88367 4.6561 5.86655 4.67475L3.47096 7.07033C3.47094 7.07035 3.47093 7.07037 3.47091 7.07038C3.45216 7.0891 3.42675 7.09961 3.40026 7.09961C3.37377 7.09961 3.34836 7.0891 3.32962 7.07038L3.50026 6.75844ZM3.50026 6.75844V5.55134V0.999738C3.50026 0.973217 3.48973 0.947781 3.47097 0.929028C3.45222 0.910274 3.42678 0.899738 3.40026 0.899738C3.37374 0.899738 3.34831 0.910274 3.32955 0.929028C3.3108 0.947781 3.30026 0.973217 3.30026 0.999738V5.55134V6.75844L2.44671 5.90489L1.07096 4.52914C1.07094 4.52913 1.07093 4.52911 1.07091 4.52909C1.05216 4.51038 1.02675 4.49987 1.00026 4.49987C0.973746 4.49987 0.948316 4.5104 0.929563 4.52914C0.910882 4.54789 0.900391 4.57327 0.900391 4.59974C0.900391 4.62623 0.910902 4.65164 0.929616 4.67038C0.929634 4.6704 0.929652 4.67042 0.929669 4.67044L3.32956 7.07033L3.50026 6.75844Z" fill="#FF3981" stroke="#FF3981"/>
</svg>
