<svg width="7" height="8" viewBox="0 0 7 8" fill="none" xmlns="http://www.w3.org/2000/svg">
<path d="M3.69948 1.24156L4.55303 2.09511L5.92447 3.46655C5.94312 3.48367 5.9676 3.49311 5.99298 3.49289C6.0192 3.49266 6.04428 3.48214 6.06282 3.4636C6.08136 3.44506 6.09188 3.41998 6.0921 3.39376C6.09232 3.36838 6.08289 3.3439 6.06576 3.32525L3.67018 0.929669C3.67016 0.929652 3.67015 0.929634 3.67013 0.929616C3.65138 0.910902 3.62597 0.900391 3.59948 0.900391C3.57299 0.900391 3.54758 0.910902 3.52883 0.929616L3.69948 1.24156ZM3.69948 1.24156V2.44866V7.00026C3.69948 7.02678 3.68895 7.05222 3.67019 7.07097C3.65144 7.08973 3.626 7.10026 3.59948 7.10026C3.57296 7.10026 3.54752 7.08973 3.52877 7.07097C3.51002 7.05222 3.49948 7.02678 3.49948 7.00026V2.44866V1.24156L2.64593 2.09511L1.27018 3.47085C1.27016 3.47087 1.27015 3.47089 1.27013 3.47091C1.25138 3.48962 1.22597 3.50013 1.19948 3.50013C1.17297 3.50013 1.14753 3.4896 1.12878 3.47085C1.1101 3.45211 1.09961 3.42673 1.09961 3.40026C1.09961 3.37377 1.11012 3.34836 1.12883 3.32962C1.12885 3.3296 1.12887 3.32958 1.12889 3.32956L3.52878 0.929669L3.69948 1.24156Z" fill="#20C274" stroke="#20C274"/>
</svg>
