<svg width="158" height="129" viewBox="0 0 158 129" fill="none" xmlns="http://www.w3.org/2000/svg">
<path d="M121.01 9.71306C123.159 9.71306 124.901 7.97359 124.901 5.82784C124.901 3.6821 123.159 1.94263 121.01 1.94263C118.861 1.94263 117.119 3.6821 117.119 5.82784C117.119 7.97359 118.861 9.71306 121.01 9.71306Z" fill="#EAEEF9"/>
<path d="M83.4334 104.696C111.538 104.696 134.321 81.9459 134.321 53.8818C134.321 25.8177 111.538 3.06726 83.4334 3.06726C55.3291 3.06726 32.546 25.8177 32.546 53.8818C32.546 81.9459 55.3291 104.696 83.4334 104.696Z" fill="#EAEEF9"/>
<path d="M27.017 16.0521C28.4307 16.0521 29.5767 14.9077 29.5767 13.496C29.5767 12.0843 28.4307 10.9399 27.017 10.9399C25.6033 10.9399 24.4573 12.0843 24.4573 13.496C24.4573 14.9077 25.6033 16.0521 27.017 16.0521Z" fill="#EAEEF9"/>
<path d="M29.7815 28.3212C30.7428 28.3212 31.5221 27.543 31.5221 26.5831C31.5221 25.6232 30.7428 24.845 29.7815 24.845C28.8202 24.845 28.0409 25.6232 28.0409 26.5831C28.0409 27.543 28.8202 28.3212 29.7815 28.3212Z" fill="url(#paint0_linear)"/>
<path d="M109.44 3.27176C110.345 3.27176 111.078 2.53935 111.078 1.63588C111.078 0.732409 110.345 0 109.44 0C108.535 0 107.802 0.732409 107.802 1.63588C107.802 2.53935 108.535 3.27176 109.44 3.27176Z" fill="#EAEEF9"/>
<path d="M118.962 97.9483C119.867 97.9483 120.601 97.2159 120.601 96.3124C120.601 95.4089 119.867 94.6765 118.962 94.6765C118.058 94.6765 117.324 95.4089 117.324 96.3124C117.324 97.2159 118.058 97.9483 118.962 97.9483Z" fill="url(#paint1_linear)"/>
<path d="M52.6211 9.34867C53.5258 9.34867 54.2593 8.61626 54.2593 7.71278C54.2593 6.80931 53.5258 6.0769 52.6211 6.0769C51.7163 6.0769 50.9828 6.80931 50.9828 7.71278C50.9828 8.61626 51.7163 9.34867 52.6211 9.34867Z" fill="url(#paint2_linear)"/>
<g filter="url(#filter0_d)">
<path d="M68.4846 103.572H23.843C22.8191 103.572 22 102.754 22 101.731V36.7051C22 35.6827 22.8191 34.8647 23.843 34.8647H68.4846C69.5085 34.8647 70.3276 35.6827 70.3276 36.7051V101.731C70.3276 102.754 69.5085 103.572 68.4846 103.572Z" fill="white"/>
</g>
<path d="M55.174 70.2406C55.174 70.4451 55.174 70.5473 55.0716 70.7518C54.9692 71.0585 54.9692 71.4675 54.8668 71.7742C54.7644 71.9787 54.7644 72.0809 54.662 72.2854C54.5597 72.5922 54.4573 72.8989 54.2525 73.2056V73.3078C54.1501 73.4101 54.1501 73.6146 54.0477 73.7168C53.9453 73.8191 53.8429 74.0236 53.7405 74.1258L56.9146 76.8863C57.017 76.6819 57.1194 76.5796 57.2218 76.3751C57.5289 75.8639 57.8361 75.3527 58.0409 74.8415C58.1433 74.637 58.1433 74.5348 58.2457 74.3303C58.4504 73.8191 58.6552 73.3078 58.86 72.7966C58.86 72.6944 58.9624 72.4899 58.9624 72.3877C59.0648 72.0809 59.0648 71.7742 59.1672 71.4675C59.1672 71.3652 59.2696 71.1608 59.2696 71.0585C59.2696 70.9563 59.2696 70.7518 59.3719 70.6495V70.5473C59.3719 70.4451 59.3719 70.2406 59.3719 70.1383H55.174V70.2406ZM46.2661 78.1133C41.3515 78.1133 37.2559 74.1258 37.2559 69.2181C37.2559 64.6172 40.6347 60.9365 45.0375 60.323V56.1311C38.3822 56.6423 33.1603 62.3679 33.1603 69.2181C33.1603 76.4774 39.0989 82.4074 46.3685 82.4074C49.9521 82.4074 53.2286 80.976 55.5835 78.6245L52.4095 75.8639C50.7713 77.2953 48.6211 78.1133 46.2661 78.1133ZM47.3924 56.1311V60.323C51.488 60.8343 54.662 64.0038 55.174 67.9912H59.3719C58.86 61.6522 53.7405 56.6423 47.3924 56.1311Z" fill="#E3EAF2"/>
<path d="M59.4745 67.9912H55.2765C54.7646 63.9015 51.4881 60.732 47.4949 60.323V56.1311C53.7407 56.6423 58.8601 61.6522 59.4745 67.9912Z" fill="url(#paint3_linear)"/>
<path d="M59.4743 70.2407C59.4743 70.343 59.4743 70.5475 59.4743 70.6497V70.7519C59.4743 70.8542 59.4743 71.0587 59.3719 71.1609C59.3719 71.2631 59.3719 71.4676 59.2696 71.5699C59.1672 71.8766 59.1672 72.1833 59.0648 72.4901C59.0648 72.5923 58.9624 72.7968 58.9624 72.899C58.7576 73.4102 58.6552 73.9215 58.348 74.4327C58.2457 74.6372 58.2457 74.7394 58.1433 74.9439C57.9385 75.4551 57.6313 75.9663 57.3242 76.4775C57.2218 76.682 57.1194 76.7843 57.017 76.9887L53.7405 74.1259C53.8429 74.0237 53.9453 73.8192 54.0477 73.717C54.1501 73.6147 54.2525 73.4102 54.2525 73.308V73.2058C54.3549 72.899 54.5597 72.5923 54.662 72.2856C54.7644 72.0811 54.7644 71.9788 54.8668 71.7744C54.9692 71.4676 55.0716 71.0587 55.0716 70.7519C55.0716 70.5475 55.174 70.4452 55.174 70.2407H59.4743Z" fill="url(#paint4_linear)"/>
<path d="M32.3413 45.3958H27.2219C26.9147 45.3958 26.6075 45.0891 26.6075 44.7823V44.1689C26.6075 43.8622 26.9147 43.5554 27.2219 43.5554H32.3413C32.6485 43.5554 32.9557 43.8622 32.9557 44.1689V44.7823C32.9557 45.0891 32.6485 45.3958 32.3413 45.3958Z" fill="#CED7E2"/>
<path d="M67.5632 45.3958H37.3585C37.0513 45.3958 36.7441 45.0891 36.7441 44.7823V44.1689C36.7441 43.8622 37.0513 43.5554 37.3585 43.5554H67.5632C67.8704 43.5554 68.1776 43.8622 68.1776 44.1689V44.7823C68.1776 45.0891 67.8704 45.3958 67.5632 45.3958Z" fill="#E3EAF2"/>
<path d="M32.3413 51.428H27.2219C26.9147 51.428 26.6075 51.1213 26.6075 50.8146V50.2011C26.6075 49.8944 26.9147 49.5876 27.2219 49.5876H32.3413C32.6485 49.5876 32.9557 49.8944 32.9557 50.2011V50.8146C32.9557 51.1213 32.6485 51.428 32.3413 51.428Z" fill="#CED7E2"/>
<path d="M67.5632 51.428H37.3585C37.0513 51.428 36.7441 51.1213 36.7441 50.8146V50.2011C36.7441 49.8944 37.0513 49.5876 37.3585 49.5876H67.5632C67.8704 49.5876 68.1776 49.8944 68.1776 50.2011V50.8146C68.1776 51.1213 67.8704 51.428 67.5632 51.428Z" fill="#E3EAF2"/>
<path d="M37.6656 88.542H34.1843V97.6416H37.6656V88.542Z" fill="#8A6FFF"/>
<path d="M44.0136 86.9062H40.5324V97.744H44.0136V86.9062Z" fill="#8A6FFF"/>
<path d="M50.4644 89.9736H46.9832V97.7441H50.4644V89.9736Z" fill="#8A6FFF"/>
<path d="M56.8123 92.5295H53.3311V97.7439H56.8123V92.5295Z" fill="#8A6FFF"/>
<g filter="url(#filter1_d)">
<path d="M140.259 82.203H95.5152C94.4914 82.203 93.6722 81.3851 93.6722 80.3627V15.4386C93.6722 14.4162 94.4914 13.5983 95.5152 13.5983H140.157C141.181 13.5983 142 14.4162 142 15.4386V80.4649C142 81.3851 141.181 82.203 140.259 82.203Z" fill="white"/>
</g>
<path d="M138.826 49.0764H102.887V53.2684H138.826V49.0764Z" fill="#E6EDF5"/>
<path d="M123.775 50.5078H113.945V51.7347H123.775V50.5078Z" fill="#CED7E2"/>
<path d="M136.266 50.5078H132.785V51.7347H136.266V50.5078Z" fill="#8868FF"/>
<path d="M138.826 57.9714H102.887V62.1634H138.826V57.9714Z" fill="#E6EDF5"/>
<path d="M120.805 59.5051H113.945V60.732H120.805V59.5051Z" fill="#CED7E2"/>
<path d="M136.266 59.5051H130.225V60.732H136.266V59.5051Z" fill="url(#paint5_linear)"/>
<path d="M138.826 66.9688H102.887V71.1607H138.826V66.9688Z" fill="#E6EDF5"/>
<path d="M125.311 68.4004H113.945V69.6273H125.311V68.4004Z" fill="#CED7E2"/>
<path d="M136.266 68.4004H134.321V69.6273H136.266V68.4004Z" fill="#8868FF"/>
<path d="M136.266 19.0171H125.106H125.003H124.901H113.433H113.331H113.228H102.478C101.249 19.0171 100.327 20.0395 100.327 21.2664V40.7948C100.327 42.0217 101.351 43.0441 102.478 43.0441H136.266C137.495 43.0441 138.416 42.0217 138.416 40.7948V21.2664C138.416 20.0395 137.392 19.0171 136.266 19.0171ZM114.048 36.2961V31.8997H124.389V36.2961H114.048ZM124.389 37.6252V41.6127H114.048V37.6252H124.389ZM124.389 26.2763V30.6727H114.048V26.2763H124.389ZM114.048 24.8449V20.4485H124.389V24.9472H114.048V24.8449ZM137.085 30.5705H125.72V26.1741H137.085V30.5705ZM112.614 30.5705H101.556V26.1741H112.614V30.5705ZM101.556 31.8997H112.614V36.2961H101.556V31.8997ZM125.72 31.8997H137.085V36.2961H125.72V31.8997ZM137.085 21.2664V24.8449H125.72V20.4485H136.266C136.676 20.4485 137.085 20.7552 137.085 21.2664ZM102.478 20.4485H112.716V24.9472H101.556V21.3687C101.556 20.7552 101.966 20.4485 102.478 20.4485ZM101.556 40.7948V37.6252H112.614V41.6127H102.375C101.966 41.7149 101.556 41.306 101.556 40.7948ZM136.266 41.7149H125.72V37.7275H137.085V40.897C137.085 41.306 136.676 41.7149 136.266 41.7149Z" fill="#E3EAF2"/>
<g filter="url(#filter2_d)">
<path d="M107.29 88.6444H62.546C61.5221 88.6444 60.703 87.8264 60.703 86.804V21.7777C60.703 20.7553 61.5221 19.9374 62.546 19.9374H107.188C108.212 19.9374 109.031 20.7553 109.031 21.7777V86.804C109.031 87.8264 108.212 88.6444 107.29 88.6444Z" fill="white"/>
</g>
<path d="M103.502 69.116H67.7679C67.4607 69.116 67.1536 68.8092 67.1536 68.5025V68.298C67.1536 67.9913 67.4607 67.6846 67.7679 67.6846H103.502C103.809 67.6846 104.116 67.9913 104.116 68.298V68.5025C104.116 68.8092 103.911 69.116 103.502 69.116Z" fill="#E3EAF2"/>
<path d="M103.502 73.5125H67.7679C67.4607 73.5125 67.1536 73.2057 67.1536 72.899V72.6945C67.1536 72.3878 67.4607 72.0811 67.7679 72.0811H103.502C103.809 72.0811 104.116 72.3878 104.116 72.6945V72.899C104.116 73.2057 103.911 73.5125 103.502 73.5125Z" fill="#E3EAF2"/>
<path d="M77.0853 77.8066H67.8703C67.4607 77.8066 67.1536 77.4999 67.1536 77.091C67.1536 76.682 67.4607 76.3752 67.8703 76.3752H77.0853C77.4949 76.3752 77.802 76.682 77.802 77.091C77.802 77.4999 77.4949 77.8066 77.0853 77.8066Z" fill="#E3EAF2"/>
<path d="M77.0853 64.2083H67.8703C67.4607 64.2083 67.1536 63.9015 67.1536 63.4926C67.1536 63.0836 67.4607 62.7769 67.8703 62.7769H77.0853C77.4949 62.7769 77.802 63.0836 77.802 63.4926C77.802 63.9015 77.4949 64.2083 77.0853 64.2083Z" fill="#CED7E2"/>
<path d="M101.454 30.4682C100.84 30.4682 100.225 30.775 99.8159 31.2862L95.0036 30.0593C94.7988 29.957 94.4916 30.0593 94.2869 30.2637L86.3005 38.2387C85.9933 38.1364 85.6862 38.0342 85.379 38.0342C85.0718 38.0342 84.7647 38.1364 84.4575 38.2387L78.3142 32.1041C78.4166 31.8996 78.4165 31.6951 78.4165 31.3884C78.4165 30.2637 77.495 29.4458 76.4712 29.4458C75.4473 29.4458 74.5258 30.366 74.5258 31.3884C74.5258 31.5929 74.5258 31.8996 74.6282 32.1041L69.6111 37.114C69.4063 37.0118 69.0991 37.0118 68.8944 37.0118C67.7681 37.0118 66.949 37.9319 66.949 38.9544C66.949 39.9768 67.8705 40.897 68.8944 40.897C69.9183 40.897 70.8398 39.9768 70.8398 38.9544C70.8398 38.6476 70.7374 38.4431 70.635 38.1364L75.652 33.1265C75.9592 33.2288 76.164 33.331 76.4712 33.331C76.7783 33.331 77.0855 33.2288 77.2903 33.1265L83.4336 39.2611C83.3312 39.4656 83.3312 39.6701 83.3312 39.8745C83.3312 40.9992 84.2527 41.8172 85.2766 41.8172C86.4029 41.8172 87.222 40.897 87.222 39.8745C87.222 39.6701 87.222 39.4656 87.1196 39.2611L94.9012 31.4907L99.3039 32.6153C99.4063 33.5355 100.225 34.3534 101.249 34.3534C102.376 34.3534 103.195 33.4333 103.195 32.4108C103.399 31.2862 102.478 30.4682 101.454 30.4682ZM68.9968 39.9768C68.4848 39.9768 68.0753 39.5678 68.0753 39.0566C68.0753 38.5454 68.4848 38.1364 68.9968 38.1364C69.5087 38.1364 69.9183 38.5454 69.9183 39.0566C69.9183 39.4656 69.5087 39.9768 68.9968 39.9768ZM76.5735 32.3086C76.0616 32.3086 75.652 31.8996 75.652 31.3884C75.652 30.8772 76.0616 30.4682 76.5735 30.4682C77.0855 30.4682 77.495 30.8772 77.495 31.3884C77.495 31.8996 77.1879 32.3086 76.5735 32.3086ZM85.4814 40.897C84.9695 40.897 84.5599 40.488 84.5599 39.9768C84.5599 39.4656 84.9695 39.0566 85.4814 39.0566C85.9933 39.0566 86.4029 39.4656 86.4029 39.9768C86.5053 40.488 86.0957 40.897 85.4814 40.897ZM101.454 33.331C100.942 33.331 100.533 32.922 100.533 32.4108C100.533 31.8996 100.942 31.4907 101.454 31.4907C101.966 31.4907 102.376 31.8996 102.376 32.4108C102.376 32.922 101.966 33.331 101.454 33.331Z" fill="url(#paint6_linear)"/>
<path d="M70.0204 56.949H67.9727C67.7679 56.949 67.5631 56.7446 67.5631 56.5401V46.5203C67.5631 46.3158 67.7679 46.1113 67.9727 46.1113H70.0204C70.2252 46.1113 70.43 46.3158 70.43 46.5203V56.5401C70.43 56.7446 70.2252 56.949 70.0204 56.949Z" fill="#8A6FFF"/>
<path d="M71.2493 56.949H68.8943C68.6895 56.949 68.5872 56.8467 68.5872 56.6423V52.0413C68.5872 51.8369 68.6895 51.7346 68.8943 51.7346H71.2493C71.4541 51.7346 71.5564 51.8369 71.5564 52.0413V56.6423C71.5564 56.8467 71.3517 56.949 71.2493 56.949Z" fill="url(#paint7_linear)"/>
<path d="M75.3447 56.9489H73.2969C73.0921 56.9489 72.8873 56.7444 72.8873 56.5399V49.5874C72.8873 49.383 73.0921 49.1785 73.2969 49.1785H75.3447C75.5494 49.1785 75.7542 49.383 75.7542 49.5874V56.5399C75.7542 56.7444 75.5494 56.9489 75.3447 56.9489Z" fill="#8A6FFF"/>
<path d="M80.669 56.949H78.6212C78.4164 56.949 78.2117 56.7445 78.2117 56.54V52.1436C78.2117 51.9391 78.4164 51.7346 78.6212 51.7346H80.669C80.8738 51.7346 81.0786 51.9391 81.0786 52.1436V56.54C81.0786 56.7445 80.8738 56.949 80.669 56.949Z" fill="#8A6FFF"/>
<path d="M85.9931 56.949H83.9453C83.7405 56.949 83.5358 56.7445 83.5358 56.54V48.2583C83.5358 48.0539 83.7405 47.8494 83.9453 47.8494H85.9931C86.1979 47.8494 86.4027 48.0539 86.4027 48.2583V56.54C86.4027 56.7445 86.3003 56.949 85.9931 56.949Z" fill="#8A6FFF"/>
<path d="M91.4198 56.9489H89.372C89.1672 56.9489 88.9625 56.7444 88.9625 56.5399V51.5301C88.9625 51.3256 89.1672 51.1211 89.372 51.1211H91.4198C91.6246 51.1211 91.8294 51.3256 91.8294 51.5301V56.5399C91.8294 56.7444 91.6246 56.9489 91.4198 56.9489Z" fill="#8A6FFF"/>
<path d="M96.7441 56.9489H94.6964C94.4916 56.9489 94.2868 56.7444 94.2868 56.5399V49.5874C94.2868 49.383 94.4916 49.1785 94.6964 49.1785H96.7441C96.9489 49.1785 97.1537 49.383 97.1537 49.5874V56.5399C97.1537 56.7444 96.9489 56.9489 96.7441 56.9489Z" fill="#8A6FFF"/>
<path d="M102.068 56.949H100.02C99.8157 56.949 99.6109 56.7445 99.6109 56.54V52.1436C99.6109 51.9391 99.8157 51.7346 100.02 51.7346H102.068C102.273 51.7346 102.478 51.9391 102.478 52.1436V56.54C102.478 56.7445 102.273 56.949 102.068 56.949Z" fill="#8A6FFF"/>
<path d="M76.5734 56.9491H74.1161C74.0137 56.9491 73.9113 56.8468 73.9113 56.7446V53.984C73.9113 53.8818 74.0137 53.7795 74.1161 53.7795H76.5734C76.6758 53.7795 76.7782 53.8818 76.7782 53.984V56.7446C76.7782 56.8468 76.6758 56.9491 76.5734 56.9491Z" fill="url(#paint8_linear)"/>
<path d="M82.0002 56.9491H79.4405C79.3381 56.9491 79.2357 56.8468 79.2357 56.7446V55.4154C79.2357 55.3132 79.3381 55.2109 79.4405 55.2109H82.0002C82.1026 55.2109 82.205 55.3132 82.205 55.4154V56.7446C82.1026 56.8468 82.1026 56.9491 82.0002 56.9491Z" fill="url(#paint9_linear)"/>
<path d="M87.3242 56.949H84.8668C84.7644 56.949 84.662 56.8467 84.662 56.7445V54.8019C84.662 54.6997 84.7644 54.5974 84.8668 54.5974H87.3242C87.4265 54.5974 87.5289 54.6997 87.5289 54.8019V56.7445C87.5289 56.8467 87.5289 56.949 87.3242 56.949Z" fill="url(#paint10_linear)"/>
<path d="M92.6484 56.9489H90.2935C90.1911 56.9489 90.0887 56.8466 90.0887 56.7444V53.1659C90.0887 53.0637 90.1911 52.9614 90.2935 52.9614H92.6484C92.7508 52.9614 92.8532 53.0637 92.8532 53.1659V56.7444C92.9556 56.8466 92.8532 56.9489 92.6484 56.9489Z" fill="url(#paint11_linear)"/>
<path d="M98.2798 56.949H95.6177C95.5153 56.949 95.5153 56.949 95.5153 56.8468V56.2333C95.5153 56.1311 95.5153 56.1311 95.6177 56.1311H98.2798C98.3822 56.1311 98.3822 56.1311 98.3822 56.2333V56.7446C98.3822 56.8468 98.3822 56.949 98.2798 56.949Z" fill="url(#paint12_linear)"/>
<path d="M103.604 56.9497H100.942C100.942 56.9497 100.839 56.9497 100.839 56.8473V56.5401C100.839 56.5401 100.839 56.4377 100.942 56.4377H103.604C103.604 56.4377 103.706 56.4377 103.706 56.5401L103.604 56.9497C103.706 56.8473 103.604 56.9497 103.604 56.9497Z" fill="url(#paint13_linear)"/>
<g filter="url(#filter3_d)">
<path d="M84.6622 93.9607C92.692 93.9607 99.2014 87.4606 99.2014 79.4423C99.2014 71.424 92.692 64.9238 84.6622 64.9238C76.6324 64.9238 70.1229 71.424 70.1229 79.4423C70.1229 87.4606 76.6324 93.9607 84.6622 93.9607Z" fill="white"/>
<path d="M98.28 77.0908H71.3517V81.0783H98.28V77.0908Z" fill="#E6EDF5"/>
<path d="M98.28 69.218H71.3517V73.2055H98.28V69.218Z" fill="#E6EDF5"/>
<path d="M106.471 97.1303L103.4 100.198L94.4918 91.4047L97.5634 88.3374L106.471 97.1303Z" fill="#7259DD"/>
<path d="M72.7852 66.6621C66.1299 73.3078 66.1299 84.0433 72.7852 90.6891C79.4405 97.3348 90.1913 97.3348 96.8466 90.6891C103.502 84.0433 103.502 73.3078 96.8466 66.6621C90.1913 60.0163 79.4405 60.0163 72.7852 66.6621ZM94.0821 87.9285C88.9626 93.0406 80.6691 93.0406 75.4473 87.9285C70.3278 82.8164 70.3278 74.5347 75.4473 69.3204C80.5667 64.2082 88.8603 64.2082 94.0821 69.3204C99.2016 74.5347 99.2016 82.8164 94.0821 87.9285Z" fill="url(#paint14_linear)"/>
<path d="M111.283 105.003C109.952 106.332 107.7 106.332 106.266 105.003L97.2561 96.1079C96.7441 95.5967 96.7441 94.6765 97.2561 94.063L100.225 91.098C100.737 90.5868 101.659 90.5868 102.171 91.098L111.283 99.9931C112.717 101.425 112.717 103.674 111.283 105.003Z" fill="url(#paint15_linear)"/>
</g>
<defs>
<filter id="filter0_d" x="0" y="23.8647" width="92.3276" height="112.707" filterUnits="userSpaceOnUse" color-interpolation-filters="sRGB">
<feFlood flood-opacity="0" result="BackgroundImageFix"/>
<feColorMatrix in="SourceAlpha" type="matrix" values="0 0 0 0 0 0 0 0 0 0 0 0 0 0 0 0 0 0 127 0" result="hardAlpha"/>
<feOffset dy="11"/>
<feGaussianBlur stdDeviation="11"/>
<feColorMatrix type="matrix" values="0 0 0 0 0.397708 0 0 0 0 0.47749 0 0 0 0 0.575 0 0 0 0.18 0"/>
<feBlend mode="normal" in2="BackgroundImageFix" result="effect1_dropShadow"/>
<feBlend mode="normal" in="SourceGraphic" in2="effect1_dropShadow" result="shape"/>
</filter>
<filter id="filter1_d" x="71.6722" y="2.59827" width="92.3277" height="112.605" filterUnits="userSpaceOnUse" color-interpolation-filters="sRGB">
<feFlood flood-opacity="0" result="BackgroundImageFix"/>
<feColorMatrix in="SourceAlpha" type="matrix" values="0 0 0 0 0 0 0 0 0 0 0 0 0 0 0 0 0 0 127 0" result="hardAlpha"/>
<feOffset dy="11"/>
<feGaussianBlur stdDeviation="11"/>
<feColorMatrix type="matrix" values="0 0 0 0 0.397708 0 0 0 0 0.47749 0 0 0 0 0.575 0 0 0 0.18 0"/>
<feBlend mode="normal" in2="BackgroundImageFix" result="effect1_dropShadow"/>
<feBlend mode="normal" in="SourceGraphic" in2="effect1_dropShadow" result="shape"/>
</filter>
<filter id="filter2_d" x="38.703" y="8.93738" width="92.3276" height="112.707" filterUnits="userSpaceOnUse" color-interpolation-filters="sRGB">
<feFlood flood-opacity="0" result="BackgroundImageFix"/>
<feColorMatrix in="SourceAlpha" type="matrix" values="0 0 0 0 0 0 0 0 0 0 0 0 0 0 0 0 0 0 127 0" result="hardAlpha"/>
<feOffset dy="11"/>
<feGaussianBlur stdDeviation="11"/>
<feColorMatrix type="matrix" values="0 0 0 0 0.397708 0 0 0 0 0.47749 0 0 0 0 0.575 0 0 0 0.18 0"/>
<feBlend mode="normal" in2="BackgroundImageFix" result="effect1_dropShadow"/>
<feBlend mode="normal" in="SourceGraphic" in2="effect1_dropShadow" result="shape"/>
</filter>
<filter id="filter3_d" x="59.7937" y="58.6777" width="60.5648" height="60.3221" filterUnits="userSpaceOnUse" color-interpolation-filters="sRGB">
<feFlood flood-opacity="0" result="BackgroundImageFix"/>
<feColorMatrix in="SourceAlpha" type="matrix" values="0 0 0 0 0 0 0 0 0 0 0 0 0 0 0 0 0 0 127 0" result="hardAlpha"/>
<feOffset dy="5"/>
<feGaussianBlur stdDeviation="4"/>
<feColorMatrix type="matrix" values="0 0 0 0 0.1125 0 0 0 0 0.295916 0 0 0 0 1 0 0 0 0.22 0"/>
<feBlend mode="normal" in2="BackgroundImageFix" result="effect1_dropShadow"/>
<feBlend mode="normal" in="SourceGraphic" in2="effect1_dropShadow" result="shape"/>
</filter>
<linearGradient id="paint0_linear" x1="28.1059" y1="26.6227" x2="31.4893" y2="26.6227" gradientUnits="userSpaceOnUse">
<stop stop-color="#FF66A9"/>
<stop offset="1" stop-color="#F53689"/>
</linearGradient>
<linearGradient id="paint1_linear" x1="117.329" y1="96.269" x2="120.507" y2="96.269" gradientUnits="userSpaceOnUse">
<stop stop-color="#FF66A9"/>
<stop offset="1" stop-color="#F53689"/>
</linearGradient>
<linearGradient id="paint2_linear" x1="51.0147" y1="7.74162" x2="54.1931" y2="7.74162" gradientUnits="userSpaceOnUse">
<stop stop-color="#A383FF"/>
<stop offset="1" stop-color="#A35AFF"/>
</linearGradient>
<linearGradient id="paint3_linear" x1="47.3804" y1="62.062" x2="59.4239" y2="62.062" gradientUnits="userSpaceOnUse">
<stop stop-color="#FF66A9"/>
<stop offset="1" stop-color="#F53689"/>
</linearGradient>
<linearGradient id="paint4_linear" x1="53.7725" y1="73.5934" x2="59.4344" y2="73.5934" gradientUnits="userSpaceOnUse">
<stop stop-color="#A676FF"/>
<stop offset="1" stop-color="#9766FF"/>
</linearGradient>
<linearGradient id="paint5_linear" x1="130.275" y1="60.0884" x2="136.349" y2="60.0884" gradientUnits="userSpaceOnUse">
<stop stop-color="#FF66A9"/>
<stop offset="1" stop-color="#F53689"/>
</linearGradient>
<linearGradient id="paint6_linear" x1="66.9781" y1="35.6395" x2="103.414" y2="35.6395" gradientUnits="userSpaceOnUse">
<stop stop-color="#FF66A9"/>
<stop offset="1" stop-color="#F53689"/>
</linearGradient>
<linearGradient id="paint7_linear" x1="68.6368" y1="54.3272" x2="71.5231" y2="54.3272" gradientUnits="userSpaceOnUse">
<stop stop-color="#FF66A9"/>
<stop offset="1" stop-color="#F53689"/>
</linearGradient>
<linearGradient id="paint8_linear" x1="73.9284" y1="55.343" x2="76.8147" y2="55.343" gradientUnits="userSpaceOnUse">
<stop stop-color="#FF66A9"/>
<stop offset="1" stop-color="#F53689"/>
</linearGradient>
<linearGradient id="paint9_linear" x1="79.2479" y1="56.109" x2="82.1342" y2="56.109" gradientUnits="userSpaceOnUse">
<stop stop-color="#FF66A9"/>
<stop offset="1" stop-color="#F53689"/>
</linearGradient>
<linearGradient id="paint10_linear" x1="84.6778" y1="55.7543" x2="87.5642" y2="55.7543" gradientUnits="userSpaceOnUse">
<stop stop-color="#FF66A9"/>
<stop offset="1" stop-color="#F53689"/>
</linearGradient>
<linearGradient id="paint11_linear" x1="90.0526" y1="54.8747" x2="92.9389" y2="54.8747" gradientUnits="userSpaceOnUse">
<stop stop-color="#FF66A9"/>
<stop offset="1" stop-color="#F53689"/>
</linearGradient>
<linearGradient id="paint12_linear" x1="95.5383" y1="56.5487" x2="98.4245" y2="56.5487" gradientUnits="userSpaceOnUse">
<stop stop-color="#FF66A9"/>
<stop offset="1" stop-color="#F53689"/>
</linearGradient>
<linearGradient id="paint13_linear" x1="100.802" y1="56.6766" x2="103.688" y2="56.6766" gradientUnits="userSpaceOnUse">
<stop stop-color="#FF66A9"/>
<stop offset="1" stop-color="#F53689"/>
</linearGradient>
<linearGradient id="paint14_linear" x1="67.8104" y1="78.6635" x2="101.793" y2="78.6635" gradientUnits="userSpaceOnUse">
<stop stop-color="#A776FF"/>
<stop offset="1" stop-color="#8365FF"/>
</linearGradient>
<linearGradient id="paint15_linear" x1="96.8676" y1="98.3786" x2="112.352" y2="98.3786" gradientUnits="userSpaceOnUse">
<stop stop-color="#A776FF"/>
<stop offset="1" stop-color="#8566FF"/>
</linearGradient>
</defs>
</svg>
