<svg width="176" height="168" viewBox="0 0 176 168" fill="none" xmlns="http://www.w3.org/2000/svg">
<path d="M85.3384 148.885C124.345 148.885 155.966 117.262 155.966 78.2524C155.966 39.2429 124.345 7.61937 85.3384 7.61937C46.3319 7.61937 14.7109 39.2429 14.7109 78.2524C14.7109 117.262 46.3319 148.885 85.3384 148.885Z" fill="#EAEEF9"/>
<g filter="url(#filter0_d)">
<path d="M45.4065 60.7507H123.424C126.408 60.7507 128.966 63.1667 128.966 66.2934V115.466C128.966 118.451 126.55 121.009 123.424 121.009H45.4065C42.4222 121.009 39.8643 118.593 39.8643 115.466V66.2934C39.8643 63.3089 42.4222 60.7507 45.4065 60.7507Z" fill="#CED7E2"/>
</g>
<path d="M167.527 60.6055C169.729 58.5934 169.882 55.1774 167.87 52.9756C165.859 50.7739 162.443 50.6201 160.241 52.6322C158.04 54.6442 157.886 58.0602 159.898 60.262C161.91 62.4638 165.325 62.6176 167.527 60.6055Z" fill="#EAEEF9"/>
<path d="M167.927 36.5948C168.854 35.7476 168.919 34.3093 168.071 33.3822C167.224 32.4551 165.786 32.3904 164.859 33.2376C163.932 34.0848 163.867 35.5231 164.715 36.4501C165.562 37.3772 167 37.442 167.927 36.5948Z" fill="#EAEEF9"/>
<path d="M110.563 3.36269C111.2 2.78025 111.245 1.79141 110.662 1.15405C110.08 0.516698 109.091 0.472182 108.454 1.05463C107.816 1.63707 107.772 2.62591 108.354 3.26326C108.937 3.90062 109.925 3.94513 110.563 3.36269Z" fill="#EAEEF9"/>
<path d="M157.268 34.8576L137.8 69.3922C137.089 70.5292 135.668 70.9556 134.531 70.245L101.278 50.9168C100.141 50.2062 99.7149 48.7853 100.425 47.6483L126.005 3.59148C126.715 2.45453 128.137 2.02804 129.273 2.73863L153.432 16.8083L157.268 34.8576Z" fill="#F2F6FA"/>
<path d="M153.29 16.6663L147.748 26.0463C147.037 27.4675 147.463 29.0311 148.742 29.8838L157.127 34.7157" fill="#CED7E2"/>
<path d="M130.411 25.7625C130.979 25.6203 131.547 25.6202 131.974 25.6202C132.542 25.6202 133.111 25.6202 133.679 25.6202C134.248 25.7623 134.958 25.9042 135.526 26.0463C136.237 26.3305 136.805 26.6149 137.374 26.8991C138.227 27.3255 138.937 27.8942 139.506 28.6048C140.074 29.1733 140.5 29.8839 140.785 30.7366C141.069 31.4472 141.069 32.2994 141.069 33.01C140.927 33.8627 140.642 34.7157 140.216 35.4263C139.79 36.1369 139.363 36.7051 138.795 37.2735C138.227 37.6999 137.8 37.9844 137.09 38.2686C136.521 38.5529 135.953 38.6947 135.385 38.6947L133.821 38.837C133.395 38.837 132.969 38.9794 132.4 39.1215C131.974 39.2636 131.69 39.4056 131.405 39.6898L129.842 41.6793L127.284 40.2582L128.421 37.7003C128.563 37.2739 128.99 36.8472 129.274 36.5629C129.7 36.2787 130.126 36.1367 130.553 35.9946C131.121 35.8525 131.548 35.8529 132.116 35.7108C132.684 35.7108 133.253 35.5684 133.821 35.4263C134.39 35.2841 134.816 35.1422 135.385 34.8579C135.953 34.5737 136.237 34.1475 136.521 33.579C136.664 33.2948 136.805 32.868 136.948 32.4416C136.948 32.0153 136.948 31.7315 136.806 31.4472C136.664 31.0209 136.521 30.7363 136.237 30.4521C135.953 30.1679 135.669 29.8835 135.242 29.5993C134.816 29.315 134.248 29.0308 133.679 28.8887C133.253 28.7465 132.826 28.7464 132.4 28.7464C131.974 28.7464 131.69 28.7464 131.405 28.7464C131.263 28.7464 130.979 28.747 130.837 28.6048C130.553 28.4627 130.269 28.0362 130.269 27.752L130.411 25.7625ZM122.879 45.0901C123.021 44.8058 123.305 44.5221 123.59 44.2379C123.874 44.0958 124.158 43.8111 124.442 43.8111C125.153 43.669 125.863 43.6693 126.432 44.0956C126.716 44.2378 127 44.522 127.284 44.8062C127.427 45.0905 127.568 45.3749 127.711 45.6591C128.137 47.0803 127.284 48.5012 125.863 48.9275C125.153 49.0697 124.442 48.9273 123.874 48.643C123.589 48.5009 123.305 48.2167 123.021 47.9324C122.879 47.6482 122.595 47.3645 122.595 47.0803C122.453 46.796 122.453 46.3694 122.595 46.0852C122.595 45.6588 122.737 45.3743 122.879 45.0901Z" fill="#CED7E2"/>
<path d="M32.3567 19.7932L54.6676 42.9583C55.3781 43.811 55.378 44.9479 54.5253 45.8006L31.7881 67.2607C30.9355 67.9713 29.7986 67.9712 28.9459 67.1185L0.666679 37.1319C-0.0438591 36.2792 -0.0437204 35.1423 0.808925 34.2896L17.2932 18.7981L32.3567 19.7932Z" fill="#F2F6FA"/>
<path d="M17.293 18.6565L23.4037 25.0518C24.2563 25.9046 25.6775 25.9046 26.6722 25.0518L32.3565 19.6509" fill="#CED7E2"/>
<path d="M18.999 38.5531C18.999 38.1268 19.1414 37.6998 19.2835 37.2735C19.4256 36.8471 19.5675 36.4209 19.7096 35.9946C19.8517 35.5682 20.1359 35.142 20.4201 34.7156C20.7043 34.2893 21.1307 33.8631 21.557 33.4367C22.1255 32.8682 22.694 32.442 23.4045 32.1578C23.9729 31.8735 24.6835 31.731 25.252 31.731C25.8204 31.731 26.531 31.8734 27.0994 32.0155C27.6679 32.2997 28.2362 32.7258 28.8047 33.1522C29.231 33.5785 29.6572 34.1472 29.7993 34.7156C29.9414 35.142 30.0836 35.7106 30.2257 36.2791C30.2257 36.7054 30.2257 37.2739 30.2257 37.7003C30.0836 38.1266 30.0837 38.5528 29.9416 38.9792C29.9416 39.4055 29.7993 39.6895 29.7993 40.1159C29.7993 40.4001 29.7993 40.6845 30.0835 40.9687L31.2204 42.6744L29.5152 44.2379L27.81 42.6744C27.5258 42.3902 27.2415 42.1057 27.0994 41.6793C26.9573 41.253 26.9572 40.969 26.9572 40.5426C26.9572 40.1163 27.0994 39.6901 27.0994 39.2637C27.2415 38.8373 27.2413 38.4104 27.2413 37.9841C27.2413 37.5577 27.2415 37.1315 27.0994 36.7052C26.9573 36.2788 26.6731 35.8526 26.3889 35.4262C26.2468 35.142 25.9626 35 25.6784 34.8579C25.3941 34.7158 25.1098 34.7156 24.8256 34.7156C24.5414 34.7156 24.257 34.858 23.9728 35.0001C23.6886 35.1423 23.4046 35.2842 23.1204 35.5685C22.8361 35.8527 22.5518 36.2787 22.2676 36.5629C22.1255 36.8471 21.9833 37.1316 21.8412 37.558C21.6991 37.8422 21.6993 38.1265 21.6993 38.2686C21.6993 38.4107 21.5572 38.5526 21.4151 38.6947C21.273 38.9789 20.8466 38.9791 20.5623 38.8369L18.999 38.5531ZM32.3573 48.7852C32.2152 48.6431 32.0731 48.3589 31.931 48.0747C31.7888 47.7904 31.7887 47.506 31.7887 47.2218C31.7887 46.6533 32.0729 46.0854 32.4992 45.659C32.6414 45.5169 32.9256 45.3744 33.2098 45.2323C33.494 45.0902 33.7784 45.09 34.0626 45.09C34.9152 45.09 35.7677 45.6585 36.0519 46.5112C36.194 46.7954 36.1942 47.0798 36.1942 47.3641C36.1942 47.6483 36.0519 47.9327 36.0519 48.2169C35.9098 48.5011 35.7679 48.6433 35.4836 48.9275C35.3415 49.0696 35.0573 49.3536 34.7731 49.3536C34.2047 49.4957 33.6361 49.4957 33.2098 49.3536C32.7835 49.2115 32.4995 49.0695 32.3573 48.7852Z" fill="#CED7E2"/>
<path d="M90.3367 56.318L81.668 87.1573C81.3838 88.1522 80.247 88.8626 79.2522 88.4363L49.2674 79.6253C48.2726 79.3411 47.5622 78.2039 47.9885 77.209L59.6413 37.558C59.9255 36.5632 61.0623 35.8527 62.057 36.2791L83.7996 42.6744L90.3367 56.318Z" fill="#F2F6FA"/>
<path d="M83.7994 42.8167L81.2414 51.3438C80.9572 52.4807 81.6678 53.7598 82.8047 54.1862L90.3365 56.4595" fill="#CED7E2"/>
<path d="M67.4575 54.3278C67.8838 54.1856 68.31 54.0438 68.7363 53.9017C69.1626 53.7596 69.5889 53.6172 70.1574 53.6172C70.7258 53.6172 71.1523 53.6172 71.7207 53.6172C72.2891 53.6172 72.8575 53.7596 73.4259 53.9017C74.1364 54.0438 74.8472 54.4704 75.4156 54.8968C75.984 55.3231 76.4104 55.7495 76.8367 56.318C77.1209 56.8864 77.4051 57.4545 77.5472 58.023C77.6893 58.7336 77.5471 59.444 77.405 60.0125C77.2629 60.581 76.9785 61.1497 76.5522 61.7182C76.268 62.1446 75.8419 62.5706 75.4156 62.8549C74.9893 63.1391 74.5628 63.4234 74.1364 63.5655L72.8576 63.9922C72.5734 64.1344 72.1471 64.2762 71.8629 64.4183C71.5787 64.5604 71.2943 64.8447 71.2943 65.1289L70.4419 66.9769L68.168 66.2663L68.5944 63.9922C68.5944 63.5659 68.8785 63.2814 69.1627 62.9971C69.4469 62.7129 69.731 62.4287 70.1574 62.2865C70.5837 62.1444 71.0101 62.0026 71.2943 61.8605C71.7206 61.7183 72.1471 61.5764 72.5735 61.2921C72.9998 61.15 73.2837 60.8658 73.71 60.5815C73.9943 60.2973 74.2785 59.8704 74.4206 59.3019C74.5627 59.0177 74.5628 58.734 74.5628 58.4498C74.5628 58.1655 74.4208 57.8811 74.2787 57.5969C74.1366 57.3127 73.8524 57.1705 73.5681 56.8863C73.2839 56.7442 72.9998 56.6017 72.5735 56.4595C72.1471 56.3174 71.7208 56.318 71.1524 56.318C70.8682 56.318 70.4416 56.3174 70.1574 56.4595C69.8731 56.4595 69.5889 56.6018 69.4468 56.6018C69.3047 56.6018 69.1627 56.7439 68.8785 56.6018C68.5943 56.6018 68.3102 56.3177 68.3102 56.0335L67.4575 54.3278ZM65.3258 71.0982C65.4679 70.8139 65.468 70.5297 65.7522 70.3876C65.8943 70.1034 66.1784 69.9614 66.3205 69.8193C66.889 69.535 67.4575 69.5349 67.8838 69.677C68.1681 69.8191 68.4523 69.961 68.5944 70.1031C68.7365 70.2452 69.0206 70.5293 69.1627 70.6714C69.7311 71.6662 69.305 72.9453 68.3102 73.5138C67.7418 73.798 67.1732 73.7982 66.7469 73.656C66.4627 73.5139 66.1785 73.5142 66.0364 73.23C65.7522 73.0878 65.6102 72.8037 65.4681 72.6616C65.326 72.3774 65.3257 72.2353 65.1836 71.951C65.1836 71.6668 65.1837 71.3824 65.3258 71.0982Z" fill="#CED7E2"/>
<path d="M160.68 109.012L132.337 124.336C131.42 124.827 130.124 124.509 129.751 123.5L115.578 95.8986C115.102 94.9886 115.44 93.6871 116.455 93.2977L153.243 73.9595C154.161 73.4685 155.457 73.7854 155.83 74.7947L166.103 94.8132L160.68 109.012Z" fill="#F2F6FA"/>
<path d="M165.953 94.9112L158.014 99.0312C156.995 99.6212 156.554 101.021 157.024 102.132L160.536 109.104" fill="#CED7E2"/>
<path d="M146.352 91.1638C146.747 91.3695 147.142 91.5755 147.537 91.7812C147.932 91.9868 148.328 92.1923 148.717 92.5988C149.106 93.0052 149.398 93.3098 149.788 93.7162C150.177 94.1227 150.463 94.6286 150.75 95.1342C151.134 95.7413 151.311 96.5463 151.392 97.2502C151.472 97.954 151.455 98.5562 151.335 99.2575C151.117 99.8573 150.899 100.457 150.585 100.955C150.167 101.553 149.554 101.946 149.044 102.241C148.535 102.536 147.928 102.73 147.224 102.822C146.72 102.916 146.119 102.908 145.621 102.802C145.122 102.695 144.624 102.589 144.229 102.383L143.044 101.766C142.746 101.662 142.351 101.456 142.053 101.352C141.755 101.248 141.355 101.243 141.148 101.441L139.225 102.12L138.182 99.9989L140.123 98.7175C140.432 98.4201 140.833 98.4255 141.234 98.4304C141.635 98.4354 142.035 98.4403 142.431 98.6459C142.826 98.8516 143.221 99.0571 143.519 99.1611C143.914 99.3668 144.309 99.5725 144.807 99.679C145.202 99.8847 145.603 99.8897 146.101 99.9963C146.502 100.001 147.006 99.9071 147.515 99.6122C148.025 99.3173 148.54 98.8215 148.558 98.2192C148.666 97.9194 148.575 97.617 148.586 97.2156C148.494 96.9132 148.402 96.6109 148.213 96.2069C148.024 95.803 147.733 95.498 147.446 94.9924C147.251 94.7892 146.959 94.4845 146.662 94.3805C146.467 94.1773 146.169 94.0733 146.072 93.9717C145.974 93.8701 145.774 93.8677 145.682 93.5654C145.488 93.3622 145.499 92.9606 145.705 92.7624L146.352 91.1638ZM132.834 101.238C133.138 101.142 133.344 100.944 133.642 101.048C133.945 100.951 134.243 101.055 134.444 101.057C135.039 101.265 135.428 101.672 135.617 102.076C135.709 102.378 135.801 102.681 135.795 102.881C135.789 103.082 135.778 103.484 135.772 103.684C135.658 104.185 135.142 104.68 134.736 104.876C134.432 104.973 134.129 105.07 133.928 105.067C133.728 105.065 133.327 105.06 133.127 105.057C132.532 104.849 132.142 104.443 131.953 104.039C131.861 103.736 131.769 103.434 131.775 103.233C131.683 102.931 131.793 102.631 131.798 102.43C131.907 102.13 132.113 101.932 132.119 101.731C132.325 101.533 132.628 101.437 132.834 101.238Z" fill="#CED7E2"/>
<path d="M89.9094 17.9459L89.0566 17.8036C88.6303 17.8036 88.3463 17.5194 88.2042 17.0931C88.062 16.8088 88.0618 16.5246 87.9197 16.3825C87.7776 16.0982 87.7777 15.6716 88.0619 15.3874L88.4883 14.6768C88.7725 14.2504 88.7724 13.6821 88.3461 13.3978L86.925 11.9766C86.4987 11.5503 85.9304 11.5501 85.6461 11.8344L84.9356 12.2612C84.6514 12.5454 84.225 12.5448 83.7987 12.4027C83.5145 12.2606 83.2303 12.1189 83.0881 12.1189C82.6618 11.9768 82.5197 11.6924 82.3776 11.266L82.2354 10.4132C82.0933 9.84472 81.667 9.56034 81.2407 9.56034H79.2513C78.6829 9.56034 78.2566 9.98684 78.2566 10.4132L78.1144 11.266C78.1144 11.6924 77.8302 11.9768 77.4038 12.1189C77.1196 12.261 76.8354 12.2606 76.6933 12.4027C76.4091 12.5448 75.9828 12.5454 75.6986 12.2612L74.9881 11.8344C74.5618 11.5501 73.9931 11.5503 73.7089 11.9766L72.2878 13.3978C71.8615 13.8242 71.8617 14.3925 72.1459 14.6768L72.5723 15.3874C72.8565 15.6716 72.8563 16.0982 72.7142 16.3825C72.5721 16.6667 72.4301 16.9509 72.4301 17.0931C72.288 17.5194 72.0036 17.6615 71.5773 17.8036L70.7249 17.9459C70.1564 18.088 69.8721 18.514 69.8721 18.9403V20.9298C69.8721 21.4983 70.2985 21.925 70.7249 21.925L71.5773 22.0672C72.0036 22.0672 72.288 22.3514 72.4301 22.7778C72.5722 23.062 72.5721 23.3463 72.7142 23.4884C72.8563 23.7726 72.8565 24.1987 72.5723 24.6251L72.1459 25.3357C71.8617 25.762 71.8615 26.3305 72.2878 26.7569L73.7089 28.178C74.1352 28.6044 74.7039 28.6045 74.9881 28.3203L75.6986 27.8942C75.9828 27.61 76.4091 27.6098 76.6933 27.752C76.9775 27.8941 77.2617 28.0358 77.4038 28.0358C77.8302 28.1779 77.9723 28.4623 78.1144 28.8886L78.2566 29.7415C78.3987 30.31 78.825 30.5943 79.2513 30.5943H81.2407C81.8091 30.5943 82.2354 30.1678 82.2354 29.7415L82.3776 28.8886C82.3776 28.4623 82.6618 28.1779 83.0881 28.0358C83.3724 27.8937 83.6566 27.8941 83.7987 27.752C84.0829 27.6098 84.5093 27.61 84.9356 27.8942L85.6461 28.3203C86.0725 28.6045 86.6408 28.6044 86.925 28.178L88.3461 26.7569C88.7724 26.3305 88.7725 25.762 88.4883 25.3357L88.0619 24.6251C87.7777 24.3408 87.7776 23.9148 87.9197 23.4884C88.0618 23.2042 88.2042 22.9199 88.2042 22.7778C88.3463 22.3514 88.6303 22.2093 89.0566 22.0672L89.9094 21.925C90.4778 21.7828 90.7618 21.3562 90.7618 20.9298V18.9403C90.7618 18.3718 90.4778 17.9459 89.9094 17.9459ZM80.5301 23.3461C78.5406 23.3461 76.9774 21.7828 76.9774 19.7932C76.9774 17.8035 78.5406 16.2402 80.5301 16.2402C82.5196 16.2402 84.0828 17.8035 84.0828 19.7932C83.9407 21.7828 82.3775 23.3461 80.5301 23.3461Z" fill="url(#paint0_linear)"/>
<path d="M20.1356 94.8316L19.5673 94.69C19.2831 94.69 19.1408 94.4054 18.9987 94.2633C18.9987 94.1211 18.8566 93.837 18.7145 93.6949C18.5724 93.4107 18.5726 93.1264 18.8568 92.9843L19.1409 92.5582C19.283 92.274 19.283 91.8474 19.1409 91.5631L18.1462 90.568C17.862 90.2838 17.4358 90.2838 17.1515 90.568L16.7252 90.8525C16.4409 90.9947 16.1567 90.9947 16.0146 90.8525C15.8725 90.7104 15.5881 90.7101 15.446 90.568C15.1618 90.4259 15.0199 90.2839 15.0199 89.9997L14.8777 89.4314C14.8777 89.1471 14.5935 88.863 14.1671 88.863H12.8883C12.462 88.863 12.1778 89.1471 12.1778 89.4314L12.0355 89.9997C12.0355 90.2839 11.7512 90.4259 11.6091 90.568C11.467 90.568 11.183 90.7104 11.0409 90.8525C10.7566 90.9947 10.4724 90.9947 10.3303 90.8525L9.90392 90.568C9.61971 90.2838 9.19345 90.4259 8.90924 90.568L7.91455 91.5631C7.63034 91.8474 7.63034 92.274 7.91455 92.5582L8.1987 92.9843C8.34081 93.2686 8.34081 93.4107 8.1987 93.6949C8.05659 93.837 8.05666 94.1211 7.91455 94.2633C7.77245 94.5475 7.63013 94.69 7.34591 94.69L6.77762 94.8316C6.49341 94.8316 6.20898 95.1158 6.20898 95.5422V96.8218C6.20898 97.2482 6.49341 97.5324 6.77762 97.5324L7.34591 97.674C7.63013 97.674 7.77245 97.9586 7.91455 98.1007C7.91455 98.2429 8.05659 98.527 8.1987 98.6691C8.34081 98.9533 8.34081 99.2375 8.1987 99.3797L7.91455 99.8057C7.77245 100.09 7.77245 100.517 7.91455 100.801L8.90924 101.796C9.19345 102.08 9.61971 102.08 9.90392 101.796L10.3303 101.511C10.4724 101.369 10.7566 101.369 11.0409 101.369C11.183 101.511 11.467 101.512 11.6091 101.654C11.8934 101.796 12.0355 101.938 12.0355 102.222L12.1778 102.79C12.1778 103.075 12.462 103.359 12.8883 103.359H14.1671C14.5935 103.359 14.8777 103.075 14.8777 102.79L15.0199 102.222C15.0199 101.938 15.3039 101.796 15.446 101.654C15.5881 101.654 15.8725 101.511 16.0146 101.369C16.2988 101.227 16.583 101.227 16.7252 101.511L17.1515 101.796C17.4358 101.938 17.862 101.938 18.1462 101.796L19.1409 100.801C19.4251 100.517 19.4251 100.09 19.1409 99.8057L18.8568 99.3797C18.7147 99.0954 18.7145 98.8112 18.7145 98.6691C18.8566 98.527 18.8566 98.2429 18.9987 98.1007C19.1408 97.8165 19.2831 97.674 19.5673 97.674L20.1356 97.5324C20.4198 97.5324 20.7042 97.2482 20.7042 96.8218V95.5422C20.8463 95.1158 20.5619 94.8316 20.1356 94.8316ZM13.5989 98.6691C12.3199 98.6691 11.1827 97.5318 11.1827 96.2528C11.1827 94.9737 12.3199 93.8372 13.5989 93.8372C14.8778 93.8372 16.0146 94.9737 16.0146 96.2528C16.0146 97.5318 15.0199 98.6691 13.5989 98.6691Z" fill="url(#paint1_linear)"/>
<path d="M130.411 92.416V116.718C130.411 119.845 127.853 122.403 124.727 122.403H44.5779C41.4515 122.403 38.8936 119.845 38.8936 116.718V90.4265" stroke="#1676EE" stroke-width="3" stroke-linecap="round" stroke-linejoin="round"/>
<g filter="url(#filter1_d)">
<path d="M127.325 76.8545H99.8271C97.2083 76.8545 94.5897 77.7952 92.5661 79.4411L85.3048 85.3193C83.2812 86.9652 80.6625 87.906 78.0437 87.906H46.7372C43.6423 87.906 41.0234 90.3746 41.0234 93.5488C41.0234 93.7839 41.0236 94.1369 41.1426 94.372L46.8561 124.468C47.3322 127.289 49.713 129.406 52.5699 129.406H119.23C122.087 129.406 124.468 127.407 124.944 124.586L132.919 83.4382C133.395 80.3815 131.372 77.4424 128.158 76.9722C127.92 76.8546 127.563 76.8545 127.325 76.8545Z" fill="white"/>
</g>
<g filter="url(#filter2_d)">
<path d="M134.958 71.3821H102.131C99.0043 71.3821 95.8782 72.5193 93.4623 74.5089L84.7936 81.6149C82.3778 83.6045 79.2516 84.7418 76.1253 84.7418H38.7509C35.0561 84.7418 31.9297 87.726 31.9297 91.5632C31.9297 91.8474 31.9298 92.2741 32.0719 92.5583L38.8928 128.94C39.4612 132.351 42.3035 134.909 45.7141 134.909H125.294C128.705 134.909 131.547 132.493 132.116 129.082L141.637 79.3408C142.205 75.6458 139.789 72.0928 135.952 71.5243C135.668 71.3822 135.242 71.3821 134.958 71.3821Z" fill="white"/>
</g>
<path d="M71.2939 109.186C73.256 109.186 74.8466 107.595 74.8466 105.633C74.8466 103.671 73.256 102.08 71.2939 102.08C69.3318 102.08 67.7412 103.671 67.7412 105.633C67.7412 107.595 69.3318 109.186 71.2939 109.186Z" fill="#1C3754"/>
<path d="M99.1474 109.044C101.11 109.044 102.7 107.453 102.7 105.491C102.7 103.528 101.11 101.938 99.1474 101.938C97.1853 101.938 95.5947 103.528 95.5947 105.491C95.5947 107.453 97.1853 109.044 99.1474 109.044Z" fill="#1C3754"/>
<path d="M92.8939 115.013H91.0468C89.4836 111.744 85.5045 110.465 82.3781 112.17C81.0991 112.739 80.1044 113.876 79.5359 115.013H77.6885C79.2517 110.749 84.0835 108.617 88.2046 110.181C90.3363 111.033 92.0413 112.739 92.8939 115.013Z" fill="#1C3754"/>
<defs>
<filter id="filter0_d" x="17.8643" y="49.7507" width="133.101" height="104.258" filterUnits="userSpaceOnUse" color-interpolation-filters="sRGB">
<feFlood flood-opacity="0" result="BackgroundImageFix"/>
<feColorMatrix in="SourceAlpha" type="matrix" values="0 0 0 0 0 0 0 0 0 0 0 0 0 0 0 0 0 0 127 0" result="hardAlpha"/>
<feOffset dy="11"/>
<feGaussianBlur stdDeviation="11"/>
<feColorMatrix type="matrix" values="0 0 0 0 0.397708 0 0 0 0 0.47749 0 0 0 0 0.575 0 0 0 0.18 0"/>
<feBlend mode="normal" in2="BackgroundImageFix" result="effect1_dropShadow"/>
<feBlend mode="normal" in="SourceGraphic" in2="effect1_dropShadow" result="shape"/>
</filter>
<filter id="filter1_d" x="36.0234" y="66.8545" width="101.965" height="62.5514" filterUnits="userSpaceOnUse" color-interpolation-filters="sRGB">
<feFlood flood-opacity="0" result="BackgroundImageFix"/>
<feColorMatrix in="SourceAlpha" type="matrix" values="0 0 0 0 0 0 0 0 0 0 0 0 0 0 0 0 0 0 127 0" result="hardAlpha"/>
<feOffset dy="-5"/>
<feGaussianBlur stdDeviation="2.5"/>
<feColorMatrix type="matrix" values="0 0 0 0 0.397708 0 0 0 0 0.47749 0 0 0 0 0.575 0 0 0 0.18 0"/>
<feBlend mode="normal" in2="BackgroundImageFix" result="effect1_dropShadow"/>
<feBlend mode="normal" in="SourceGraphic" in2="effect1_dropShadow" result="shape"/>
</filter>
<filter id="filter2_d" x="9.92969" y="60.3821" width="153.79" height="107.527" filterUnits="userSpaceOnUse" color-interpolation-filters="sRGB">
<feFlood flood-opacity="0" result="BackgroundImageFix"/>
<feColorMatrix in="SourceAlpha" type="matrix" values="0 0 0 0 0 0 0 0 0 0 0 0 0 0 0 0 0 0 127 0" result="hardAlpha"/>
<feOffset dy="11"/>
<feGaussianBlur stdDeviation="11"/>
<feColorMatrix type="matrix" values="0 0 0 0 0.397708 0 0 0 0 0.47749 0 0 0 0 0.575 0 0 0 0.18 0"/>
<feBlend mode="normal" in2="BackgroundImageFix" result="effect1_dropShadow"/>
<feBlend mode="normal" in="SourceGraphic" in2="effect1_dropShadow" result="shape"/>
</filter>
<linearGradient id="paint0_linear" x1="70.1191" y1="19.8708" x2="90.811" y2="19.8708" gradientUnits="userSpaceOnUse">
<stop stop-color="#A16FFF"/>
<stop offset="1" stop-color="#8268FF"/>
</linearGradient>
<linearGradient id="paint1_linear" x1="6.47771" y1="96.1701" x2="20.7973" y2="96.1701" gradientUnits="userSpaceOnUse">
<stop stop-color="#A06FFF"/>
<stop offset="1" stop-color="#8569FF"/>
</linearGradient>
</defs>
</svg>
