<svg width="1256" height="934" viewBox="0 0 1256 934" fill="none" xmlns="http://www.w3.org/2000/svg">
<rect width="1256" height="936" transform="translate(0 -2)" fill="#F9F9F9"/>
<ellipse cx="626.5" cy="804" rx="558.5" ry="23" fill="#EEEEEE"/>
<path d="M509 678H469V803H509V678Z" fill="#EBEBEB"/>
<path d="M1020 678H980V803H1020V678Z" fill="#EBEBEB"/>
<path d="M172 660H132V803H172V660Z" fill="#EBEBEB"/>
<path d="M257 596H216V803H257V596Z" fill="#EBEBEB"/>
<path d="M341 640H300V803H341V640Z" fill="#EBEBEB"/>
<path d="M425 584H385V803H425V584Z" fill="#EBEBEB"/>
<path d="M593 585H553V803H593V585Z" fill="#EBEBEB"/>
<path d="M678 657H637V803H678V657Z" fill="#EBEBEB"/>
<path d="M762 595H721V803H762V595Z" fill="#EBEBEB"/>
<path d="M846 548H806V803H846V548Z" fill="#EBEBEB"/>
<path d="M930 594H890V803H930V594Z" fill="#EBEBEB"/>
<path d="M341.699 677.803H415.238V800.334H341.699V677.803Z" fill="#455A64"/>
<g opacity="0.3">
<path opacity="0.3" d="M341.7 677.803H415.239V800.334H341.7V677.803Z" fill="black"/>
</g>
<path d="M326.438 677.803H399.978V800.334H326.438V677.803Z" fill="#455A64"/>
<path d="M400.203 737.885C400.148 737.958 403.435 740.603 407.535 743.792C411.634 746.982 415.013 749.517 415.068 749.45C415.123 749.383 411.836 746.737 407.736 743.542C403.637 740.347 400.258 737.817 400.203 737.885Z" fill="#455A64"/>
<path d="M400.203 730.981C400.148 731.048 403.435 733.693 407.535 736.882C411.634 740.071 415.013 742.613 415.068 742.54C415.123 742.466 411.836 739.827 407.736 736.632C403.637 733.437 400.258 730.907 400.203 730.981Z" fill="#455A64"/>
<path d="M400.204 724.083C400.149 724.15 403.436 726.795 407.535 729.991C411.635 733.186 415.013 735.691 415.074 735.636C415.135 735.581 411.842 732.923 407.743 729.728C403.644 726.533 400.259 724.003 400.204 724.083Z" fill="#455A64"/>
<path d="M400.204 717.16C400.149 717.234 403.436 719.879 407.535 723.068C411.635 726.257 415.013 728.793 415.074 728.726C415.135 728.658 411.842 726.013 407.743 722.818C403.644 719.623 400.259 717.093 400.204 717.16Z" fill="#455A64"/>
<path d="M400.203 710.257C400.148 710.324 403.435 712.97 407.535 716.165C411.634 719.36 415.013 721.889 415.068 721.816C415.123 721.743 411.836 719.103 407.736 715.908C403.637 712.713 400.258 710.184 400.203 710.257Z" fill="#455A64"/>
<path d="M400.204 703.348C400.149 703.415 403.436 706.06 407.535 709.255C411.635 712.451 415.013 714.98 415.074 714.919C415.135 714.858 411.842 712.206 407.743 709.011C403.644 705.816 400.259 703.311 400.204 703.348Z" fill="#455A64"/>
<path d="M400.203 696.437C400.148 696.511 403.435 699.156 407.535 702.345C411.634 705.534 415.013 708.07 415.068 708.003C415.123 707.935 411.836 705.29 407.736 702.095C403.637 698.899 400.258 696.37 400.203 696.437Z" fill="#455A64"/>
<path d="M400.203 689.534C400.148 689.601 403.435 692.246 407.535 695.442C411.634 698.637 415.013 701.166 415.068 701.093C415.123 701.02 411.836 698.38 407.736 695.185C403.637 691.99 400.258 689.46 400.203 689.534Z" fill="#455A64"/>
<path d="M400.203 682.624C400.148 682.691 403.435 685.337 407.535 688.532C411.634 691.727 415.013 694.257 415.068 694.189C415.123 694.122 411.836 691.477 407.736 688.281C403.637 685.086 400.258 682.539 400.203 682.624Z" fill="#455A64"/>
<path d="M403.222 678.06C403.167 678.134 405.776 680.254 409.05 682.795C412.325 685.337 415.019 687.353 415.074 687.279C415.129 687.206 412.521 685.092 409.246 682.545C405.971 679.997 403.277 677.993 403.222 678.06Z" fill="#455A64"/>
<path d="M411.958 677.932C412.371 678.456 412.866 678.909 413.424 679.276C413.916 679.729 414.48 680.099 415.092 680.37C414.183 679.395 413.125 678.57 411.958 677.926V677.932Z" fill="#455A64"/>
<path d="M415.111 758.215C415.166 758.142 411.879 755.496 407.779 752.307C403.68 749.118 400.301 746.577 400.252 746.65C400.204 746.723 403.478 749.363 407.584 752.558C411.689 755.753 415.056 758.295 415.111 758.215Z" fill="#455A64"/>
<path d="M414.66 766.952C414.708 766.885 411.428 764.24 407.328 761.044C403.229 757.849 399.85 755.32 399.795 755.387C399.74 755.454 403.027 758.1 407.127 761.295C411.226 764.49 414.605 767.019 414.66 766.952Z" fill="#455A64"/>
<path d="M415.074 774.975C415.129 774.907 411.842 772.262 407.742 769.067C403.643 765.872 400.264 763.342 400.209 763.41C400.154 763.477 403.441 766.128 407.541 769.317C411.64 772.506 415.012 775.048 415.074 774.975Z" fill="#455A64"/>
<path d="M415.074 781.884C415.129 781.817 411.842 779.171 407.742 775.976C403.643 772.781 400.264 770.251 400.209 770.319C400.154 770.386 403.441 773.031 407.541 776.227C411.64 779.422 415.012 781.951 415.074 781.884Z" fill="#455A64"/>
<path d="M415.074 788.794C415.129 788.721 411.842 786.076 407.742 782.886C403.643 779.697 400.264 777.156 400.209 777.229C400.154 777.302 403.441 779.942 407.541 783.137C411.64 786.332 415.012 788.843 415.074 788.794Z" fill="#455A64"/>
<path d="M415.074 795.697C415.129 795.63 411.842 792.985 407.742 789.789C403.643 786.594 400.264 784.065 400.209 784.132C400.154 784.199 403.441 786.851 407.541 790.04C411.64 793.229 415.012 795.771 415.074 795.697Z" fill="#455A64"/>
<path d="M412.056 800.261C412.111 800.188 409.502 798.068 406.227 795.526C402.953 792.984 400.258 790.974 400.203 791.042C400.148 791.109 402.757 793.229 406.032 795.776C409.307 798.324 412.001 800.328 412.056 800.261Z" fill="#455A64"/>
<path d="M403.338 800.389C402.432 799.411 401.374 798.585 400.204 797.945C400.621 798.468 401.117 798.922 401.676 799.289C402.171 799.738 402.731 800.109 403.338 800.389Z" fill="#455A64"/>
<path d="M239.989 713.667H304.773V800.311H239.989V713.667Z" fill="#455A64"/>
<g opacity="0.3">
<path opacity="0.3" d="M239.99 713.666H304.774V800.31H239.99V713.666Z" fill="black"/>
</g>
<path d="M227 713.667H291.784V800.311H227V713.667Z" fill="#455A64"/>
<path d="M291.785 766.507C291.73 766.574 294.601 768.895 298.194 771.694C301.786 774.492 304.743 776.697 304.798 776.63C304.853 776.563 301.982 774.235 298.389 771.443C294.797 768.651 291.84 766.433 291.785 766.507Z" fill="#455A64"/>
<path d="M291.785 760.458C291.73 760.525 294.601 762.852 298.194 765.644C301.786 768.437 304.743 770.648 304.798 770.581C304.853 770.514 301.982 768.186 298.389 765.394C294.797 762.602 291.84 760.39 291.785 760.458Z" fill="#455A64"/>
<path d="M291.785 754.41C291.73 754.483 294.601 756.805 298.194 759.597C301.786 762.389 304.743 764.606 304.798 764.533C304.853 764.46 301.982 762.144 298.389 759.346C294.797 756.548 291.84 754.342 291.785 754.41Z" fill="#455A64"/>
<path d="M291.785 748.367C291.73 748.434 294.601 750.756 298.194 753.554C301.786 756.352 304.743 758.558 304.798 758.49C304.853 758.423 301.982 756.095 298.389 753.303C294.797 750.511 291.84 748.294 291.785 748.367Z" fill="#455A64"/>
<path d="M291.785 742.32C291.73 742.387 294.601 744.715 298.194 747.507C301.786 750.299 304.743 752.51 304.798 752.443C304.853 752.376 301.982 750.054 298.389 747.256C294.797 744.458 291.84 742.253 291.785 742.32Z" fill="#455A64"/>
<path d="M291.785 736.301C291.73 736.375 294.601 738.696 298.194 741.488C301.786 744.28 304.743 746.498 304.798 746.425C304.853 746.351 301.982 744.036 298.389 741.238C294.797 738.44 291.84 736.204 291.785 736.301Z" fill="#455A64"/>
<path d="M291.785 730.229C291.73 730.296 294.601 732.618 298.194 735.416C301.786 738.214 304.743 740.419 304.798 740.352C304.853 740.285 301.982 737.957 298.389 735.165C294.797 732.373 291.84 730.156 291.785 730.229Z" fill="#455A64"/>
<path d="M291.785 724.181C291.73 724.254 294.601 726.576 298.194 729.368C301.786 732.16 304.743 734.371 304.798 734.304C304.853 734.237 301.982 731.915 298.389 729.117C294.797 726.319 291.84 724.113 291.785 724.181Z" fill="#455A64"/>
<path d="M291.785 718.138C291.73 718.205 294.601 720.527 298.194 723.319C301.786 726.111 304.743 728.329 304.798 728.255C304.853 728.182 301.982 725.866 298.389 723.068C294.797 720.27 291.84 718.065 291.785 718.138Z" fill="#455A64"/>
<path d="M294.424 714.143C294.369 714.21 296.648 716.074 299.513 718.304C302.379 720.533 304.743 722.281 304.798 722.214C304.853 722.146 302.574 720.283 299.709 718.053C296.843 715.823 294.479 714.076 294.424 714.143Z" fill="#455A64"/>
<path d="M302.056 714.033C302.001 714.1 302.569 714.644 303.327 715.224C303.761 715.612 304.259 715.922 304.799 716.14C304.854 716.073 304.28 715.53 303.522 714.919C303.092 714.536 302.595 714.236 302.056 714.033Z" fill="#455A64"/>
<path d="M291.785 790.266C291.73 790.333 294.601 792.655 298.194 795.453C301.786 798.251 304.743 800.451 304.798 800.39C304.853 800.328 301.982 797.995 298.389 795.203C294.797 792.411 291.84 790.199 291.785 790.266Z" fill="#455A64"/>
<path d="M291.785 784.217C291.73 784.291 294.601 786.612 298.194 789.404C301.786 792.196 304.743 794.408 304.798 794.341C304.853 794.273 301.982 791.952 298.389 789.154C294.797 786.356 291.84 784.15 291.785 784.217Z" fill="#455A64"/>
<path d="M291.785 778.177C291.73 778.244 294.601 780.565 298.194 783.363C301.786 786.162 304.743 788.367 304.798 788.294C304.853 788.22 301.982 785.905 298.389 783.107C294.797 780.309 291.84 778.103 291.785 778.177Z" fill="#455A64"/>
<path d="M291.785 772.126C291.73 772.194 294.601 774.515 298.194 777.313C301.786 780.112 304.743 782.317 304.798 782.25C304.853 782.183 301.982 779.855 298.389 777.063C294.797 774.271 291.84 772.059 291.785 772.126Z" fill="#455A64"/>
<path d="M443.539 741.391H512.997V800.39H443.539V741.391Z" fill="#455A64"/>
<g opacity="0.3">
<path opacity="0.3" d="M443.538 741.39H512.996V800.389H443.538V741.39Z" fill="black"/>
</g>
<path d="M431.038 741.391H500.496V800.39H431.038V741.391Z" fill="#455A64"/>
<path d="M500.728 790.845C500.68 790.919 503.38 793.106 506.765 795.733C510.149 798.36 512.941 800.443 512.996 800.376C513.051 800.309 510.351 798.116 506.96 795.489C503.569 792.861 500.783 790.778 500.728 790.845Z" fill="#455A64"/>
<path d="M500.728 785.176C500.68 785.249 503.38 787.443 506.765 790.064C510.149 792.685 512.941 794.774 512.996 794.707C513.051 794.64 510.351 792.446 506.96 789.819C503.569 787.192 500.783 785.078 500.728 785.176Z" fill="#455A64"/>
<path d="M500.728 779.453C500.68 779.52 503.38 781.714 506.765 784.341C510.149 786.968 512.941 789.057 512.996 788.984C513.051 788.91 510.351 786.723 506.96 784.096C503.569 781.469 500.783 779.38 500.728 779.453Z" fill="#455A64"/>
<path d="M500.728 773.753C500.68 773.82 503.38 776.013 506.765 778.64C510.149 781.267 512.941 783.357 512.996 783.289C513.051 783.222 510.351 781.023 506.96 778.402C503.569 775.781 500.783 773.685 500.728 773.753Z" fill="#455A64"/>
<path d="M500.728 768.071C500.68 768.144 503.38 770.331 506.765 772.958C510.149 775.586 512.941 777.669 512.996 777.602C513.051 777.534 510.351 775.341 506.96 772.714C503.569 770.087 500.783 767.985 500.728 768.071Z" fill="#455A64"/>
<path d="M500.728 762.358C500.68 762.426 503.38 764.619 506.765 767.246C510.149 769.873 512.941 771.956 512.996 771.889C513.051 771.822 510.351 769.629 506.96 767.002C503.569 764.374 500.783 762.285 500.728 762.358Z" fill="#455A64"/>
<path d="M500.728 756.658C500.68 756.725 503.38 758.919 506.765 761.546C510.149 764.173 512.941 766.262 512.996 766.189C513.051 766.116 510.351 763.928 506.96 761.301C503.569 758.674 500.783 756.585 500.728 756.658Z" fill="#455A64"/>
<path d="M500.728 750.965C500.68 751.032 503.38 753.225 506.765 755.852C510.149 758.479 512.941 760.569 512.996 760.502C513.051 760.434 510.351 758.241 506.96 755.614C503.569 752.987 500.783 750.891 500.728 750.965Z" fill="#455A64"/>
<path d="M500.728 745.258C500.68 745.332 503.38 747.519 506.765 750.146C510.149 752.773 512.941 754.856 512.996 754.789C513.051 754.722 510.351 752.529 506.96 749.902C503.569 747.275 500.783 745.191 500.728 745.258Z" fill="#455A64"/>
<path d="M503.222 741.494C504.747 742.888 506.346 744.2 508.012 745.423C509.61 746.728 511.274 747.952 512.997 749.088C511.468 747.698 509.87 746.387 508.207 745.16C505.507 743.077 503.277 741.427 503.222 741.494Z" fill="#455A64"/>
<path d="M510.412 741.391C510.357 741.458 510.888 741.965 511.603 742.521C512.006 742.902 512.479 743.2 512.996 743.401C513.051 743.333 512.513 742.826 511.774 742.27C511.379 741.895 510.917 741.597 510.412 741.391Z" fill="#455A64"/>
<g opacity="0.3">
<path opacity="0.3" d="M338.344 672.609C338.923 672.429 339.538 672.395 340.134 672.512C358.805 674.583 379.485 675.988 398.174 678.059V678.261C386.184 681.707 373.708 683.152 361.248 682.537C360.081 682.482 358.75 682.47 357.955 683.331C357.161 684.193 357.344 685.738 357.607 686.997C360.234 698.422 362.859 709.844 365.482 721.265C365.892 723.061 366.179 725.267 364.773 726.452C362.831 728.095 359.971 726.146 358.334 724.204C347.215 711.013 342.169 693.895 337.409 677.314C336.908 675.633 336.707 673.281 338.344 672.609Z" fill="black"/>
</g>
<path d="M314.518 667.038C316.469 665.37 318.997 664.536 321.556 664.716L325.833 678.395C322.681 678.529 319.534 680.161 316.492 679.324C315.272 678.948 314.186 678.23 313.363 677.256C312.54 676.281 312.014 675.09 311.848 673.825C311.719 672.563 311.894 671.288 312.358 670.107C312.823 668.926 313.563 667.873 314.518 667.038Z" fill="#710BFF"/>
<path d="M321.477 664.399C321.477 664.289 321.013 664.203 320.176 664.209C318.971 664.229 317.779 664.454 316.65 664.875C314.933 665.548 313.448 666.705 312.374 668.205C311.716 669.095 311.231 670.1 310.944 671.168C310.634 672.339 310.598 673.567 310.84 674.754C311.077 675.958 311.615 677.083 312.404 678.023C313.152 678.888 314.106 679.55 315.178 679.947C316.915 680.564 318.789 680.685 320.591 680.295C321.748 680.065 322.879 679.715 323.963 679.251C324.727 678.921 325.124 678.683 325.088 678.573C325.051 678.463 324.593 678.493 323.786 678.628C322.98 678.762 321.831 679.006 320.426 679.135C318.842 679.324 317.235 679.114 315.752 678.524C314.937 678.183 314.216 677.651 313.651 676.972C313.052 676.231 312.645 675.354 312.465 674.418C312.291 673.501 312.302 672.557 312.496 671.644C312.69 670.73 313.064 669.864 313.596 669.097C314.475 667.768 315.683 666.688 317.102 665.963C318.107 665.488 319.16 665.121 320.243 664.869C321.043 664.649 321.489 664.515 321.477 664.399Z" fill="#E0E0E0"/>
<path d="M360.449 714.685L369.118 738.976L338.944 749.924C338.076 746.974 351.59 735.531 351.59 735.531L345.365 720.19L360.449 714.685Z" fill="#710BFF"/>
<g opacity="0.6">
<path opacity="0.6" d="M360.443 730.839C360.765 730.821 361.082 730.923 361.334 731.124C361.585 731.326 361.753 731.614 361.806 731.932C361.834 732.254 361.739 732.574 361.539 732.827C361.339 733.08 361.05 733.247 360.73 733.295C360.388 733.312 360.052 733.202 359.786 732.985C359.521 732.768 359.346 732.46 359.295 732.122C359.295 731.48 359.906 730.741 360.572 730.832" fill="white"/>
</g>
<path d="M369.118 738.977L368.245 736.533L339.585 747.964C339.585 747.964 338.449 749.039 338.944 749.931L369.118 738.977Z" fill="#F5F5F5"/>
<path d="M351.046 735.555C351.101 735.696 351.865 735.5 352.757 735.708C353.649 735.915 354.266 736.398 354.382 736.319C354.498 736.239 353.966 735.445 352.879 735.207C351.791 734.968 350.961 735.427 351.046 735.555Z" fill="#263238"/>
<path d="M348.352 738.011C348.352 738.163 349.103 738.182 349.824 738.622C350.545 739.062 350.936 739.672 351.083 739.611C351.229 739.55 351.016 738.689 350.105 738.151C349.195 737.614 348.303 737.864 348.352 738.011Z" fill="#263238"/>
<path d="M347.929 742.447C348.076 742.447 348.015 741.622 347.318 740.95C346.622 740.278 345.84 740.211 345.821 740.339C345.803 740.467 346.39 740.76 346.927 741.316C347.465 741.872 347.776 742.489 347.929 742.447Z" fill="#263238"/>
<path d="M350.021 731.901C350.131 732.011 350.735 731.565 351.585 731.29C352.434 731.015 353.185 731.077 353.216 730.918C353.247 730.759 352.434 730.466 351.432 730.771C350.43 731.077 349.905 731.81 350.021 731.901Z" fill="#263238"/>
<path d="M349.439 728.059C349.983 728.012 350.504 727.82 350.948 727.503C351.456 727.207 351.928 726.852 352.353 726.446C352.604 726.203 352.839 725.944 353.056 725.67C353.189 725.514 353.298 725.339 353.38 725.151C353.439 725.011 353.451 724.855 353.412 724.708C353.373 724.561 353.287 724.431 353.166 724.338C353.054 724.263 352.926 724.215 352.793 724.197C352.659 724.179 352.524 724.192 352.396 724.234C352.205 724.306 352.024 724.403 351.858 724.522C351.565 724.717 351.289 724.938 351.034 725.181C350.608 725.598 350.249 726.078 349.97 726.605C349.668 727.062 349.514 727.602 349.531 728.151C349.616 728.151 349.787 727.595 350.306 726.8C350.608 726.348 350.967 725.937 351.376 725.579C351.617 725.354 351.877 725.15 352.152 724.968C352.439 724.772 352.707 724.668 352.842 724.784C352.976 724.9 352.903 724.845 352.872 724.962C352.806 725.099 352.724 725.228 352.628 725.346C352.439 725.606 352.235 725.855 352.017 726.092C351.632 726.492 351.211 726.856 350.759 727.179C350.299 727.442 349.858 727.736 349.439 728.059Z" fill="#263238"/>
<path d="M349.709 728.199C349.838 727.666 349.793 727.105 349.581 726.598C349.401 726.03 349.129 725.495 348.774 725.016C348.559 724.736 348.317 724.476 348.053 724.24C347.901 724.074 347.709 723.948 347.496 723.875C347.282 723.803 347.054 723.785 346.832 723.825C346.698 723.878 346.583 723.967 346.499 724.083C346.414 724.198 346.365 724.336 346.355 724.478C346.343 724.683 346.357 724.888 346.398 725.089C346.47 725.444 346.596 725.786 346.77 726.104C347.06 726.641 347.48 727.097 347.992 727.429C348.866 727.998 349.544 727.955 349.538 727.9C349.083 727.665 348.643 727.404 348.218 727.118C347.803 726.788 347.465 726.371 347.229 725.896C347.088 725.619 346.99 725.322 346.935 725.016C346.868 724.68 346.893 724.375 347.027 724.362C347.16 724.36 347.292 724.385 347.415 724.438C347.537 724.491 347.646 724.569 347.736 724.668C347.979 724.876 348.204 725.105 348.408 725.352C348.753 725.776 349.035 726.247 349.245 726.751C349.575 727.6 349.642 728.205 349.709 728.199Z" fill="#263238"/>
<path d="M392.914 645.642C397.857 645.759 402.543 646.455 405.946 650.035C410.461 654.788 416.039 661.564 416.332 666.256C416.845 673.276 412.568 675.359 409.514 677.076C408.138 677.821 406.586 678.177 405.023 678.108L347.918 677.674L346.122 668.003L383.06 658.9L381.526 645.001L392.914 645.642Z" fill="#263238"/>
<path d="M381.52 645.001L363.552 644.17C363.552 644.17 332.535 645.881 325.9 651.99C319.265 658.099 320.108 664.954 322.314 671.54C324.519 678.126 343.965 720.501 343.965 720.501C343.965 720.501 342.389 723.196 343.275 725.878C343.631 727.053 344.285 728.115 345.174 728.962C346.062 729.809 347.155 730.411 348.346 730.71L365.617 724.363C365.617 724.363 367.963 723.538 366.308 721.308C364.652 719.078 363.552 718.693 363.552 718.693V714.306C363.552 714.306 357.48 703.273 356.93 701.758C356.38 700.242 350.564 677.784 350.564 677.784L346.696 671.143C346.696 671.143 356.044 666.75 364.139 663.567L383.078 658.906L381.52 645.001Z" fill="#263238"/>
<path d="M352.378 723.568C352.415 723.611 352.959 723.177 353.893 722.578C356.333 720.997 359.082 719.955 361.958 719.524C362.561 719.465 363.16 719.375 363.754 719.255C363.144 719.184 362.528 719.196 361.921 719.292C360.457 719.448 359.02 719.793 357.644 720.318C356.266 720.838 354.962 721.536 353.765 722.395C353.253 722.723 352.786 723.117 352.378 723.568Z" fill="#455A64"/>
<path d="M343.751 720.538C344.125 720.226 344.461 719.871 344.753 719.482C345.334 718.797 346.109 717.826 346.922 716.726C347.735 715.626 348.431 714.588 348.908 713.83C349.199 713.44 349.437 713.013 349.616 712.56C349.277 712.909 348.974 713.291 348.712 713.702L346.653 716.531L344.57 719.335C344.252 719.704 343.978 720.108 343.751 720.538Z" fill="#455A64"/>
<path d="M337.422 665.076C337.422 665.131 338.033 665.266 339.053 665.602C340.357 666.035 341.606 666.619 342.774 667.343C343.937 668.076 345.011 668.941 345.975 669.921C346.714 670.672 347.117 671.192 347.16 671.143C346.893 670.629 346.551 670.157 346.146 669.744C345.217 668.694 344.14 667.785 342.951 667.043C341.762 666.303 340.474 665.736 339.126 665.357C338.575 665.18 338.001 665.086 337.422 665.076Z" fill="#455A64"/>
<path d="M355.085 695.056C355.078 694.929 355.055 694.804 355.018 694.683C354.944 694.408 354.859 694.072 354.749 693.632L353.716 689.777L350.179 677.1C349.464 674.626 348.847 672.267 348.157 670.129C347.426 668.269 346.32 666.581 344.907 665.168C343.974 664.211 342.939 663.359 341.821 662.627C341.418 662.37 341.107 662.181 340.887 662.065C340.778 661.997 340.664 661.939 340.544 661.894C340.544 661.894 340.978 662.187 341.766 662.731C342.842 663.502 343.842 664.373 344.754 665.333C346.117 666.735 347.183 668.397 347.888 670.221C348.554 672.322 349.165 674.711 349.88 677.173L353.49 689.869L354.627 693.693C354.761 694.115 354.865 694.457 354.951 694.726C354.982 694.841 355.027 694.951 355.085 695.056Z" fill="#455A64"/>
<path d="M370.974 662.718C371.066 662.718 371.445 659.364 371.817 655.216C372.19 651.068 372.428 647.689 372.331 647.683C372.233 647.677 371.86 651.031 371.487 655.186C371.115 659.34 370.883 662.706 370.974 662.718Z" fill="#455A64"/>
<path d="M400.876 671.681C400.931 671.681 401.205 671.162 401.768 670.368C402.503 669.335 403.382 668.411 404.376 667.625C405.379 666.849 406.488 666.221 407.669 665.761C408.58 665.407 409.172 665.266 409.16 665.211C408.623 665.236 408.093 665.345 407.59 665.535C405.102 666.364 402.977 668.025 401.572 670.24C401.262 670.679 401.027 671.166 400.876 671.681Z" fill="#455A64"/>
<path d="M389.871 659.487C389.871 659.542 390.665 659.053 391.985 658.454C395.438 656.885 399.268 656.334 403.024 656.866C404.46 657.073 405.328 657.33 405.34 657.269C405.149 657.162 404.943 657.085 404.729 657.043C404.176 656.871 403.613 656.734 403.043 656.633C399.24 655.962 395.322 656.525 391.862 658.24C391.342 658.494 390.84 658.784 390.359 659.108C390.18 659.211 390.015 659.338 389.871 659.487Z" fill="#455A64"/>
<path d="M346.854 667.997C347.004 667.981 347.153 667.956 347.3 667.923L348.571 667.642L353.226 666.598C357.155 665.718 362.592 664.539 368.622 663.341C374.652 662.144 380.126 661.154 384.098 660.488L388.802 659.682L390.079 659.45C390.227 659.426 390.374 659.394 390.519 659.352C390.367 659.348 390.215 659.36 390.066 659.389L388.783 659.553C387.665 659.706 386.053 659.944 384.061 660.256C380.078 660.867 374.591 661.826 368.555 663.018C362.519 664.209 357.088 665.431 353.172 666.372C351.21 666.842 349.628 667.233 348.541 667.52L347.282 667.856C347.135 667.887 346.991 667.934 346.854 667.997Z" fill="#455A64"/>
<path d="M383.052 660.544C383.282 659.919 383.545 659.307 383.84 658.711C384.198 658.09 384.638 657.521 385.148 657.019C385.779 656.404 386.446 655.826 387.146 655.29C388.44 654.335 389.809 653.485 391.239 652.748C391.847 652.465 392.431 652.134 392.986 651.758C392.352 651.962 391.739 652.223 391.153 652.54C389.675 653.223 388.271 654.057 386.962 655.027C386.249 655.571 385.575 656.165 384.946 656.805C384.431 657.338 383.994 657.943 383.651 658.601C383.428 659.044 383.258 659.511 383.144 659.994C383.084 660.171 383.053 660.357 383.052 660.544Z" fill="#455A64"/>
<path d="M319.449 669.176C319.375 669.25 320.328 670.215 321.074 671.681C321.819 673.147 322.057 674.479 322.161 674.461C322.105 673.439 321.835 672.44 321.368 671.53C320.9 670.619 320.246 669.817 319.449 669.176Z" fill="#263238"/>
<path d="M273.236 586.57C273.252 586.6 273.271 586.629 273.291 586.655L273.456 586.9L274.128 587.841L276.719 591.329C278.967 594.341 282.168 598.606 285.987 603.701L286.066 603.811L286.176 603.731L294.259 598.019L294.045 597.982C295.963 600.579 298.01 603.347 300.124 606.194C302.415 609.279 304.633 612.303 306.734 615.095L306.814 615.211L306.93 615.138L316.858 609.328L316.687 609.291L325.24 619.983L327.647 622.933L328.289 623.709C328.358 623.8 328.434 623.886 328.515 623.966C328.457 623.867 328.392 623.773 328.319 623.685L327.708 622.885L325.362 619.873L316.888 609.108L316.815 609.016L316.717 609.077L306.771 614.857L306.973 614.899L300.375 605.986L294.265 597.781L294.173 597.659L294.051 597.75L285.993 603.487H286.182L276.823 591.183L274.177 587.743L273.469 586.845C273.395 586.747 273.334 586.674 273.279 586.613C273.224 586.552 273.242 586.57 273.236 586.57Z" fill="#263238"/>
<path d="M274.104 595.637C274.13 595.399 274.13 595.159 274.104 594.922C274.068 594.396 274.019 593.749 273.97 592.985C273.842 591.348 273.646 589.087 273.408 586.601V586.558L273.194 586.723C275.546 587.56 277.678 588.305 279.224 588.831L281.057 589.442C281.277 589.53 281.506 589.589 281.741 589.619C281.537 589.498 281.32 589.399 281.094 589.326L279.291 588.623C277.764 588.049 275.626 587.267 273.298 586.43L273.06 586.344V586.595V586.619C273.298 589.106 273.53 591.36 273.713 592.991C273.805 593.755 273.884 594.403 273.952 594.922C273.971 595.166 274.022 595.406 274.104 595.637Z" fill="#263238"/>
<path d="M344.185 622.194C344.466 620.325 350.05 614.142 350.05 614.142C350.05 614.142 354.907 602.253 355.744 598.948C356.372 596.864 357.136 594.824 358.029 592.839C359.984 589.533 360.949 589.472 364.297 587.591L370.785 584.725L371.579 582.96C372.262 581.438 373.443 580.194 374.927 579.434L391.185 571.04L396.219 579.929C396.219 579.929 405.884 584.493 406.446 585.214C408.432 587.743 407.057 628.365 407.057 628.365C407.057 628.365 408.028 644.195 409.11 648.636C410.191 653.078 410.82 656.358 410.82 656.358L405.994 650.811C403.159 647.262 396.946 645.624 392.48 645.691L354.332 645.856L356.654 634.481L325.001 641.17C325.001 641.17 319.692 630.821 319.27 630.613C318.849 630.406 344.185 622.194 344.185 622.194Z" fill="#710BFF"/>
<path d="M392.009 583.418C392.278 583.149 388.954 591.067 386.81 599.669C385.454 605.033 385.166 613.721 385.166 618.547L384.348 632.073V643.907L366.056 642.685L368.793 622.805C368.793 622.805 371.023 609.975 371.646 605.088C372.214 600.622 374.933 582.721 374.933 582.721C374.933 582.721 384.348 591.219 392.009 583.418Z" fill="white"/>
<path d="M351.418 629.697C351.445 629.543 351.445 629.386 351.418 629.232C351.374 628.819 351.295 628.41 351.18 628.011C350.787 626.672 350.067 625.452 349.084 624.461C348.098 623.475 346.879 622.754 345.541 622.365C345.142 622.246 344.733 622.164 344.319 622.121C344.025 622.121 343.86 622.121 343.854 622.121C343.848 622.121 344.496 622.243 345.473 622.585C346.751 623.017 347.912 623.738 348.866 624.692C349.819 625.645 350.54 626.806 350.972 628.084C351.289 629.055 351.357 629.703 351.418 629.697Z" fill="#263238"/>
<path d="M350.472 622.451C349.624 621.951 348.664 621.673 347.68 621.645C346.705 621.509 345.712 621.627 344.796 621.987C344.796 622.085 346.085 621.84 347.655 621.987C349.225 622.133 350.441 622.549 350.472 622.451Z" fill="#263238"/>
<path d="M405.982 584.847C408.551 585.964 410.821 587.67 412.608 589.826C414.396 591.983 415.65 594.53 416.271 597.262C417.981 604.239 425.319 632.764 423.81 637.028C422.301 641.292 392.975 645.483 392.975 645.483L389.499 630.821L404.394 626.746C404.394 626.746 404.204 613.171 404.015 607.544C403.826 601.917 405.982 584.847 405.982 584.847Z" fill="#710BFF"/>
<path d="M389.883 632.88L384.665 634.248L387.763 645.551L392.895 645.325L389.883 632.88Z" fill="white"/>
<path d="M353.973 642.679L358.671 637.687L368.349 635.244C368.349 635.244 377.214 637.901 377.427 637.895C377.641 637.889 385.144 635.842 385.144 635.842L387.765 645.453L374.251 646.381L358.818 645.77C358.818 645.77 358.018 645.019 358.494 644.506C358.971 643.992 355.91 645.373 355.55 645.391C355.189 645.41 354.493 645.685 354.016 645.104C353.692 644.707 353.252 643.436 353.973 642.679Z" fill="#FFBE9D"/>
<path d="M358.492 644.5C359.016 644.398 359.53 644.247 360.025 644.047C360.966 643.748 362.262 643.351 363.691 642.978C365.121 642.606 366.471 642.331 367.436 642.135C367.966 642.066 368.488 641.945 368.994 641.775C368.458 641.751 367.92 641.792 367.393 641.897C366.118 642.073 364.853 642.321 363.606 642.642C362.361 642.96 361.137 643.352 359.94 643.815C359.43 643.98 358.943 644.21 358.492 644.5Z" fill="#EB996E"/>
<path d="M353.972 642.679C354.7 642.49 355.416 642.259 356.117 641.989C357.43 641.543 359.275 640.999 361.322 640.431C363.369 639.863 365.183 639.209 366.564 639.136C367.308 639.101 368.054 639.129 368.794 639.222C368.604 639.119 368.397 639.053 368.183 639.026C367.637 638.909 367.079 638.864 366.521 638.892C365.092 638.892 363.216 639.503 361.194 640.113C359.172 640.724 357.308 641.268 356.001 641.775C355.353 642.026 354.828 642.246 354.473 642.386C354.293 642.46 354.125 642.559 353.972 642.679Z" fill="#EB996E"/>
<path d="M423.92 635.495C423.92 635.495 423.92 635.739 423.847 636.185C423.686 636.833 423.33 637.415 422.826 637.853C421.55 639.038 419.118 640.028 416.033 640.584C414.621 641.048 413.015 641.415 411.298 641.806C409.581 642.197 407.73 642.588 405.799 642.985C401.896 643.779 397.576 644.622 393.006 645.477L393.202 645.606L392.169 641.329C391.344 637.969 390.544 634.707 389.793 631.621L389.677 631.823L402.91 628.041C404.733 627.272 406.707 626.928 408.683 627.033C410.184 627.115 411.658 627.461 413.039 628.053C413.917 628.433 414.756 628.897 415.544 629.44L416.155 629.886L416.369 630.027C416.369 630.027 416.314 629.96 416.179 629.85C416.045 629.74 415.862 629.575 415.568 629.379C414.792 628.804 413.956 628.312 413.076 627.913C411.685 627.285 410.193 626.912 408.671 626.813C406.659 626.688 404.645 627.023 402.781 627.791L389.53 631.511L389.371 631.554L389.408 631.713C390.165 634.804 390.953 638.061 391.772 641.427C392.133 642.887 392.481 644.323 392.811 645.704L392.854 645.862H393.012C397.588 644.995 401.902 644.146 405.806 643.327C407.754 642.924 409.6 642.521 411.304 642.105C413.009 641.69 414.621 641.323 416.057 640.834C419.173 640.223 421.617 639.209 422.9 637.963C423.412 637.502 423.763 636.89 423.902 636.216C423.952 635.978 423.958 635.734 423.92 635.495Z" fill="#263238"/>
<path d="M403.587 627.724C403.63 627.766 404.125 627.308 405.023 626.71C407.37 625.141 410.143 624.335 412.965 624.4C414.041 624.4 414.707 624.541 414.719 624.486C414.161 624.279 413.572 624.167 412.978 624.156C410.089 623.95 407.222 624.784 404.895 626.508C404.396 626.839 403.954 627.25 403.587 627.724Z" fill="#263238"/>
<path d="M401.638 603.835C401.605 604.131 401.605 604.431 401.638 604.727C401.638 605.301 401.699 606.132 401.778 607.171C401.943 609.217 402.249 612.058 402.786 615.113C403.21 617.762 403.822 620.378 404.619 622.939C404.784 623.422 404.955 623.862 405.096 624.247L405.523 625.206C405.647 625.478 405.801 625.737 405.981 625.976C405.894 625.691 405.782 625.415 405.645 625.151C405.535 624.864 405.413 624.54 405.279 624.173C405.144 623.807 405.004 623.349 404.857 622.86C404.124 620.296 403.543 617.691 403.116 615.058C402.578 612.003 402.236 609.162 402.01 607.116C401.913 606.15 401.827 605.338 401.76 604.672C401.748 604.39 401.707 604.109 401.638 603.835Z" fill="#263238"/>
<path d="M388.185 596.938C388.185 596.938 388.252 596.767 388.405 596.467C388.63 596.043 388.96 595.684 389.364 595.423C389.663 595.218 390.005 595.083 390.364 595.03C390.723 594.977 391.089 595.007 391.435 595.117C391.872 595.269 392.263 595.53 392.569 595.877C392.875 596.224 393.086 596.644 393.182 597.097L393.268 597.549L393.463 597.133C394.21 595.534 394.86 593.892 395.412 592.215C396.385 589.423 396.87 586.484 396.848 583.528C396.848 582.959 396.768 582.452 396.738 582C396.707 581.548 396.604 581.176 396.536 580.87C396.471 580.548 396.374 580.233 396.249 579.929C396.472 581.118 396.595 582.324 396.616 583.534C396.563 586.447 396.049 589.334 395.094 592.087C394.548 593.749 393.911 595.381 393.188 596.975L393.475 597.011C393.366 596.51 393.127 596.046 392.781 595.667C392.436 595.287 391.997 595.005 391.508 594.848C391.128 594.737 390.728 594.714 390.338 594.783C389.947 594.852 389.579 595.01 389.26 595.246C388.847 595.535 388.522 595.933 388.319 596.394C388.268 596.517 388.227 596.643 388.197 596.773C388.179 596.889 388.179 596.938 388.185 596.938Z" fill="#263238"/>
<path d="M372.367 598.373C372.428 598.124 372.473 597.871 372.502 597.616C372.639 596.912 372.682 596.193 372.63 595.477C372.5 594.394 371.983 593.395 371.176 592.661C370.694 592.233 370.073 591.996 369.429 591.995C369.077 591.992 368.729 592.069 368.412 592.221C368.094 592.372 367.815 592.594 367.596 592.869L367.859 593.027L368.433 591.506C369.557 588.506 370.559 585.782 371.268 583.808C371.598 582.861 371.879 582.073 372.092 581.462C372.207 581.178 372.295 580.883 372.355 580.583C372.208 580.849 372.081 581.127 371.976 581.413C371.738 582.024 371.433 582.794 371.06 583.723C370.296 585.678 369.264 588.39 368.14 591.39L367.571 592.911L367.205 593.895L367.816 593.076C368.009 592.836 368.254 592.642 368.532 592.509C368.81 592.376 369.114 592.307 369.423 592.307C370.002 592.306 370.563 592.512 371.005 592.887C371.765 593.571 372.266 594.497 372.422 595.508C372.485 596.204 372.473 596.904 372.386 597.597C372.346 597.854 372.34 598.115 372.367 598.373Z" fill="#263238"/>
<path d="M361.543 599.95C361.457 599.95 360.095 608.858 358.488 619.867C356.881 630.876 355.671 639.814 355.757 639.827C355.842 639.839 357.205 630.925 358.812 619.91C360.418 608.894 361.628 599.962 361.543 599.95Z" fill="#263238"/>
<g opacity="0.3">
<path opacity="0.3" d="M395.219 592.32C395.137 594.794 394.599 597.232 393.63 599.511C392.94 598.655 392.17 597.751 391.113 597.495C389.8 597.183 388.468 597.995 387.521 598.979C387.686 597.988 388.079 597.049 388.669 596.236C388.96 595.836 389.338 595.509 389.776 595.28C390.214 595.051 390.699 594.927 391.193 594.916C391.689 594.927 392.167 595.103 392.553 595.416C392.938 595.729 393.207 596.162 393.319 596.645L395.152 592.369" fill="black"/>
</g>
<path d="M401.687 596.174C401.748 596.174 401.73 595.509 401.919 594.47C402.178 593.116 402.706 591.828 403.471 590.682C403.893 590.056 404.381 589.476 404.925 588.953C405.373 588.527 405.862 588.146 406.385 587.817C407.277 587.249 407.907 587.035 407.888 586.974C407.73 586.984 407.575 587.021 407.43 587.084C407.254 587.138 407.083 587.205 406.917 587.285C406.692 587.381 406.474 587.491 406.263 587.615C405.709 587.928 405.191 588.301 404.717 588.727C404.143 589.258 403.63 589.852 403.19 590.499C402.401 591.681 401.887 593.026 401.687 594.433C401.626 594.856 401.606 595.284 401.626 595.71C401.644 596.01 401.663 596.174 401.687 596.174Z" fill="#263238"/>
<g opacity="0.3">
<path opacity="0.3" d="M360.991 603.915L356.904 632.715L356.702 633.173C355.739 623.217 357.211 613.176 360.991 603.915Z" fill="black"/>
</g>
<path d="M338.308 620.465L351.596 643.681L384.348 644.396L384.428 645.875L352.72 645.642L351.712 645.606L318.226 645.673L311.456 634.004L302.812 621.614C302.683 621.43 302.607 621.215 302.592 620.991C302.577 620.767 302.625 620.543 302.729 620.344C302.833 620.146 302.99 619.979 303.182 619.864C303.375 619.748 303.595 619.688 303.82 619.689L337.251 619.818C337.468 619.822 337.681 619.884 337.867 619.998C338.053 620.111 338.205 620.273 338.308 620.465Z" fill="#E0E0E0"/>
<path d="M311.457 634.034C311.457 634.034 309.74 635.61 310.009 636.948C310.278 638.286 310.192 639.288 311.457 639.392C311.438 639.881 311.606 640.358 311.926 640.727C312.246 641.097 312.694 641.332 313.18 641.384C313.18 641.384 312.789 643.485 315.238 643.828C315.238 643.828 315.984 646.076 317.529 645.532C318.413 645.228 319.263 644.832 320.065 644.353L320.517 643.534C320.517 643.534 322.784 642.685 322.228 641.402C321.886 640.626 320.712 640.425 320.712 640.425C320.847 640.105 320.904 639.757 320.878 639.411C320.853 639.065 320.746 638.73 320.566 638.433C320.022 637.7 318.25 638.305 318.25 638.305C318.288 637.677 318.09 637.058 317.694 636.57C317.083 635.855 314.267 637.791 314.267 637.791L312.734 635.959L311.457 634.034Z" fill="#FFBE9D"/>
<path d="M315.238 643.834C316.23 643.411 317.176 642.887 318.06 642.27C319.006 641.754 319.895 641.139 320.712 640.437C318.764 641.374 316.921 642.514 315.213 643.84L315.238 643.834Z" fill="#EB996E"/>
<path d="M313.179 641.372C314.101 641.006 314.979 640.541 315.8 639.985C316.674 639.518 317.493 638.957 318.244 638.311C317.322 638.676 316.443 639.141 315.623 639.698C314.748 640.162 313.928 640.724 313.179 641.372Z" fill="#EB996E"/>
<path d="M315.984 636.759C315.929 636.667 314.879 637.217 313.657 637.981C312.897 638.418 312.166 638.903 311.47 639.435C311.518 639.539 312.612 639.044 313.834 638.262C314.6 637.835 315.32 637.332 315.984 636.759Z" fill="#EB996E"/>
<path d="M302.811 620.599C302.863 620.608 302.917 620.608 302.969 620.599H303.44H305.273L311.92 620.654L333.859 620.703H335.459C335.696 620.678 335.935 620.718 336.151 620.819C336.366 620.921 336.55 621.079 336.681 621.277C337.188 622.182 337.683 623.08 338.172 623.96L340.995 629.055L345.791 637.675C347.159 640.119 348.265 642.08 349.047 643.473L349.951 645.037L350.189 645.44C350.217 645.489 350.25 645.534 350.287 645.575C350.269 645.522 350.247 645.471 350.22 645.422C350.165 645.312 350.098 645.178 350.006 645.007C349.804 644.616 349.517 644.084 349.163 643.406L345.992 637.559C344.642 635.115 343.041 632.158 341.257 628.908C340.365 627.277 339.425 625.572 338.453 623.801L336.956 621.094C336.794 620.852 336.571 620.657 336.309 620.53C336.047 620.402 335.756 620.346 335.466 620.367H333.865L311.926 620.416L305.279 620.471H303.446H302.976L302.811 620.599Z" fill="#263238"/>
<path d="M326.375 632.287C326.529 632.51 326.614 632.773 326.622 633.044C326.63 633.315 326.56 633.582 326.421 633.814C326.281 634.046 326.077 634.233 325.834 634.352C325.591 634.472 325.319 634.519 325.05 634.488C324.781 634.457 324.526 634.349 324.317 634.177C324.107 634.005 323.952 633.777 323.869 633.519C323.785 633.261 323.778 632.985 323.848 632.723C323.918 632.461 324.061 632.225 324.261 632.043C324.574 631.796 324.973 631.683 325.369 631.729C325.765 631.775 326.127 631.975 326.375 632.287Z" fill="white"/>
<path d="M374.604 581.499L374.787 576.227C374.787 576.227 367.786 574.694 368.134 567.619C368.299 564.198 369.222 557.19 370.126 550.861C370.601 547.581 372.292 544.6 374.864 542.509C377.435 540.419 380.699 539.372 384.007 539.576L384.685 539.619C392.016 540.499 395.358 547.219 394.277 554.52L392.56 582.343C392.415 584.672 391.37 586.854 389.647 588.427C387.923 590 385.655 590.842 383.322 590.774C382.141 590.737 380.978 590.469 379.901 589.983C378.823 589.497 377.852 588.804 377.042 587.942C376.232 587.081 375.601 586.069 375.182 584.964C374.764 583.858 374.567 582.681 374.604 581.499Z" fill="#FFBE9D"/>
<path d="M374.787 576.234C378.053 576.427 381.305 575.681 384.159 574.083C384.159 574.083 381.77 579.093 374.751 578.024L374.787 576.234Z" fill="#EB996E"/>
<path d="M371.024 557.501C371.005 557.765 371.089 558.025 371.259 558.227C371.429 558.429 371.671 558.556 371.934 558.583C372.062 558.601 372.192 558.593 372.317 558.559C372.441 558.526 372.558 558.468 372.66 558.389C372.762 558.31 372.847 558.211 372.91 558.099C372.973 557.986 373.013 557.862 373.028 557.733C373.038 557.472 372.947 557.217 372.774 557.022C372.601 556.826 372.359 556.704 372.099 556.683C371.848 556.653 371.596 556.722 371.396 556.874C371.195 557.027 371.062 557.252 371.024 557.501Z" fill="#263238"/>
<path d="M371.434 554.41C371.55 554.55 372.35 554.031 373.438 554.098C374.525 554.165 375.271 554.764 375.411 554.636C375.552 554.507 375.362 554.336 375.026 554.062C374.58 553.709 374.035 553.502 373.467 553.469C372.898 553.436 372.334 553.579 371.849 553.878C371.501 554.116 371.373 554.349 371.434 554.41Z" fill="#263238"/>
<path d="M381.601 557.935C381.584 558.198 381.67 558.458 381.841 558.658C382.012 558.859 382.255 558.985 382.517 559.01C382.645 559.029 382.775 559.022 382.899 558.99C383.024 558.957 383.141 558.9 383.243 558.821C383.345 558.742 383.43 558.644 383.493 558.532C383.557 558.419 383.596 558.295 383.611 558.167C383.63 557.904 383.545 557.644 383.375 557.442C383.205 557.24 382.963 557.112 382.7 557.086C382.572 557.069 382.442 557.077 382.317 557.111C382.193 557.144 382.076 557.202 381.973 557.281C381.871 557.36 381.786 557.458 381.722 557.571C381.658 557.683 381.616 557.807 381.601 557.935Z" fill="#263238"/>
<path d="M382.101 555.271C382.217 555.412 383.017 554.892 384.105 554.96C385.192 555.027 385.938 555.626 386.078 555.497C386.219 555.369 386.029 555.198 385.693 554.923C385.247 554.559 384.698 554.345 384.123 554.312C383.56 554.276 382.999 554.419 382.522 554.721C382.168 554.978 382.021 555.21 382.101 555.271Z" fill="#263238"/>
<path d="M377.659 563.085C377.098 562.87 376.513 562.726 375.917 562.657C375.636 562.614 375.38 562.541 375.343 562.352C375.341 562.063 375.423 561.78 375.581 561.539L376.522 559.474C377.848 556.535 378.825 554.116 378.709 554.061C378.593 554.006 377.42 556.352 376.095 559.285C375.777 560.012 375.484 560.702 375.178 561.362C374.984 561.687 374.908 562.069 374.964 562.443C374.999 562.544 375.056 562.635 375.131 562.71C375.206 562.786 375.297 562.843 375.398 562.877C375.548 562.929 375.704 562.961 375.862 562.975C376.454 563.085 377.058 563.122 377.659 563.085Z" fill="#263238"/>
<path d="M380.799 564.014C380.622 564.014 380.549 565.174 379.486 565.95C378.423 566.726 377.176 566.519 377.158 566.683C377.158 566.757 377.427 566.928 377.952 566.977C378.643 567.027 379.33 566.835 379.895 566.433C380.434 566.042 380.802 565.457 380.921 564.802C381.007 564.331 380.891 564.014 380.799 564.014Z" fill="#263238"/>
<path d="M382.083 550.995C382.168 551.3 383.262 551.227 384.526 551.459C385.791 551.691 386.805 552.07 386.97 551.844C387.056 551.722 386.891 551.435 386.494 551.123C385.964 550.731 385.348 550.471 384.697 550.366C384.05 550.249 383.385 550.287 382.755 550.475C382.296 550.634 382.022 550.854 382.083 550.995Z" fill="#263238"/>
<path d="M372.026 551.288C372.203 551.551 372.967 551.337 373.859 551.38C374.751 551.422 375.515 551.648 375.692 551.38C375.777 551.257 375.692 551.001 375.35 550.769C374.925 550.453 374.412 550.28 373.883 550.274C373.355 550.249 372.831 550.39 372.387 550.677C372.069 550.915 371.947 551.184 372.026 551.288Z" fill="#263238"/>
<path d="M371.024 547.659C371.024 547.659 373.162 543.346 375.362 542.442C378.019 541.348 378.96 544.275 381.471 543.719C383.982 543.163 386.518 542.136 388.919 544.195C391.546 546.45 390.141 547.83 390.141 550.977C390.049 563.739 392.151 567.472 393.195 561.528C393.311 560.874 395.163 560.465 395.602 557.709C396.177 554.135 396.586 549.767 395.938 547.177C395.395 544.983 394.258 543.425 392.163 541.678C388.852 538.88 384.086 538.532 380.824 538.623C377.561 538.715 371.024 542.094 371.024 547.659Z" fill="#263238"/>
<path d="M392.719 561.307C392.743 561.048 392.82 560.797 392.943 560.568C393.067 560.34 393.237 560.139 393.441 559.978C393.644 559.817 393.879 559.699 394.13 559.631C394.381 559.563 394.643 559.547 394.9 559.584C396.214 559.792 397.637 560.629 397.381 563.354C396.929 568.174 392.176 566.726 392.182 566.586C392.188 566.445 392.512 563.323 392.719 561.307Z" fill="#FFBE9D"/>
<path d="M393.402 564.87C393.402 564.87 393.482 564.937 393.616 565.016C393.803 565.118 394.022 565.144 394.227 565.09C394.759 564.949 395.26 564.179 395.37 563.312C395.419 562.9 395.375 562.482 395.241 562.09C395.211 561.935 395.143 561.789 395.044 561.666C394.945 561.543 394.818 561.445 394.673 561.381C394.579 561.348 394.476 561.348 394.381 561.382C394.287 561.415 394.207 561.479 394.154 561.565C394.081 561.699 394.099 561.797 394.074 561.803C394.05 561.809 393.977 561.711 394.032 561.516C394.074 561.4 394.151 561.3 394.252 561.229C394.395 561.142 394.565 561.114 394.728 561.149C394.923 561.207 395.099 561.313 395.24 561.459C395.382 561.604 395.483 561.784 395.535 561.98C395.703 562.417 395.759 562.89 395.7 563.355C395.577 564.32 394.997 565.187 394.282 565.322C394.149 565.347 394.012 565.342 393.881 565.307C393.75 565.272 393.628 565.208 393.525 565.12C393.396 564.992 393.384 564.876 393.402 564.87Z" fill="#EB996E"/>
<path d="M393.194 551.936C392.574 552.381 391.851 552.663 391.093 552.754C390.712 552.79 390.331 552.686 390.022 552.461C389.712 552.236 389.496 551.906 389.413 551.532C389.376 551.196 389.48 550.805 389.278 550.537C389.077 550.268 388.539 550.274 388.13 550.292C387.422 550.301 386.732 550.067 386.176 549.629C385.62 549.191 385.232 548.575 385.075 547.885C384.843 548.111 384.535 548.242 384.212 548.252C383.889 548.262 383.573 548.151 383.328 547.94C382.853 547.503 382.442 547.001 382.106 546.449C381.934 546.175 381.698 545.948 381.418 545.786C381.138 545.624 380.822 545.533 380.499 545.521C380.15 545.614 379.791 545.67 379.43 545.686C378.819 545.588 378.538 544.83 378.477 544.195C378.416 543.56 378.391 542.814 377.866 542.442C377.34 542.069 376.73 542.234 376.137 542.289C375.544 542.344 374.799 542.154 374.689 541.574C374.673 541.419 374.688 541.262 374.735 541.113C374.781 540.964 374.857 540.825 374.958 540.706C375.387 540.146 375.993 539.748 376.677 539.575C377.361 539.402 378.083 539.465 378.727 539.753C379.025 538.973 379.544 538.297 380.221 537.809C380.898 537.32 381.703 537.04 382.537 537.004C383.371 536.968 384.198 537.176 384.915 537.604C385.632 538.032 386.208 538.66 386.572 539.411C387.113 538.977 387.752 538.68 388.433 538.545C389.115 538.411 389.818 538.443 390.484 538.639C391.15 538.836 391.759 539.19 392.259 539.672C392.758 540.154 393.134 540.75 393.353 541.409C393.955 541.29 394.579 541.351 395.146 541.584C395.714 541.816 396.201 542.211 396.546 542.718C396.891 543.225 397.079 543.823 397.087 544.436C397.095 545.05 396.923 545.652 396.591 546.168C397.026 546.417 397.39 546.771 397.651 547.199C397.911 547.626 398.06 548.112 398.082 548.612C398.033 549.614 397.001 550.555 396.048 550.231C396.15 550.434 396.212 550.655 396.229 550.882C396.246 551.109 396.219 551.337 396.148 551.553C396.077 551.769 395.964 551.969 395.816 552.142C395.668 552.314 395.487 552.456 395.284 552.559C395.081 552.662 394.86 552.723 394.633 552.74C394.406 552.758 394.178 552.73 393.962 552.659C393.746 552.588 393.546 552.475 393.373 552.327C393.201 552.179 393.059 551.998 392.956 551.795" fill="#263238"/>
<path d="M378.276 541.158C378.276 541.158 378.276 541.158 378.276 541.244C378.271 541.331 378.271 541.419 378.276 541.506C378.323 541.838 378.422 542.159 378.57 542.46C378.805 542.938 379.148 543.357 379.572 543.681C380.13 544.114 380.814 544.354 381.52 544.366L381.447 544.256C381.358 544.467 381.312 544.695 381.312 544.925C381.312 545.154 381.358 545.382 381.447 545.594C381.636 546.036 381.889 546.447 382.199 546.816C382.345 547.037 382.515 547.242 382.706 547.426C382.924 547.599 383.183 547.715 383.457 547.763C383.74 547.821 384.032 547.809 384.309 547.728C384.586 547.647 384.839 547.499 385.046 547.298L384.868 547.237C384.906 547.743 385.048 548.235 385.286 548.683C385.524 549.131 385.852 549.525 386.249 549.84C386.689 550.207 387.235 550.421 387.807 550.451C388.346 550.457 388.883 550.375 389.396 550.206L389.267 550.139C389.482 550.74 389.843 551.277 390.318 551.703C390.536 551.913 390.797 552.072 391.083 552.169C391.369 552.266 391.673 552.299 391.974 552.265C392.489 552.186 392.969 551.958 393.357 551.61C393.744 551.262 394.022 550.808 394.155 550.304L394.039 550.353C394.532 550.655 395.115 550.776 395.688 550.695C396.126 550.65 396.546 550.497 396.91 550.249C397.132 550.097 397.326 549.91 397.484 549.693C397.582 549.54 397.625 549.455 397.625 549.455C397.415 549.74 397.157 549.986 396.861 550.182C396.513 550.402 396.117 550.538 395.707 550.579C395.164 550.645 394.615 550.52 394.155 550.225L394.063 550.17V550.273C393.936 550.747 393.674 551.172 393.308 551.498C392.942 551.823 392.489 552.035 392.004 552.106C391.73 552.137 391.453 552.106 391.193 552.015C390.933 551.924 390.696 551.776 390.501 551.581C390.055 551.176 389.717 550.665 389.518 550.096L389.481 550.005H389.389C388.902 550.169 388.389 550.25 387.874 550.243C387.346 550.212 386.842 550.01 386.439 549.669C386.062 549.375 385.752 549.006 385.526 548.585C385.301 548.164 385.167 547.701 385.131 547.225V546.999L384.972 547.164C384.695 547.421 384.337 547.574 383.959 547.597C383.581 547.619 383.207 547.509 382.901 547.286C382.724 547.118 382.564 546.931 382.425 546.73C382.12 546.374 381.871 545.975 381.685 545.545C381.6 545.353 381.553 545.147 381.548 544.937C381.543 544.727 381.579 544.518 381.655 544.323L381.698 544.213H381.582C380.909 544.214 380.254 544 379.712 543.602C379.299 543.298 378.959 542.906 378.716 542.453C378.491 542.052 378.342 541.613 378.276 541.158Z" fill="#455A64"/>
<path d="M375.862 558.356C375.996 557.988 376.102 557.61 376.18 557.226C376.358 556.18 376.181 555.105 375.679 554.171C375.332 553.526 374.838 552.971 374.237 552.552C373.549 552.07 372.746 551.779 371.909 551.709C371.457 551.671 371.002 551.7 370.559 551.794C370.097 551.888 369.654 552.055 369.245 552.289C368.373 552.773 367.677 553.523 367.259 554.429C366.842 555.336 366.724 556.352 366.924 557.33C367.016 557.793 367.181 558.238 367.412 558.649C367.623 559.048 367.895 559.411 368.219 559.725C368.817 560.315 369.561 560.737 370.376 560.946C371.086 561.123 371.828 561.135 372.544 560.983C373.589 560.755 374.527 560.183 375.208 559.358C375.449 559.048 375.667 558.721 375.862 558.38C375.828 558.477 375.787 558.571 375.74 558.661C375.688 558.775 375.627 558.883 375.556 558.985C375.472 559.131 375.376 559.27 375.269 559.401C374.698 560.128 373.928 560.674 373.054 560.974C372.179 561.274 371.236 561.316 370.339 561.093C369.496 560.892 368.723 560.47 368.097 559.871C367.759 559.545 367.475 559.167 367.254 558.753C367.009 558.328 366.838 557.866 366.747 557.385C366.54 556.369 366.662 555.313 367.094 554.371C367.527 553.428 368.248 552.648 369.154 552.143C369.581 551.904 370.043 551.733 370.522 551.636C370.982 551.537 371.454 551.51 371.921 551.556C372.731 551.624 373.511 551.895 374.188 552.345C374.865 552.795 375.418 553.408 375.795 554.128C376.306 555.097 376.468 556.213 376.253 557.287C376.222 557.455 376.179 557.62 376.125 557.782C376.093 557.902 376.05 558.018 375.996 558.13C375.958 558.209 375.913 558.284 375.862 558.356Z" fill="#263238"/>
<path d="M388.332 559.09C388.458 558.719 388.564 558.342 388.65 557.96C388.823 556.913 388.644 555.839 388.143 554.905C387.798 554.26 387.306 553.705 386.707 553.286C386.022 552.788 385.216 552.484 384.373 552.406C383.923 552.365 383.47 552.394 383.029 552.492C382.566 552.586 382.121 552.753 381.71 552.986C380.837 553.469 380.142 554.218 379.725 555.123C379.309 556.029 379.193 557.044 379.394 558.021C379.576 558.933 380.027 559.769 380.689 560.422C381.246 560.976 381.934 561.382 382.688 561.602C383.443 561.822 384.241 561.849 385.009 561.68C386.057 561.457 386.998 560.884 387.678 560.055C387.918 559.746 388.136 559.422 388.332 559.084C388.297 559.181 388.254 559.275 388.204 559.365C388.155 559.478 388.096 559.586 388.027 559.689C387.94 559.834 387.842 559.973 387.733 560.104C387.059 560.967 386.107 561.571 385.039 561.815C384.247 561.996 383.422 561.975 382.64 561.753C381.858 561.531 381.145 561.115 380.567 560.544C380.228 560.22 379.941 559.844 379.718 559.432C379.479 559.003 379.308 558.539 379.211 558.057C379.003 557.038 379.128 555.979 379.568 555.036C380.008 554.093 380.74 553.317 381.655 552.821C382.081 552.58 382.543 552.409 383.023 552.314C383.482 552.215 383.954 552.189 384.422 552.235C385.289 552.311 386.12 552.617 386.829 553.121C387.444 553.56 387.946 554.138 388.295 554.807C388.806 555.776 388.966 556.892 388.748 557.966C388.72 558.132 388.677 558.296 388.619 558.454C388.588 558.576 388.545 558.695 388.491 558.809C388.445 558.906 388.392 559 388.332 559.09Z" fill="#263238"/>
<path d="M379.223 556.071C378.776 555.817 378.276 555.67 377.762 555.644C377.249 555.617 376.736 555.712 376.266 555.919C376.266 555.919 376.388 555.778 376.657 555.656C377.008 555.501 377.39 555.43 377.773 555.451C378.157 555.471 378.53 555.581 378.862 555.772C379.119 555.894 379.241 556.029 379.223 556.071Z" fill="#263238"/>
<path d="M393.158 560.031C392.381 559.74 391.629 559.387 390.91 558.974C390.158 558.624 389.435 558.215 388.747 557.752C389.523 558.045 390.275 558.399 390.995 558.809C391.745 559.163 392.468 559.572 393.158 560.031Z" fill="#263238"/>
<path d="M462.232 754.569C463.715 758.217 466.247 761.344 469.508 763.554C472.768 765.763 476.611 766.955 480.55 766.98C484.488 767.004 488.346 765.859 491.633 763.69C494.921 761.521 497.491 758.426 499.019 754.796C500.547 751.165 500.963 747.163 500.215 743.296C499.467 739.429 497.589 735.871 494.818 733.072C492.047 730.273 488.508 728.359 484.648 727.572C480.789 726.785 476.783 727.161 473.138 728.652C468.255 730.644 464.364 734.493 462.319 739.352C460.274 744.212 460.243 749.686 462.232 754.569Z" fill="#710BFF"/>
<path d="M466.62 752.797C467.75 755.578 469.68 757.961 472.165 759.645C474.65 761.328 477.579 762.237 480.581 762.255C483.583 762.273 486.522 761.4 489.028 759.747C491.533 758.094 493.492 755.734 494.656 752.967C495.82 750.2 496.137 747.15 495.566 744.203C494.996 741.256 493.564 738.544 491.452 736.411C489.34 734.278 486.643 732.82 483.701 732.221C480.76 731.622 477.707 731.909 474.929 733.045C473.086 733.797 471.409 734.903 469.995 736.303C468.58 737.702 467.455 739.366 466.683 741.2C465.912 743.034 465.509 745.003 465.498 746.992C465.487 748.982 465.868 750.955 466.62 752.797Z" fill="#710BFF"/>
<path opacity="0.4" d="M486.158 752.513H484.498V754.755H481.699V752.513H476.253V750.352H481.699V748.762H478.169C478.092 748.762 477.926 748.758 477.67 748.751C477.415 748.736 477.132 748.709 476.822 748.671C475.39 748.457 474.326 747.905 473.629 747.013C472.925 746.121 472.573 744.992 472.573 743.628C472.573 742.286 472.921 741.131 473.618 740.163C474.307 739.187 475.375 738.592 476.822 738.379C477.132 738.333 477.415 738.306 477.67 738.299C477.926 738.291 478.092 738.287 478.169 738.287H484.498V746.407H486.158V748.762H484.498V750.352H486.158V752.513ZM478.285 740.872C478.193 740.872 478.042 740.875 477.833 740.883C477.624 740.891 477.418 740.921 477.217 740.975C476.528 741.15 476.052 741.512 475.789 742.061C475.526 742.602 475.394 743.151 475.394 743.708C475.394 744.325 475.537 744.866 475.824 745.332C476.11 745.789 476.575 746.105 477.217 746.281C477.442 746.342 477.647 746.38 477.833 746.395C478.011 746.403 478.162 746.407 478.285 746.407H481.699V740.872H478.285Z" fill="#2C0A5C"/>
<path d="M466.62 752.797C466.604 752.716 466.581 752.636 466.553 752.559L466.327 751.874L466.162 751.373C466.107 751.184 466.064 750.976 466.015 750.762C465.875 750.25 465.775 749.727 465.716 749.198C465.513 747.756 465.53 746.292 465.765 744.855C466.298 741.401 468.016 738.24 470.624 735.913C473.232 733.587 476.568 732.24 480.061 732.104C480.772 732.072 481.484 732.088 482.193 732.153C482.553 732.196 482.908 732.263 483.268 732.318C483.632 732.368 483.991 732.445 484.343 732.55C485.066 732.736 485.776 732.966 486.469 733.241C487.165 733.544 487.838 733.896 488.486 734.291C489.825 735.095 491.026 736.11 492.041 737.297C494.155 739.749 495.412 742.822 495.621 746.052C495.729 747.61 495.586 749.176 495.2 750.689C494.848 752.156 494.262 753.557 493.465 754.837C492.73 756.082 491.804 757.203 490.722 758.161C488.132 760.506 484.809 761.88 481.319 762.048C477.83 762.216 474.39 761.168 471.587 759.083C470.42 758.226 469.39 757.196 468.532 756.029C468.206 755.611 467.91 755.17 467.646 754.709C467.524 754.508 467.408 754.33 467.316 754.159C467.225 753.988 467.151 753.829 467.084 753.683L466.76 753.041C466.727 752.965 466.688 752.892 466.644 752.821C466.665 752.901 466.694 752.979 466.73 753.053L467.023 753.713L467.243 754.196C467.335 754.373 467.451 754.556 467.561 754.758C467.82 755.226 468.112 755.675 468.434 756.102C469.285 757.298 470.316 758.355 471.489 759.236C473.042 760.422 474.813 761.292 476.7 761.796C478.994 762.423 481.403 762.503 483.732 762.028C486.409 761.476 488.891 760.221 490.923 758.393C491.464 757.905 491.972 757.383 492.444 756.829C492.916 756.25 493.345 755.637 493.727 754.996C494.122 754.345 494.475 753.67 494.784 752.974C495.076 752.254 495.317 751.515 495.505 750.762C495.907 749.22 496.055 747.623 495.945 746.034C495.822 744.397 495.454 742.789 494.852 741.262C494.209 739.751 493.344 738.345 492.286 737.089C491.248 735.883 490.023 734.851 488.657 734.035C487.993 733.635 487.303 733.28 486.592 732.972C485.886 732.688 485.161 732.453 484.423 732.269C484.065 732.162 483.699 732.083 483.329 732.031C482.963 731.982 482.596 731.909 482.229 731.872C478.77 731.552 475.302 732.395 472.375 734.267C470.561 735.449 469.019 737.002 467.85 738.824C466.681 740.646 465.912 742.695 465.593 744.836C465.371 746.292 465.371 747.773 465.593 749.229C465.665 749.76 465.775 750.284 465.923 750.799C465.978 751.025 466.027 751.233 466.082 751.41L466.266 751.911C466.375 752.192 466.461 752.418 466.522 752.583C466.548 752.657 466.58 752.729 466.62 752.797Z" fill="#263238"/>
<g opacity="0.3">
<path opacity="0.3" d="M466.785 752.876C466.877 752.845 466.681 752.204 466.467 751.043C466.165 749.404 466.119 747.728 466.333 746.076C466.478 744.949 466.744 743.84 467.127 742.771C467.575 741.554 468.176 740.4 468.917 739.337C469.733 738.167 470.715 737.121 471.832 736.234C472.421 735.766 473.046 735.345 473.701 734.975C475.05 734.21 476.512 733.665 478.033 733.362C478.77 733.213 479.517 733.123 480.269 733.093C480.994 733.057 481.722 733.08 482.444 733.16C483.138 733.231 483.826 733.353 484.503 733.527C485.761 733.847 486.972 734.327 488.107 734.957C489.098 735.515 490.026 736.179 490.875 736.936C492.108 738.052 493.163 739.35 494.003 740.785C494.614 741.805 494.876 742.416 494.962 742.386C495.047 742.355 494.895 741.695 494.4 740.553C493.68 738.968 492.674 737.531 491.431 736.313C490.57 735.466 489.612 734.723 488.578 734.101C487.385 733.39 486.103 732.841 484.765 732.47C484.042 732.27 483.305 732.125 482.56 732.036C481.784 731.937 481.001 731.902 480.22 731.932C479.399 731.957 478.582 732.049 477.776 732.207C476.957 732.369 476.152 732.596 475.369 732.886C474.589 733.18 473.833 733.536 473.108 733.949C472.403 734.35 471.731 734.808 471.098 735.317C470.492 735.81 469.924 736.35 469.4 736.93C468.894 737.487 468.43 738.081 468.013 738.708C466.569 740.873 465.703 743.372 465.496 745.966C465.356 747.701 465.536 749.447 466.028 751.116C466.388 752.314 466.724 752.9 466.785 752.876Z" fill="black"/>
</g>
<path d="M405.898 779.483H444.119V786.424H405.898V779.483Z" fill="#710BFF"/>
<path d="M440.374 786.472C440.586 784.182 440.586 781.877 440.374 779.587C440.163 781.877 440.163 784.182 440.374 786.472Z" fill="#263238"/>
<path d="M442.463 786.472C442.675 784.182 442.675 781.877 442.463 779.587C442.251 781.877 442.251 784.182 442.463 786.472Z" fill="#263238"/>
<path d="M435.786 786.472C435.998 784.182 435.998 781.877 435.786 779.587C435.575 781.877 435.575 784.182 435.786 786.472Z" fill="#263238"/>
<path d="M437.875 786.472C438.087 784.182 438.087 781.877 437.875 779.587C437.664 781.877 437.664 784.182 437.875 786.472Z" fill="#263238"/>
<path d="M431.192 786.472C431.404 784.182 431.404 781.877 431.192 779.587C430.98 781.877 430.98 784.182 431.192 786.472Z" fill="#263238"/>
<path d="M433.281 786.472C433.492 784.182 433.492 781.877 433.281 779.587C433.069 781.877 433.069 784.182 433.281 786.472Z" fill="#263238"/>
<path d="M426.621 786.472C426.833 784.182 426.833 781.877 426.621 779.587C426.41 781.877 426.41 784.182 426.621 786.472Z" fill="#263238"/>
<path d="M428.693 786.472C428.905 784.182 428.905 781.877 428.693 779.587C428.473 781.877 428.473 784.182 428.693 786.472Z" fill="#263238"/>
<path d="M422.008 786.472C422.22 784.182 422.22 781.877 422.008 779.587C421.796 781.877 421.796 784.182 422.008 786.472Z" fill="#263238"/>
<path d="M424.098 786.472C424.31 784.182 424.31 781.877 424.098 779.587C423.886 781.877 423.886 784.182 424.098 786.472Z" fill="#263238"/>
<path d="M417.414 786.472C417.626 784.182 417.626 781.877 417.414 779.587C417.203 781.877 417.203 784.182 417.414 786.472Z" fill="#263238"/>
<path d="M419.505 786.472C419.717 784.182 419.717 781.877 419.505 779.587C419.293 781.877 419.293 784.182 419.505 786.472Z" fill="#263238"/>
<path d="M412.82 786.472C413.031 784.182 413.031 781.877 412.82 779.587C412.608 781.877 412.608 784.182 412.82 786.472Z" fill="#263238"/>
<path d="M414.916 786.472C415.128 784.182 415.128 781.877 414.916 779.587C414.705 781.877 414.705 784.182 414.916 786.472Z" fill="#263238"/>
<path d="M408.232 786.472C408.444 784.182 408.444 781.877 408.232 779.587C408.02 781.877 408.02 784.182 408.232 786.472Z" fill="#263238"/>
<path d="M410.323 786.472C410.534 784.182 410.534 781.877 410.323 779.587C410.111 781.877 410.111 784.182 410.323 786.472Z" fill="#263238"/>
<path d="M405.904 779.482C405.904 779.574 414.519 779.641 425.143 779.641C435.767 779.641 444.388 779.574 444.388 779.482C444.388 779.39 435.773 779.323 425.143 779.323C414.512 779.323 405.904 779.397 405.904 779.482Z" fill="#263238"/>
<path d="M408.898 786.366H447.119V793.307H408.898V786.366Z" fill="#710BFF"/>
<path d="M443.374 793.357C443.586 791.067 443.586 788.762 443.374 786.472C443.163 788.762 443.163 791.067 443.374 793.357Z" fill="#263238"/>
<path d="M445.462 793.357C445.674 791.067 445.674 788.762 445.462 786.472C445.25 788.762 445.25 791.067 445.462 793.357Z" fill="#263238"/>
<path d="M438.78 793.357C438.991 791.067 438.991 788.762 438.78 786.472C438.568 788.762 438.568 791.067 438.78 793.357Z" fill="#263238"/>
<path d="M440.868 793.357C441.079 791.067 441.079 788.762 440.868 786.472C440.656 788.762 440.656 791.067 440.868 793.357Z" fill="#263238"/>
<path d="M434.185 793.357C434.397 791.067 434.397 788.762 434.185 786.472C433.973 788.762 433.973 791.067 434.185 793.357Z" fill="#263238"/>
<path d="M436.281 793.357C436.492 791.067 436.492 788.762 436.281 786.472C436.069 788.762 436.069 791.067 436.281 793.357Z" fill="#263238"/>
<path d="M429.597 793.357C429.809 791.067 429.809 788.762 429.597 786.472C429.385 788.762 429.385 791.067 429.597 793.357Z" fill="#263238"/>
<path d="M431.686 793.357C431.898 791.067 431.898 788.762 431.686 786.472C431.474 788.762 431.474 791.067 431.686 793.357Z" fill="#263238"/>
<path d="M425.001 793.357C425.213 791.067 425.213 788.762 425.001 786.472C424.789 788.762 424.789 791.067 425.001 793.357Z" fill="#263238"/>
<path d="M427.092 793.357C427.304 791.067 427.304 788.762 427.092 786.472C426.88 788.762 426.88 791.067 427.092 793.357Z" fill="#263238"/>
<path d="M420.408 793.357C420.619 791.067 420.619 788.762 420.408 786.472C420.196 788.762 420.196 791.067 420.408 793.357Z" fill="#263238"/>
<path d="M422.503 793.357C422.715 791.067 422.715 788.762 422.503 786.472C422.291 788.762 422.291 791.067 422.503 793.357Z" fill="#263238"/>
<path d="M415.82 793.357C416.031 791.067 416.031 788.762 415.82 786.472C415.608 788.762 415.608 791.067 415.82 793.357Z" fill="#263238"/>
<path d="M417.91 793.357C418.121 791.067 418.121 788.762 417.91 786.472C417.698 788.762 417.698 791.067 417.91 793.357Z" fill="#263238"/>
<path d="M411.225 793.357C411.437 791.067 411.437 788.762 411.225 786.472C411.013 788.762 411.013 791.067 411.225 793.357Z" fill="#263238"/>
<path d="M413.315 793.357C413.527 791.067 413.527 788.762 413.315 786.472C413.103 788.762 413.103 791.067 413.315 793.357Z" fill="#263238"/>
<path d="M408.904 786.398C408.904 786.49 417.5 786.557 428.1 786.557C438.7 786.557 447.302 786.49 447.302 786.398C447.302 786.306 438.706 786.239 428.1 786.239C417.494 786.239 408.904 786.282 408.904 786.398Z" fill="#263238"/>
<path d="M411.354 793.358H449.575V800.299H411.354V793.358Z" fill="#710BFF"/>
<path d="M445.829 800.347C446.041 798.057 446.041 795.752 445.829 793.462C445.618 795.752 445.618 798.057 445.829 800.347Z" fill="#263238"/>
<path d="M447.92 800.347C448.132 798.057 448.132 795.752 447.92 793.462C447.708 795.752 447.708 798.057 447.92 800.347Z" fill="#263238"/>
<path d="M441.235 800.347C441.447 798.057 441.447 795.752 441.235 793.462C441.023 795.752 441.023 798.057 441.235 800.347Z" fill="#263238"/>
<path d="M443.325 800.347C443.536 798.057 443.536 795.752 443.325 793.462C443.113 795.752 443.113 798.057 443.325 800.347Z" fill="#263238"/>
<path d="M436.641 800.347C436.853 798.057 436.853 795.752 436.641 793.462C436.429 795.752 436.429 798.057 436.641 800.347Z" fill="#263238"/>
<path d="M438.732 800.347C438.944 798.057 438.944 795.752 438.732 793.462C438.52 795.752 438.52 798.057 438.732 800.347Z" fill="#263238"/>
<path d="M432.052 800.347C432.264 798.057 432.264 795.752 432.052 793.462C431.84 795.752 431.84 798.057 432.052 800.347Z" fill="#263238"/>
<path d="M434.141 800.347C434.353 798.057 434.353 795.752 434.141 793.462C433.929 795.752 433.929 798.057 434.141 800.347Z" fill="#263238"/>
<path d="M427.459 800.347C427.671 798.057 427.671 795.752 427.459 793.462C427.248 795.752 427.248 798.057 427.459 800.347Z" fill="#263238"/>
<path d="M429.547 800.347C429.759 798.057 429.759 795.752 429.547 793.462C429.335 795.752 429.335 798.057 429.547 800.347Z" fill="#263238"/>
<path d="M422.864 800.347C423.075 798.057 423.075 795.752 422.864 793.462C422.652 795.752 422.652 798.057 422.864 800.347Z" fill="#263238"/>
<path d="M424.959 800.347C425.171 798.057 425.171 795.752 424.959 793.462C424.739 795.752 424.739 798.057 424.959 800.347Z" fill="#263238"/>
<path d="M418.276 800.347C418.488 798.057 418.488 795.752 418.276 793.462C418.064 795.752 418.064 798.057 418.276 800.347Z" fill="#263238"/>
<path d="M420.366 800.347C420.577 798.057 420.577 795.752 420.366 793.462C420.154 795.752 420.154 798.057 420.366 800.347Z" fill="#263238"/>
<path d="M413.681 800.347C413.893 798.057 413.893 795.752 413.681 793.462C413.469 795.752 413.469 798.057 413.681 800.347Z" fill="#263238"/>
<path d="M415.771 800.347C415.983 798.057 415.983 795.752 415.771 793.462C415.559 795.752 415.559 798.057 415.771 800.347Z" fill="#263238"/>
<path d="M411.348 793.358C411.348 793.45 419.944 793.517 430.544 793.517C441.144 793.517 449.746 793.45 449.746 793.358C449.746 793.266 441.15 793.199 430.544 793.199C419.938 793.199 411.348 793.273 411.348 793.358Z" fill="#263238"/>
<g opacity="0.3">
<path opacity="0.3" d="M441.896 786.443C436.109 787.765 430.156 788.197 424.239 787.726C418.374 787.335 412.454 786.474 406.577 786.547L441.896 786.443Z" fill="black"/>
</g>
<g opacity="0.3">
<path opacity="0.3" d="M449.104 793.449C443.317 794.77 437.364 795.203 431.447 794.732C425.582 794.341 419.662 793.48 413.785 793.553L449.104 793.449Z" fill="black"/>
</g>
<path d="M443.276 780.057C443.01 780.057 442.793 779.986 442.793 779.898C442.793 779.81 443.01 779.739 443.276 779.739C443.543 779.739 443.759 779.81 443.759 779.898C443.759 779.986 443.543 780.057 443.276 780.057Z" fill="white"/>
<path d="M437.489 779.917C438.944 780.129 440.421 780.129 441.876 779.917C440.421 779.705 438.944 779.705 437.489 779.917Z" fill="white"/>
<path d="M431.423 779.917C432.878 780.129 434.355 780.129 435.81 779.917C434.355 779.705 432.878 779.705 431.423 779.917Z" fill="white"/>
<path d="M289.007 773.52C287.616 777.205 287.349 781.22 288.241 785.056C289.133 788.892 291.142 792.378 294.016 795.071C296.889 797.765 300.497 799.546 304.383 800.188C308.269 800.83 312.258 800.305 315.846 798.679C319.433 797.053 322.457 794.399 324.536 791.054C326.614 787.708 327.654 783.821 327.522 779.885C327.391 775.949 326.094 772.14 323.797 768.94C321.5 765.741 318.305 763.295 314.617 761.912C309.682 760.056 304.211 760.236 299.408 762.413C294.606 764.59 290.864 768.585 289.007 773.52Z" fill="#710BFF"/>
<path d="M293.436 775.187C292.375 777.995 292.17 781.055 292.849 783.979C293.528 786.903 295.059 789.56 297.248 791.614C299.437 793.668 302.187 795.026 305.148 795.516C308.11 796.006 311.15 795.607 313.885 794.368C316.619 793.13 318.925 791.108 320.509 788.559C322.094 786.01 322.887 783.047 322.788 780.047C322.688 777.047 321.701 774.144 319.951 771.705C318.2 769.266 315.766 767.402 312.955 766.347C311.093 765.645 309.111 765.317 307.122 765.381C305.133 765.445 303.176 765.901 301.364 766.722C299.551 767.543 297.918 768.713 296.557 770.166C295.197 771.618 294.136 773.325 293.436 775.187Z" fill="#710BFF"/>
<path d="M293.435 775.188C293.479 775.117 293.518 775.044 293.551 774.968L293.851 774.314L294.071 773.831C294.156 773.654 294.272 773.477 294.382 773.275C294.633 772.806 294.917 772.355 295.231 771.925C296.064 770.729 297.073 769.666 298.225 768.773C300.963 766.603 304.37 765.452 307.863 765.518C311.356 765.583 314.718 766.862 317.372 769.133C317.915 769.594 318.426 770.092 318.899 770.624C319.138 770.899 319.351 771.192 319.584 771.473C319.806 771.761 320.01 772.063 320.195 772.377C320.598 773.004 320.961 773.654 321.282 774.326C321.584 775.023 321.839 775.74 322.046 776.471C322.482 777.97 322.672 779.53 322.608 781.089C322.497 784.326 321.33 787.438 319.284 789.948C318.306 791.166 317.136 792.216 315.82 793.058C315.183 793.471 314.52 793.842 313.835 794.17C313.162 794.474 312.47 794.736 311.763 794.952C311.062 795.152 310.347 795.305 309.625 795.41C308.916 795.494 308.201 795.533 307.487 795.526C304.803 795.494 302.176 794.75 299.874 793.369C298.046 792.262 296.473 790.781 295.258 789.022C294.043 787.264 293.213 785.268 292.824 783.167C292.548 781.736 292.488 780.271 292.647 778.823C292.695 778.294 292.779 777.77 292.897 777.253C292.946 777.027 292.977 776.813 293.026 776.642C293.075 776.471 293.136 776.287 293.179 776.135C293.264 775.841 293.331 775.615 293.386 775.444C293.413 775.367 293.431 775.287 293.441 775.206C293.406 775.279 293.377 775.354 293.356 775.432C293.295 775.603 293.215 775.829 293.117 776.116L292.952 776.623C292.897 776.813 292.855 777.021 292.806 777.234C292.672 777.754 292.578 778.283 292.525 778.817C292.339 780.276 292.38 781.756 292.647 783.203C293.024 785.338 293.85 787.369 295.072 789.159C296.294 790.95 297.883 792.46 299.734 793.589C302.712 795.383 306.206 796.126 309.656 795.697C310.392 795.595 311.121 795.442 311.837 795.239C312.569 795.029 313.288 794.772 313.987 794.469C314.688 794.14 315.365 793.764 316.016 793.345C317.358 792.486 318.553 791.415 319.553 790.174C320.577 788.89 321.401 787.459 321.997 785.928C322.552 784.384 322.874 782.765 322.95 781.126C323.011 779.533 322.815 777.94 322.369 776.41C321.977 774.921 321.334 773.51 320.469 772.237C320.281 771.914 320.066 771.608 319.828 771.32C319.596 771.027 319.376 770.709 319.131 770.453C318.647 769.911 318.124 769.405 317.567 768.938C315.484 767.167 312.966 765.984 310.273 765.51C308.139 765.143 305.952 765.234 303.856 765.776C301.759 766.319 299.803 767.301 298.115 768.657C296.963 769.572 295.96 770.661 295.14 771.883C294.826 772.315 294.548 772.773 294.309 773.251C294.199 773.459 294.089 773.642 294.003 773.819L293.802 774.314L293.527 774.98C293.49 775.046 293.459 775.116 293.435 775.188Z" fill="#263238"/>
<g opacity="0.3">
<path opacity="0.3" d="M293.49 775.402C293.575 775.438 293.869 774.834 294.504 773.832C295.392 772.424 296.49 771.162 297.76 770.086C298.633 769.36 299.582 768.729 300.589 768.205C301.75 767.614 302.982 767.177 304.255 766.903C304.936 766.75 305.629 766.65 306.326 766.604C307.052 766.546 307.781 766.546 308.507 766.604C309.256 766.662 309.999 766.777 310.731 766.946C311.482 767.13 312.219 767.367 312.936 767.655C313.649 767.957 314.339 768.31 315.001 768.712C315.646 769.102 316.259 769.544 316.834 770.031C317.389 770.498 317.906 771.009 318.38 771.559C318.843 772.084 319.265 772.644 319.644 773.233C320.347 774.322 320.908 775.496 321.312 776.727C321.665 777.811 321.896 778.929 322.003 780.063C322.146 781.72 322.037 783.388 321.679 785.012C321.422 786.173 321.209 786.802 321.294 786.845C321.38 786.887 321.709 786.295 322.113 785.134C322.644 783.472 322.864 781.726 322.76 779.984C322.695 778.777 322.49 777.582 322.149 776.422C321.759 775.089 321.189 773.815 320.457 772.634C320.065 771.99 319.624 771.377 319.137 770.801C318.635 770.199 318.083 769.639 317.488 769.127C316.875 768.596 316.221 768.114 315.533 767.685C314.109 766.807 312.551 766.167 310.92 765.792C309.366 765.427 307.763 765.314 306.173 765.456C304.028 765.639 301.946 766.274 300.064 767.319C299.013 767.91 298.033 768.619 297.143 769.433C295.861 770.609 294.807 772.011 294.034 773.569C293.582 774.693 293.435 775.353 293.49 775.402Z" fill="black"/>
</g>
<path d="M231.271 779.446H269.492V786.387H231.271V779.446Z" fill="#710BFF"/>
<path d="M265.748 786.436C265.96 784.146 265.96 781.841 265.748 779.551C265.537 781.841 265.537 784.146 265.748 786.436Z" fill="#263238"/>
<path d="M267.837 786.436C268.049 784.146 268.049 781.841 267.837 779.551C267.625 781.841 267.625 784.146 267.837 786.436Z" fill="#263238"/>
<path d="M261.154 786.436C261.365 784.146 261.365 781.841 261.154 779.551C260.942 781.841 260.942 784.146 261.154 786.436Z" fill="#263238"/>
<path d="M263.243 786.436C263.454 784.146 263.454 781.841 263.243 779.551C263.031 781.841 263.031 784.146 263.243 786.436Z" fill="#263238"/>
<path d="M256.559 786.436C256.771 784.146 256.771 781.841 256.559 779.551C256.347 781.841 256.347 784.146 256.559 786.436Z" fill="#263238"/>
<path d="M258.655 786.436C258.866 784.146 258.866 781.841 258.655 779.551C258.443 781.841 258.443 784.146 258.655 786.436Z" fill="#263238"/>
<path d="M251.971 786.436C252.183 784.146 252.183 781.841 251.971 779.551C251.759 781.841 251.759 784.146 251.971 786.436Z" fill="#263238"/>
<path d="M254.06 786.436C254.272 784.146 254.272 781.841 254.06 779.551C253.848 781.841 253.848 784.146 254.06 786.436Z" fill="#263238"/>
<path d="M247.376 786.436C247.588 784.146 247.588 781.841 247.376 779.551C247.165 781.841 247.165 784.146 247.376 786.436Z" fill="#263238"/>
<path d="M249.448 786.436C249.659 784.146 249.659 781.841 249.448 779.551C249.236 781.841 249.236 784.146 249.448 786.436Z" fill="#263238"/>
<path d="M242.782 786.436C243.002 784.146 243.002 781.841 242.782 779.551C242.57 781.841 242.57 784.146 242.782 786.436Z" fill="#263238"/>
<path d="M244.878 786.436C245.09 784.146 245.09 781.841 244.878 779.551C244.666 781.841 244.666 784.146 244.878 786.436Z" fill="#263238"/>
<path d="M238.194 786.436C238.405 784.146 238.405 781.841 238.194 779.551C237.982 781.841 237.982 784.146 238.194 786.436Z" fill="#263238"/>
<path d="M240.284 786.436C240.495 784.146 240.495 781.841 240.284 779.551C240.072 781.841 240.072 784.146 240.284 786.436Z" fill="#263238"/>
<path d="M233.6 786.436C233.812 784.146 233.812 781.841 233.6 779.551C233.388 781.841 233.388 784.146 233.6 786.436Z" fill="#263238"/>
<path d="M235.689 786.436C235.901 784.146 235.901 781.841 235.689 779.551C235.477 781.841 235.477 784.146 235.689 786.436Z" fill="#263238"/>
<path d="M231.272 779.447C231.272 779.539 239.887 779.606 250.517 779.606C261.147 779.606 269.762 779.539 269.762 779.447C269.762 779.355 261.147 779.288 250.517 779.288C239.887 779.288 231.272 779.361 231.272 779.447Z" fill="#263238"/>
<path d="M234.265 786.332H272.485V793.272H234.265V786.332Z" fill="#710BFF"/>
<path d="M268.742 793.321C268.953 791.031 268.953 788.726 268.742 786.436C268.53 788.726 268.53 791.031 268.742 793.321Z" fill="#263238"/>
<path d="M270.83 793.321C271.042 791.031 271.042 788.726 270.83 786.436C270.619 788.726 270.619 791.031 270.83 793.321Z" fill="#263238"/>
<path d="M264.146 793.321C264.358 791.031 264.358 788.726 264.146 786.436C263.934 788.726 263.934 791.031 264.146 793.321Z" fill="#263238"/>
<path d="M266.243 793.321C266.454 791.031 266.454 788.726 266.243 786.436C266.031 788.726 266.031 791.031 266.243 793.321Z" fill="#263238"/>
<path d="M259.558 793.321C259.77 791.031 259.77 788.726 259.558 786.436C259.346 788.726 259.346 791.031 259.558 793.321Z" fill="#263238"/>
<path d="M261.666 793.321C261.878 791.031 261.878 788.726 261.666 786.436C261.455 788.726 261.455 791.031 261.666 793.321Z" fill="#263238"/>
<path d="M254.947 793.321C255.158 791.031 255.158 788.726 254.947 786.436C254.735 788.726 254.735 791.031 254.947 793.321Z" fill="#263238"/>
<path d="M257.054 793.321C257.266 791.031 257.266 788.726 257.054 786.436C256.842 788.726 256.842 791.031 257.054 793.321Z" fill="#263238"/>
<path d="M250.375 793.321C250.587 791.031 250.587 788.726 250.375 786.436C250.155 788.725 250.155 791.031 250.375 793.321Z" fill="#263238"/>
<path d="M252.466 793.321C252.678 791.031 252.678 788.726 252.466 786.436C252.254 788.726 252.254 791.031 252.466 793.321Z" fill="#263238"/>
<path d="M245.782 793.321C245.993 791.031 245.993 788.726 245.782 786.436C245.57 788.726 245.57 791.031 245.782 793.321Z" fill="#263238"/>
<path d="M247.871 793.321C248.083 791.031 248.083 788.726 247.871 786.436C247.66 788.726 247.66 791.031 247.871 793.321Z" fill="#263238"/>
<path d="M241.188 793.321C241.4 791.031 241.4 788.726 241.188 786.436C240.976 788.726 240.976 791.031 241.188 793.321Z" fill="#263238"/>
<path d="M243.277 793.321C243.488 791.031 243.488 788.726 243.277 786.436C243.065 788.726 243.065 791.031 243.277 793.321Z" fill="#263238"/>
<path d="M236.619 793.321C236.831 791.031 236.831 788.726 236.619 786.436C236.408 788.726 236.408 791.031 236.619 793.321Z" fill="#263238"/>
<path d="M238.688 793.321C238.9 791.031 238.9 788.726 238.688 786.436C238.476 788.726 238.476 791.031 238.688 793.321Z" fill="#263238"/>
<path d="M234.272 786.333C234.272 786.424 242.862 786.492 253.468 786.492C264.074 786.492 272.664 786.4 272.664 786.333C272.664 786.265 264.068 786.174 253.468 786.174C242.868 786.174 234.272 786.247 234.272 786.333Z" fill="#263238"/>
<path d="M236.721 793.32H274.941V800.261H236.721V793.32Z" fill="#710BFF"/>
<path d="M271.198 800.309C271.409 798.019 271.409 795.714 271.198 793.424C270.986 795.714 270.986 798.019 271.198 800.309Z" fill="#263238"/>
<path d="M273.275 800.309C273.487 798.019 273.487 795.714 273.275 793.424C273.063 795.714 273.063 798.019 273.275 800.309Z" fill="#263238"/>
<path d="M266.603 800.309C266.815 798.019 266.815 795.714 266.603 793.424C266.391 795.714 266.391 798.019 266.603 800.309Z" fill="#263238"/>
<path d="M268.692 800.309C268.911 798.019 268.911 795.714 268.692 793.424C268.48 795.714 268.48 798.019 268.692 800.309Z" fill="#263238"/>
<path d="M262.015 800.309C262.227 798.019 262.227 795.714 262.015 793.424C261.803 795.714 261.803 798.019 262.015 800.309Z" fill="#263238"/>
<path d="M264.111 800.309C264.322 798.019 264.322 795.714 264.111 793.424C263.899 795.714 263.899 798.019 264.111 800.309Z" fill="#263238"/>
<path d="M257.389 800.309C257.601 798.019 257.601 795.714 257.389 793.424C257.177 795.714 257.177 798.019 257.389 800.309Z" fill="#263238"/>
<path d="M259.509 800.309C259.721 798.019 259.721 795.714 259.509 793.424C259.297 795.714 259.297 798.019 259.509 800.309Z" fill="#263238"/>
<path d="M252.826 800.309C253.037 798.019 253.037 795.714 252.826 793.424C252.614 795.714 252.614 798.019 252.826 800.309Z" fill="#263238"/>
<path d="M254.947 800.309C255.158 798.019 255.158 795.714 254.947 793.424C254.735 795.714 254.735 798.019 254.947 800.309Z" fill="#263238"/>
<path d="M248.225 800.309C248.437 798.019 248.437 795.714 248.225 793.424C248.013 795.714 248.013 798.019 248.225 800.309Z" fill="#263238"/>
<path d="M250.327 800.309C250.539 798.019 250.539 795.714 250.327 793.424C250.116 795.714 250.116 798.019 250.327 800.309Z" fill="#263238"/>
<path d="M243.643 800.309C243.855 798.019 243.855 795.714 243.643 793.424C243.431 795.714 243.431 798.019 243.643 800.309Z" fill="#263238"/>
<path d="M245.733 800.309C245.945 798.019 245.945 795.714 245.733 793.424C245.521 795.714 245.521 798.019 245.733 800.309Z" fill="#263238"/>
<path d="M239.062 800.309C239.282 798.019 239.282 795.714 239.062 793.424C238.85 795.714 238.85 798.019 239.062 800.309Z" fill="#263238"/>
<path d="M241.145 800.309C241.357 798.019 241.357 795.714 241.145 793.424C240.933 795.714 240.933 798.019 241.145 800.309Z" fill="#263238"/>
<path d="M236.721 793.321C236.721 793.413 245.317 793.48 255.923 793.48C266.529 793.48 275.119 793.413 275.119 793.321C275.119 793.229 266.523 793.162 255.923 793.162C245.323 793.162 236.721 793.235 236.721 793.321Z" fill="#263238"/>
<g opacity="0.3">
<path opacity="0.3" d="M267.293 786.4C261.509 787.722 255.557 788.154 249.643 787.683C243.778 787.292 237.852 786.431 231.974 786.504L267.293 786.4Z" fill="black"/>
</g>
<g opacity="0.3">
<path opacity="0.3" d="M274.496 793.412C268.712 794.733 262.76 795.166 256.846 794.695C250.981 794.304 245.055 793.443 239.177 793.516L274.496 793.412Z" fill="black"/>
</g>
<path d="M268.643 780.02C268.377 780.02 268.161 779.949 268.161 779.861C268.161 779.773 268.377 779.702 268.643 779.702C268.91 779.702 269.126 779.773 269.126 779.861C269.126 779.949 268.91 780.02 268.643 780.02Z" fill="white"/>
<path d="M262.858 779.881C264.312 780.092 265.79 780.092 267.244 779.881C265.79 779.669 264.312 779.669 262.858 779.881Z" fill="white"/>
<path d="M256.779 779.881C258.234 780.092 259.711 780.092 261.166 779.881C259.711 779.669 258.234 779.669 256.779 779.881Z" fill="white"/>
<path d="M462.178 765.554H500.398V772.494H462.178V765.554Z" fill="#710BFF"/>
<path d="M496.654 772.542C496.865 770.251 496.865 767.946 496.654 765.656C496.442 767.946 496.442 770.251 496.654 772.542Z" fill="#263238"/>
<path d="M498.713 772.542C498.925 770.251 498.925 767.946 498.713 765.656C498.501 767.946 498.501 770.251 498.713 772.542Z" fill="#263238"/>
<path d="M492.06 772.542C492.272 770.251 492.272 767.946 492.06 765.656C491.848 767.946 491.848 770.251 492.06 772.542Z" fill="#263238"/>
<path d="M494.149 772.542C494.361 770.251 494.361 767.946 494.149 765.656C493.937 767.946 493.937 770.251 494.149 772.542Z" fill="#263238"/>
<path d="M487.465 772.542C487.677 770.251 487.677 767.946 487.465 765.656C487.253 767.946 487.253 770.251 487.465 772.542Z" fill="#263238"/>
<path d="M489.549 772.542C489.761 770.251 489.761 767.946 489.549 765.656C489.337 767.946 489.337 770.251 489.549 772.542Z" fill="#263238"/>
<path d="M482.877 772.542C483.089 770.251 483.089 767.946 482.877 765.656C482.665 767.946 482.665 770.251 482.877 772.542Z" fill="#263238"/>
<path d="M484.967 772.542C485.179 770.251 485.179 767.946 484.967 765.656C484.755 767.946 484.755 770.251 484.967 772.542Z" fill="#263238"/>
<path d="M478.283 772.542C478.494 770.251 478.494 767.946 478.283 765.656C478.071 767.946 478.071 770.251 478.283 772.542Z" fill="#263238"/>
<path d="M480.384 772.542C480.596 770.251 480.596 767.946 480.384 765.656C480.172 767.946 480.172 770.251 480.384 772.542Z" fill="#263238"/>
<path d="M473.664 772.542C473.876 770.251 473.876 767.946 473.664 765.656C473.453 767.946 473.453 770.251 473.664 772.542Z" fill="#263238"/>
<path d="M475.785 772.542C475.996 770.251 475.996 767.946 475.785 765.656C475.565 767.946 475.565 770.252 475.785 772.542Z" fill="#263238"/>
<path d="M469.101 772.542C469.313 770.251 469.313 767.946 469.101 765.656C468.889 767.946 468.889 770.251 469.101 772.542Z" fill="#263238"/>
<path d="M471.19 772.542C471.402 770.251 471.402 767.946 471.19 765.656C470.978 767.946 470.978 770.251 471.19 772.542Z" fill="#263238"/>
<path d="M464.5 772.542C464.712 770.251 464.712 767.946 464.5 765.656C464.289 767.946 464.289 770.251 464.5 772.542Z" fill="#263238"/>
<path d="M466.596 772.542C466.808 770.251 466.808 767.946 466.596 765.656C466.384 767.946 466.384 770.251 466.596 772.542Z" fill="#263238"/>
<path d="M462.18 765.553C462.18 765.645 470.776 765.712 481.375 765.712C491.975 765.712 500.547 765.627 500.547 765.553C500.547 765.48 491.951 765.395 481.345 765.395C470.739 765.395 462.18 765.468 462.18 765.553Z" fill="#263238"/>
<path d="M464.679 772.604H502.899V779.544H464.679V772.604Z" fill="#710BFF"/>
<path d="M499.153 779.592C499.364 777.302 499.364 774.997 499.153 772.707C498.941 774.997 498.941 777.302 499.153 779.592Z" fill="#263238"/>
<path d="M501.243 779.592C501.454 777.302 501.454 774.997 501.243 772.707C501.031 774.997 501.031 777.302 501.243 779.592Z" fill="#263238"/>
<path d="M494.559 779.592C494.771 777.302 494.771 774.997 494.559 772.707C494.347 774.997 494.347 777.302 494.559 779.592Z" fill="#263238"/>
<path d="M496.654 779.592C496.865 777.302 496.865 774.997 496.654 772.707C496.442 774.997 496.442 777.302 496.654 779.592Z" fill="#263238"/>
<path d="M489.971 779.592C490.183 777.302 490.183 774.997 489.971 772.707C489.759 774.997 489.759 777.302 489.971 779.592Z" fill="#263238"/>
<path d="M492.06 779.592C492.272 777.302 492.272 774.997 492.06 772.707C491.848 774.997 491.848 777.302 492.06 779.592Z" fill="#263238"/>
<path d="M485.376 779.592C485.588 777.302 485.588 774.997 485.376 772.707C485.165 774.997 485.165 777.302 485.376 779.592Z" fill="#263238"/>
<path d="M487.465 779.592C487.677 777.302 487.677 774.997 487.465 772.707C487.253 774.997 487.253 777.302 487.465 779.592Z" fill="#263238"/>
<path d="M480.781 779.592C481.001 777.303 481.001 774.997 480.781 772.707C480.57 774.997 480.57 777.302 480.781 779.592Z" fill="#263238"/>
<path d="M482.877 779.592C483.089 777.302 483.089 774.997 482.877 772.707C482.665 774.997 482.665 777.302 482.877 779.592Z" fill="#263238"/>
<path d="M476.193 779.592C476.405 777.302 476.405 774.997 476.193 772.707C475.981 774.997 475.981 777.302 476.193 779.592Z" fill="#263238"/>
<path d="M478.283 779.592C478.494 777.302 478.494 774.997 478.283 772.707C478.071 774.997 478.071 777.302 478.283 779.592Z" fill="#263238"/>
<path d="M471.599 779.592C471.811 777.302 471.811 774.997 471.599 772.707C471.387 774.997 471.387 777.302 471.599 779.592Z" fill="#263238"/>
<path d="M473.664 779.592C473.876 777.302 473.876 774.997 473.664 772.707C473.453 774.997 473.453 777.302 473.664 779.592Z" fill="#263238"/>
<path d="M467.01 779.592C467.222 777.302 467.222 774.997 467.01 772.707C466.798 774.997 466.798 777.302 467.01 779.592Z" fill="#263238"/>
<path d="M469.101 779.592C469.313 777.302 469.313 774.997 469.101 772.707C468.889 774.997 468.889 777.302 469.101 779.592Z" fill="#263238"/>
<path d="M464.677 772.603C464.677 772.695 473.273 772.762 483.879 772.762C494.485 772.762 503.075 772.695 503.075 772.603C503.075 772.512 494.479 772.444 483.879 772.444C473.279 772.444 464.677 772.518 464.677 772.603Z" fill="#263238"/>
<path d="M461.556 779.593H499.776V786.533H461.556V779.593Z" fill="#710BFF"/>
<path d="M496.031 786.582C496.242 784.291 496.242 781.987 496.031 779.696C495.819 781.987 495.819 784.291 496.031 786.582Z" fill="#263238"/>
<path d="M498.101 786.582C498.314 784.286 498.314 781.975 498.101 779.679C497.889 781.969 497.889 784.274 498.101 786.564V786.582Z" fill="#263238"/>
<path d="M491.436 786.582C491.648 784.291 491.648 781.987 491.436 779.696C491.224 781.987 491.224 784.291 491.436 786.582Z" fill="#263238"/>
<path d="M493.526 786.582C493.738 784.291 493.738 781.987 493.526 779.696C493.314 781.987 493.314 784.291 493.526 786.582Z" fill="#263238"/>
<path d="M486.848 786.582C487.06 784.291 487.06 781.987 486.848 779.696C486.636 781.987 486.636 784.291 486.848 786.582Z" fill="#263238"/>
<path d="M488.938 786.582C489.151 784.286 489.151 781.975 488.938 779.679C488.726 781.969 488.726 784.274 488.938 786.564V786.582Z" fill="#263238"/>
<path d="M482.253 786.582C482.465 784.291 482.465 781.987 482.253 779.696C482.041 781.987 482.041 784.291 482.253 786.582Z" fill="#263238"/>
<path d="M484.343 786.582C484.555 784.291 484.555 781.987 484.343 779.696C484.131 781.987 484.131 784.291 484.343 786.582Z" fill="#263238"/>
<path d="M477.66 786.582C477.871 784.291 477.871 781.987 477.66 779.696C477.448 781.987 477.448 784.291 477.66 786.582Z" fill="#263238"/>
<path d="M479.773 786.582C479.986 784.286 479.986 781.975 479.773 779.679C479.561 781.969 479.561 784.274 479.773 786.564V786.582Z" fill="#263238"/>
<path d="M473.053 786.582C473.266 784.286 473.266 781.975 473.053 779.679C472.841 781.969 472.841 784.274 473.053 786.564V786.582Z" fill="#263238"/>
<path d="M475.16 786.582C475.372 784.291 475.372 781.987 475.16 779.696C474.949 781.987 474.949 784.291 475.16 786.582Z" fill="#263238"/>
<path d="M468.477 786.582C468.689 784.291 468.689 781.987 468.477 779.696C468.265 781.987 468.265 784.291 468.477 786.582Z" fill="#263238"/>
<path d="M470.567 786.582C470.779 784.291 470.779 781.987 470.567 779.696C470.355 781.987 470.355 784.291 470.567 786.582Z" fill="#263238"/>
<path d="M463.889 786.582C464.102 784.286 464.102 781.975 463.889 779.679C463.677 781.969 463.677 784.274 463.889 786.564V786.582Z" fill="#263238"/>
<path d="M465.978 786.582C466.19 784.291 466.19 781.987 465.978 779.696C465.758 781.986 465.758 784.292 465.978 786.582Z" fill="#263238"/>
<path d="M461.555 779.592C461.555 779.684 470.176 779.751 480.8 779.751C491.424 779.751 500.045 779.684 500.045 779.592C500.045 779.501 491.431 779.434 480.8 779.434C470.17 779.434 461.555 779.507 461.555 779.592Z" fill="#263238"/>
<path d="M464.548 786.479H502.769V793.419H464.548V786.479Z" fill="#710BFF"/>
<path d="M499.025 793.467C499.237 791.177 499.237 788.872 499.025 786.582C498.813 788.872 498.813 791.177 499.025 793.467Z" fill="#263238"/>
<path d="M501.114 793.467C501.325 791.177 501.325 788.872 501.114 786.582C500.902 788.872 500.902 791.177 501.114 793.467Z" fill="#263238"/>
<path d="M494.436 793.467C494.648 791.177 494.648 788.872 494.436 786.582C494.224 788.872 494.224 791.177 494.436 793.467Z" fill="#263238"/>
<path d="M496.526 793.467C496.738 791.177 496.738 788.872 496.526 786.582C496.314 788.872 496.314 791.177 496.526 793.467Z" fill="#263238"/>
<path d="M489.842 793.467C490.054 791.177 490.054 788.872 489.842 786.582C489.63 788.872 489.63 791.177 489.842 793.467Z" fill="#263238"/>
<path d="M491.932 793.467C492.144 791.177 492.144 788.872 491.932 786.582C491.72 788.872 491.72 791.177 491.932 793.467Z" fill="#263238"/>
<path d="M485.272 793.467C485.484 791.177 485.484 788.872 485.272 786.582C485.06 788.872 485.06 791.177 485.272 793.467Z" fill="#263238"/>
<path d="M487.338 793.467C487.55 791.177 487.55 788.872 487.338 786.582C487.126 788.872 487.126 791.177 487.338 793.467Z" fill="#263238"/>
<path d="M480.66 793.467C480.871 791.177 480.871 788.872 480.66 786.582C480.448 788.872 480.448 791.177 480.66 793.467Z" fill="#263238"/>
<path d="M482.749 793.467C482.961 791.177 482.961 788.872 482.749 786.582C482.538 788.872 482.538 791.177 482.749 793.467Z" fill="#263238"/>
<path d="M476.065 793.467C476.277 791.177 476.277 788.872 476.065 786.582C475.853 788.872 475.853 791.177 476.065 793.467Z" fill="#263238"/>
<path d="M478.155 793.467C478.366 791.177 478.366 788.872 478.155 786.582C477.943 788.872 477.943 791.177 478.155 793.467Z" fill="#263238"/>
<path d="M471.471 793.467C471.683 791.177 471.683 788.872 471.471 786.582C471.259 788.872 471.259 791.177 471.471 793.467Z" fill="#263238"/>
<path d="M473.566 793.467C473.778 791.177 473.778 788.872 473.566 786.582C473.346 788.872 473.346 791.178 473.566 793.467Z" fill="#263238"/>
<path d="M466.883 793.467C467.095 791.177 467.095 788.872 466.883 786.582C466.671 788.872 466.671 791.177 466.883 793.467Z" fill="#263238"/>
<path d="M468.972 793.467C469.184 791.177 469.184 788.872 468.972 786.582C468.76 788.872 468.76 791.177 468.972 793.467Z" fill="#263238"/>
<path d="M464.555 786.478C464.555 786.564 473.151 786.637 483.751 786.637C494.351 786.637 502.947 786.564 502.947 786.478C502.947 786.393 494.357 786.319 483.751 786.319C473.145 786.319 464.555 786.399 464.555 786.478Z" fill="#263238"/>
<path d="M460.719 793.517H498.939V800.457H460.719V793.517Z" fill="#710BFF"/>
<path d="M495.194 800.505C495.405 798.215 495.405 795.91 495.194 793.62C494.982 795.91 494.982 798.215 495.194 800.505Z" fill="#263238"/>
<path d="M497.284 800.505C497.495 798.215 497.495 795.91 497.284 793.62C497.072 795.91 497.072 798.215 497.284 800.505Z" fill="#263238"/>
<path d="M490.607 800.505C490.819 798.215 490.819 795.91 490.607 793.62C490.395 795.91 490.395 798.215 490.607 800.505Z" fill="#263238"/>
<path d="M492.696 800.505C492.907 798.215 492.907 795.91 492.696 793.62C492.484 795.91 492.484 798.215 492.696 800.505Z" fill="#263238"/>
<path d="M486.011 800.505C486.223 798.215 486.223 795.91 486.011 793.62C485.799 795.91 485.799 798.215 486.011 800.505Z" fill="#263238"/>
<path d="M488.101 800.505C488.313 798.215 488.313 795.91 488.101 793.62C487.889 795.91 487.889 798.215 488.101 800.505Z" fill="#263238"/>
<path d="M481.417 800.505C481.629 798.215 481.629 795.91 481.417 793.62C481.206 795.91 481.206 798.215 481.417 800.505Z" fill="#263238"/>
<path d="M483.513 800.505C483.725 798.215 483.725 795.91 483.513 793.62C483.293 795.91 483.293 798.216 483.513 800.505Z" fill="#263238"/>
<path d="M476.828 800.505C477.04 798.215 477.04 795.91 476.828 793.62C476.617 795.91 476.617 798.215 476.828 800.505Z" fill="#263238"/>
<path d="M478.918 800.505C479.13 798.215 479.13 795.91 478.918 793.62C478.706 795.91 478.706 798.215 478.918 800.505Z" fill="#263238"/>
<path d="M472.235 800.505C472.447 798.215 472.447 795.91 472.235 793.62C472.023 795.91 472.023 798.215 472.235 800.505Z" fill="#263238"/>
<path d="M474.324 800.505C474.535 798.215 474.535 795.91 474.324 793.62C474.112 795.91 474.112 798.215 474.324 800.505Z" fill="#263238"/>
<path d="M467.64 800.505C467.852 798.215 467.852 795.91 467.64 793.62C467.428 795.91 467.428 798.215 467.64 800.505Z" fill="#263238"/>
<path d="M469.736 800.505C469.947 798.215 469.947 795.91 469.736 793.62C469.524 795.91 469.524 798.215 469.736 800.505Z" fill="#263238"/>
<path d="M463.052 800.505C463.264 798.215 463.264 795.91 463.052 793.62C462.84 795.91 462.84 798.215 463.052 800.505Z" fill="#263238"/>
<path d="M465.112 800.505C465.323 798.215 465.323 795.91 465.112 793.62C464.9 795.91 464.9 798.215 465.112 800.505Z" fill="#263238"/>
<path d="M460.723 793.517C460.723 793.609 469.319 793.676 479.919 793.676C490.519 793.676 499.115 793.609 499.115 793.517C499.115 793.426 490.525 793.358 479.919 793.358C469.313 793.358 460.723 793.432 460.723 793.517Z" fill="#263238"/>
<g opacity="0.3">
<path opacity="0.3" d="M499.774 779.593C493.989 780.917 488.035 781.35 482.118 780.876C476.253 780.491 470.333 779.654 464.456 779.697L499.774 779.593Z" fill="black"/>
</g>
<g opacity="0.3">
<path opacity="0.3" d="M499.428 772.683C493.644 774.006 487.692 774.441 481.778 773.972C475.912 773.581 469.986 772.719 464.109 772.786L499.428 772.683Z" fill="black"/>
</g>
<g opacity="0.3">
<path opacity="0.3" d="M497.583 786.545C491.797 787.868 485.843 788.303 479.927 787.834C474.062 787.443 468.142 786.582 462.264 786.649L497.583 786.545Z" fill="black"/>
</g>
<g opacity="0.3">
<path opacity="0.3" d="M499.079 793.479C493.292 794.797 487.339 795.23 481.423 794.762C475.558 794.371 469.638 793.509 463.76 793.576L499.079 793.479Z" fill="black"/>
</g>
</svg>
