<svg width="174" height="155" viewBox="0 0 174 155" fill="none" xmlns="http://www.w3.org/2000/svg">
<path fill-rule="evenodd" clip-rule="evenodd" d="M119.505 87.63L57.5166 25.6412C42.6321 42.9098 43.3804 69.0039 59.7615 85.3851C76.1427 101.766 102.237 102.515 119.505 87.63Z" fill="#710BFF"/>
<path d="M124.253 83.054L78.4096 37.2103C91.0227 26.3603 110.196 27.0382 122.311 39.1528C134.425 51.2675 135.103 70.4409 124.253 83.054Z" fill="#710BFF" fill-opacity="0.24"/>
<path d="M9.49622 146.885C10.8776 146.885 12.1702 146.652 13.3742 146.185C14.5782 145.719 15.5489 145.019 16.2862 144.085C17.0329 143.152 17.4062 141.99 17.4062 140.599C17.4062 139.601 17.2196 138.775 16.8462 138.121C16.4822 137.459 16.0109 136.927 15.4322 136.525C14.8629 136.124 14.2702 135.811 13.6542 135.587C13.0476 135.363 12.4969 135.186 12.0022 135.055L8.39022 134.047C7.94222 133.926 7.49422 133.777 7.04622 133.599C6.59822 133.413 6.22489 133.165 5.92622 132.857C5.62755 132.54 5.47822 132.134 5.47822 131.639C5.47822 131.117 5.65089 130.659 5.99622 130.267C6.35089 129.875 6.81289 129.572 7.38222 129.357C7.96089 129.143 8.58622 129.045 9.25822 129.063C10.2942 129.091 11.2276 129.395 12.0582 129.973C12.8889 130.552 13.4116 131.373 13.6262 132.437L17.2522 131.807C16.8042 129.941 15.8849 128.499 14.4942 127.481C13.1036 126.455 11.3722 125.932 9.30022 125.913C7.93755 125.904 6.69622 126.123 5.57622 126.571C4.46555 127.01 3.57889 127.668 2.91622 128.545C2.26289 129.423 1.93622 130.51 1.93622 131.807C1.93622 132.694 2.08089 133.441 2.37022 134.047C2.66889 134.645 3.04689 135.135 3.50422 135.517C3.97089 135.9 4.46089 136.203 4.97422 136.427C5.49689 136.651 5.98222 136.829 6.43022 136.959L11.6382 138.499C13.1316 138.947 13.8782 139.722 13.8782 140.823C13.8782 141.439 13.6776 141.967 13.2762 142.405C12.8842 142.835 12.3709 143.161 11.7362 143.385C11.1016 143.609 10.4249 143.721 9.70622 143.721C8.49289 143.721 7.41955 143.395 6.48622 142.741C5.56222 142.088 4.95089 141.164 4.65222 139.969L1.15222 140.501C1.36689 141.817 1.85222 142.956 2.60822 143.917C3.37355 144.869 4.34422 145.602 5.52022 146.115C6.70555 146.629 8.03089 146.885 9.49622 146.885ZM27.3106 146.885C28.7666 146.885 30.0966 146.512 31.3006 145.765C32.5139 145.009 33.4099 143.945 33.9886 142.573L30.6566 141.565C29.9846 143.003 28.8039 143.721 27.1146 143.721C25.9666 143.721 25.0612 143.39 24.3986 142.727C23.7359 142.055 23.3392 141.094 23.2086 139.843H34.1566C34.2872 138.023 34.0866 136.446 33.5546 135.111C33.0226 133.777 32.2059 132.745 31.1046 132.017C30.0126 131.289 28.6826 130.925 27.1146 130.925C25.6306 130.925 24.3239 131.261 23.1946 131.933C22.0652 132.596 21.1832 133.539 20.5486 134.761C19.9139 135.984 19.5966 137.421 19.5966 139.073C19.5966 140.604 19.9186 141.957 20.5626 143.133C21.2159 144.309 22.1212 145.229 23.2786 145.891C24.4359 146.554 25.7799 146.885 27.3106 146.885ZM27.2546 133.879C28.2999 133.879 29.1026 134.155 29.6626 134.705C30.2319 135.247 30.5912 136.11 30.7406 137.295H23.2926C23.6939 135.018 25.0146 133.879 27.2546 133.879ZM37.5603 146.465H40.9343V125.885H37.5603V146.465ZM45.408 146.465H48.782V125.885H45.408V146.465ZM59.8496 146.885C61.3056 146.885 62.6356 146.512 63.8396 145.765C65.053 145.009 65.949 143.945 66.5276 142.573L63.1956 141.565C62.5236 143.003 61.343 143.721 59.6536 143.721C58.5056 143.721 57.6003 143.39 56.9376 142.727C56.275 142.055 55.8783 141.094 55.7476 139.843H66.6956C66.8263 138.023 66.6256 136.446 66.0936 135.111C65.5616 133.777 64.745 132.745 63.6436 132.017C62.5516 131.289 61.2216 130.925 59.6536 130.925C58.1696 130.925 56.863 131.261 55.7336 131.933C54.6043 132.596 53.7223 133.539 53.0876 134.761C52.453 135.984 52.1356 137.421 52.1356 139.073C52.1356 140.604 52.4576 141.957 53.1016 143.133C53.755 144.309 54.6603 145.229 55.8176 145.891C56.975 146.554 58.319 146.885 59.8496 146.885ZM59.7936 133.879C60.839 133.879 61.6416 134.155 62.2016 134.705C62.771 135.247 63.1303 136.11 63.2796 137.295H55.8316C56.233 135.018 57.5536 133.879 59.7936 133.879ZM69.8194 146.465H73.2074V138.779C73.2074 137.902 73.366 137.123 73.6834 136.441C74.01 135.76 74.5187 135.233 75.2094 134.859C75.676 134.589 76.1987 134.43 76.7774 134.383C77.356 134.327 77.874 134.365 78.3314 134.495V131.345C77.65 131.243 76.95 131.257 76.2314 131.387C75.5127 131.509 74.8734 131.761 74.3134 132.143C73.996 132.339 73.7114 132.577 73.4594 132.857C73.2074 133.128 72.988 133.431 72.8014 133.767V131.345H69.8194V146.465ZM86.6084 146.465H99.6284V143.301H89.9824V137.603H97.9484V134.439H89.9824V129.469H99.6284V126.305H86.6084V146.465ZM101.307 146.465H105.283L108.797 141.467L112.283 146.465H116.259L110.701 138.821L116.119 131.345H112.143L108.797 136.175L105.395 131.345H101.419L106.837 138.821L101.307 146.465ZM118.463 153.185H121.865V145.695C122.379 146.069 122.957 146.358 123.601 146.563C124.255 146.778 124.973 146.885 125.757 146.885C127.157 146.885 128.371 146.535 129.397 145.835C130.433 145.135 131.236 144.183 131.805 142.979C132.375 141.775 132.659 140.417 132.659 138.905C132.659 137.375 132.37 136.007 131.791 134.803C131.222 133.599 130.41 132.652 129.355 131.961C128.301 131.271 127.059 130.925 125.631 130.925C124.773 130.925 123.993 131.056 123.293 131.317C122.593 131.579 121.977 131.952 121.445 132.437V131.345H118.463V153.185ZM125.239 143.861C123.886 143.861 122.915 143.404 122.327 142.489C121.739 141.565 121.445 140.371 121.445 138.905C121.445 137.431 121.735 136.236 122.313 135.321C122.901 134.407 123.839 133.949 125.127 133.949C126.033 133.949 126.775 134.173 127.353 134.621C127.941 135.06 128.375 135.657 128.655 136.413C128.945 137.16 129.089 137.991 129.089 138.905C129.089 139.829 128.949 140.665 128.669 141.411C128.399 142.158 127.979 142.755 127.409 143.203C126.84 143.642 126.117 143.861 125.239 143.861ZM142.619 146.885C144.075 146.885 145.405 146.512 146.609 145.765C147.822 145.009 148.718 143.945 149.297 142.573L145.965 141.565C145.293 143.003 144.112 143.721 142.423 143.721C141.275 143.721 140.37 143.39 139.707 142.727C139.044 142.055 138.648 141.094 138.517 139.843H149.465C149.596 138.023 149.395 136.446 148.863 135.111C148.331 133.777 147.514 132.745 146.413 132.017C145.321 131.289 143.991 130.925 142.423 130.925C140.939 130.925 139.632 131.261 138.503 131.933C137.374 132.596 136.492 133.539 135.857 134.761C135.222 135.984 134.905 137.421 134.905 139.073C134.905 140.604 135.227 141.957 135.871 143.133C136.524 144.309 137.43 145.229 138.587 145.891C139.744 146.554 141.088 146.885 142.619 146.885ZM142.563 133.879C143.608 133.879 144.411 134.155 144.971 134.705C145.54 135.247 145.9 136.11 146.049 137.295H138.601C139.002 135.018 140.323 133.879 142.563 133.879ZM152.589 146.465H155.977V138.779C155.977 137.902 156.136 137.123 156.453 136.441C156.78 135.76 157.288 135.233 157.979 134.859C158.446 134.589 158.968 134.43 159.547 134.383C160.126 134.327 160.644 134.365 161.101 134.495V131.345C160.42 131.243 159.72 131.257 159.001 131.387C158.282 131.509 157.643 131.761 157.083 132.143C156.766 132.339 156.481 132.577 156.229 132.857C155.977 133.128 155.758 133.431 155.571 133.767V131.345H152.589V146.465ZM172.635 146.465V143.637C171.692 143.777 170.852 143.815 170.115 143.749C169.377 143.684 168.841 143.371 168.505 142.811C168.327 142.522 168.229 142.149 168.211 141.691C168.201 141.225 168.197 140.693 168.197 140.095V133.991H172.635V131.345H168.197V127.145H164.837V131.345H162.093V133.991H164.837V140.291C164.837 141.159 164.846 141.934 164.865 142.615C164.883 143.287 165.065 143.95 165.41 144.603C165.803 145.322 166.377 145.849 167.133 146.185C167.889 146.512 168.743 146.685 169.695 146.703C170.656 146.731 171.636 146.652 172.635 146.465Z" fill="#2F3640"/>
</svg>
