<svg width="288" height="302" viewBox="0 0 288 302" fill="none" xmlns="http://www.w3.org/2000/svg">
<mask id="path-1-inside-1" fill="white">
<path fill-rule="evenodd" clip-rule="evenodd" d="M138 19C155.229 19 171.217 24.3135 184.414 33.3912C201.749 12.9637 227.61 0 256.5 0C308.691 0 351 42.3091 351 94.5C351 145.894 309.974 187.705 258.885 188.97C258.961 190.637 259 192.314 259 194C259 253.647 210.647 302 151 302C97.3996 302 52.9191 262.953 44.452 211.752C42.4897 211.916 40.5046 212 38.5 212C-0.436075 212 -32 180.436 -32 141.5C-32 102.564 -0.436075 71 38.5 71C46.1411 71 53.4983 72.2156 60.3888 74.4641C71.4174 42.1996 101.999 19 138 19Z"/>
</mask>
<path fill-rule="evenodd" clip-rule="evenodd" d="M138 19C155.229 19 171.217 24.3135 184.414 33.3912C201.749 12.9637 227.61 0 256.5 0C308.691 0 351 42.3091 351 94.5C351 145.894 309.974 187.705 258.885 188.97C258.961 190.637 259 192.314 259 194C259 253.647 210.647 302 151 302C97.3996 302 52.9191 262.953 44.452 211.752C42.4897 211.916 40.5046 212 38.5 212C-0.436075 212 -32 180.436 -32 141.5C-32 102.564 -0.436075 71 38.5 71C46.1411 71 53.4983 72.2156 60.3888 74.4641C71.4174 42.1996 101.999 19 138 19Z" fill="url(#paint0_radial)" fill-opacity="0.24"/>
<path d="M184.414 33.3912L183.848 34.2151L184.592 34.7272L185.177 34.0382L184.414 33.3912ZM258.885 188.97L258.86 187.971L257.839 187.996L257.886 189.016L258.885 188.97ZM44.452 211.752L45.4386 211.589L45.2881 210.679L44.3687 210.756L44.452 211.752ZM60.3888 74.4641L60.0786 75.4147L61.016 75.7206L61.335 74.7875L60.3888 74.4641ZM184.981 32.5672C171.622 23.3786 155.438 18 138 18V20C155.02 20 170.812 25.2484 183.848 34.2151L184.981 32.5672ZM256.5 -1C227.304 -1 201.168 12.1023 183.652 32.7441L185.177 34.0382C202.329 13.825 227.916 1 256.5 1V-1ZM352 94.5C352 41.7568 309.243 -1 256.5 -1V1C308.139 1 350 42.8614 350 94.5H352ZM258.91 189.97C310.54 188.691 352 146.438 352 94.5H350C350 145.35 309.408 186.719 258.86 187.971L258.91 189.97ZM260 194C260 192.299 259.961 190.607 259.884 188.925L257.886 189.016C257.962 190.668 258 192.329 258 194H260ZM151 303C211.199 303 260 254.199 260 194H258C258 253.094 210.094 301 151 301V303ZM43.4654 211.915C52.011 263.591 96.9023 303 151 303V301C97.8969 301 53.8272 262.315 45.4386 211.589L43.4654 211.915ZM38.5 213C40.5325 213 42.5454 212.915 44.5353 212.749L44.3687 210.756C42.4341 210.917 40.4768 211 38.5 211V213ZM-33 141.5C-33 180.988 -0.988359 213 38.5 213V211C0.116211 211 -31 179.884 -31 141.5H-33ZM38.5 70C-0.988359 70 -33 102.012 -33 141.5H-31C-31 103.116 0.116211 72 38.5 72V70ZM60.699 73.5134C53.7096 71.2327 46.2478 70 38.5 70V72C46.0345 72 53.287 73.1986 60.0786 75.4147L60.699 73.5134ZM138 18C101.559 18 70.6052 41.4839 59.4425 74.1406L61.335 74.7875C72.2296 42.9153 102.44 20 138 20V18Z" fill="url(#paint1_radial)" mask="url(#path-1-inside-1)"/>
<defs>
<radialGradient id="paint0_radial" cx="0" cy="0" r="1" gradientUnits="userSpaceOnUse" gradientTransform="translate(121 28.5) rotate(50.4735) scale(144.555)">
<stop stop-color="white"/>
<stop offset="1" stop-color="white" stop-opacity="0"/>
</radialGradient>
<radialGradient id="paint1_radial" cx="0" cy="0" r="1" gradientUnits="userSpaceOnUse" gradientTransform="translate(106 64) rotate(55.7231) scale(108.311)">
<stop stop-color="white"/>
<stop offset="1" stop-color="white" stop-opacity="0"/>
</radialGradient>
</defs>
</svg>
