<svg width="52" height="45" viewBox="0 0 52 45" fill="none" xmlns="http://www.w3.org/2000/svg">
<path d="M0.400391 25.6996C0.400391 24.8509 0.737532 24.037 1.33765 23.4369C1.93777 22.8368 2.7517 22.4996 3.60039 22.4996H10.0004C10.8491 22.4996 11.663 22.8368 12.2631 23.4369C12.8632 24.037 13.2004 24.8509 13.2004 25.6996V41.6996C13.2004 42.5483 12.8632 43.3622 12.2631 43.9624C11.663 44.5625 10.8491 44.8996 10.0004 44.8996H3.60039C2.7517 44.8996 1.93777 44.5625 1.33765 43.9624C0.737532 43.3622 0.400391 42.5483 0.400391 41.6996V25.6996ZM19.6004 12.8996C19.6004 12.0509 19.9375 11.237 20.5376 10.6369C21.1378 10.0368 21.9517 9.69961 22.8004 9.69961H29.2004C30.0491 9.69961 30.863 10.0368 31.4631 10.6369C32.0632 11.237 32.4004 12.0509 32.4004 12.8996V41.6996C32.4004 42.5483 32.0632 43.3622 31.4631 43.9624C30.863 44.5625 30.0491 44.8996 29.2004 44.8996H22.8004C21.9517 44.8996 21.1378 44.5625 20.5376 43.9624C19.9375 43.3622 19.6004 42.5483 19.6004 41.6996V12.8996ZM38.8004 3.29961C38.8004 2.45092 39.1375 1.63698 39.7376 1.03687C40.3378 0.436751 41.1517 0.0996094 42.0004 0.0996094H48.4004C49.2491 0.0996094 50.063 0.436751 50.6631 1.03687C51.2632 1.63698 51.6004 2.45092 51.6004 3.29961V41.6996C51.6004 42.5483 51.2632 43.3622 50.6631 43.9624C50.063 44.5625 49.2491 44.8996 48.4004 44.8996H42.0004C41.1517 44.8996 40.3378 44.5625 39.7376 43.9624C39.1375 43.3622 38.8004 42.5483 38.8004 41.6996V3.29961Z" fill="#C8CFD9"/>
</svg>
