<svg width="227" height="224" viewBox="0 0 227 224" fill="none" xmlns="http://www.w3.org/2000/svg">
<path d="M201.829 93.4438C201.829 111.436 195.831 128.12 185.779 141.532C180.267 148.729 173.62 155.108 166.001 160.015C153.68 168.193 138.927 172.936 123.039 172.936C79.4297 172.936 44.0879 137.279 44.0879 93.4438C44.0879 49.4448 79.4297 13.9512 122.877 13.9512C138.765 13.9512 153.518 18.6946 165.839 26.7092C173.458 31.6162 180.105 37.9952 185.617 45.1921C195.831 58.768 201.829 75.4516 201.829 93.4438Z" fill="#EAEEF9"/>
<path d="M211.07 69.2367C213.502 66.9467 213.664 63.1847 211.394 60.7313C209.125 58.2778 205.396 58.1142 202.802 60.4041C200.37 62.694 200.208 66.456 202.478 68.9095C204.747 71.1994 208.638 71.363 211.07 69.2367Z" fill="#EAEEF9"/>
<g filter="url(#filter0_d)">
<path d="M106.414 70.3999L61.1179 101.902C58.4977 103.707 54.9277 103.084 53.0936 100.459L23.0271 57.0441C21.2258 54.4189 21.8481 50.842 24.4682 49.0044L69.7644 17.5018C72.3846 15.6969 75.9546 16.3204 77.7887 18.9456L107.888 62.3602C109.689 64.9854 109.034 68.5951 106.414 70.3999Z" fill="white"/>
</g>
<path d="M99.4046 65.6415L59.578 93.3375C58.4644 94.1251 56.9251 93.8298 56.139 92.7141L31.2802 56.8142C30.4941 55.6985 30.7889 54.1562 31.9025 53.3686L71.729 25.6726C72.8426 24.885 74.382 25.1804 75.168 26.2961L100.027 62.1959C100.813 63.3116 100.518 64.854 99.4046 65.6415Z" fill="#E6ECF5"/>
<path d="M70.8779 65.3462L56.3359 75.4532L57.8753 62.1631L70.8779 65.3462Z" fill="#B7C0CC"/>
<path d="M82.8983 56.9783L61.9697 71.5483L64.1969 52.417L82.8983 56.9783Z" fill="#CED7E2"/>
<path d="M52.1112 60.9814C53.9563 60.9814 55.4519 59.4828 55.4519 57.6343C55.4519 55.7857 53.9563 54.2871 52.1112 54.2871C50.2662 54.2871 48.7705 55.7857 48.7705 57.6343C48.7705 59.4828 50.2662 60.9814 52.1112 60.9814Z" fill="#FA4F9A"/>
<g filter="url(#filter1_d)">
<path d="M161.273 97.2095L119.187 61.5065C116.763 59.4392 116.468 55.7967 118.499 53.3684L152.594 13.0385C154.657 10.6101 158.293 10.3148 160.717 12.3493L202.803 48.0523C205.227 50.1196 205.521 53.7621 203.491 56.1905L169.396 96.5203C167.333 98.9487 163.697 99.244 161.273 97.2095Z" fill="white"/>
</g>
<path d="M164.058 89.2024L127.048 57.831C126 56.945 125.869 55.4027 126.753 54.3526L154.92 21.0124C155.804 19.9623 157.344 19.831 158.392 20.717L195.402 52.0884C196.45 52.9744 196.581 54.5167 195.696 55.5668L167.529 88.907C166.645 89.9571 165.106 90.0884 164.058 89.2024Z" fill="#E6ECF5"/>
<path d="M156.95 61.4736L143.456 50.0211L156.688 48.085L156.95 61.4736Z" fill="#B7C0CC"/>
<path d="M168.151 70.9569L148.696 54.4508L167.725 51.6943L168.151 70.9569Z" fill="#CED7E2"/>
<path d="M159.57 44.705C161.415 44.705 162.911 43.2065 162.911 41.3579C162.911 39.5093 161.415 38.0107 159.57 38.0107C157.725 38.0107 156.229 39.5093 156.229 41.3579C156.229 43.2065 157.725 44.705 159.57 44.705Z" fill="url(#paint0_linear)"/>
<g filter="url(#filter2_d)">
<path d="M166.023 166.122L116.502 190.405C113.652 191.816 110.213 190.635 108.805 187.747L85.6166 140.296C84.2082 137.441 85.3873 133.996 88.2695 132.585L137.791 108.301C140.64 106.89 144.079 108.072 145.487 110.959L168.676 158.443C170.052 161.265 168.872 164.711 166.023 166.122Z" fill="white"/>
</g>
<path d="M159.8 160.379L116.239 181.741C115.027 182.332 113.521 181.84 112.931 180.593L93.7385 141.346C93.149 140.132 93.6402 138.622 94.8848 138.031L138.445 116.669C139.657 116.078 141.164 116.57 141.753 117.817L160.946 157.064C161.535 158.278 161.044 159.755 159.8 160.379Z" fill="#E6ECF5"/>
<path d="M131.633 155.752L115.748 163.562L119.285 150.633L131.633 155.752Z" fill="#B7C0CC"/>
<path d="M144.799 149.287L121.905 160.543L127.015 141.937L144.799 149.287Z" fill="#CED7E2"/>
<path d="M114.274 148.631C116.119 148.631 117.615 147.132 117.615 145.284C117.615 143.435 116.119 141.937 114.274 141.937C112.429 141.937 110.934 143.435 110.934 145.284C110.934 147.132 112.429 148.631 114.274 148.631Z" fill="url(#paint1_linear)"/>
<path d="M124.068 75.8139C128.68 75.8139 132.419 72.0675 132.419 67.446C132.419 62.8246 128.68 59.0781 124.068 59.0781C119.455 59.0781 115.716 62.8246 115.716 67.446C115.716 72.0675 119.455 75.8139 124.068 75.8139Z" fill="#7F52FF"/>
<path d="M102.549 68.1025L100.682 64.1319C100.518 63.7381 100.354 63.3443 100.158 62.9834C98.029 59.0127 93.8367 56.2891 89.0221 56.2891C84.5678 56.2891 80.6703 58.5861 78.4104 62.0974L74.7422 67.0196L76.4781 67.479C76.4125 67.9713 76.3798 68.4963 76.3798 68.9885C76.3798 75.9782 82.0459 81.6552 89.0221 81.6552C95.9983 81.6552 101.664 75.9782 101.664 68.9885C101.664 68.7588 101.664 68.5291 101.632 68.2994L102.549 68.1025Z" fill="#7F52FF"/>
<path d="M145.586 68.1019L147.453 64.1641C147.617 63.7703 147.78 63.3766 147.977 63.0156C150.106 59.0449 154.298 56.3213 159.113 56.3213C163.567 56.3213 167.464 58.6184 169.724 62.1296L173.392 67.019L171.657 67.4785C171.722 67.9707 171.755 68.4957 171.755 68.988C171.755 75.9776 166.089 81.6546 159.113 81.6546C152.136 81.6546 146.47 75.9776 146.47 68.988C146.47 68.7582 146.47 68.5285 146.503 68.2988L145.586 68.1019Z" fill="#7F52FF"/>
<g filter="url(#filter3_d)">
<path d="M192.847 109.712C192.847 114.536 191.34 110.795 191.34 110.795L180.008 93.5343L146.372 103.444L139.526 105.446L124.1 90.0887L108.674 105.446L68.1924 93.5343L56.8601 110.795C56.8601 110.795 55.3535 114.503 55.3535 109.712C55.3535 98.6206 63.3123 82.7381 70.4195 70.8918C73.5965 65.5757 79.5573 62.7208 85.5837 62.2614C89.907 61.9333 94.8198 62.6224 98.5208 64.9851C99.3069 65.4773 100.813 66.9868 101.829 66.8227C107.364 65.9695 113.194 64.7225 117.517 63.7381C121.939 62.7208 126.524 62.7208 130.913 63.7709C135.17 64.7554 140.869 66.0023 146.372 66.8555C147.387 67.0196 148.894 65.5429 149.68 65.0179C153.381 62.6224 158.293 61.9333 162.617 62.2942C168.643 62.7536 174.604 65.5757 177.781 70.9246C184.888 82.7709 192.847 98.6206 192.847 109.712Z" fill="url(#paint2_linear)"/>
</g>
<path opacity="0.2" d="M169.757 88.2508L146.339 103.477L139.494 105.479L124.067 90.1212V74.1074C130.061 74.1074 140.05 78.5375 144.013 82.4753C149.45 77.9796 157.638 73.5496 169.757 75.8138C181.875 78.0452 169.757 88.2508 169.757 88.2508Z" fill="url(#paint3_linear)"/>
<path opacity="0.2" d="M78.3781 88.2508L101.796 103.477L108.641 105.479L124.067 90.1212V74.1074C118.074 74.1074 108.084 78.5375 104.121 82.4753C98.6844 77.9796 90.4964 73.5496 78.3781 75.8138C66.2598 78.0452 78.3781 88.2508 78.3781 88.2508Z" fill="url(#paint4_linear)"/>
<path d="M124.068 94.059C128.68 94.059 132.419 90.3126 132.419 85.6911C132.419 81.0697 128.68 77.3232 124.068 77.3232C119.455 77.3232 115.716 81.0697 115.716 85.6911C115.716 90.3126 119.455 94.059 124.068 94.059Z" fill="#8053FF"/>
<path d="M83.2584 140.131C98.706 140.131 111.229 127.585 111.229 112.107C111.229 96.6299 98.706 84.083 83.2584 84.083C67.8108 84.083 55.2881 96.6299 55.2881 112.107C55.2881 127.585 67.8108 140.131 83.2584 140.131Z" fill="#B6A4FF"/>
<path d="M83.2586 133.011C94.781 133.011 104.122 123.652 104.122 112.107C104.122 100.563 94.781 91.2041 83.2586 91.2041C71.7362 91.2041 62.3955 100.563 62.3955 112.107C62.3955 123.652 71.7362 133.011 83.2586 133.011Z" fill="url(#paint5_linear)"/>
<path d="M83.2585 125.069C92.5922 125.069 100.159 117.488 100.159 108.137C100.159 98.7851 92.5922 91.2041 83.2585 91.2041C73.9248 91.2041 66.3584 98.7851 66.3584 108.137C66.3584 117.488 73.9248 125.069 83.2585 125.069Z" fill="#7F52FF"/>
<path opacity="0.4" d="M72.1226 109.449C71.402 109.449 70.8125 108.859 70.8125 108.137C70.8125 101.246 76.4131 95.667 83.2583 95.667C83.9789 95.667 84.5684 96.2577 84.5684 96.9796C84.5684 97.7015 83.9789 98.2922 83.2583 98.2922C77.8215 98.2922 73.4327 102.722 73.4327 108.137C73.4327 108.859 72.8431 109.449 72.1226 109.449Z" fill="white"/>
<path d="M164.877 140.131C180.324 140.131 192.847 127.585 192.847 112.107C192.847 96.6299 180.324 84.083 164.877 84.083C149.429 84.083 136.906 96.6299 136.906 112.107C136.906 127.585 149.429 140.131 164.877 140.131Z" fill="#B6A4FF"/>
<path d="M164.877 133.011C176.399 133.011 185.74 123.652 185.74 112.107C185.74 100.563 176.399 91.2041 164.877 91.2041C153.354 91.2041 144.014 100.563 144.014 112.107C144.014 123.652 153.354 133.011 164.877 133.011Z" fill="url(#paint6_linear)"/>
<path d="M164.877 125.069C174.21 125.069 181.777 117.488 181.777 108.137C181.777 98.7851 174.21 91.2041 164.877 91.2041C155.543 91.2041 147.977 98.7851 147.977 108.137C147.977 117.488 155.543 125.069 164.877 125.069Z" fill="#7F52FF"/>
<path opacity="0.4" d="M165.598 96.9796C165.598 96.2577 165.008 95.667 164.288 95.667C157.41 95.667 151.842 101.278 151.842 108.137C151.842 108.859 152.431 109.449 153.152 109.449C153.872 109.449 154.462 108.859 154.462 108.137C154.462 102.689 158.884 98.2922 164.288 98.2922C165.008 98.2922 165.598 97.7015 165.598 96.9796Z" fill="white"/>
<defs>
<filter id="filter0_d" x="0" y="5.47266" width="130.904" height="130.459" filterUnits="userSpaceOnUse" color-interpolation-filters="sRGB">
<feFlood flood-opacity="0" result="BackgroundImageFix"/>
<feColorMatrix in="SourceAlpha" type="matrix" values="0 0 0 0 0 0 0 0 0 0 0 0 0 0 0 0 0 0 127 0" result="hardAlpha"/>
<feOffset dy="11"/>
<feGaussianBlur stdDeviation="11"/>
<feColorMatrix type="matrix" values="0 0 0 0 0.397708 0 0 0 0 0.47749 0 0 0 0 0.575 0 0 0 0.18 0"/>
<feBlend mode="normal" in2="BackgroundImageFix" result="effect1_dropShadow"/>
<feBlend mode="normal" in="SourceGraphic" in2="effect1_dropShadow" result="shape"/>
</filter>
<filter id="filter1_d" x="95.1523" y="0" width="131.685" height="131.559" filterUnits="userSpaceOnUse" color-interpolation-filters="sRGB">
<feFlood flood-opacity="0" result="BackgroundImageFix"/>
<feColorMatrix in="SourceAlpha" type="matrix" values="0 0 0 0 0 0 0 0 0 0 0 0 0 0 0 0 0 0 127 0" result="hardAlpha"/>
<feOffset dy="11"/>
<feGaussianBlur stdDeviation="11"/>
<feColorMatrix type="matrix" values="0 0 0 0 0.397708 0 0 0 0 0.47749 0 0 0 0 0.575 0 0 0 0.18 0"/>
<feBlend mode="normal" in2="BackgroundImageFix" result="effect1_dropShadow"/>
<feBlend mode="normal" in="SourceGraphic" in2="effect1_dropShadow" result="shape"/>
</filter>
<filter id="filter2_d" x="63.0225" y="96.7061" width="128.228" height="127.294" filterUnits="userSpaceOnUse" color-interpolation-filters="sRGB">
<feFlood flood-opacity="0" result="BackgroundImageFix"/>
<feColorMatrix in="SourceAlpha" type="matrix" values="0 0 0 0 0 0 0 0 0 0 0 0 0 0 0 0 0 0 127 0" result="hardAlpha"/>
<feOffset dy="11"/>
<feGaussianBlur stdDeviation="11"/>
<feColorMatrix type="matrix" values="0 0 0 0 0.397708 0 0 0 0 0.47749 0 0 0 0 0.575 0 0 0 0.18 0"/>
<feBlend mode="normal" in2="BackgroundImageFix" result="effect1_dropShadow"/>
<feBlend mode="normal" in="SourceGraphic" in2="effect1_dropShadow" result="shape"/>
</filter>
<filter id="filter3_d" x="47.3535" y="59.1846" width="153.493" height="65.9934" filterUnits="userSpaceOnUse" color-interpolation-filters="sRGB">
<feFlood flood-opacity="0" result="BackgroundImageFix"/>
<feColorMatrix in="SourceAlpha" type="matrix" values="0 0 0 0 0 0 0 0 0 0 0 0 0 0 0 0 0 0 127 0" result="hardAlpha"/>
<feOffset dy="5"/>
<feGaussianBlur stdDeviation="4"/>
<feColorMatrix type="matrix" values="0 0 0 0 0.1125 0 0 0 0 0.295916 0 0 0 0 1 0 0 0 0.22 0"/>
<feBlend mode="normal" in2="BackgroundImageFix" result="effect1_dropShadow"/>
<feBlend mode="normal" in="SourceGraphic" in2="effect1_dropShadow" result="shape"/>
</filter>
<linearGradient id="paint0_linear" x1="156.212" y1="41.3426" x2="162.908" y2="41.3426" gradientUnits="userSpaceOnUse">
<stop stop-color="#FF66A9"/>
<stop offset="1" stop-color="#F53689"/>
</linearGradient>
<linearGradient id="paint1_linear" x1="110.921" y1="145.282" x2="117.617" y2="145.282" gradientUnits="userSpaceOnUse">
<stop stop-color="#FF66A9"/>
<stop offset="1" stop-color="#F53689"/>
</linearGradient>
<linearGradient id="paint2_linear" x1="114.221" y1="83.3368" x2="161.05" y2="141.56" gradientUnits="userSpaceOnUse">
<stop stop-color="#A077FF"/>
<stop offset="1" stop-color="#715AFF"/>
</linearGradient>
<linearGradient id="paint3_linear" x1="164.551" y1="84.3694" x2="126.475" y2="92.1141" gradientUnits="userSpaceOnUse">
<stop offset="0.00289017" stop-color="white" stop-opacity="0"/>
<stop offset="1" stop-color="white"/>
</linearGradient>
<linearGradient id="paint4_linear" x1="77.6536" y1="84.3694" x2="121.738" y2="77.8135" gradientUnits="userSpaceOnUse">
<stop offset="0.00289017" stop-color="white" stop-opacity="0"/>
<stop offset="1" stop-color="white"/>
</linearGradient>
<linearGradient id="paint5_linear" x1="95.308" y1="136.295" x2="56.0883" y2="114.625" gradientUnits="userSpaceOnUse">
<stop stop-color="#A178FF"/>
<stop offset="1" stop-color="#885EFF"/>
</linearGradient>
<linearGradient id="paint6_linear" x1="183.277" y1="128.518" x2="141.614" y2="121.664" gradientUnits="userSpaceOnUse">
<stop stop-color="#AB83FF"/>
<stop offset="1" stop-color="#855AFF"/>
</linearGradient>
</defs>
</svg>
