<svg width="157" height="134" viewBox="0 0 157 134" fill="none" xmlns="http://www.w3.org/2000/svg">
<path d="M134.943 63.915C134.943 75.8767 130.892 86.9684 124.105 95.8853C120.383 100.67 115.895 104.911 110.75 108.173C102.43 113.61 92.4687 116.764 81.7407 116.764C52.2936 116.655 28.4294 92.9493 28.4294 63.8062C28.4294 34.5544 52.2936 10.9573 81.6313 10.9573C92.3592 10.9573 102.321 14.1108 110.641 19.4392C115.786 22.7015 120.274 26.9424 123.996 31.7271C130.892 40.8615 134.943 51.9533 134.943 63.915Z" fill="#EAEEF9"/>
<path d="M26.5246 102.113C27.5099 102.113 28.3856 101.352 28.3856 100.265C28.3856 99.286 27.6193 98.416 26.5246 98.416C25.5394 98.416 24.6637 99.1772 24.6637 100.265C24.6637 101.243 25.5394 102.113 26.5246 102.113Z" fill="url(#paint0_linear)"/>
<path d="M126.133 23.9547C127.051 23.9547 127.867 23.2408 127.867 22.2209C127.867 21.303 127.153 20.4871 126.133 20.4871C125.216 20.4871 124.4 21.201 124.4 22.2209C124.4 23.1388 125.216 23.9547 126.133 23.9547Z" fill="url(#paint1_linear)"/>
<path d="M108.013 109.261C108.013 113.284 104.729 116.655 100.57 116.655H60.8323C56.7819 116.655 53.3884 113.393 53.3884 109.261V16.3945C53.3884 12.371 56.6725 9 60.8323 9H100.898C104.948 9 108.342 12.2623 108.342 16.3945V109.369H108.013V109.261Z" fill="white"/>
<path d="M100.788 9C104.839 9 108.232 12.2623 108.232 16.3945V109.587C108.232 113.61 104.948 116.981 100.788 116.981H60.8323C56.7819 116.981 53.3884 113.719 53.3884 109.587V16.3945C53.3884 12.371 56.6725 9 60.8323 9H100.788Z" fill="#1C3754"/>
<path d="M104.401 16.0683V109.261C104.401 110.674 103.635 111.762 102.54 112.414C101.993 112.632 101.446 112.849 100.789 112.849H60.8325C60.3946 112.849 59.9568 112.741 59.5189 112.632C58.0958 112.197 57.22 110.892 57.22 109.261V16.3945C57.22 14.7634 58.2053 13.5672 59.5189 13.0235C59.9568 12.9147 60.3946 12.806 60.8325 12.806H66.7439C67.5101 12.806 68.0575 13.3497 68.0575 14.1109C68.0575 15.6333 69.3711 16.9382 70.9037 16.9382H91.1554C92.688 16.9382 94.0016 15.6333 94.0016 14.1109C94.0016 13.3497 94.549 12.806 95.3153 12.806H100.898V12.5885C101.555 12.5885 102.102 12.6972 102.65 13.0235C103.635 13.5672 104.401 14.6546 104.401 16.0683Z" fill="white"/>
<path d="M84.2587 13.7847H78.8947C78.3474 13.7847 78.1285 13.241 78.1285 13.0235C78.1285 12.4798 78.6758 12.2623 78.8947 12.2623H84.2587C84.8061 12.2623 85.025 12.806 85.025 13.0235C85.025 13.5672 84.8061 13.7847 84.2587 13.7847Z" fill="#2D5887"/>
<path d="M75.8298 13.7847H75.6108C75.0635 13.7847 74.8445 13.241 74.8445 13.0235C74.8445 12.4798 75.3919 12.2623 75.6108 12.2623H75.8298C76.3771 12.2623 76.596 12.806 76.596 13.0235C76.596 13.5672 76.3771 13.7847 75.8298 13.7847Z" fill="#2D5887"/>
<g filter="url(#filter0_d)">
<path d="M56.4353 90.0183H26.4408C24.0325 90.0183 22.0621 88.061 22.0621 85.6686V49.2398C22.0621 46.8475 24.0325 44.8901 26.4408 44.8901H56.4353C58.8436 44.8901 60.8141 46.8475 60.8141 49.2398V85.6686C60.9236 88.061 58.9531 90.0183 56.4353 90.0183Z" fill="white"/>
</g>
<path d="M48.7728 77.513H27.9737C27.3169 77.513 26.879 76.9693 26.879 76.4256C26.879 75.7731 27.4263 75.3381 27.9737 75.3381H48.8823C49.5391 75.3381 49.977 75.8819 49.977 76.4256C49.8675 76.9693 49.4296 77.513 48.7728 77.513Z" fill="#CED7E2"/>
<path d="M37.1691 83.7112H27.9737C27.3169 83.7112 26.879 83.1675 26.879 82.6238C26.879 82.0801 27.4263 81.5364 27.9737 81.5364H37.1691C37.8259 81.5364 38.2638 82.0801 38.2638 82.6238C38.1543 83.2763 37.7164 83.7112 37.1691 83.7112Z" fill="#CED7E2"/>
<path d="M52.166 55.2206C52.0565 55.1118 51.947 55.0031 51.8375 55.0031C50.5239 53.9157 49.3198 52.8283 48.0061 51.8496C47.8967 51.7408 47.6777 51.6321 47.4588 51.6321C46.4736 51.6321 45.4883 51.6321 44.5031 51.6321C44.0652 51.6321 43.8463 51.8496 43.8463 52.2845C43.7368 53.2632 42.9706 54.1332 41.9853 54.1332C40.8906 54.1332 40.0149 53.372 39.9054 52.3933C39.796 51.4146 39.577 51.7408 36.5119 51.6321C36.1835 51.6321 35.9645 51.7408 35.6361 51.9583C34.3225 53.0457 33.0089 54.1332 31.8047 55.1118C31.6952 55.1118 31.6952 55.2206 31.5858 55.2206C31.1479 55.5468 31.1479 55.7643 31.4763 56.1993C32.1331 56.9605 32.7899 57.7217 33.3373 58.4829C33.6657 58.8091 33.7752 58.9178 34.432 58.5916C34.7604 58.4829 35.3077 58.1566 35.9645 57.8304V67.5085C35.9645 68.161 36.074 68.3785 36.8403 68.3785C40.1244 68.3785 43.4084 68.3785 46.6925 68.3785C47.4588 68.3785 47.5683 68.2697 47.5683 67.5085V57.8304C48.3345 58.1566 48.8819 58.4829 49.2103 58.5916C49.8671 58.9178 49.9766 58.8091 50.305 58.4829C50.9618 57.7217 51.6186 56.9605 52.2754 56.1993C52.6038 55.873 52.6038 55.5468 52.166 55.2206Z" fill="#DDE1F0"/>
<path d="M46.2547 58.483L45.16 59.2442C45.0506 59.3529 44.7222 59.3529 44.6127 59.2442L43.518 58.483C43.4085 58.3742 43.4085 58.2655 43.4085 58.2655V56.5256C43.4085 56.4168 43.518 56.3081 43.6275 56.3081H46.1452C46.2547 56.3081 46.3642 56.4168 46.3642 56.5256V58.2655C46.3642 58.3742 46.2547 58.483 46.2547 58.483Z" fill="#C5CCDE"/>
<path d="M34.6509 58.5916C33.994 58.9178 33.8846 58.8091 33.5562 58.4828C32.8994 57.7216 32.2425 56.9604 31.6952 56.1992C31.3668 55.7643 31.3668 55.5468 31.8047 55.2206C31.9141 55.2206 31.9141 55.1118 32.0236 55.1118L34.6509 58.5916Z" fill="#C5CCDE"/>
<path d="M52.3847 56.1993C51.7279 56.9605 51.0711 57.7217 50.4143 58.4829C50.0859 58.8092 49.9764 58.8092 49.3196 58.5917L51.9468 55.0032C52.0563 55.1119 52.1658 55.2207 52.2752 55.2207C52.7131 55.5469 52.7131 55.8731 52.3847 56.1993Z" fill="#C5CCDE"/>
<g filter="url(#filter1_d)">
<path d="M136.621 90.0183H106.627C104.218 90.0183 102.248 88.061 102.248 85.6686V49.2398C102.248 46.8475 104.218 44.8901 106.627 44.8901H136.621C139.03 44.8901 141 46.8475 141 49.2398V85.6686C141 88.061 139.03 90.0183 136.621 90.0183Z" fill="white"/>
</g>
<path d="M128.959 77.513H108.05C107.393 77.513 106.956 76.9693 106.956 76.4256C106.956 75.7731 107.503 75.3381 108.05 75.3381H128.959C129.616 75.3381 130.053 75.8819 130.053 76.4256C130.053 76.9693 129.506 77.513 128.959 77.513Z" fill="#CED7E2"/>
<path d="M117.246 83.7112H108.05C107.393 83.7112 106.956 83.1675 106.956 82.6238C106.956 82.0801 107.503 81.5364 108.05 81.5364H117.246C117.902 81.5364 118.34 82.0801 118.34 82.6238C118.34 83.2763 117.902 83.7112 117.246 83.7112Z" fill="#CED7E2"/>
<path d="M127.754 69.0311L124.032 69.5748C123.813 69.5748 123.704 69.4661 123.594 69.3573L123.485 68.9224L121.077 59.5705L120.858 57.8306L118.449 68.7049L118.34 69.2486C118.34 69.4661 118.121 69.5748 117.902 69.4661L114.727 69.1398H114.399C114.18 69.1398 114.071 68.9224 114.071 68.7049L114.18 68.2699L116.588 52.8284L116.698 52.176C116.698 52.0672 116.807 51.9585 117.026 51.9585H124.58C124.689 51.9585 124.908 52.0672 124.908 52.176L125.017 52.7197V52.8284L128.083 68.2699V68.4874C128.083 68.8136 127.973 68.9224 127.754 69.0311Z" fill="#DDE1F0"/>
<path d="M125.017 55.6558C124.032 55.2208 123.266 54.5684 122.609 53.6984C122.5 53.5897 122.609 53.4809 122.719 53.3722C122.828 53.2634 122.937 53.3722 123.047 53.4809C123.594 54.3509 124.251 54.8946 125.127 55.2208C125.236 55.3296 125.346 55.4383 125.236 55.547C125.236 55.547 125.127 55.6558 125.017 55.6558Z" fill="#C5CCDE"/>
<path d="M116.807 55.6558C117.792 55.2208 118.558 54.5684 119.215 53.6984C119.325 53.5897 119.215 53.4809 119.106 53.3722C118.996 53.2634 118.887 53.3722 118.777 53.4809C118.23 54.3509 117.573 54.8946 116.697 55.2208C116.588 55.3296 116.478 55.4383 116.588 55.547C116.588 55.547 116.697 55.6558 116.807 55.6558Z" fill="#C5CCDE"/>
<path d="M120.858 56.5256C120.748 56.5256 120.639 56.4169 120.639 56.3081V53.0459C120.639 52.9371 120.748 52.8284 120.858 52.8284C120.967 52.8284 121.077 52.9371 121.077 53.0459V56.3081C121.077 56.4169 120.967 56.5256 120.858 56.5256Z" fill="#C5CCDE"/>
<path d="M125.018 52.9378H116.589L116.698 52.2854C116.698 52.1766 116.808 52.0679 117.027 52.0679H124.58C124.689 52.0679 124.908 52.1766 124.908 52.2854L125.018 52.9378Z" fill="#C5CCDE"/>
<path d="M118.34 68.8136L118.23 69.3573C118.23 69.5748 118.012 69.6836 117.793 69.5748L114.618 69.2486H114.29C114.071 69.2486 113.961 69.0311 113.961 68.8136L114.071 68.3787L118.34 68.8136Z" fill="#C5CCDE"/>
<path d="M127.754 69.031L124.032 69.5747C123.813 69.5747 123.704 69.466 123.594 69.3572L123.485 68.9223L127.973 68.4873V68.7048C128.083 68.8135 127.973 68.9223 127.754 69.031Z" fill="#C5CCDE"/>
<g filter="url(#filter2_dd)">
<path d="M108.451 25.9638C108.451 26.1813 108.451 26.2901 108.451 26.5076C108.451 29.5523 106.043 32.0534 102.978 32.0534C99.9128 32.0534 97.5045 29.2261 97.5045 26.1813V26.2901C97.5045 29.3349 94.6583 30.7485 91.7026 30.7485C88.6375 30.7485 86.5576 29.6611 86.5576 26.6163C86.5576 29.6611 84.1493 32.1622 81.0842 32.1622C78.3474 32.1622 76.0486 29.8786 75.7202 27.0513C75.7202 26.8338 75.7202 26.5076 75.7202 26.2901C75.7202 29.3349 72.8739 31.2922 69.8088 31.2922C66.7437 31.2922 64.6638 29.6611 64.6638 26.6163C64.6638 26.725 64.6638 26.8338 64.6638 26.9425C64.4449 29.8786 62.146 32.1622 59.1904 32.1622C56.1252 32.1622 53.7169 29.6611 53.7169 26.6163C53.7169 26.3988 53.7169 26.2901 53.7169 26.0726V19.8742C53.7169 19.3305 53.9359 18.7868 54.2643 18.3519L59.7377 11.936H102.321L107.795 18.3519C108.123 18.7868 108.342 19.3305 108.342 19.8742V25.9638H108.451Z" fill="url(#paint2_linear)"/>
</g>
<path d="M75.72 18.6788C75.6105 18.8963 75.6105 19.2225 75.6105 19.44V26.9433C75.6105 26.7258 75.6105 26.3996 75.6105 26.1821C75.6105 29.2269 73.0927 32.0542 70.0276 32.0542C66.9625 32.0542 64.5542 29.5531 64.5542 26.5083C64.5542 26.6171 64.5542 26.7258 64.5542 26.8345L64.6636 19.875C64.6636 19.44 64.7731 19.1138 64.992 18.6788L68.1666 13.133L68.9329 12.0455H77.9094L75.72 18.6788Z" fill="white"/>
<path d="M86.3387 18.6781C86.4481 18.8956 86.4481 19.1131 86.4481 19.4393V25.3114C86.4481 25.4201 86.4481 26.5076 86.4481 26.1813C86.4481 29.2261 88.6375 32.0534 92.031 32.0534C95.0962 32.0534 97.5045 29.5524 97.5045 26.5076C97.5045 26.6163 97.5045 26.725 97.5045 26.8338L97.395 19.8743C97.395 19.4393 97.2856 19.1131 97.0666 18.6781L93.892 13.0235L93.1257 11.936H84.1493L86.3387 18.6781Z" fill="white"/>
<g filter="url(#filter3_d)">
<path d="M101.307 97.9852H61.3861C58.1031 97.9852 55.4767 95.3763 55.4767 92.115V43.5882C55.4767 40.327 58.1031 37.718 61.3861 37.718H101.307C104.59 37.718 107.217 40.327 107.217 43.5882V92.115C107.085 95.3763 104.459 97.9852 101.307 97.9852Z" fill="white"/>
</g>
<path d="M90.8013 81.3699H63.0929C62.3049 81.3699 61.6483 80.7176 61.6483 79.9349C61.6483 79.1522 62.3049 78.5 63.0929 78.5H90.8013C91.5893 78.5 92.2459 79.1522 92.2459 79.9349C92.2459 80.7176 91.5893 81.3699 90.8013 81.3699Z" fill="#CED7E2"/>
<path d="M75.3056 89.5881H63.0929C62.3049 89.5881 61.6483 88.9359 61.6483 88.1532C61.6483 87.3705 62.3049 86.7183 63.0929 86.7183H75.3056C76.0935 86.7183 76.7501 87.3705 76.7501 88.1532C76.6188 88.9359 76.0935 89.5881 75.3056 89.5881Z" fill="#CED7E2"/>
<path d="M97.4987 62.5854C97.3673 62.3245 97.236 62.0636 97.1047 61.9331C96.5794 61.2809 95.9228 60.6286 94.7409 60.2373C93.1651 59.7155 91.8519 59.585 90.67 59.4546C90.4074 59.4546 90.0134 59.4546 89.7508 59.3241C86.2052 58.9328 83.3161 58.411 77.0128 50.5841C76.3562 49.8014 76.0935 49.0187 75.3056 48.236C74.649 47.5838 73.4671 48.3665 72.0226 48.6274C71.76 48.7578 71.366 48.7578 71.1034 48.7578C69.9215 48.7578 68.6083 48.6274 67.4264 48.4969C65.7193 48.3665 66.7698 47.4533 64.6687 60.2373C64.5374 61.1504 64.4061 62.194 64.2747 63.1071C64.2747 63.8898 64.1434 64.803 64.2747 65.5857C64.2747 65.977 64.2748 66.4988 64.8 66.4988C70.1841 67.0206 73.5985 66.7597 82.1342 66.7597C86.4678 66.7597 90.67 66.7597 94.8723 65.977L95.9228 65.8466C96.7107 65.7161 97.7613 65.4552 97.7613 64.803C97.8926 64.1507 97.7613 63.368 97.4987 62.5854Z" fill="url(#paint3_linear)"/>
<g style="mix-blend-mode:overlay">
<path d="M90.8016 59.4555L89.8823 62.3254C84.3669 62.0645 78.7202 58.6728 75.8311 54.2376C74.7806 52.6722 73.9927 50.9764 72.8108 49.6719C72.8108 49.6719 72.4168 49.2805 72.0229 48.8892C73.4674 48.6283 74.5179 47.7152 75.3059 48.4979C75.8311 49.0197 76.0938 49.5414 76.4877 50.0632C76.619 50.1937 76.7504 50.4546 76.8817 50.585L77.013 50.7155C77.407 51.2373 77.8009 51.6286 78.1949 52.02C78.3262 52.1504 78.4575 52.2809 78.5888 52.4113C78.9828 52.9331 79.3768 53.3245 79.7707 53.7158C79.902 53.8462 80.0334 53.9767 80.1647 54.1071C80.5586 54.4985 80.9526 54.8898 81.3466 55.2812C81.4779 55.4116 81.6092 55.5421 81.7405 55.6725C82.1345 56.0639 82.5284 56.3248 82.9224 56.5857C83.0537 56.7161 83.3164 56.8466 83.4477 56.977C83.7103 57.2379 84.1043 57.3684 84.3669 57.6293C84.6296 57.7597 84.7609 57.8902 85.0235 58.0206C85.6801 58.2815 86.2054 58.5424 86.7307 58.8033C86.9933 58.9337 87.1246 58.9337 87.3873 58.9337C88.3065 59.1946 89.0944 59.1946 90.0137 59.3251C90.145 59.4555 90.4076 59.4555 90.8016 59.4555Z" fill="#6052FF"/>
</g>
<path d="M98.5538 65.182C98.5538 65.8181 97.4727 66.0726 96.6618 66.1998L95.5807 66.3271C91.2561 67.0904 86.7964 67.0904 82.4718 67.0904C73.6875 67.0904 70.1737 67.3449 64.6329 66.836C64.2274 66.836 64.2274 66.3271 64.0923 65.9454C64.0923 65.182 64.0923 64.2914 64.0923 63.528C67.2006 63.7824 80.4446 64.4186 90.4452 63.4007C93.2832 63.1463 95.7158 62.7646 97.743 62.1284C97.8781 62.3829 98.0133 62.5101 98.1484 62.7646C98.4187 63.528 98.5538 64.2914 98.5538 65.182Z" fill="#E3DFFD"/>
<path d="M97.8359 62.8041C95.7726 63.5432 93.5718 63.9866 91.3709 64.2822C90.9583 64.2822 90.6832 64.2822 90.4081 64.1344C90.2705 63.9866 90.133 63.691 90.133 63.5432C90.133 63.3954 90.133 63.2475 90.133 63.2475C89.9954 61.9172 89.8579 60.5869 89.9954 59.2566C91.5085 59.4044 93.1591 59.5522 95.2224 60.2913C96.4604 60.7347 97.1481 61.326 97.6983 62.2129C97.5608 62.2129 97.6983 62.5085 97.8359 62.8041Z" fill="#E3DFFD"/>
<path d="M76.8817 50.4537C76.8817 50.5841 76.8817 50.5841 76.8817 50.4537L75.4372 51.6277C75.4372 51.6277 75.3058 51.7582 75.1745 51.7582C75.0432 51.7582 74.9119 51.7582 74.9119 51.6277C74.7806 51.4973 74.7806 51.2364 74.9119 51.1059L76.3564 49.9319C76.3564 49.9319 76.3564 49.9319 76.4877 49.9319C76.619 50.1928 76.7504 50.3232 76.8817 50.4537Z" fill="#DFECFD"/>
<path d="M78.4575 52.4105C78.4575 52.4105 78.4575 52.5409 78.3261 52.5409C77.9322 53.0627 77.4069 53.4541 76.8816 53.8454C76.8816 53.8454 76.7503 53.9758 76.619 53.9758C76.4877 53.9758 76.3563 53.9758 76.3563 53.8454C76.225 53.715 76.225 53.4541 76.3563 53.3236C76.8816 52.9323 77.2756 52.5409 77.8009 52.0191C77.9322 51.8887 77.9322 51.8887 78.0635 51.8887C78.1948 52.1496 78.3261 52.28 78.4575 52.4105Z" fill="#DFECFD"/>
<path d="M80.0334 54.1063C80.0334 54.2367 80.0334 54.2367 79.9021 54.2367C79.3768 54.7585 78.9828 55.2803 78.4575 55.6717C78.3262 55.8021 78.3262 55.8021 78.1949 55.8021C78.0636 55.8021 78.0636 55.8021 77.9323 55.6717C77.8009 55.5412 77.8009 55.2803 77.9323 55.1499C78.4575 54.6281 78.8515 54.1063 79.3768 53.7149C79.3768 53.7149 79.5081 53.5845 79.6394 53.5845C79.7707 53.8454 79.9021 53.9758 80.0334 54.1063Z" fill="#DFECFD"/>
<path d="M81.7403 55.6717C81.7403 55.8021 81.7403 55.8021 81.609 55.8021C81.0837 56.1935 80.5585 56.7153 80.0332 57.3675C79.9019 57.498 79.9019 57.498 79.7705 57.498C79.6392 57.498 79.6392 57.498 79.5079 57.3675C79.3766 57.2371 79.3766 56.9762 79.5079 56.8457C80.0332 56.1935 80.5585 55.6717 81.0837 55.1499H81.2151C81.3464 55.4108 81.4777 55.6717 81.7403 55.6717Z" fill="#DFECFD"/>
<path d="M83.3162 57.1065C82.9222 57.7588 82.5283 58.411 82.2656 59.0632C82.2656 59.1937 82.1343 59.1937 82.003 59.1937H81.8717C81.7404 59.0632 81.609 58.9328 81.7404 58.6719C82.1343 58.0197 82.3969 57.3674 82.7909 56.7152C82.7909 56.7152 82.7909 56.5847 82.9222 56.5847C83.0535 56.8456 83.1849 56.9761 83.3162 57.1065Z" fill="#DFECFD"/>
<path d="M84.892 58.0198L84.6294 60.1069C84.6294 60.2374 84.4981 60.3678 84.2354 60.3678C84.1041 60.3678 83.9728 60.1069 83.9728 59.9765L84.3668 57.7589C84.3668 57.7589 84.3668 57.6284 84.4981 57.6284C84.4981 57.7589 84.6294 57.8893 84.892 58.0198Z" fill="#DFECFD"/>
<path d="M87.2559 58.9327C87.1246 59.5849 87.1246 60.1067 86.9933 60.759C86.9933 60.8894 86.862 61.0199 86.5993 61.0199C86.5993 61.0199 86.5993 61.0199 86.468 61.0199C86.3367 61.0199 86.2054 60.759 86.2054 60.6285C86.3367 59.9763 86.468 59.4545 86.468 58.8022C86.7306 58.8022 86.9933 58.9327 87.2559 58.9327Z" fill="#DFECFD"/>
<path d="M70.447 57.1065C71.9701 57.1065 73.2047 55.88 73.2047 54.3671C73.2047 52.8542 71.9701 51.6277 70.447 51.6277C68.924 51.6277 67.6893 52.8542 67.6893 54.3671C67.6893 55.88 68.924 57.1065 70.447 57.1065Z" fill="white"/>
<path d="M70.4471 55.5412C71.0998 55.5412 71.629 55.0156 71.629 54.3672C71.629 53.7188 71.0998 53.1931 70.4471 53.1931C69.7944 53.1931 69.2652 53.7188 69.2652 54.3672C69.2652 55.0156 69.7944 55.5412 70.4471 55.5412Z" fill="#8147FF"/>
<g filter="url(#filter4_d)">
<path d="M123.245 105.792C122.917 107.206 122.479 108.51 121.932 109.815C121.822 110.141 121.713 110.359 121.494 110.685C119.633 114.274 116.677 117.21 113.065 118.95C112.627 119.167 112.189 119.385 111.861 119.494C108.358 120.907 104.417 121.451 100.476 120.581C90.0763 118.406 83.3988 108.293 85.5882 97.9623C87.7776 87.6317 97.958 80.9983 108.358 83.1732C112.079 83.9344 115.364 85.7833 118.1 88.3931C122.589 92.9603 124.559 99.4849 123.245 105.792Z" fill="url(#paint4_linear)"/>
</g>
<path d="M121.916 109.804C121.807 110.131 121.697 110.348 121.479 110.674C119.618 114.263 116.662 117.199 113.049 118.939C112.612 119.156 112.174 119.374 111.845 119.482L98.3806 106.107L101.665 106.216L105.168 106.325L107.685 104.585C107.685 104.585 109.656 101.214 109.546 100.996C109.437 100.779 107.248 97.4077 107.248 97.4077L109.656 97.8427L121.916 109.804Z" fill="url(#paint5_linear)"/>
<path d="M112.392 107.956L109.546 105.129C111.736 101.866 110.86 97.5165 107.576 95.3417C104.292 93.1668 99.913 94.0368 97.7236 97.2991C95.5342 100.561 96.41 104.911 99.694 107.086C102.102 108.608 105.167 108.608 107.466 107.086L110.313 109.913C110.86 110.457 111.736 110.457 112.283 109.913C112.94 109.37 112.94 108.5 112.392 107.956ZM100.57 104.259C98.9278 102.627 98.9278 99.9089 100.57 98.2777C102.212 96.6466 104.949 96.6466 106.591 98.2777C108.233 99.9089 108.233 102.627 106.591 104.259C104.949 105.89 102.212 105.89 100.57 104.259Z" fill="url(#paint6_linear)"/>
<defs>
<filter id="filter0_d" x="0.0620728" y="33.8901" width="82.7564" height="89.1282" filterUnits="userSpaceOnUse" color-interpolation-filters="sRGB">
<feFlood flood-opacity="0" result="BackgroundImageFix"/>
<feColorMatrix in="SourceAlpha" type="matrix" values="0 0 0 0 0 0 0 0 0 0 0 0 0 0 0 0 0 0 127 0" result="hardAlpha"/>
<feOffset dy="11"/>
<feGaussianBlur stdDeviation="11"/>
<feColorMatrix type="matrix" values="0 0 0 0 0.397708 0 0 0 0 0.47749 0 0 0 0 0.575 0 0 0 0.18 0"/>
<feBlend mode="normal" in2="BackgroundImageFix" result="effect1_dropShadow"/>
<feBlend mode="normal" in="SourceGraphic" in2="effect1_dropShadow" result="shape"/>
</filter>
<filter id="filter1_d" x="80.248" y="33.8901" width="82.752" height="89.1282" filterUnits="userSpaceOnUse" color-interpolation-filters="sRGB">
<feFlood flood-opacity="0" result="BackgroundImageFix"/>
<feColorMatrix in="SourceAlpha" type="matrix" values="0 0 0 0 0 0 0 0 0 0 0 0 0 0 0 0 0 0 127 0" result="hardAlpha"/>
<feOffset dy="11"/>
<feGaussianBlur stdDeviation="11"/>
<feColorMatrix type="matrix" values="0 0 0 0 0.397708 0 0 0 0 0.47749 0 0 0 0 0.575 0 0 0 0.18 0"/>
<feBlend mode="normal" in2="BackgroundImageFix" result="effect1_dropShadow"/>
<feBlend mode="normal" in="SourceGraphic" in2="effect1_dropShadow" result="shape"/>
</filter>
<filter id="filter2_dd" x="31.7169" y="0.936035" width="98.7345" height="64.2261" filterUnits="userSpaceOnUse" color-interpolation-filters="sRGB">
<feFlood flood-opacity="0" result="BackgroundImageFix"/>
<feColorMatrix in="SourceAlpha" type="matrix" values="0 0 0 0 0 0 0 0 0 0 0 0 0 0 0 0 0 0 127 0" result="hardAlpha"/>
<feOffset dy="11"/>
<feGaussianBlur stdDeviation="11"/>
<feColorMatrix type="matrix" values="0 0 0 0 0.397708 0 0 0 0 0.47749 0 0 0 0 0.575 0 0 0 0.18 0"/>
<feBlend mode="normal" in2="BackgroundImageFix" result="effect1_dropShadow"/>
<feColorMatrix in="SourceAlpha" type="matrix" values="0 0 0 0 0 0 0 0 0 0 0 0 0 0 0 0 0 0 127 0" result="hardAlpha"/>
<feOffset dy="11"/>
<feGaussianBlur stdDeviation="11"/>
<feColorMatrix type="matrix" values="0 0 0 0 0.397708 0 0 0 0 0.47749 0 0 0 0 0.575 0 0 0 0.18 0"/>
<feBlend mode="normal" in2="effect1_dropShadow" result="effect2_dropShadow"/>
<feBlend mode="normal" in="SourceGraphic" in2="effect2_dropShadow" result="shape"/>
</filter>
<filter id="filter3_d" x="33.4767" y="26.718" width="95.74" height="104.267" filterUnits="userSpaceOnUse" color-interpolation-filters="sRGB">
<feFlood flood-opacity="0" result="BackgroundImageFix"/>
<feColorMatrix in="SourceAlpha" type="matrix" values="0 0 0 0 0 0 0 0 0 0 0 0 0 0 0 0 0 0 127 0" result="hardAlpha"/>
<feOffset dy="11"/>
<feGaussianBlur stdDeviation="11"/>
<feColorMatrix type="matrix" values="0 0 0 0 0.397708 0 0 0 0 0.47749 0 0 0 0 0.575 0 0 0 0.18 0"/>
<feBlend mode="normal" in2="BackgroundImageFix" result="effect1_dropShadow"/>
<feBlend mode="normal" in="SourceGraphic" in2="effect1_dropShadow" result="shape"/>
</filter>
<filter id="filter4_d" x="77.1725" y="79.7603" width="54.4733" height="54.2398" filterUnits="userSpaceOnUse" color-interpolation-filters="sRGB">
<feFlood flood-opacity="0" result="BackgroundImageFix"/>
<feColorMatrix in="SourceAlpha" type="matrix" values="0 0 0 0 0 0 0 0 0 0 0 0 0 0 0 0 0 0 127 0" result="hardAlpha"/>
<feOffset dy="5"/>
<feGaussianBlur stdDeviation="4"/>
<feColorMatrix type="matrix" values="0 0 0 0 0.1125 0 0 0 0 0.295916 0 0 0 0 1 0 0 0 0.22 0"/>
<feBlend mode="normal" in2="BackgroundImageFix" result="effect1_dropShadow"/>
<feBlend mode="normal" in="SourceGraphic" in2="effect1_dropShadow" result="shape"/>
</filter>
<linearGradient id="paint0_linear" x1="24.6157" y1="100.301" x2="28.4485" y2="100.301" gradientUnits="userSpaceOnUse">
<stop stop-color="#FF66A9"/>
<stop offset="1" stop-color="#F53689"/>
</linearGradient>
<linearGradient id="paint1_linear" x1="124.409" y1="22.2118" x2="127.706" y2="22.2118" gradientUnits="userSpaceOnUse">
<stop stop-color="#A383FF"/>
<stop offset="1" stop-color="#AD5AFF"/>
</linearGradient>
<linearGradient id="paint2_linear" x1="53.6748" y1="21.9644" x2="108.429" y2="21.9644" gradientUnits="userSpaceOnUse">
<stop stop-color="#FF66A9"/>
<stop offset="1" stop-color="#F53689"/>
</linearGradient>
<linearGradient id="paint3_linear" x1="64.3098" y1="57.591" x2="97.8478" y2="57.591" gradientUnits="userSpaceOnUse">
<stop stop-color="#A674FF"/>
<stop offset="1" stop-color="#8263FF"/>
</linearGradient>
<linearGradient id="paint4_linear" x1="85.1578" y1="101.898" x2="123.666" y2="101.898" gradientUnits="userSpaceOnUse">
<stop stop-color="#AE77FF"/>
<stop offset="1" stop-color="#775DFF"/>
</linearGradient>
<linearGradient id="paint5_linear" x1="107.283" y1="105.145" x2="113.939" y2="111.846" gradientUnits="userSpaceOnUse">
<stop stop-color="#815DF6"/>
<stop offset="1" stop-color="#7F63FA" stop-opacity="0"/>
</linearGradient>
<linearGradient id="paint6_linear" x1="110.635" y1="108.27" x2="101.223" y2="98.7956" gradientUnits="userSpaceOnUse">
<stop offset="0.0113208" stop-color="#D2C2FF"/>
<stop offset="1" stop-color="white"/>
</linearGradient>
</defs>
</svg>
