<svg width="226" height="167" viewBox="0 0 226 167" fill="none" xmlns="http://www.w3.org/2000/svg">
<path d="M104.782 156C147.736 156 182.557 121.078 182.557 78C182.557 34.9218 147.736 0 104.782 0C61.8287 0 27.0078 34.9218 27.0078 78C27.0078 121.078 61.8287 156 104.782 156Z" fill="#EAEEF9"/>
<g filter="url(#filter0_d)">
<path d="M189.129 28.4058V129.005C189.129 131.516 187.095 133.557 184.435 133.557H26.6946C24.0343 133.557 22 131.516 22 129.005V28.4058C22 25.8947 24.0343 23.8545 26.6946 23.8545H184.435C187.095 23.8545 189.129 25.8947 189.129 28.4058Z" fill="white"/>
</g>
<path d="M189.129 28.5627V34.8404H22V28.5627C22 25.8947 24.0343 23.8545 26.6946 23.8545H184.435C187.095 23.8545 189.129 25.8947 189.129 28.5627Z" fill="url(#paint0_linear)"/>
<path d="M27.4788 31.3883C28.4298 31.3883 29.2008 30.6153 29.2008 29.6619C29.2008 28.7085 28.4298 27.9355 27.4788 27.9355C26.5278 27.9355 25.7568 28.7085 25.7568 29.6619C25.7568 30.6153 26.5278 31.3883 27.4788 31.3883Z" fill="white"/>
<path d="M32.3284 31.3883C33.2795 31.3883 34.0504 30.6153 34.0504 29.6619C34.0504 28.7085 33.2795 27.9355 32.3284 27.9355C31.3774 27.9355 30.6064 28.7085 30.6064 29.6619C30.6064 30.6153 31.3774 31.3883 32.3284 31.3883Z" fill="white"/>
<path d="M37.0228 31.3883C37.9738 31.3883 38.7447 30.6153 38.7447 29.6619C38.7447 28.7085 37.9738 27.9355 37.0228 27.9355C36.0717 27.9355 35.3008 28.7085 35.3008 29.6619C35.3008 30.6153 36.0717 31.3883 37.0228 31.3883Z" fill="white"/>
<path d="M166.045 48.4656H132.402C131.629 48.4656 131.049 47.8977 131.049 47.1404V46.7618C131.049 46.0045 131.629 45.4365 132.402 45.4365H166.045C166.818 45.4365 167.398 46.0045 167.398 46.7618V47.1404C167.398 47.7084 166.818 48.4656 166.045 48.4656Z" fill="#1C3754"/>
<path d="M182.311 63.6121H132.796C131.826 63.6121 131.049 62.939 131.049 62.0976C131.049 61.2561 131.826 60.583 132.796 60.583H182.311C183.282 60.583 184.059 61.2561 184.059 62.0976C183.864 62.939 183.282 63.6121 182.311 63.6121Z" fill="url(#paint1_linear)"/>
<path d="M182.311 72.699H132.796C131.826 72.699 131.049 72.0259 131.049 71.1845C131.049 70.3431 131.826 69.6699 132.796 69.6699H182.311C183.282 69.6699 184.059 70.3431 184.059 71.1845C183.864 72.0259 183.282 72.699 182.311 72.699Z" fill="url(#paint2_linear)"/>
<path d="M182.311 81.786H132.796C131.826 81.786 131.049 81.1128 131.049 80.2714C131.049 79.43 131.826 78.7568 132.796 78.7568H182.311C183.282 78.7568 184.059 79.43 184.059 80.2714C183.864 81.2811 183.282 81.786 182.311 81.786Z" fill="url(#paint3_linear)"/>
<path d="M157.167 90.8739H132.193C131.621 90.8739 131.049 90.3393 131.049 89.8048V88.9138C131.049 88.3793 131.621 87.8447 132.193 87.8447H157.167C157.739 87.8447 158.311 88.3793 158.311 88.9138V89.8048C158.311 90.3393 157.93 90.8739 157.167 90.8739Z" fill="url(#paint4_linear)"/>
<path d="M125.315 13.336C126.723 13.336 127.975 12.2374 127.975 10.668C127.975 9.25553 126.879 8 125.315 8C123.906 8 122.654 9.09859 122.654 10.668C122.811 12.2374 123.906 13.336 125.315 13.336Z" fill="url(#paint5_linear)"/>
<path d="M59.714 154.116C61.1224 154.116 62.3743 153.018 62.3743 151.448C62.3743 150.036 61.2789 148.78 59.714 148.78C58.3056 148.78 57.0537 149.879 57.0537 151.448C57.0537 153.018 58.3056 154.116 59.714 154.116Z" fill="url(#paint6_linear)"/>
<path d="M116.474 62.666C116.023 62.2132 115.571 61.9868 115.12 61.5339C109.702 57.0058 104.509 52.4777 99.0914 47.9495C98.4141 47.4967 97.5111 47.0439 96.8339 47.0439C92.7703 47.0439 88.7068 47.0439 84.6432 47.0439C82.6115 47.0439 81.9342 47.7231 81.9342 49.7608C81.4827 54.0625 78.3222 57.4586 74.2586 57.4586C69.7436 57.4586 66.1315 54.5153 65.68 49.9872C65.2285 46.1383 64.5513 47.0439 51.2319 47.0439C49.8773 47.0439 48.7486 47.4967 47.8456 48.4023C42.4275 52.9305 37.0095 57.4586 31.8172 61.9868C31.5914 62.2132 31.3656 62.4396 30.9141 62.666C29.3339 64.0244 29.1081 65.1565 30.4626 66.7413C33.1717 69.911 35.655 73.0807 38.364 76.2504C39.4927 77.8352 40.17 77.8352 42.879 76.7032C44.2335 76.024 46.4911 74.8919 49.4258 73.5335V114.513C49.4258 117.456 50.1031 118.136 53.0379 118.136C66.8088 118.136 80.5797 118.136 94.3506 118.136C97.2854 118.136 97.9626 117.456 97.9626 114.513V73.3071C101.123 74.8919 103.155 76.024 104.735 76.7032C107.444 77.8352 107.896 77.8352 109.25 76.2504C111.959 73.0807 114.668 69.6846 117.377 66.5149C118.055 65.1564 118.055 64.0244 116.474 62.666Z" fill="#DDE1F0"/>
<path d="M91.4152 76.2503L86.6744 79.6464C85.9972 80.3256 85.0942 80.3256 84.4169 79.6464L79.6761 76.2503C79.2246 76.0239 79.2246 75.5711 79.2246 75.1183V67.6468C79.2246 67.194 79.6761 66.7412 80.1276 66.7412H90.9637C91.4152 66.7412 91.8667 67.194 91.8667 67.6468V75.1183C91.8667 75.5711 91.641 76.0239 91.4152 76.2503Z" fill="#C5CCDE"/>
<path d="M43.1046 76.7037C40.3955 78.0622 39.7183 77.8358 38.5895 76.2509C35.8805 73.0812 33.1714 69.9115 30.6882 66.7419C29.3337 65.157 29.3337 64.025 31.1397 62.6665C31.3654 62.4401 31.5912 62.2137 32.0427 61.9873L43.1046 76.7037Z" fill="#C5CCDE"/>
<path d="M117.377 66.7427C114.667 69.9124 111.958 73.3085 109.249 76.4782C108.121 77.8366 107.443 78.063 104.734 76.931L115.57 61.7617C116.022 62.2145 116.473 62.4409 116.925 62.8938C118.505 64.0258 118.731 65.1578 117.377 66.7427Z" fill="#C5CCDE"/>
<g filter="url(#filter1_d)">
<path d="M198.058 137.825H92.6252C89.5911 137.825 87.126 135.317 87.126 132.231V102.526C87.126 99.4392 89.5911 96.9316 92.6252 96.9316H198.248C201.282 96.9316 203.747 99.4392 203.747 102.526V132.231C203.747 135.317 201.282 137.825 198.058 137.825Z" fill="white"/>
</g>
<path d="M104.558 107.956L106.832 112.518C107.022 112.708 107.211 112.898 107.401 112.898L112.518 113.849C113.087 114.039 113.466 114.799 112.897 115.179L109.296 118.791C109.106 118.981 109.106 119.171 109.106 119.551L110.054 124.683C110.244 125.254 109.486 125.824 108.917 125.444L104.368 122.973C104.179 122.783 103.8 122.783 103.61 122.973L99.0613 125.444C98.4927 125.824 97.7345 125.254 97.9241 124.683L98.8717 119.551C98.8717 119.361 98.8717 118.981 98.6822 118.791L95.0811 115.179C94.5125 114.799 94.8915 113.849 95.4601 113.849L100.578 113.088C100.767 113.088 101.146 112.898 101.146 112.708L103.421 108.146C103.421 107.386 104.179 107.386 104.558 107.956Z" fill="url(#paint7_linear)"/>
<path opacity="0.3" d="M103.799 111.568H103.61C103.23 111.378 103.23 110.998 103.23 110.808V110.617C103.42 110.237 103.799 110.237 104.178 110.237C104.558 110.427 104.558 110.808 104.558 111.188C104.178 111.378 103.989 111.568 103.799 111.568Z" fill="white"/>
<path opacity="0.3" d="M100.388 118.982C100.199 118.982 99.8196 118.792 99.8196 118.602C99.63 118.222 99.63 118.032 99.251 117.841L97.1661 115.751C96.9766 115.561 96.9766 115.37 96.9766 115.18C96.9766 114.99 97.1661 114.8 97.5452 114.8L100.388 114.42C101.146 114.23 101.715 113.85 101.904 113.28L102.283 112.709C102.473 112.329 102.852 112.329 103.231 112.329C103.61 112.519 103.61 112.899 103.61 113.28L103.042 113.66C102.473 114.61 101.525 115.37 100.578 115.561L99.0614 115.751L100.199 116.891C100.578 117.271 100.767 117.651 100.957 118.222C101.146 118.602 100.957 118.982 100.578 118.982H100.388Z" fill="white"/>
<path d="M125.027 107.956L127.301 112.518C127.49 112.708 127.68 112.898 127.87 112.898L132.987 113.659C133.556 113.849 133.935 114.609 133.366 114.989L129.575 118.791C129.386 118.981 129.386 119.171 129.386 119.551L130.333 124.683C130.523 125.254 129.765 125.824 129.196 125.444L124.647 122.973C124.458 122.783 124.079 122.783 123.889 122.973L119.341 125.444C118.772 125.824 118.014 125.254 118.203 124.683L119.151 119.551C119.151 119.361 119.151 118.981 118.961 118.791L115.36 115.179C114.792 114.799 115.171 113.849 115.739 113.849L120.857 113.088C121.046 113.088 121.425 112.898 121.425 112.708L123.7 108.146C123.889 107.386 124.647 107.386 125.027 107.956Z" fill="url(#paint8_linear)"/>
<path opacity="0.3" d="M124.079 111.568H123.889C123.51 111.378 123.51 110.998 123.51 110.808V110.617C123.699 110.237 124.079 110.237 124.458 110.237C124.837 110.427 124.837 110.808 124.837 111.188C124.647 111.378 124.458 111.568 124.079 111.568Z" fill="white"/>
<path opacity="0.3" d="M120.857 118.982C120.667 118.982 120.288 118.792 120.288 118.602C120.099 118.222 120.099 118.032 119.72 117.841L117.635 115.751C117.445 115.561 117.445 115.37 117.445 115.18C117.445 114.99 117.635 114.8 118.014 114.8L120.857 114.42C121.615 114.23 122.184 113.85 122.373 113.28L122.752 112.709C122.942 112.329 123.321 112.329 123.7 112.329C124.079 112.519 124.079 112.899 124.079 113.28L123.7 113.85C123.131 114.8 122.184 115.561 121.236 115.751H119.53L120.667 116.891C121.046 117.271 121.236 117.651 121.425 118.222C121.615 118.602 121.425 118.982 121.046 118.982C120.857 118.982 120.857 118.982 120.857 118.982Z" fill="white"/>
<path d="M145.306 107.956L147.58 112.518C147.77 112.708 147.959 112.898 148.149 112.898L153.266 113.659C153.835 113.849 154.214 114.609 153.645 114.989L150.044 118.601C149.855 118.791 149.855 118.981 149.855 119.361L150.802 124.493C150.992 125.064 150.234 125.634 149.665 125.254L145.116 122.783C144.927 122.593 144.548 122.593 144.358 122.783L139.809 125.254C139.241 125.634 138.483 125.064 138.672 124.493L139.62 119.361C139.62 119.171 139.62 118.791 139.43 118.601L135.829 114.989C135.071 114.799 135.261 113.849 136.019 113.849L141.136 113.088C141.326 113.088 141.705 112.898 141.705 112.708L143.979 108.146C144.169 107.386 145.116 107.386 145.306 107.956Z" fill="url(#paint9_linear)"/>
<path opacity="0.3" d="M144.547 111.568H144.358C143.979 111.378 143.979 110.998 143.979 110.808V110.617C144.168 110.237 144.547 110.237 144.927 110.237C145.306 110.427 145.306 110.808 145.306 111.188C145.116 111.378 144.927 111.568 144.547 111.568Z" fill="white"/>
<path opacity="0.3" d="M141.136 118.982C140.947 118.982 140.568 118.792 140.568 118.602C140.378 118.222 140.378 118.032 139.999 117.841L138.104 115.751C137.914 115.561 137.914 115.37 137.914 115.18C137.914 114.99 138.104 114.8 138.483 114.8L141.326 114.42C142.084 114.23 142.652 113.85 142.842 113.28L143.221 112.709C143.41 112.329 143.79 112.329 144.169 112.329C144.548 112.519 144.548 112.899 144.548 113.28L144.169 113.85C143.6 114.8 142.652 115.561 141.705 115.751H139.809L140.947 116.891C141.326 117.271 141.515 117.651 141.705 118.222C141.894 118.602 141.705 118.982 141.326 118.982C141.326 118.982 141.326 118.982 141.136 118.982Z" fill="white"/>
<path d="M165.777 107.956L168.051 112.518C168.24 112.708 168.43 112.898 168.62 112.898L173.737 113.659C174.306 113.849 174.685 114.609 174.116 114.989L170.515 118.601C170.325 118.791 170.325 118.981 170.325 119.361L171.273 124.493C171.463 125.064 170.704 125.634 170.136 125.254L165.587 122.783C165.397 122.593 165.018 122.593 164.829 122.783L160.28 125.254C159.711 125.634 158.953 125.064 159.143 124.493L159.901 119.551C159.901 119.361 159.901 118.981 159.711 118.791L156.11 115.179C155.542 114.799 155.921 113.849 156.489 113.849L161.607 113.088C161.796 113.088 162.175 112.898 162.175 112.708L164.45 108.146C164.639 107.386 165.587 107.386 165.777 107.956Z" fill="url(#paint10_linear)"/>
<path opacity="0.3" d="M165.018 111.568H164.828C164.449 111.378 164.449 110.998 164.449 110.808V110.617C164.639 110.237 165.018 110.237 165.397 110.237C165.776 110.427 165.776 110.808 165.776 111.188C165.587 111.378 165.208 111.568 165.018 111.568Z" fill="white"/>
<path opacity="0.3" d="M161.607 118.982C161.417 118.982 161.038 118.792 161.038 118.602C160.849 118.222 160.849 118.032 160.47 117.841L158.574 115.751C158.385 115.561 158.385 115.37 158.385 115.18C158.385 114.99 158.574 114.8 158.953 114.8L161.796 114.42C162.554 114.23 163.123 113.85 163.313 113.28L163.692 112.709C163.881 112.329 164.26 112.329 164.639 112.329C165.018 112.519 165.018 112.899 165.018 113.28L164.639 113.85C164.071 114.8 163.123 115.561 162.175 115.751H160.28L161.417 116.891C161.796 117.271 161.986 117.651 162.175 118.222C162.365 118.602 162.175 118.982 161.796 118.982C161.796 118.982 161.796 118.982 161.607 118.982Z" fill="white"/>
<path d="M186.246 107.957L188.521 112.519C188.71 112.709 188.9 112.899 189.089 112.899L194.207 113.659C194.775 113.85 195.154 114.61 194.586 114.99L190.984 118.602C190.795 118.792 190.795 118.982 190.795 119.362L191.743 124.494C191.932 125.064 191.174 125.635 190.605 125.254L186.057 122.783C185.867 122.593 185.488 122.593 185.299 122.783L180.75 125.254C180.181 125.635 179.423 125.064 179.613 124.494L180.56 119.362C180.56 119.172 180.56 118.792 180.371 118.602L176.77 114.99C176.201 114.61 176.58 113.659 177.149 113.659L182.266 112.899C182.456 112.899 182.835 112.709 182.835 112.519L185.109 107.957C185.109 107.387 185.867 107.387 186.246 107.957Z" fill="url(#paint11_linear)"/>
<path opacity="0.3" d="M185.488 111.568H185.298C184.919 111.378 184.919 110.998 184.919 110.808V110.617C185.109 110.237 185.488 110.237 185.867 110.237C186.246 110.427 186.246 110.808 186.246 111.188C186.057 111.378 185.677 111.568 185.488 111.568Z" fill="white"/>
<path opacity="0.3" d="M182.078 118.982C181.888 118.982 181.509 118.792 181.509 118.602C181.319 118.222 181.319 118.032 180.94 117.841L178.856 115.751C178.666 115.561 178.666 115.37 178.666 115.18C178.666 114.99 178.856 114.8 179.235 114.8L182.078 114.42C182.836 114.23 183.404 113.85 183.594 113.28L183.973 112.709C184.162 112.329 184.542 112.329 184.921 112.329C185.3 112.519 185.3 112.899 185.3 113.28L184.921 113.85C184.352 114.8 183.404 115.561 182.457 115.751H180.751L181.888 116.891C182.267 117.271 182.457 117.651 182.646 118.222C182.836 118.602 182.646 118.982 182.267 118.982H182.078Z" fill="white"/>
<g filter="url(#filter2_d)">
<path d="M205.497 40.138C205.087 41.5759 204.473 43.2194 203.653 44.4519C201.605 49.3819 196.075 55.3386 188.291 58.4199C183.581 60.2687 178.05 61.0907 172.111 59.8582C156.544 56.5715 146.713 41.3707 149.785 25.9644C154.496 3.5739 181.942 -4.64299 198.123 11.3796C206.111 19.1854 208.569 30.2779 205.497 40.138Z" fill="url(#paint12_linear)"/>
</g>
<path d="M205.262 40.4174C204.861 41.8843 204.261 43.5608 203.46 44.8182C201.458 49.8477 196.052 55.925 188.445 59.0684L170.427 40.2078L183.44 28.6819L191.047 25.748L205.262 40.4174Z" fill="url(#paint13_linear)"/>
<path d="M190.529 25.3259C187.786 20.5572 181.323 19.9353 177.993 24.2892C174.664 19.7279 168.2 20.3499 165.458 25.3259C163.108 29.4725 164.871 33.2045 167.809 36.7292C170.747 40.4611 174.86 43.7785 177.014 45.0224C177.406 45.2298 177.798 45.4371 178.189 45.4371C178.581 45.4371 178.973 45.4371 179.364 45.0224C181.323 43.7785 185.632 40.4611 188.57 36.7292C191.116 33.2045 192.879 29.4725 190.529 25.3259Z" fill="url(#paint14_linear)"/>
<defs>
<filter id="filter0_d" x="0" y="12.8545" width="211.129" height="153.702" filterUnits="userSpaceOnUse" color-interpolation-filters="sRGB">
<feFlood flood-opacity="0" result="BackgroundImageFix"/>
<feColorMatrix in="SourceAlpha" type="matrix" values="0 0 0 0 0 0 0 0 0 0 0 0 0 0 0 0 0 0 127 0" result="hardAlpha"/>
<feOffset dy="11"/>
<feGaussianBlur stdDeviation="11"/>
<feColorMatrix type="matrix" values="0 0 0 0 0.397708 0 0 0 0 0.47749 0 0 0 0 0.575 0 0 0 0.18 0"/>
<feBlend mode="normal" in2="BackgroundImageFix" result="effect1_dropShadow"/>
<feBlend mode="normal" in="SourceGraphic" in2="effect1_dropShadow" result="shape"/>
</filter>
<filter id="filter1_d" x="65.126" y="76.9316" width="160.621" height="84.8932" filterUnits="userSpaceOnUse" color-interpolation-filters="sRGB">
<feFlood flood-opacity="0" result="BackgroundImageFix"/>
<feColorMatrix in="SourceAlpha" type="matrix" values="0 0 0 0 0 0 0 0 0 0 0 0 0 0 0 0 0 0 127 0" result="hardAlpha"/>
<feOffset dy="2"/>
<feGaussianBlur stdDeviation="11"/>
<feColorMatrix type="matrix" values="0 0 0 0 0.397708 0 0 0 0 0.47749 0 0 0 0 0.575 0 0 0 0.21 0"/>
<feBlend mode="normal" in2="BackgroundImageFix" result="effect1_dropShadow"/>
<feBlend mode="normal" in="SourceGraphic" in2="effect1_dropShadow" result="shape"/>
</filter>
<filter id="filter2_d" x="141.224" y="0.0292969" width="73.5534" height="73.4149" filterUnits="userSpaceOnUse" color-interpolation-filters="sRGB">
<feFlood flood-opacity="0" result="BackgroundImageFix"/>
<feColorMatrix in="SourceAlpha" type="matrix" values="0 0 0 0 0 0 0 0 0 0 0 0 0 0 0 0 0 0 127 0" result="hardAlpha"/>
<feOffset dy="5"/>
<feGaussianBlur stdDeviation="4"/>
<feColorMatrix type="matrix" values="0 0 0 0 0.968627 0 0 0 0 0.254902 0 0 0 0 0.564706 0 0 0 0.3 0"/>
<feBlend mode="normal" in2="BackgroundImageFix" result="effect1_dropShadow"/>
<feBlend mode="normal" in="SourceGraphic" in2="effect1_dropShadow" result="shape"/>
</filter>
<linearGradient id="paint0_linear" x1="22" y1="29.3446" x2="189.122" y2="29.3446" gradientUnits="userSpaceOnUse">
<stop stop-color="#A25FFF"/>
<stop offset="1" stop-color="white"/>
</linearGradient>
<linearGradient id="paint1_linear" x1="131.214" y1="62.1422" x2="183.953" y2="62.1422" gradientUnits="userSpaceOnUse">
<stop stop-color="#CED7E2"/>
<stop offset="1" stop-color="#E6ECF5"/>
</linearGradient>
<linearGradient id="paint2_linear" x1="131.214" y1="71.2787" x2="183.953" y2="71.2787" gradientUnits="userSpaceOnUse">
<stop stop-color="#CED7E2"/>
<stop offset="1" stop-color="#E6ECF5"/>
</linearGradient>
<linearGradient id="paint3_linear" x1="131.214" y1="80.4153" x2="183.953" y2="80.4153" gradientUnits="userSpaceOnUse">
<stop stop-color="#CED7E2"/>
<stop offset="1" stop-color="#E6ECF5"/>
</linearGradient>
<linearGradient id="paint4_linear" x1="131.02" y1="89.2969" x2="158.365" y2="89.2969" gradientUnits="userSpaceOnUse">
<stop stop-color="#CED7E2"/>
<stop offset="1" stop-color="#E6ECF5"/>
</linearGradient>
<linearGradient id="paint5_linear" x1="122.774" y1="10.7201" x2="127.832" y2="10.7201" gradientUnits="userSpaceOnUse">
<stop stop-color="#BA83FF"/>
<stop offset="1" stop-color="#855AFF"/>
</linearGradient>
<linearGradient id="paint6_linear" x1="57.0891" y1="151.504" x2="62.1476" y2="151.504" gradientUnits="userSpaceOnUse">
<stop stop-color="#FF66A9"/>
<stop offset="1" stop-color="#F53689"/>
</linearGradient>
<linearGradient id="paint7_linear" x1="99.0773" y1="109.182" x2="108.973" y2="124.493" gradientUnits="userSpaceOnUse">
<stop stop-color="#BC8CFF"/>
<stop offset="1" stop-color="#7B5AFF"/>
</linearGradient>
<linearGradient id="paint8_linear" x1="119.401" y1="109.182" x2="129.255" y2="124.585" gradientUnits="userSpaceOnUse">
<stop stop-color="#BC8CFF"/>
<stop offset="1" stop-color="#7B5AFF"/>
</linearGradient>
<linearGradient id="paint9_linear" x1="139.671" y1="109.165" x2="149.375" y2="124.505" gradientUnits="userSpaceOnUse">
<stop stop-color="#BC8CFF"/>
<stop offset="1" stop-color="#7B5AFF"/>
</linearGradient>
<linearGradient id="paint10_linear" x1="160.151" y1="109.165" x2="169.857" y2="124.499" gradientUnits="userSpaceOnUse">
<stop stop-color="#BC8CFF"/>
<stop offset="1" stop-color="#7B5AFF"/>
</linearGradient>
<linearGradient id="paint11_linear" x1="180.766" y1="109.146" x2="190.531" y2="124.398" gradientUnits="userSpaceOnUse">
<stop stop-color="#BC8CFF"/>
<stop offset="1" stop-color="#7B5AFF"/>
</linearGradient>
<linearGradient id="paint12_linear" x1="149.414" y1="31.6915" x2="206.74" y2="31.6915" gradientUnits="userSpaceOnUse">
<stop stop-color="#FF66A9"/>
<stop offset="1" stop-color="#F53689"/>
</linearGradient>
<linearGradient id="paint13_linear" x1="179.428" y1="31.4945" x2="199.749" y2="50.9075" gradientUnits="userSpaceOnUse">
<stop stop-color="#E81778"/>
<stop offset="1" stop-color="#E01F79" stop-opacity="0"/>
</linearGradient>
<linearGradient id="paint14_linear" x1="187.312" y1="38.5145" x2="168.036" y2="22.817" gradientUnits="userSpaceOnUse">
<stop offset="0.0113208" stop-color="#FFC9E3"/>
<stop offset="1" stop-color="white"/>
</linearGradient>
</defs>
</svg>
