<svg width="252" height="205" viewBox="0 0 252 205" fill="none" xmlns="http://www.w3.org/2000/svg">
<path d="M195.889 94C195.889 114.37 189.049 133.259 177.586 148.444C171.3 156.593 163.72 163.815 155.031 169.37C140.98 178.63 124.156 184 106.037 184C56.3041 184 16 143.63 16 94C16 44.1852 56.3041 4 105.852 4C123.971 4 140.795 9.37037 154.846 18.4444C163.535 24 171.115 31.2222 177.401 39.3704C189.049 54.7407 195.889 73.4444 195.889 94Z" fill="#EAEEF9"/>
<path d="M180.545 30.6664C182.209 30.6664 183.688 29.3701 183.688 27.5183C183.688 25.8516 182.394 24.3701 180.545 24.3701C178.697 24.3701 177.402 25.6664 177.402 27.5183C177.402 29.1849 178.697 30.6664 180.545 30.6664Z" fill="url(#paint0_linear)"/>
<path d="M175.922 161.407C177.482 161.407 178.695 162.623 178.695 164.185C178.695 165.748 177.482 166.963 175.922 166.963C174.362 166.963 173.148 165.748 173.148 164.185C173.322 162.623 174.535 161.407 175.922 161.407Z" fill="url(#paint1_linear)"/>
<g filter="url(#filter0_d)">
<path d="M132.29 171.593H31.7145C26.7227 171.593 22.6553 167.519 22.6553 162.519V20.2967C22.6553 15.2967 26.7227 11.2227 31.7145 11.2227H132.29C137.282 11.2227 141.349 15.2967 141.349 20.2967V162.334C141.349 167.334 137.282 171.593 132.29 171.593Z" fill="white"/>
</g>
<path d="M111.398 135.296H40.404C38.5552 135.296 37.0762 134 37.0762 132.333C37.0762 130.666 38.5552 129.37 40.404 129.37H111.398C113.247 129.37 114.726 130.666 114.726 132.333C114.911 133.815 113.247 135.296 111.398 135.296Z" fill="url(#paint2_linear)"/>
<path d="M68.6909 151.964H40.404C38.5552 151.964 37.0762 150.668 37.0762 149.001C37.0762 147.334 38.5552 146.038 40.404 146.038H68.6909C70.5397 146.038 72.0187 147.334 72.0187 149.001C71.8339 150.668 70.5397 151.964 68.6909 151.964Z" fill="url(#paint3_linear)"/>
<path d="M114.912 96.7773C100.492 107.333 99.937 104.555 93.0964 102.888C70.7258 97.518 76.0874 113.259 49.8342 97.518C48.9098 96.9625 48.9098 96.4069 49.4645 95.481C51.8679 91.4069 70.1712 59.3699 70.1712 59.3699C71.8351 56.4069 72.9444 53.0736 72.7595 49.7402C72.5746 45.2958 72.2049 43.9995 71.4653 43.0736C70.9107 42.3328 67.9526 39.9254 69.8014 36.0365C73.499 28.4439 71.2804 24.7402 73.499 24.7402C73.6839 24.7402 74.0537 24.7402 74.0537 24.9254C74.2386 25.1106 74.2385 25.481 74.2385 25.6662C74.4234 26.4069 74.4234 28.8143 75.5327 31.9625C76.4571 34.3699 77.3815 33.9995 79.4152 35.8513C79.6001 36.0365 79.785 36.2217 79.9699 36.4069C80.5245 36.9625 81.0792 37.518 81.4489 38.2588C84.5919 33.6291 87.7349 36.4069 88.8442 25.8513C89.0291 24.3699 90.8779 24.555 90.8779 26.0365C91.0627 28.4439 91.2476 29.9254 91.8023 31.7773L92.7267 34.3699C93.6511 36.7773 94.5755 38.2588 93.6511 40.481C93.0964 41.5921 92.5418 42.1476 92.172 42.8884C91.9872 43.0736 91.8023 43.4439 91.8023 43.8143C91.0627 45.6662 91.0627 49.555 91.0627 51.2217C91.0627 52.1476 91.2476 53.0736 91.4325 53.8143C92.172 57.1476 94.0208 59.3699 97.3487 65.1106C103.635 76.4069 114.728 96.5921 114.912 96.7773Z" fill="url(#paint4_linear)"/>
<path d="M92.3571 42.8896C92.1722 43.0748 91.9873 43.4452 91.9873 43.8156C90.878 44.7415 89.7688 44.9267 88.8444 44.9267C88.2897 44.9267 87.9199 44.9267 87.5502 44.7415C87.1804 44.7415 87.3653 44.1859 87.7351 44.1859H87.9199C88.6595 44.3711 90.3234 44.5563 92.3571 42.8896C92.1722 42.8896 91.9873 42.8896 92.3571 42.8896Z" fill="#E3207A"/>
<path d="M76.2724 44.7393C75.7178 44.7393 75.5329 44.9245 74.9783 44.9245C74.2387 44.9245 73.3143 44.7393 72.205 43.9986C72.0202 43.6282 71.8353 43.443 71.6504 43.2578C71.8353 43.2578 71.8353 43.2578 72.0202 43.2578C73.4992 44.3689 74.6085 44.5541 76.2724 44.1837C76.4573 43.9986 76.6422 44.5541 76.2724 44.7393Z" fill="#E3207A"/>
<path d="M91.4314 53.8139C91.2466 53.8139 91.2466 53.8139 91.0617 53.8139C85.885 55.1102 78.4898 55.1102 73.498 53.9991C73.3131 53.9991 72.9433 53.8139 72.3887 53.8139C72.5736 52.888 72.7584 51.9621 72.7584 51.0361C79.2293 52.7028 88.6582 51.9621 91.0617 51.0361C91.0617 52.1472 91.2466 52.888 91.4314 53.8139Z" fill="#E3207A"/>
<path d="M82.1873 55.6671C83.4126 55.6671 84.4059 54.6722 84.4059 53.4449C84.4059 52.2176 83.4126 51.2227 82.1873 51.2227C80.962 51.2227 79.9688 52.2176 79.9688 53.4449C79.9688 54.6722 80.962 55.6671 82.1873 55.6671Z" fill="white"/>
<g filter="url(#filter1_d)">
<path d="M137.523 149.311L130.545 141.39C127.521 137.895 127.521 133.003 130.545 129.508L137.29 121.587C138.686 119.956 140.779 119.024 142.872 119.024H227.07C228.699 119.024 229.861 120.189 229.861 121.82V149.311C229.861 150.942 228.699 152.107 227.07 152.107H143.105C141.012 152.107 138.918 151.175 137.523 149.311Z" fill="#DDE1F0"/>
</g>
<path d="M203.346 142.554V128.343C203.346 126.712 204.741 125.314 206.369 125.314H220.557C222.186 125.314 223.581 126.712 223.581 128.343V142.554C223.581 144.185 222.186 145.583 220.557 145.583H206.369C204.741 145.816 203.346 144.418 203.346 142.554Z" fill="#C5CCDE"/>
<path d="M176.599 142.554V128.343C176.599 126.712 177.994 125.314 179.622 125.314H193.81C195.438 125.314 196.834 126.712 196.834 128.343V142.554C196.834 144.185 195.438 145.583 193.81 145.583H179.622C178.227 145.816 176.599 144.418 176.599 142.554Z" fill="#C5CCDE"/>
<path d="M150.083 142.554V128.343C150.083 126.712 151.479 125.314 153.107 125.314H167.295C168.923 125.314 170.318 126.712 170.318 128.343V142.554C170.318 144.185 168.923 145.583 167.295 145.583H153.107C151.479 145.816 150.083 144.418 150.083 142.554Z" fill="#C5CCDE"/>
<g filter="url(#filter2_d)">
<path d="M153.34 152.805L142.873 152.107C138.454 151.874 134.733 148.146 134.5 143.719L133.802 133.236C133.57 131.139 134.5 129.042 135.896 127.411L195.439 67.7701C196.602 66.6053 198.23 66.6053 199.393 67.7701L218.698 87.1069C219.861 88.2718 219.861 89.9026 218.698 91.0675L159.155 150.709C157.759 152.107 155.666 153.038 153.34 152.805Z" fill="#DDE1F0"/>
</g>
<path d="M195.207 101.319L185.205 91.3014C184.042 90.1365 184.042 88.0398 185.205 86.8749L195.207 76.857C196.37 75.6922 198.463 75.6922 199.626 76.857L209.627 86.8749C210.79 88.0398 210.79 90.1365 209.627 91.3014L199.626 101.319C198.463 102.484 196.37 102.484 195.207 101.319Z" fill="#C5CCDE"/>
<path d="M176.366 120.189L166.364 110.172C165.201 109.007 165.201 106.91 166.364 105.745L176.366 95.7272C177.529 94.5623 179.622 94.5623 180.785 95.7272L190.786 105.745C191.949 106.91 191.949 109.007 190.786 110.172L180.785 120.189C179.622 121.354 177.529 121.354 176.366 120.189Z" fill="white"/>
<path d="M157.526 139.06L147.525 129.043C146.362 127.878 146.362 125.781 147.525 124.616L157.526 114.598C158.689 113.433 160.782 113.433 161.945 114.598L171.947 124.616C173.11 125.781 173.11 127.878 171.947 129.043L161.945 139.06C160.782 140.225 158.922 140.225 157.526 139.06Z" fill="#C5CCDE"/>
<g filter="url(#filter3_d)">
<path d="M158.688 143.02L150.78 149.777C147.291 152.805 142.407 152.805 138.918 149.777L131.01 143.02C129.382 141.622 128.451 139.526 128.451 137.429V53.0926C128.451 51.4617 129.614 50.2969 131.242 50.2969H158.455C160.084 50.2969 161.247 51.4617 161.247 53.0926V137.429C161.247 139.526 160.316 141.622 158.688 143.02Z" fill="white"/>
</g>
<path d="M151.944 77.088H137.756C136.128 77.088 134.732 75.6902 134.732 74.0594V59.848C134.732 58.2172 136.128 56.8193 137.756 56.8193H151.944C153.572 56.8193 154.968 58.2172 154.968 59.848V73.8264C154.968 75.6902 153.572 77.088 151.944 77.088Z" fill="#8C5DFF"/>
<path d="M151.944 103.648H137.756C136.128 103.648 134.732 102.25 134.732 100.619V86.4076C134.732 84.7768 136.128 83.3789 137.756 83.3789H151.944C153.572 83.3789 154.968 84.7768 154.968 86.4076V100.619C154.968 102.25 153.572 103.648 151.944 103.648Z" fill="#F24F9B"/>
<path d="M151.944 130.206H137.756C136.128 130.206 134.732 128.808 134.732 127.178V112.966C134.732 111.335 136.128 109.938 137.756 109.938H151.944C153.572 109.938 154.968 111.335 154.968 112.966V127.178C154.968 128.808 153.572 130.206 151.944 130.206Z" fill="#DDE1F0"/>
<path d="M144.965 147.214C147.663 147.214 149.85 145.023 149.85 142.321C149.85 139.619 147.663 137.429 144.965 137.429C142.268 137.429 140.081 139.619 140.081 142.321C140.081 145.023 142.268 147.214 144.965 147.214Z" fill="#DDE1F0"/>
<defs>
<filter id="filter0_d" x="0.655273" y="0.222656" width="162.694" height="204.37" filterUnits="userSpaceOnUse" color-interpolation-filters="sRGB">
<feFlood flood-opacity="0" result="BackgroundImageFix"/>
<feColorMatrix in="SourceAlpha" type="matrix" values="0 0 0 0 0 0 0 0 0 0 0 0 0 0 0 0 0 0 127 0" result="hardAlpha"/>
<feOffset dy="11"/>
<feGaussianBlur stdDeviation="11"/>
<feColorMatrix type="matrix" values="0 0 0 0 0.397708 0 0 0 0 0.47749 0 0 0 0 0.575 0 0 0 0.18 0"/>
<feBlend mode="normal" in2="BackgroundImageFix" result="effect1_dropShadow"/>
<feBlend mode="normal" in="SourceGraphic" in2="effect1_dropShadow" result="shape"/>
</filter>
<filter id="filter1_d" x="106.277" y="108.024" width="145.584" height="77.0822" filterUnits="userSpaceOnUse" color-interpolation-filters="sRGB">
<feFlood flood-opacity="0" result="BackgroundImageFix"/>
<feColorMatrix in="SourceAlpha" type="matrix" values="0 0 0 0 0 0 0 0 0 0 0 0 0 0 0 0 0 0 127 0" result="hardAlpha"/>
<feOffset dy="11"/>
<feGaussianBlur stdDeviation="11"/>
<feColorMatrix type="matrix" values="0 0 0 0 0.397708 0 0 0 0 0.47749 0 0 0 0 0.575 0 0 0 0.18 0"/>
<feBlend mode="normal" in2="BackgroundImageFix" result="effect1_dropShadow"/>
<feBlend mode="normal" in="SourceGraphic" in2="effect1_dropShadow" result="shape"/>
</filter>
<filter id="filter2_d" x="111.767" y="55.8965" width="129.804" height="129.945" filterUnits="userSpaceOnUse" color-interpolation-filters="sRGB">
<feFlood flood-opacity="0" result="BackgroundImageFix"/>
<feColorMatrix in="SourceAlpha" type="matrix" values="0 0 0 0 0 0 0 0 0 0 0 0 0 0 0 0 0 0 127 0" result="hardAlpha"/>
<feOffset dy="11"/>
<feGaussianBlur stdDeviation="11"/>
<feColorMatrix type="matrix" values="0 0 0 0 0.397708 0 0 0 0 0.47749 0 0 0 0 0.575 0 0 0 0.18 0"/>
<feBlend mode="normal" in2="BackgroundImageFix" result="effect1_dropShadow"/>
<feBlend mode="normal" in="SourceGraphic" in2="effect1_dropShadow" result="shape"/>
</filter>
<filter id="filter3_d" x="106.451" y="39.2969" width="76.7953" height="145.751" filterUnits="userSpaceOnUse" color-interpolation-filters="sRGB">
<feFlood flood-opacity="0" result="BackgroundImageFix"/>
<feColorMatrix in="SourceAlpha" type="matrix" values="0 0 0 0 0 0 0 0 0 0 0 0 0 0 0 0 0 0 127 0" result="hardAlpha"/>
<feOffset dy="11"/>
<feGaussianBlur stdDeviation="11"/>
<feColorMatrix type="matrix" values="0 0 0 0 0.397708 0 0 0 0 0.47749 0 0 0 0 0.575 0 0 0 0.18 0"/>
<feBlend mode="normal" in2="BackgroundImageFix" result="effect1_dropShadow"/>
<feBlend mode="normal" in="SourceGraphic" in2="effect1_dropShadow" result="shape"/>
</filter>
<linearGradient id="paint0_linear" x1="177.392" y1="27.5347" x2="183.369" y2="27.5347" gradientUnits="userSpaceOnUse">
<stop stop-color="#FF66A9"/>
<stop offset="1" stop-color="#F53689"/>
</linearGradient>
<linearGradient id="paint1_linear" x1="173.285" y1="164.074" x2="178.547" y2="164.074" gradientUnits="userSpaceOnUse">
<stop stop-color="#9857FF"/>
<stop offset="1" stop-color="#5A78FF"/>
</linearGradient>
<linearGradient id="paint2_linear" x1="37.054" y1="132.262" x2="114.841" y2="132.262" gradientUnits="userSpaceOnUse">
<stop stop-color="#CED7E2"/>
<stop offset="1" stop-color="#E6ECF5"/>
</linearGradient>
<linearGradient id="paint3_linear" x1="37.054" y1="149.054" x2="72.0962" y2="149.054" gradientUnits="userSpaceOnUse">
<stop stop-color="#CED7E2"/>
<stop offset="1" stop-color="#E6ECF5"/>
</linearGradient>
<linearGradient id="paint4_linear" x1="49.0298" y1="64.7699" x2="114.844" y2="64.7699" gradientUnits="userSpaceOnUse">
<stop stop-color="#FF66A9"/>
<stop offset="1" stop-color="#F53689"/>
</linearGradient>
</defs>
</svg>
