<svg width="16" height="16" viewBox="0 0 16 16" fill="none" xmlns="http://www.w3.org/2000/svg">
<path d="M1.59998 8.80002C1.59998 8.58785 1.68426 8.38437 1.83429 8.23434C1.98432 8.08431 2.1878 8.00002 2.39998 8.00002H3.99998C4.21215 8.00002 4.41563 8.08431 4.56566 8.23434C4.71569 8.38437 4.79998 8.58785 4.79998 8.80002V12.8C4.79998 13.0122 4.71569 13.2157 4.56566 13.3657C4.41563 13.5157 4.21215 13.6 3.99998 13.6H2.39998C2.1878 13.6 1.98432 13.5157 1.83429 13.3657C1.68426 13.2157 1.59998 13.0122 1.59998 12.8V8.80002ZM6.39998 5.60002C6.39998 5.38785 6.48426 5.18437 6.63429 5.03434C6.78432 4.88431 6.9878 4.80002 7.19998 4.80002H8.79998C9.01215 4.80002 9.21563 4.88431 9.36566 5.03434C9.51569 5.18437 9.59998 5.38785 9.59998 5.60002V12.8C9.59998 13.0122 9.51569 13.2157 9.36566 13.3657C9.21563 13.5157 9.01215 13.6 8.79998 13.6H7.19998C6.9878 13.6 6.78432 13.5157 6.63429 13.3657C6.48426 13.2157 6.39998 13.0122 6.39998 12.8V5.60002ZM11.2 3.20002C11.2 2.98785 11.2843 2.78437 11.4343 2.63434C11.5843 2.48431 11.7878 2.40002 12 2.40002H13.6C13.8121 2.40002 14.0156 2.48431 14.1657 2.63434C14.3157 2.78437 14.4 2.98785 14.4 3.20002V12.8C14.4 13.0122 14.3157 13.2157 14.1657 13.3657C14.0156 13.5157 13.8121 13.6 13.6 13.6H12C11.7878 13.6 11.5843 13.5157 11.4343 13.3657C11.2843 13.2157 11.2 13.0122 11.2 12.8V3.20002Z" fill="#A6AFBD"/>
</svg>
