<svg width="1256" height="936" viewBox="0 0 1256 936" fill="none" xmlns="http://www.w3.org/2000/svg">
<rect width="1256" height="936" fill="#F9F9F9"/>
<ellipse cx="640" cy="811" rx="442" ry="23" fill="#EEEEEE"/>
<path d="M561.986 617.943C564.191 617.309 566.121 615.955 567.468 614.098C568.815 612.24 569.502 609.985 569.419 607.693C569.293 605.59 568.526 603.634 568.61 601.574C568.746 598.42 570.87 595.676 572.468 592.9C574.066 590.125 575.128 586.477 573.267 583.869C572.069 582.177 569.934 581.42 568.473 579.948C567.012 578.476 566.37 576.51 565.592 574.628C564.814 572.746 563.837 570.801 562.07 569.803C560.304 568.804 557.602 569.235 556.877 571.138" fill="#263238"/>
<path d="M542.893 566.081C546.047 564.073 546.804 559.436 545.091 556.125C543.377 552.813 539.76 550.794 536.081 550.195C533.403 549.788 530.668 550.02 528.097 550.871C525.526 551.723 523.193 553.17 521.289 555.094C519.259 557.197 517.609 559.92 514.854 560.877C512.436 561.728 509.755 560.961 507.211 561.297C505.515 561.604 503.908 562.286 502.509 563.294C501.111 564.302 499.955 565.609 499.127 567.122C497.498 570.163 496.52 573.511 496.256 576.951C495.888 580.105 495.636 583.522 493.47 585.804C491.305 588.085 487.993 588.506 485.365 590.093C482.944 591.689 481.243 594.168 480.626 597.001C480.009 599.834 480.525 602.796 482.064 605.253C483.115 606.767 484.608 608.165 484.723 610.005C484.839 611.845 483.756 613.159 483.241 614.799C482.976 615.836 482.936 616.917 483.124 617.971C483.312 619.024 483.724 620.025 484.332 620.906C484.94 621.787 485.729 622.527 486.647 623.077C487.565 623.626 488.591 623.973 489.654 624.093C491.841 624.219 494.175 623.367 496.141 624.345C498.107 625.323 498.811 627.667 500.052 629.455C501.333 631.178 503.166 632.411 505.245 632.947C507.325 633.482 509.525 633.289 511.48 632.398C513.088 631.61 514.634 630.296 516.389 630.432C518.145 630.569 519.543 632.072 521.331 632.409C523.633 632.85 525.809 631.158 527.176 629.255C528.543 627.352 529.499 625.113 531.245 623.557C533.536 621.517 536.754 621.023 539.655 620.024C542.862 618.916 545.793 617.132 548.251 614.794C550.709 612.455 552.636 609.617 553.903 606.469C555.17 603.322 555.746 599.939 555.593 596.55C555.441 593.161 554.562 589.844 553.018 586.823" fill="#263238"/>
<path d="M549.864 570.212C551.117 570.348 552.274 570.95 553.105 571.898C553.936 572.846 554.381 574.071 554.353 575.332V575.332L551.346 643.321C551.22 651.353 539.487 655.863 530.887 655.664C522.203 655.464 521.93 651.206 521.814 643.563C521.636 630.8 521.657 626.006 521.646 626.079C521.636 626.153 510.681 624.24 508.441 609.92C507.327 602.792 507.706 591.123 508.326 581.587C508.894 572.998 514.634 562.474 523.16 563.399L549.864 570.212Z" fill="#FFBE9D"/>
<path d="M511.428 590.85C511.425 591.328 511.607 591.789 511.936 592.136C512.265 592.483 512.716 592.689 513.194 592.71C513.427 592.729 513.662 592.701 513.884 592.627C514.106 592.554 514.311 592.437 514.488 592.283C514.664 592.13 514.808 591.942 514.91 591.732C515.013 591.522 515.073 591.293 515.086 591.06C515.095 590.582 514.916 590.119 514.588 589.771C514.26 589.424 513.808 589.218 513.331 589.199C513.097 589.18 512.862 589.208 512.639 589.282C512.416 589.355 512.21 589.472 512.033 589.625C511.856 589.779 511.711 589.966 511.607 590.177C511.503 590.387 511.442 590.615 511.428 590.85V590.85Z" fill="#263238"/>
<path d="M510.797 587.664C511.028 587.906 512.416 586.876 514.393 586.886C516.369 586.897 517.809 587.885 518.03 587.643C518.251 587.401 517.904 587.107 517.273 586.645C516.419 586.049 515.402 585.734 514.361 585.74C513.335 585.732 512.332 586.053 511.501 586.655C510.892 587.118 510.681 587.559 510.797 587.664Z" fill="#263238"/>
<path d="M531.119 590.85C531.116 591.328 531.298 591.789 531.627 592.136C531.957 592.483 532.408 592.689 532.885 592.71C533.119 592.729 533.353 592.701 533.575 592.627C533.797 592.554 534.003 592.437 534.179 592.283C534.355 592.13 534.499 591.942 534.602 591.732C534.705 591.522 534.765 591.293 534.778 591.06C534.786 590.58 534.606 590.116 534.276 589.768C533.945 589.42 533.491 589.215 533.012 589.199C532.778 589.18 532.544 589.209 532.322 589.282C532.1 589.355 531.894 589.472 531.718 589.626C531.542 589.78 531.398 589.967 531.295 590.177C531.192 590.387 531.132 590.616 531.119 590.85Z" fill="#263238"/>
<path d="M530.215 588.074C530.446 588.316 531.834 587.286 533.811 587.296C535.787 587.307 537.227 588.348 537.448 588.053C537.669 587.759 537.322 587.517 536.691 587.055C535.837 586.46 534.82 586.144 533.779 586.15C532.753 586.147 531.753 586.467 530.919 587.065C530.31 587.538 530.099 587.969 530.215 588.074Z" fill="#263238"/>
<path d="M523.013 602.709C521.99 602.383 520.931 602.185 519.859 602.12C519.355 602.067 518.871 601.962 518.808 601.626C518.767 601.104 518.888 600.583 519.155 600.133C519.628 598.913 520.133 597.631 520.648 596.295C522.75 590.829 524.243 586.329 524.022 586.255C523.802 586.182 521.92 590.534 519.817 595.991C519.323 597.347 518.839 598.629 518.387 599.859C518.064 600.465 517.967 601.166 518.114 601.836C518.186 602.014 518.299 602.173 518.443 602.301C518.587 602.429 518.759 602.521 518.945 602.572C519.225 602.65 519.515 602.692 519.807 602.698C520.871 602.834 521.948 602.837 523.013 602.709V602.709Z" fill="#263238"/>
<path d="M521.595 626.08C528.335 626.2 534.976 624.45 540.781 621.023C540.781 621.023 535.924 631.116 521.595 629.738V626.08Z" fill="#EB996E"/>
<path d="M523.833 607.471C524.208 607.007 524.692 606.643 525.243 606.413C525.794 606.184 526.394 606.096 526.987 606.157C527.423 606.195 527.847 606.322 528.232 606.53C528.617 606.738 528.956 607.023 529.227 607.366C529.486 607.698 529.639 608.1 529.667 608.52C529.695 608.939 529.597 609.358 529.384 609.721C529.064 610.074 528.647 610.323 528.185 610.439C527.723 610.555 527.237 610.532 526.788 610.373C525.857 610.035 525 609.521 524.265 608.859C524.048 608.695 523.859 608.496 523.707 608.27C523.635 608.162 523.596 608.034 523.596 607.903C523.596 607.772 523.635 607.643 523.707 607.535" fill="#710BFF"/>
<path d="M528.838 604.086C528.512 604.086 528.502 606.189 526.662 607.734C524.822 609.28 522.541 609.006 522.53 609.311C522.53 609.437 523.035 609.721 524.002 609.753C525.258 609.778 526.481 609.353 527.45 608.554C528.387 607.796 528.99 606.702 529.133 605.505C529.206 604.612 528.964 604.076 528.838 604.086Z" fill="#263238"/>
<path d="M529.332 584.616C529.521 585.152 531.497 584.899 533.81 585.183C536.123 585.467 538.016 586.108 538.31 585.625C538.457 585.394 538.131 584.889 537.374 584.363C536.365 583.728 535.225 583.329 534.04 583.196C532.855 583.063 531.655 583.2 530.53 583.596C529.679 583.932 529.248 584.363 529.332 584.616Z" fill="#263238"/>
<path d="M511.532 581.945C511.879 582.397 513.246 581.945 514.875 581.945C516.505 581.945 517.903 582.25 518.219 581.788C518.366 581.556 518.145 581.104 517.535 580.684C516.725 580.169 515.779 579.91 514.82 579.938C513.86 579.966 512.931 580.281 512.152 580.841C511.574 581.262 511.385 581.725 511.532 581.945Z" fill="#263238"/>
<path d="M540.402 565.554C542.033 564.413 543.889 563.634 545.846 563.272C547.803 562.909 549.815 562.97 551.746 563.452C555.562 564.503 558.727 567.994 558.863 571.862C558.948 574.386 557.812 577.119 558.979 579.358C560.146 581.598 562.669 582.407 564.541 583.984C565.975 585.238 566.948 586.935 567.306 588.806C567.664 590.677 567.387 592.614 566.517 594.308C564.951 597.178 561.671 599.281 561.397 602.519C561.134 605.568 563.7 608.144 564.33 611.14C565.014 614.441 563.184 617.858 560.567 620.055C557.949 622.252 554.627 623.462 551.389 624.618C548.865 625.533 546.132 626.458 543.535 625.859C542.001 625.447 540.623 624.59 539.576 623.396C538.528 622.203 537.857 620.726 537.648 619.151C537.492 617.581 537.677 615.996 538.19 614.505C538.704 613.013 539.534 611.65 540.623 610.509C542.463 608.48 545.049 606.766 545.491 604.086C546.174 599.88 541.212 596.506 541.517 592.3C541.674 590.134 543.209 588.337 544.481 586.549C545.753 584.762 546.868 582.523 546.079 580.494C545.028 577.844 541.59 577.151 539.488 575.237C538.621 574.422 537.998 573.381 537.688 572.232C537.378 571.083 537.393 569.87 537.732 568.729C538.114 567.59 538.8 566.576 539.715 565.796C540.63 565.016 541.74 564.5 542.925 564.303" fill="#263238"/>
<path d="M541.947 562.327C541.954 563.767 541.643 565.191 541.037 566.497C540.43 567.803 539.543 568.959 538.439 569.882C537.334 570.806 536.04 571.475 534.647 571.841C533.255 572.207 531.799 572.261 530.383 572C528.196 571.6 525.799 570.496 523.906 571.663C522.014 572.83 521.804 575.869 520.069 577.414C517.546 579.611 513.54 577.551 510.334 578.465C507.863 579.201 506.318 581.556 504.667 583.554C503.017 585.551 500.567 587.433 498.086 586.708C498.161 584.476 498.492 582.261 499.074 580.105C499.666 577.937 500.988 576.04 502.817 574.733C503.899 574.17 504.951 573.552 505.971 572.883C508.074 571.232 508.505 568.341 509.766 566.028C510.601 564.539 511.778 563.271 513.2 562.327C514.623 561.384 516.249 560.793 517.945 560.603C520.763 560.319 523.665 561.16 526.356 560.467C528.385 559.962 530.162 558.648 532.212 558.248C536.217 557.491 539.939 560.351 542.841 563.221" fill="#263238"/>
<path d="M568.094 596.548C568.358 596.04 568.471 595.467 568.42 594.897C568.291 594.132 567.952 593.418 567.442 592.834C566.932 592.249 566.27 591.817 565.529 591.586C564.501 591.222 563.447 590.937 562.375 590.734C561.096 590.502 559.881 590 558.811 589.262C558.24 588.8 557.777 588.218 557.458 587.556C557.138 586.895 556.968 586.17 556.961 585.436C556.945 583.933 557.019 582.43 557.182 580.936C557.223 580.198 557.184 579.458 557.066 578.728C556.928 578.046 556.641 577.404 556.225 576.846C555.283 575.877 554.088 575.193 552.777 574.87C551.546 574.518 550.366 574.009 549.265 573.356C548.307 572.782 547.436 572.074 546.679 571.253C545.572 570.077 544.714 568.689 544.156 567.174C543.996 566.769 543.873 566.35 543.788 565.923C543.725 565.629 543.704 565.481 543.725 565.471C543.746 565.46 543.914 566.07 544.345 567.1C545.119 568.896 546.297 570.489 547.787 571.757C549.276 573.024 551.038 573.931 552.934 574.407C554.343 574.74 555.628 575.47 556.635 576.51C557.11 577.13 557.44 577.848 557.602 578.612C557.728 579.384 557.771 580.166 557.728 580.946C557.571 582.423 557.494 583.908 557.497 585.393C557.496 586.056 557.641 586.711 557.923 587.311C558.205 587.911 558.616 588.441 559.127 588.863C560.134 589.563 561.276 590.046 562.48 590.282C563.555 590.51 564.609 590.823 565.634 591.218C566.516 591.555 567.288 592.13 567.863 592.879C568.281 593.455 568.532 594.135 568.588 594.845C568.617 595.295 568.526 595.744 568.326 596.149C568.231 596.443 568.105 596.559 568.094 596.548Z" fill="#455A64"/>
<path d="M483.788 605.484L483.546 605.369C483.329 605.233 483.145 605.049 483.01 604.832C482.811 604.376 482.733 603.875 482.785 603.38C482.837 602.884 483.015 602.41 483.304 602.004C483.661 601.375 484.195 600.863 484.839 600.533C485.585 600.162 486.354 599.839 487.141 599.565C488.025 599.27 488.843 598.806 489.549 598.199C490.265 597.45 490.744 596.506 490.926 595.486C491.157 594.435 491.231 593.236 491.431 592.017C491.581 590.708 492.07 589.462 492.85 588.4C494.511 586.213 497.245 585.047 499.284 582.986C500.302 581.902 501.067 580.606 501.523 579.191C502.009 577.697 502.361 576.163 502.575 574.607C503.016 571.453 503.468 567.941 505.582 565.061C506.612 563.613 508.159 562.616 509.902 562.275C511.559 562.038 513.242 562.078 514.886 562.39C516.419 562.688 517.985 562.78 519.543 562.664C521.009 562.494 522.362 561.795 523.349 560.698C525.304 558.595 526.419 555.757 528.826 554.306C529.899 553.651 531.094 553.225 532.339 553.053C533.583 552.881 534.85 552.968 536.059 553.307C538.064 553.877 539.767 555.204 540.811 557.008C541.6 558.347 542.028 559.869 542.052 561.423C542.08 562.396 541.927 563.366 541.6 564.283C541.491 564.606 541.346 564.916 541.169 565.208C541.169 565.208 541.295 564.882 541.495 564.251C541.769 563.339 541.887 562.386 541.842 561.434C541.782 559.925 541.34 558.457 540.559 557.165C539.531 555.454 537.881 554.207 535.954 553.685C534.796 553.38 533.587 553.315 532.402 553.496C531.217 553.677 530.083 554.099 529.068 554.737C527.967 555.494 527.027 556.462 526.303 557.586C525.519 558.809 524.655 559.978 523.717 561.087C523.189 561.662 522.571 562.149 521.888 562.527C521.174 562.892 520.402 563.13 519.606 563.231C518.004 563.354 516.392 563.266 514.812 562.969C513.228 562.664 511.605 562.621 510.008 562.842C508.399 563.168 506.975 564.092 506.023 565.429C505.065 566.784 504.37 568.307 503.973 569.918C503.594 571.506 503.303 573.113 503.1 574.733C502.892 576.318 502.54 577.88 502.049 579.401C501.566 580.888 500.754 582.246 499.673 583.375C497.518 585.478 494.816 586.655 493.239 588.726C492.5 589.722 492.03 590.892 491.872 592.122C491.672 593.32 491.588 594.498 491.326 595.612C491.127 596.705 490.599 597.71 489.812 598.493C489.068 599.122 488.207 599.597 487.278 599.891C486.496 600.149 485.73 600.454 484.986 600.806C484.379 601.107 483.869 601.574 483.514 602.152C483.235 602.531 483.055 602.973 482.989 603.439C482.923 603.905 482.973 604.38 483.136 604.822C483.309 605.082 483.53 605.307 483.788 605.484V605.484Z" fill="#455A64"/>
<path d="M448.663 704.078L474.052 701.754C474.052 701.754 489.675 660.595 508.935 650.618L521.415 672.412L494.7 722.591H442.555L448.663 704.078Z" fill="#710BFF"/>
<path opacity="0.3" d="M448.663 704.078L474.052 701.754C474.052 701.754 489.675 660.595 508.935 650.618L521.415 672.412L494.7 722.591H442.555L448.663 704.078Z" fill="black"/>
<path d="M458.693 715.643C459.947 712.81 461.543 710.141 463.445 707.695C462.174 710.519 460.579 713.186 458.693 715.643Z" fill="#FAFAFA"/>
<path d="M476.681 715.148C474.477 712.991 472.536 710.58 470.898 707.967C472.072 708.971 473.114 710.119 474 711.384C475.036 712.531 475.936 713.794 476.681 715.148V715.148Z" fill="#FAFAFA"/>
<path d="M479.804 705.718C479.439 703.511 479.439 701.26 479.804 699.053C480.168 701.26 480.168 703.511 479.804 705.718V705.718Z" fill="#FAFAFA"/>
<path d="M470.867 720.425C469.981 720.178 469.155 719.753 468.439 719.174C467.177 718.344 466.231 717.576 466.336 717.45C467.22 717.709 468.045 718.138 468.765 718.712C469.963 719.532 470.951 720.299 470.867 720.425Z" fill="#FAFAFA"/>
<path d="M485.449 682.599C485.032 684.186 484.444 685.723 483.693 687.183C483.107 688.716 482.352 690.179 481.443 691.546C481.847 689.956 482.433 688.418 483.189 686.962C483.781 685.43 484.539 683.967 485.449 682.599Z" fill="#FAFAFA"/>
<path d="M495.742 665.925C495.826 666.041 494.922 666.882 493.713 667.807C493.025 668.436 492.221 668.925 491.347 669.247C491.263 669.121 492.167 668.28 493.376 667.366C494.061 666.733 494.865 666.243 495.742 665.925Z" fill="#FAFAFA"/>
<path d="M533.716 719.291L546.815 666.399C547.911 661.961 550.655 658.107 554.491 655.621C558.327 653.135 562.965 652.203 567.463 653.015V653.015C572.084 653.851 576.196 656.459 578.922 660.283C581.648 664.106 582.772 668.844 582.056 673.484L574.045 725.178C573.088 730.469 570.507 735.33 566.659 739.085C562.811 742.841 557.889 745.303 552.577 746.131L542.168 747.75L533.716 719.291Z" fill="#710BFF"/>
<path d="M574.991 649.598C573.624 648.479 572.027 647.679 570.313 647.253C568.459 646.822 566.531 646.822 564.678 647.253C562.421 647.823 560.324 648.902 558.548 650.407C554.711 653.624 552.629 657.766 551.189 660.731C550.485 662.214 549.949 663.433 549.57 664.274C549.396 664.724 549.181 665.157 548.929 665.567C549.032 665.099 549.18 664.641 549.37 664.201C549.696 663.328 550.169 662.098 550.832 660.563C551.608 658.782 552.508 657.057 553.523 655.401C554.785 653.365 556.356 651.538 558.18 649.987C560.014 648.411 562.193 647.291 564.541 646.717C566.468 646.278 568.471 646.304 570.386 646.791C571.672 647.121 572.88 647.704 573.94 648.504C574.222 648.724 574.486 648.967 574.728 649.23C574.917 649.493 575.002 649.587 574.991 649.598Z" fill="#263238"/>
<path d="M500.799 661.499C500.695 661.677 500.572 661.842 500.431 661.993L499.317 663.339C498.339 664.506 496.962 666.209 495.385 668.406C491.193 674.091 488.154 680.541 486.438 687.393C484.619 695.457 484.525 703.005 484.22 708.42C484.083 711.132 483.957 713.329 483.841 714.843C483.778 715.558 483.726 716.136 483.683 716.588C483.671 716.794 483.643 716.997 483.599 717.198C483.57 716.996 483.57 716.791 483.599 716.588C483.599 716.126 483.599 715.537 483.652 714.833C483.652 713.245 483.768 711.069 483.852 708.409C484.062 703.005 484.083 695.425 485.954 687.278C487.672 680.359 490.789 673.865 495.111 668.196C496.741 666.009 498.171 664.327 499.191 663.202C499.695 662.634 500.116 662.214 500.389 661.93C500.513 661.774 500.65 661.63 500.799 661.499V661.499Z" fill="#263238"/>
<path d="M584.716 661.384C583.276 651.922 578.061 649.661 572.647 646.718C570.881 645.75 562.355 643.564 555.595 641.913C554.943 637.823 553.786 630.485 553.492 628.94C553.134 626.763 519.05 632.199 518.619 633.019C518.336 633.555 517.568 642.05 517.053 647.737L508.895 650.586L498.287 664.128L492.746 671.992C489.482 676.528 487.148 681.666 485.881 687.11C484.691 693.138 484.179 699.281 484.357 705.424L482.706 740.117L554.07 760.282L559.537 725.105L577.935 700.062C579.502 689.938 586.482 673.011 584.716 661.384Z" fill="#710BFF"/>
<path d="M523.854 648.799C523.605 648.018 523.446 647.21 523.381 646.392C523.16 644.899 522.887 642.828 522.624 640.536C522.498 639.401 522.382 638.318 522.267 637.298C522.158 636.412 522.095 635.52 522.078 634.628C522.068 633.997 522.247 633.378 522.593 632.851C522.866 632.493 523.097 632.399 523.118 632.42C523.139 632.441 522.961 632.609 522.771 632.966C522.533 633.486 522.428 634.057 522.467 634.628C522.467 635.363 522.656 636.247 522.771 637.245C522.887 638.244 523.024 639.348 523.171 640.473C523.434 642.765 523.644 644.846 523.77 646.35C523.892 647.16 523.92 647.982 523.854 648.799V648.799Z" fill="#263238"/>
<path d="M532.949 646.654C532.594 645.957 532.34 645.214 532.192 644.446C531.241 640.806 530.886 637.035 531.14 633.281C531.148 632.502 531.261 631.728 531.477 630.979C531.645 630.979 531.34 634.522 531.75 638.853C532.16 643.185 533.117 646.612 532.949 646.654Z" fill="#263238"/>
<path d="M549.864 644.152C550.079 641.538 550.012 638.909 549.664 636.309C549.127 633.74 548.302 631.24 547.204 628.855C547.732 629.441 548.156 630.113 548.455 630.842C550.131 634.261 550.795 638.088 550.369 641.871C550.319 642.653 550.149 643.423 549.864 644.152V644.152Z" fill="#263238"/>
<path d="M501.503 675.124C503.127 672.028 505.239 669.213 507.758 666.787C505.81 669.666 503.723 672.449 501.503 675.124Z" fill="#FAFAFA"/>
<path d="M517.514 662.025C515.475 659.976 513.708 657.672 512.258 655.17C513.328 656.14 514.277 657.234 515.086 658.429C516.043 659.521 516.859 660.729 517.514 662.025V662.025Z" fill="#FAFAFA"/>
<path d="M534.294 653.845C533.267 655.064 532.146 656.199 530.94 657.241C529.864 658.417 528.7 659.51 527.46 660.511C528.306 659.144 529.351 657.91 530.561 656.852C531.645 655.665 532.904 654.651 534.294 653.845Z" fill="#FAFAFA"/>
<path d="M529.584 643.836C528.605 643.323 527.72 642.647 526.966 641.839C526.088 641.16 525.324 640.343 524.706 639.421C525.683 639.946 526.57 640.624 527.334 641.429C528.211 642.103 528.971 642.917 529.584 643.836V643.836Z" fill="#FAFAFA"/>
<path d="M544.292 635.994C543.17 636.519 541.975 636.873 540.749 637.045C539.563 637.388 538.335 637.558 537.101 637.55C538.221 637.029 539.411 636.675 540.633 636.499C541.822 636.156 543.054 635.986 544.292 635.994Z" fill="#FAFAFA"/>
<path d="M547.236 659.281C546.898 658.088 546.742 656.851 546.773 655.612C546.622 654.384 546.651 653.141 546.857 651.921C547.195 653.114 547.351 654.351 547.32 655.591C547.471 656.818 547.442 658.061 547.236 659.281V659.281Z" fill="#FAFAFA"/>
<path d="M541.874 670.435C541.095 669.111 540.474 667.699 540.024 666.23C539.414 664.803 538.969 663.311 538.699 661.783C540.082 664.55 541.14 667.467 541.853 670.477L541.874 670.435Z" fill="#FAFAFA"/>
<path d="M527.302 678.373C526.465 676.971 525.788 675.479 525.283 673.926C524.602 672.437 524.094 670.874 523.77 669.269C524.6 670.678 525.277 672.172 525.788 673.726C526.461 675.215 526.969 676.773 527.302 678.373V678.373Z" fill="#FAFAFA"/>
<path d="M513.593 687.32C512.622 684.434 512.008 681.44 511.764 678.404C512.33 679.821 512.725 681.299 512.941 682.809C513.335 684.282 513.554 685.796 513.593 687.32V687.32Z" fill="#FAFAFA"/>
<path d="M497.298 687.677C495.677 685.166 494.364 682.469 493.387 679.645C495.007 682.156 496.32 684.853 497.298 687.677V687.677Z" fill="#FAFAFA"/>
<path d="M496.951 698.127C495.617 699.077 494.186 699.884 492.683 700.535C491.253 701.344 489.736 701.989 488.162 702.459C489.495 701.498 490.93 700.687 492.441 700.041C493.868 699.237 495.381 698.595 496.951 698.127Z" fill="#FAFAFA"/>
<path d="M497.151 714.654C496.437 713.472 495.935 712.173 495.668 710.817C495.226 709.515 495.016 708.145 495.048 706.77C495.553 708.034 495.937 709.344 496.194 710.68C496.636 711.972 496.957 713.303 497.151 714.654Z" fill="#FAFAFA"/>
<path d="M493.776 726.261C492.529 725.471 491.379 724.54 490.348 723.485C489.199 722.568 488.171 721.508 487.289 720.331C488.535 721.12 489.685 722.052 490.716 723.107C491.866 724.024 492.894 725.083 493.776 726.261V726.261Z" fill="#FAFAFA"/>
<path d="M515.245 718.333C515.245 718.491 512.869 719.185 510.051 720.436C507.233 721.687 505.089 722.97 504.994 722.833C506.429 721.598 508.065 720.617 509.83 719.932C511.529 719.09 513.361 718.549 515.245 718.333V718.333Z" fill="#FAFAFA"/>
<path d="M508.967 712.583C508.29 711.457 507.77 710.244 507.421 708.977C506.896 707.775 506.542 706.504 506.37 705.203C507.045 706.325 507.561 707.535 507.905 708.799C508.437 710.003 508.795 711.278 508.967 712.583V712.583Z" fill="#FAFAFA"/>
<path d="M521.699 698.37C520.905 700.15 519.944 701.85 518.829 703.448C517.867 705.16 516.747 706.779 515.485 708.284C517.248 704.812 519.328 701.511 521.699 698.422V698.37Z" fill="#FAFAFA"/>
<path d="M535.387 699.726C534.003 698.306 532.824 696.7 531.887 694.953C530.792 693.302 529.929 691.508 529.321 689.622C529.468 689.559 530.688 691.893 532.36 694.679C534.031 697.465 535.514 699.641 535.387 699.726Z" fill="#FAFAFA"/>
<path d="M543.556 686.206C542.281 686.705 540.92 686.948 539.551 686.921C538.194 687.079 536.819 686.972 535.503 686.605C536.837 686.428 538.183 686.35 539.53 686.374C540.866 686.221 542.212 686.165 543.556 686.206Z" fill="#FAFAFA"/>
<path d="M563.038 670.845C559.701 672.851 556.181 674.534 552.524 675.871C555.867 673.875 559.386 672.193 563.038 670.845Z" fill="#FAFAFA"/>
<path d="M564.33 661.068C565.402 658.111 566.813 655.289 568.535 652.657C568.091 654.165 567.47 655.616 566.685 656.978C566.058 658.427 565.268 659.799 564.33 661.068Z" fill="#FAFAFA"/>
<path d="M576.693 668.743C576.047 667.189 575.513 665.59 575.095 663.959C574.509 662.383 574.039 660.767 573.687 659.123C575.258 662.123 576.277 665.382 576.693 668.743V668.743Z" fill="#FAFAFA"/>
<path d="M578.639 678.919C577.194 679.709 575.638 680.276 574.024 680.602C572.454 681.101 570.815 681.353 569.167 681.348C570.709 680.816 572.287 680.391 573.887 680.076C575.443 679.583 577.031 679.197 578.639 678.919V678.919Z" fill="#FAFAFA"/>
<path d="M557.444 691.346C557.286 691.346 557.738 688.76 557.865 685.575C557.991 682.389 557.781 679.803 557.938 679.782C558.424 681.679 558.584 683.645 558.411 685.596C558.421 687.554 558.094 689.499 557.444 691.346Z" fill="#FAFAFA"/>
<path d="M553.218 704.14C550.391 701.9 548.063 699.092 546.385 695.898C546.521 695.814 547.909 697.759 549.802 700.03C551.012 701.339 552.153 702.711 553.218 704.14V704.14Z" fill="#FAFAFA"/>
<path d="M574.466 701.439C573.089 702.305 571.618 703.01 570.082 703.541C568.614 704.248 567.073 704.791 565.487 705.16C568.333 703.583 571.344 702.324 574.466 701.407V701.439Z" fill="#FAFAFA"/>
<path d="M566.853 725.515C566.534 721.665 566.573 717.793 566.969 713.95C567.302 717.8 567.263 721.673 566.853 725.515Z" fill="#FAFAFA"/>
<path d="M550.547 724.126C550.812 720.104 551.799 716.162 553.459 712.488C553.606 712.541 552.807 715.096 552.008 718.302C551.209 721.509 550.705 724.158 550.547 724.126Z" fill="#FAFAFA"/>
<path d="M551.294 730.445C551.294 730.603 548.687 730.855 545.491 731.391C542.295 731.927 539.73 732.516 539.688 732.358C541.511 731.593 543.433 731.083 545.396 730.845C547.333 730.433 549.319 730.299 551.294 730.445Z" fill="#FAFAFA"/>
<path d="M533.253 726.397C534.167 725.075 535.225 723.859 536.407 722.77C537.449 721.559 538.627 720.472 539.918 719.532C539.004 720.854 537.947 722.071 536.764 723.159C535.72 724.368 534.542 725.454 533.253 726.397V726.397Z" fill="#FAFAFA"/>
<path d="M521.573 737.72C521.016 736.38 520.542 735.007 520.153 733.609C519.583 732.272 519.092 730.903 518.682 729.509C520.349 731.945 521.346 734.776 521.573 737.72Z" fill="#FAFAFA"/>
<path d="M540.402 744.26C536.816 743.071 533.355 741.536 530.067 739.676C531.88 740.187 533.641 740.87 535.324 741.715C537.092 742.405 538.792 743.256 540.402 744.26Z" fill="#FAFAFA"/>
<path d="M507.559 742.357C507.706 741.034 508.039 739.739 508.547 738.509C508.879 737.223 509.385 735.989 510.05 734.84C509.902 736.162 509.569 737.457 509.062 738.688C508.722 739.971 508.216 741.204 507.559 742.357V742.357Z" fill="#FAFAFA"/>
<path d="M529.217 746.026C529.217 746.184 526.2 745.7 522.478 745.511C518.756 745.322 515.739 745.511 515.729 745.301C517.961 744.867 520.245 744.754 522.51 744.964C524.785 744.993 527.044 745.351 529.217 746.026V746.026Z" fill="#FAFAFA"/>
<path d="M533.716 715.022C533.696 714.883 533.696 714.741 533.716 714.602C533.714 714.199 533.774 713.798 533.895 713.414C534.058 712.765 534.465 712.204 535.03 711.847C535.805 711.399 536.718 711.249 537.596 711.427L537.385 711.553C538.531 707.516 540.371 701.628 542.211 695.026C543.935 688.844 545.102 683.157 545.912 679.025C546.311 677.038 546.626 675.387 546.879 674.136C546.974 673.535 547.111 672.941 547.289 672.359C547.276 672.97 547.209 673.579 547.089 674.178C546.921 675.345 546.647 677.027 546.29 679.098C545.379 684.513 544.193 689.879 542.737 695.173C540.897 701.786 538.994 707.652 537.732 711.658L537.68 711.816H537.522C536.728 711.634 535.895 711.746 535.177 712.131C534.656 712.442 534.264 712.931 534.074 713.508C533.727 714.433 533.79 715.033 533.716 715.022Z" fill="#263238"/>
<path d="M557.286 729.646C557.202 729.646 556.55 728.258 555.183 726.134C551.679 720.59 546.738 716.099 540.885 713.14C538.646 712.015 537.163 711.5 537.195 711.405C537.554 711.462 537.907 711.557 538.246 711.689C539.197 711.997 540.128 712.366 541.032 712.793C547.077 715.603 552.123 720.187 555.498 725.935C556.006 726.795 556.459 727.687 556.855 728.605C557.053 728.926 557.199 729.278 557.286 729.646V729.646Z" fill="#263238"/>
<g opacity="0.2">
<path opacity="0.2" d="M537.827 710.638C541.602 710.733 545.339 711.41 548.908 712.646C552.682 714.055 556.172 716.767 557.56 720.552C557.785 720.979 557.886 721.461 557.851 721.942C557.815 722.424 557.645 722.886 557.36 723.275C557.091 723.507 556.763 723.659 556.413 723.717C556.062 723.774 555.702 723.734 555.373 723.601C554.715 723.326 554.121 722.918 553.628 722.403C551.315 720.3 548.908 718.365 546.521 716.305C544.135 714.244 540.644 712.1 537.532 711.605" fill="black"/>
</g>
<path d="M530.246 703.93C529.924 704.185 529.571 704.397 529.195 704.561C528.16 705.068 527.079 705.476 525.967 705.781C522.268 706.836 518.355 706.883 514.632 705.916C510.908 704.949 507.512 703.004 504.794 700.282C503.973 699.471 503.227 698.588 502.565 697.644C502.302 697.323 502.083 696.97 501.913 696.592C501.997 696.529 502.964 698.064 505.067 700.041C507.798 702.62 511.135 704.468 514.771 705.412C518.406 706.357 522.221 706.368 525.862 705.444C528.606 704.708 530.194 703.825 530.246 703.93Z" fill="#263238"/>
<g opacity="0.2">
<path opacity="0.2" d="M502.428 697.371C504.204 701.219 506.276 705.098 509.64 707.685C511.5 709.291 513.824 710.263 516.274 710.46C519.785 710.523 522.802 708.126 525.483 705.855C516.799 707.222 507.022 703.28 502.428 697.371Z" fill="black"/>
</g>
<path d="M541.306 645.855C541.138 645.855 541.306 642.238 540.907 637.833C540.507 633.428 539.614 629.927 539.771 629.885C540.118 630.601 540.362 631.362 540.497 632.146C540.951 633.998 541.267 635.882 541.443 637.781C541.631 639.681 541.68 641.592 541.59 643.5C541.599 644.294 541.504 645.086 541.306 645.855Z" fill="#263238"/>
<path d="M416.598 786.544C416.598 786.544 405.17 789.015 394.972 787.48C385.405 786.05 363.989 787.532 364 800.096C364 814.152 392.565 810.682 403.698 808.454C414.832 806.225 425.934 804.248 425.934 804.248L416.598 786.544Z" fill="#710BFF"/>
<path d="M390.945 804.553C390.316 802.976 389.855 801.337 389.568 799.664C389.11 798.027 388.828 796.346 388.727 794.649C389.341 796.228 389.788 797.866 390.062 799.538C390.533 801.174 390.829 802.855 390.945 804.553Z" fill="#263238"/>
<path d="M394.846 804.743C394.019 801.431 393.554 798.04 393.458 794.629C393.959 796.261 394.284 797.942 394.425 799.644C394.742 801.324 394.883 803.033 394.846 804.743V804.743Z" fill="#263238"/>
<path d="M398.609 803.272C398.169 801.847 397.9 800.376 397.81 798.888C397.538 797.422 397.449 795.928 397.548 794.44C398.254 797.331 398.607 800.296 398.599 803.272H398.609Z" fill="#263238"/>
<path d="M404.518 801.851C403.787 800.705 403.29 799.426 403.057 798.087C402.646 796.787 402.503 795.417 402.636 794.061C403.038 795.335 403.354 796.634 403.582 797.95C403.986 799.227 404.299 800.53 404.518 801.851V801.851Z" fill="#263238"/>
<path d="M405.832 796.657C406.321 796.544 406.825 796.509 407.325 796.552C408.694 796.599 410.046 796.866 411.331 797.341C411.775 797.498 412.193 797.722 412.571 798.003C412.794 798.165 412.978 798.375 413.11 798.617C413.243 798.858 413.321 799.126 413.339 799.401C413.315 799.704 413.226 799.999 413.078 800.264C412.929 800.529 412.725 800.76 412.479 800.938C412.234 801.117 411.952 801.241 411.654 801.3C411.356 801.36 411.048 801.354 410.752 801.283C409.545 800.952 408.492 800.208 407.777 799.18C406.59 797.649 405.911 795.786 405.834 793.851C405.756 791.915 406.285 790.004 407.346 788.383C407.561 788.122 407.857 787.941 408.187 787.868C408.359 787.846 408.534 787.862 408.699 787.914C408.865 787.967 409.016 788.055 409.144 788.173C409.549 788.589 409.801 789.13 409.859 789.708C409.988 790.658 409.939 791.625 409.712 792.557C409.397 793.909 408.73 795.153 407.777 796.163C407.526 796.439 407.247 796.689 406.947 796.909C406.846 796.994 406.733 797.062 406.61 797.109C406.61 797.109 407.01 796.752 407.661 796.058C408.513 795.03 409.101 793.811 409.375 792.504C409.565 791.616 409.59 790.7 409.449 789.803C409.395 789.337 409.192 788.902 408.871 788.562C408.789 788.494 408.693 788.444 408.59 788.416C408.487 788.389 408.38 788.384 408.275 788.402C408.17 788.42 408.07 788.46 407.982 788.521C407.895 788.581 407.821 788.66 407.767 788.751C406.807 790.287 406.338 792.078 406.422 793.887C406.507 795.696 407.141 797.436 408.24 798.875C408.868 799.817 409.805 800.508 410.889 800.831C411.114 800.89 411.348 800.9 411.577 800.861C411.806 800.822 412.024 800.736 412.216 800.607C412.409 800.477 412.572 800.309 412.695 800.112C412.818 799.915 412.897 799.694 412.929 799.464C412.912 799.257 412.85 799.056 412.749 798.875C412.647 798.693 412.508 798.536 412.34 798.413C412.007 798.147 411.634 797.934 411.236 797.782C409.994 797.289 408.687 796.978 407.357 796.857C406.316 796.678 405.832 796.699 405.832 796.657Z" fill="#263238"/>
<path d="M424.809 802.387L424.525 802.482L423.663 802.692L420.351 803.449C417.471 804.08 413.286 804.973 408.093 805.972C402.899 806.971 396.696 808.075 389.737 809.053C386.093 809.651 382.394 809.838 378.708 809.61C376.747 809.478 374.808 809.107 372.936 808.506C371.975 808.179 371.046 807.764 370.161 807.265C369.237 806.771 368.413 806.107 367.732 805.31C367.352 804.959 367.019 804.56 366.744 804.122C366.208 803.2 365.878 802.172 365.778 801.11C365.679 800.048 365.811 798.977 366.166 797.972C366.854 796.03 368.133 794.353 369.824 793.177C371.416 792.056 373.172 791.187 375.029 790.602C375.943 790.339 376.826 790.024 377.73 789.824C378.635 789.624 379.528 789.403 380.422 789.277C387.581 788.152 394.089 788.72 399.514 788.72C402.226 788.772 404.676 788.72 406.821 788.573C408.654 788.441 410.479 788.209 412.288 787.879L414.264 787.458L415.683 787.059L416.556 786.817C416.654 786.782 416.757 786.761 416.861 786.754C416.861 786.754 416.766 786.806 416.577 786.87L415.715 787.164L414.306 787.616L412.34 788.089C410.524 788.456 408.688 788.719 406.842 788.878C404.686 789.035 402.226 789.14 399.482 789.109C394.058 789.161 387.55 788.625 380.485 789.771C379.602 789.897 378.729 790.139 377.836 790.328C376.942 790.518 376.08 790.844 375.176 791.096C373.37 791.667 371.665 792.515 370.119 793.609C368.521 794.721 367.312 796.305 366.66 798.14C366.334 799.07 366.212 800.059 366.303 801.041C366.394 802.022 366.695 802.973 367.186 803.827C367.437 804.215 367.737 804.569 368.079 804.879C368.722 805.606 369.487 806.214 370.34 806.677C371.19 807.159 372.084 807.56 373.01 807.875C374.842 808.455 376.738 808.808 378.656 808.926C382.305 809.156 385.968 808.983 389.579 808.411C396.518 807.497 402.731 806.393 407.925 805.446C413.118 804.5 417.313 803.659 420.215 803.091L423.547 802.44L424.409 802.282C424.549 802.288 424.685 802.324 424.809 802.387V802.387Z" fill="#263238"/>
<path d="M383.029 809.211C382.857 808.246 382.762 807.268 382.745 806.288C382.619 804.49 382.409 801.999 382.041 799.276C381.673 796.553 381.231 794.093 380.874 792.316C380.629 791.368 380.464 790.401 380.38 789.425C380.771 790.326 381.063 791.268 381.252 792.232C381.826 794.529 382.272 796.856 382.588 799.202C382.897 801.546 383.08 803.904 383.134 806.267C383.201 807.249 383.165 808.236 383.029 809.211V809.211Z" fill="#263238"/>
<path opacity="0.4" d="M413.076 787.154L420.32 805.289L425.934 804.248L415.179 786.544L413.076 787.154Z" fill="black"/>
<path d="M507.443 737.447C506.276 737.826 431.453 716.862 401.196 708.357C397.267 707.25 393.148 706.994 389.113 707.605C385.077 708.216 381.218 709.68 377.793 711.9L377.425 712.131C372.458 715.343 368.604 720.011 366.389 725.496C364.174 730.981 363.707 737.017 365.051 742.777C365.915 746.487 367.506 749.988 369.733 753.078C371.96 756.168 374.778 758.784 378.025 760.776C398 773.003 440.211 798.718 441.504 798.214C443.196 797.562 495.931 796.195 495.931 796.195L432.483 750.557L462.667 770.07L507.443 737.479V737.447Z" fill="#263238"/>
<path d="M444.972 714.675L460.879 706.443L476.48 716.221L534.871 718.134L543.282 746.52L458.755 726.923C458.755 726.923 443.374 728.29 442.218 724.821C441.061 721.351 444.972 714.675 444.972 714.675Z" fill="#FFBE9D"/>
<path d="M492.818 760.24L484.954 786.082L485.932 793.956C492.857 800.933 502.088 805.147 511.896 805.806C521.704 806.466 531.416 803.528 539.213 797.541V797.541C544.046 793.83 547.957 789.053 550.642 783.582C553.326 778.112 554.711 772.095 554.689 766.001L554.573 739.024L492.818 760.24Z" fill="#263238"/>
<path d="M445.993 760.407C445.909 760.523 436.784 753.868 425.619 745.541C414.454 737.215 405.465 730.36 405.559 730.245C405.654 730.129 414.769 736.773 425.945 745.1C437.12 753.426 446.088 760.281 445.993 760.407Z" fill="#455A64"/>
<path d="M459.807 711.595C457.277 712.693 454.679 713.623 452.027 714.381C449.428 715.302 446.774 716.057 444.079 716.641C446.608 715.541 449.207 714.61 451.859 713.855C454.457 712.933 457.112 712.178 459.807 711.595V711.595Z" fill="#EB996E"/>
<path d="M460.996 716.442C460.109 716.694 459.201 716.866 458.283 716.957C456.612 717.23 454.309 717.64 451.786 718.218C449.263 718.797 447.013 719.438 445.383 719.921C444.518 720.234 443.628 720.477 442.724 720.647C443.525 720.2 444.375 719.847 445.257 719.596C447.354 718.851 449.492 718.226 451.66 717.724C453.827 717.228 456.021 716.856 458.231 716.61C459.144 716.456 460.071 716.4 460.996 716.442Z" fill="#EB996E"/>
<path d="M459.661 720.899C456.787 721.754 453.862 722.428 450.903 722.917C447.978 723.591 445.015 724.086 442.03 724.4C444.909 723.55 447.837 722.876 450.798 722.381C453.72 721.709 456.68 721.214 459.661 720.899V720.899Z" fill="#EB996E"/>
<path d="M439.034 676.533L453.7 724.81C453.783 725.078 453.944 725.316 454.163 725.492C454.382 725.668 454.649 725.775 454.93 725.798L494.88 728.794C495.234 728.818 495.566 728.976 495.808 729.236C496.05 729.496 496.185 729.838 496.184 730.193V732.684C496.184 732.87 496.147 733.055 496.074 733.227C496.002 733.398 495.896 733.554 495.763 733.684C495.63 733.815 495.472 733.917 495.299 733.985C495.125 734.054 494.94 734.087 494.754 734.082L385.416 731.98C385.136 731.975 384.865 731.886 384.636 731.725C384.407 731.563 384.232 731.337 384.133 731.076L364.915 680.728C364.835 680.521 364.805 680.298 364.828 680.077C364.851 679.856 364.926 679.644 365.047 679.458C365.168 679.272 365.332 679.118 365.525 679.007C365.718 678.897 365.934 678.835 366.156 678.825L437.551 675.492C437.881 675.464 438.211 675.552 438.482 675.743C438.753 675.933 438.948 676.213 439.034 676.533V676.533Z" fill="#455A64"/>
<path d="M408.229 697.329C407.693 697.528 407.215 697.858 406.837 698.287C406.459 698.716 406.194 699.232 406.063 699.789C406.015 700.37 406.12 700.955 406.37 701.482C406.619 702.01 407.003 702.463 407.483 702.795C408.059 703.213 408.747 703.449 409.458 703.475C410.169 703.502 410.872 703.316 411.478 702.943C412.085 702.492 412.521 701.847 412.712 701.114C412.903 700.382 412.838 699.607 412.529 698.916C412.045 697.581 409.606 696.645 408.197 697.329" fill="#E0E0E0"/>
<path d="M425.934 804.248L414.369 785.24L499.316 718.66C504.601 714.325 511.065 711.677 517.872 711.059C522.831 710.608 527.829 711.247 532.515 712.933C537.201 714.618 541.461 717.308 544.997 720.814C548.534 724.32 551.26 728.557 552.985 733.229C554.71 737.9 555.392 742.892 554.984 747.855L553.628 764.098L497.298 782.254L425.934 804.248Z" fill="#263238"/>
<path d="M534.871 759.126C534.871 759.126 534.808 759.2 534.65 759.336L533.956 759.904L531.255 762.07L529.289 763.615C528.574 764.183 527.722 764.666 526.849 765.329L524.032 767.263C523.527 767.6 522.981 767.968 522.486 768.315L520.794 769.366C518.491 770.743 516 772.32 513.172 773.75C511.773 774.486 510.344 775.285 508.84 776.031L504.141 778.25C497.13 781.461 489.961 784.317 482.662 786.807C467.145 792.159 452.805 796.007 442.533 799.118C439.957 799.875 437.634 800.59 435.594 801.221C433.555 801.852 431.81 802.388 430.338 802.872L427.058 803.923L426.196 804.186C426.097 804.221 425.995 804.246 425.891 804.259L426.174 804.133L427.016 803.818L430.275 802.651C431.683 802.136 433.429 801.6 435.468 800.906C437.508 800.212 439.81 799.497 442.375 798.719C452.626 795.502 466.955 791.601 482.441 786.261C490.2 783.622 497.423 780.678 503.888 777.766L508.577 775.569C510.091 774.833 511.521 774.044 512.919 773.319C515.747 771.91 518.239 770.354 520.552 769.008L522.245 768.01C522.781 767.673 523.296 767.316 523.801 766.958L526.734 765.055C527.606 764.456 528.458 763.941 529.183 763.384L531.17 761.87L533.935 759.767L534.671 759.242L534.871 759.126Z" fill="#455A64"/>
<path d="M536.933 768.01C536.673 768.201 536.386 768.353 536.081 768.462C535.514 768.714 534.683 769.061 533.642 769.44C530.927 770.44 528.145 771.248 525.316 771.858C522.484 772.462 519.614 772.869 516.726 773.077C515.623 773.151 514.718 773.182 514.098 773.182C513.775 773.206 513.45 773.189 513.131 773.13C514.31 772.918 515.5 772.77 516.695 772.688C518.882 772.446 521.951 772.026 525.2 771.321C528.449 770.617 531.413 769.755 533.516 769.082C534.635 768.663 535.775 768.305 536.933 768.01V768.01Z" fill="#455A64"/>
<path d="M495.931 721.856C496.025 721.982 477.848 736.269 455.329 753.763C432.809 771.258 414.474 785.366 414.39 785.24C414.306 785.114 432.473 770.837 454.992 753.332C477.512 735.828 495.847 721.74 495.931 721.856Z" fill="#455A64"/>
<path d="M490.99 792.504C486.921 790.339 482.348 791.621 478.447 792.936C475.851 793.808 473.191 795.196 470.52 794.449C468.618 793.913 467.198 792.347 465.737 791.033C462.789 788.321 459.328 786.228 455.557 784.875C451.787 783.523 447.785 782.939 443.785 783.158C441.501 783.268 439.344 784.241 437.751 785.881C433.745 790.223 436.762 795.858 440.347 799.548C446.735 806.041 455.169 810.126 464.223 811.113C471.677 811.891 481.927 810.861 489.455 807.623C494.112 805.625 496.499 800.127 494.06 795.69C493.372 794.35 492.304 793.241 490.99 792.504V792.504Z" fill="#710BFF"/>
<g opacity="0.4">
<path opacity="0.4" d="M490.989 795.973C486.91 793.808 482.337 795.09 478.437 796.404C475.84 797.277 473.18 798.665 470.51 797.918C468.607 797.382 467.187 795.816 465.726 794.501C462.778 791.79 459.317 789.697 455.547 788.344C451.776 786.992 447.774 786.408 443.774 786.627C441.49 786.737 439.333 787.71 437.74 789.35C436.933 790.21 436.355 791.258 436.058 792.399C436.829 795.105 438.306 797.558 440.337 799.506C446.724 805.998 455.158 810.083 464.212 811.07C471.666 811.848 481.916 810.818 489.444 807.58C490.78 807.011 491.964 806.135 492.897 805.022C493.831 803.91 494.488 802.592 494.816 801.177C494.579 800.091 494.112 799.068 493.447 798.178C492.781 797.288 491.932 796.55 490.958 796.015L490.989 795.973Z" fill="black"/>
</g>
<path d="M494.88 801.137C494.704 800.275 494.365 799.455 493.881 798.719C493.297 797.886 492.558 797.172 491.705 796.617C490.581 795.857 489.296 795.367 487.952 795.187C484.935 794.829 481.423 796.102 477.533 797.153C475.609 797.668 473.507 798.446 471.225 798.204C470.072 798.055 468.962 797.668 467.966 797.069C466.974 796.451 466.039 795.747 465.17 794.966C461.998 791.952 458.189 789.688 454.026 788.343C452.226 787.732 450.37 787.302 448.485 787.06C446.846 786.824 445.182 786.824 443.544 787.06C442.204 787.263 440.914 787.712 439.738 788.385C438.857 788.895 438.06 789.537 437.373 790.288C436.321 791.602 435.932 792.496 435.869 792.453C436.195 791.621 436.649 790.844 437.215 790.151C437.87 789.325 438.659 788.614 439.549 788.048C440.749 787.314 442.081 786.821 443.47 786.598C445.143 786.349 446.844 786.349 448.517 786.598C450.435 786.827 452.326 787.246 454.162 787.849C456.189 788.522 458.146 789.388 460.008 790.435C461 790.983 461.952 791.602 462.857 792.285C463.771 793 464.623 793.778 465.506 794.535C466.352 795.313 467.263 796.016 468.229 796.638C469.16 797.191 470.194 797.549 471.267 797.689C473.37 797.973 475.473 797.237 477.397 796.732C481.276 795.681 484.84 794.451 488.004 794.861C489.227 795.037 490.399 795.47 491.443 796.132C492.487 796.793 493.378 797.668 494.06 798.698C494.418 799.262 494.675 799.885 494.817 800.538C494.859 800.735 494.88 800.936 494.88 801.137V801.137Z" fill="#263238"/>
<path d="M494.88 801.137C494.704 800.275 494.365 799.455 493.881 798.719C493.297 797.886 492.558 797.172 491.705 796.617C490.581 795.857 489.296 795.367 487.952 795.187C484.935 794.829 481.423 796.102 477.533 797.153C475.609 797.668 473.507 798.446 471.225 798.204C470.072 798.055 468.962 797.668 467.966 797.069C466.974 796.451 466.039 795.747 465.17 794.966C461.998 791.952 458.189 789.688 454.026 788.343C452.226 787.732 450.37 787.302 448.485 787.06C446.846 786.824 445.182 786.824 443.544 787.06C442.204 787.263 440.914 787.712 439.738 788.385C438.857 788.895 438.06 789.537 437.373 790.288C436.321 791.602 435.932 792.496 435.869 792.453C436.195 791.621 436.649 790.844 437.215 790.151C437.87 789.325 438.659 788.614 439.549 788.048C440.749 787.314 442.081 786.821 443.47 786.598C445.143 786.349 446.844 786.349 448.517 786.598C450.435 786.827 452.326 787.246 454.162 787.849C456.189 788.522 458.146 789.388 460.008 790.435C461 790.983 461.952 791.602 462.857 792.285C463.771 793 464.623 793.778 465.506 794.535C466.352 795.313 467.263 796.016 468.229 796.638C469.16 797.191 470.194 797.549 471.267 797.689C473.37 797.973 475.473 797.237 477.397 796.732C481.276 795.681 484.84 794.451 488.004 794.861C489.227 795.037 490.399 795.47 491.443 796.132C492.487 796.793 493.378 797.668 494.06 798.698C494.418 799.262 494.675 799.885 494.817 800.538C494.859 800.735 494.88 800.936 494.88 801.137V801.137Z" fill="#263238"/>
<path d="M444.342 800.148C444.983 799.587 445.689 799.103 446.444 798.708C448.19 797.652 449.99 796.691 451.838 795.827C453.686 794.956 455.577 794.181 457.504 793.504C458.289 793.183 459.107 792.954 459.943 792.82C459.21 793.241 458.439 793.593 457.641 793.872C456.201 794.471 454.224 795.312 452.069 796.321C449.914 797.33 448.011 798.319 446.634 799.044C445.909 799.488 445.141 799.858 444.342 800.148V800.148Z" fill="#263238"/>
<path d="M445.782 804.226C448.349 802.682 451.006 801.295 453.741 800.074C456.398 798.691 459.137 797.469 461.941 796.415C459.375 797.959 456.717 799.346 453.983 800.568C451.327 801.955 448.588 803.177 445.782 804.226V804.226Z" fill="#263238"/>
<path d="M462.604 805.993C462.52 806.119 458.178 803.533 452.911 800.211C447.644 796.889 443.449 794.082 443.449 793.956C443.449 793.829 447.865 796.416 453.142 799.748C458.42 803.081 462.71 805.867 462.604 805.993Z" fill="#263238"/>
<path d="M465.063 801.767C464.321 801.359 463.617 800.884 462.961 800.348C461.689 799.423 459.922 798.151 457.946 796.784C455.969 795.417 454.172 794.208 452.858 793.336C452.108 792.91 451.404 792.41 450.755 791.843C451.555 792.149 452.32 792.54 453.036 793.01C454.403 793.798 456.264 794.965 458.293 796.332C460.322 797.699 462.015 799.034 463.234 800.043C463.913 800.54 464.528 801.119 465.063 801.767V801.767Z" fill="#263238"/>
<path d="M286.899 536.562C289.19 535.032 292.336 535.961 294.626 537.491C296.917 539.022 298.849 541.112 301.435 542.104C306.249 543.973 312.572 541.756 316.309 545.271C318.685 547.53 318.927 551.246 320.743 553.98C323.805 558.583 331.152 560.314 331.775 565.804C332.144 568.971 329.611 572.074 326.496 572.972C324.923 573.341 323.289 573.368 321.705 573.051C320.12 572.734 318.622 572.081 317.312 571.135C314.145 569.023 311.707 565.856 308.139 564.653C304.571 563.45 299.979 564.452 297.097 561.908C294.215 559.364 294.648 554.667 292.579 551.415C291.334 549.781 289.859 548.337 288.198 547.129C286.646 545.789 285.168 544.131 284.904 542.094C284.64 540.057 285.474 536.583 286.878 536.51" fill="#F5F5F5"/>
<path d="M346.384 760.834C346.247 760.76 345.825 761.182 345.424 761.784C345.023 762.385 344.801 762.955 344.928 763.04C345.054 763.124 345.476 762.702 345.888 762.09C346.3 761.478 346.511 760.918 346.384 760.834Z" fill="#D9DBDD"/>
<path d="M350.903 751.312C350.334 752.002 349.907 752.798 349.647 753.655C349.23 754.445 348.975 755.31 348.898 756.199C349.895 754.725 350.578 753.061 350.903 751.312V751.312Z" fill="#D9DBDD"/>
<path d="M353.352 741.051C352.675 742.697 352.348 744.465 352.391 746.245C352.812 745.457 353.067 744.591 353.14 743.7C353.388 742.84 353.46 741.939 353.352 741.051Z" fill="#D9DBDD"/>
<path d="M353.72 730.505C353.386 732.251 353.411 734.047 353.794 735.783C354.062 734.931 354.145 734.031 354.037 733.144C354.119 732.252 354.011 731.352 353.72 730.505Z" fill="#D9DBDD"/>
<path d="M352.064 720.128C351.979 721.018 352.076 721.916 352.349 722.767C352.454 723.654 352.734 724.512 353.172 725.29C353.257 724.4 353.16 723.502 352.887 722.651C352.78 721.764 352.501 720.907 352.064 720.128V720.128Z" fill="#D9DBDD"/>
<path d="M348.221 710.258C348.573 711.994 349.293 713.636 350.332 715.071C350.226 714.183 349.943 713.325 349.498 712.548C348.896 711.208 348.358 710.184 348.221 710.258Z" fill="#D9DBDD"/>
<path d="M342.405 701.454C342.698 702.3 343.157 703.079 343.756 703.745C344.232 704.498 344.835 705.163 345.54 705.708C345.688 705.613 345.076 704.589 344.2 703.417C343.324 702.246 342.564 701.359 342.405 701.454Z" fill="#D9DBDD"/>
<path d="M335.311 693.642C335.195 693.747 335.923 694.697 336.926 695.753C337.929 696.809 338.837 697.569 338.953 697.474C339.069 697.379 338.34 696.418 337.327 695.363C336.314 694.307 335.416 693.526 335.311 693.642Z" fill="#D9DBDD"/>
<path d="M327.879 686.126C327.763 686.231 328.513 687.181 329.537 688.237C330.561 689.293 331.479 690.032 331.585 689.926C331.69 689.821 330.951 688.87 329.927 687.815C328.903 686.759 327.985 686.02 327.879 686.126Z" fill="#D9DBDD"/>
<path d="M320.933 678.166C321.268 678.997 321.767 679.751 322.4 680.383C323.329 681.523 324.174 682.357 324.29 682.252C323.946 681.426 323.448 680.674 322.823 680.035C321.904 678.958 321.06 678.082 320.933 678.166Z" fill="#D9DBDD"/>
<path d="M315.549 669.108C315.644 670.004 315.948 670.864 316.436 671.621C316.771 672.457 317.295 673.205 317.967 673.806C317.762 672.937 317.405 672.111 316.911 671.367C316.588 670.543 316.128 669.779 315.549 669.108V669.108Z" fill="#D9DBDD"/>
<path d="M313.005 658.901C312.799 659.778 312.818 660.693 313.058 661.561C313.119 662.462 313.398 663.336 313.871 664.105C313.925 663.22 313.832 662.332 313.596 661.477C313.539 660.592 313.34 659.722 313.005 658.901V658.901Z" fill="#D9DBDD"/>
<path d="M313.765 648.418C313.297 649.188 313.028 650.062 312.983 650.962C312.767 651.839 312.767 652.756 312.983 653.633C313.316 652.808 313.508 651.934 313.553 651.047C313.766 650.188 313.837 649.3 313.765 648.418V648.418Z" fill="#D9DBDD"/>
<path d="M317.914 638.759C317.787 638.674 317.017 639.593 316.32 640.87C315.817 641.621 315.505 642.484 315.412 643.383C315.993 642.712 316.464 641.953 316.806 641.134C317.294 640.403 317.668 639.602 317.914 638.759Z" fill="#D9DBDD"/>
<path d="M325.272 631.264C324.411 631.534 323.629 632.008 322.992 632.647C321.862 633.597 321.123 634.547 321.229 634.652C321.334 634.758 322.284 633.998 323.34 633.069C324.396 632.14 325.367 631.39 325.272 631.264Z" fill="#D9DBDD"/>
<path d="M334.867 626.978C333.968 626.923 333.069 627.09 332.249 627.464C331.368 627.667 330.551 628.088 329.874 628.688C330.757 628.588 331.62 628.35 332.429 627.981C333.292 627.787 334.117 627.448 334.867 626.978Z" fill="#D9DBDD"/>
<path d="M345.36 626.503C344.552 626.1 343.655 625.911 342.753 625.954C341.857 625.821 340.943 625.916 340.093 626.228C340.95 626.451 341.836 626.544 342.721 626.503C343.596 626.641 344.486 626.641 345.36 626.503Z" fill="#D9DBDD"/>
<path d="M355.093 630.398C355.188 630.271 354.28 629.48 352.981 628.783C352.234 628.27 351.363 627.968 350.458 627.907C351.146 628.463 351.911 628.918 352.728 629.258C353.455 629.754 354.252 630.138 355.093 630.398V630.398Z" fill="#D9DBDD"/>
<path d="M362.346 637.978C362.116 637.103 361.669 636.301 361.047 635.645C360.15 634.473 359.221 633.702 359.115 633.808C359.01 633.914 359.738 634.864 360.614 635.983C361.491 637.102 362.219 638.052 362.346 637.978Z" fill="#D9DBDD"/>
<path d="M365.903 647.838C366.069 646.949 366 646.032 365.703 645.178C365.57 644.277 365.206 643.426 364.647 642.708C364.68 643.593 364.847 644.469 365.143 645.304C365.265 646.183 365.521 647.037 365.903 647.838V647.838Z" fill="#D9DBDD"/>
<path d="M364.647 658.235C365.206 657.517 365.57 656.666 365.703 655.765C366.006 654.913 366.079 653.995 365.914 653.105C365.548 653.911 365.296 654.763 365.164 655.639C364.867 656.475 364.693 657.349 364.647 658.235V658.235Z" fill="#D9DBDD"/>
<path d="M359.294 667.272C359.411 667.378 360.287 666.555 361.142 665.351C361.739 664.675 362.163 663.863 362.377 662.986C362.24 662.913 361.543 663.863 360.698 665.034C360.112 665.699 359.637 666.455 359.294 667.272V667.272Z" fill="#D9DBDD"/>
<path d="M351.525 674.397C352.377 674.111 353.153 673.634 353.794 673.004C354.945 672.085 355.737 671.188 355.631 671.072C354.825 671.447 354.09 671.958 353.457 672.581C352.327 673.489 351.43 674.27 351.525 674.397Z" fill="#D9DBDD"/>
<path d="M342.373 679.644C344.093 679.185 345.698 678.369 347.081 677.248C346.2 677.4 345.357 677.722 344.6 678.198C343.768 678.525 343.01 679.017 342.373 679.644V679.644Z" fill="#D9DBDD"/>
<path d="M332.323 682.843C333.219 682.945 334.127 682.837 334.973 682.526C335.865 682.394 336.712 682.05 337.443 681.523C336.554 681.537 335.673 681.697 334.836 681.998C333.955 682.129 333.104 682.415 332.323 682.843V682.843Z" fill="#D9DBDD"/>
<path d="M321.809 683.381C323.524 683.908 325.352 683.944 327.087 683.486C326.23 683.259 325.341 683.181 324.458 683.254C323.574 683.149 322.679 683.192 321.809 683.381V683.381Z" fill="#D9DBDD"/>
<path d="M311.654 680.668C313.104 681.722 314.825 682.341 316.615 682.452C315.871 681.966 315.05 681.609 314.187 681.396C313.391 681.011 312.534 680.764 311.654 680.668V680.668Z" fill="#D9DBDD"/>
<path d="M302.849 674.893C302.744 675.009 303.546 675.949 304.718 676.793C305.374 677.409 306.166 677.861 307.03 678.113C307.114 677.976 306.196 677.247 305.045 676.36C304.396 675.758 303.655 675.262 302.849 674.893V674.893Z" fill="#D9DBDD"/>
<path d="M295.977 666.913C296.222 667.779 296.667 668.574 297.276 669.236C298.152 670.418 299.028 671.231 299.144 671.136C299.26 671.041 298.574 670.08 297.709 668.908C296.843 667.737 296.115 666.829 295.977 666.913Z" fill="#D9DBDD"/>
<path d="M291.407 657.413C291.41 658.314 291.631 659.201 292.051 659.999C292.6 661.371 293.244 662.385 293.381 662.311C293.254 661.433 292.979 660.584 292.568 659.798C292.314 658.945 291.922 658.139 291.407 657.413V657.413Z" fill="#D9DBDD"/>
<path d="M289.359 647.077C289.13 648.852 289.377 650.655 290.077 652.303C290.106 650.534 289.864 648.772 289.359 647.077V647.077Z" fill="#D9DBDD"/>
<path d="M289.634 636.532C289.29 637.357 289.124 638.245 289.148 639.139C288.997 640.022 289.022 640.926 289.222 641.799C289.718 640.086 289.858 638.29 289.634 636.521V636.532Z" fill="#D9DBDD"/>
<path d="M291.892 626.229C291.403 626.98 291.076 627.825 290.931 628.71C290.614 629.545 290.47 630.435 290.509 631.328C290.993 630.574 291.32 629.73 291.47 628.847C291.788 628.012 291.932 627.121 291.892 626.229V626.229Z" fill="#D9DBDD"/>
<path d="M295.967 616.474C295.83 616.4 295.196 617.414 294.563 618.733C294.116 619.512 293.836 620.374 293.739 621.267C294.75 619.808 295.504 618.187 295.967 616.474V616.474Z" fill="#D9DBDD"/>
<path d="M301.16 607.28C301.023 607.195 300.326 608.156 299.587 609.391C299.074 610.116 298.715 610.939 298.532 611.808C299.189 611.214 299.723 610.497 300.105 609.697C300.609 608.967 300.968 608.146 301.16 607.28Z" fill="#D9DBDD"/>
<path d="M306.397 598.106C306.26 598.033 305.585 599.014 304.877 600.281C304.367 601.02 304.008 601.852 303.822 602.73C304.468 602.11 304.985 601.367 305.342 600.545C305.858 599.814 306.217 598.983 306.397 598.106V598.106Z" fill="#D9DBDD"/>
<path d="M310.524 588.394C309.569 589.897 308.939 591.584 308.677 593.345C309.236 592.643 309.639 591.829 309.859 590.959C310.253 590.158 310.479 589.285 310.524 588.394V588.394Z" fill="#D9DBDD"/>
<path d="M312.318 578.017C312.008 578.851 311.85 579.735 311.854 580.625C311.67 581.492 311.638 582.385 311.759 583.264C312.174 582.465 312.392 581.578 312.392 580.677C312.575 579.797 312.55 578.886 312.318 578.017V578.017Z" fill="#D9DBDD"/>
<path d="M311.442 567.514C311.358 568.398 311.422 569.29 311.632 570.153C311.67 571.043 311.867 571.919 312.213 572.74C312.417 571.861 312.417 570.947 312.213 570.069C312.161 569.168 311.897 568.293 311.442 567.514V567.514Z" fill="#D9DBDD"/>
<path d="M308.001 557.559C308.135 558.439 308.421 559.289 308.845 560.072C309.107 560.921 309.51 561.721 310.038 562.436C309.814 560.656 309.11 558.97 308.001 557.559V557.559Z" fill="#D9DBDD"/>
<path d="M302.121 548.807C302.005 548.913 302.702 549.863 303.589 551.014C304.475 552.164 305.225 553.125 305.352 552.988C305.101 552.121 304.645 551.328 304.021 550.676C303.124 549.515 302.227 548.712 302.121 548.807Z" fill="#D9DBDD"/>
<path d="M294.193 541.861C294.109 541.988 295.027 542.738 296.167 543.624C296.814 544.235 297.56 544.731 298.374 545.092C298.479 544.975 297.666 544.036 296.505 543.191C295.85 542.573 295.058 542.117 294.193 541.861V541.861Z" fill="#263238"/>
<path d="M284.798 537.09C285.509 537.624 286.305 538.034 287.152 538.304C287.925 538.739 288.769 539.035 289.644 539.18C289.718 539.043 288.715 538.388 287.363 537.808C286.579 537.363 285.699 537.117 284.798 537.09V537.09Z" fill="#263238"/>
<path d="M277.113 535.147C277.113 535.295 277.651 535.527 278.358 535.654C279.066 535.781 279.678 535.781 279.71 535.654C279.741 535.527 279.182 535.274 278.464 535.137C277.746 535 277.113 535 277.113 535.147Z" fill="#263238"/>
<path d="M255.598 504.069C255.598 504.069 243.204 495.223 226.04 500.902C226.04 500.902 224.636 515.111 238.391 526.407" fill="#F5F5F5"/>
<path d="M294.689 530.313C294.162 531.104 280.702 552.735 280.702 552.735L240.303 527.842C238.635 526.815 237.199 525.452 236.086 523.84C234.972 522.229 234.206 520.404 233.835 518.48C233.464 516.557 233.496 514.578 233.93 512.668C234.363 510.758 235.189 508.958 236.354 507.384V507.384C238.52 504.462 241.728 502.487 245.312 501.869C248.896 501.252 252.581 502.04 255.599 504.069L294.689 530.313Z" fill="#F0F0F0"/>
<path d="M280.702 552.734L281.61 567.957C281.61 567.957 255.43 555.289 261.965 541.186L280.702 552.734Z" fill="#E5E4E4"/>
<path d="M275.973 517.75C275.973 517.75 293.729 509.917 308.339 521.403L294.689 530.312L275.973 517.75Z" fill="#E5E4E4"/>
<path d="M276.058 530.323L301.319 546.158C301.319 546.158 300.454 548.882 299.778 548.649C299.102 548.417 280.217 537.248 274.063 533.606C273.827 533.466 273.625 533.277 273.47 533.052C273.314 532.826 273.21 532.57 273.162 532.3C273.115 532.031 273.127 531.754 273.197 531.489C273.266 531.225 273.393 530.978 273.566 530.767V530.767C273.856 530.402 274.269 530.155 274.728 530.074C275.187 529.992 275.66 530.081 276.058 530.323V530.323Z" fill="#E5E4E4"/>
<path d="M244.944 520.197C243.922 515.85 246.617 511.496 250.964 510.474C255.311 509.451 259.664 512.146 260.687 516.493C261.71 520.84 259.015 525.193 254.668 526.216C250.321 527.239 245.967 524.544 244.944 520.197Z" fill="#FAFAFA"/>
<path d="M244.736 518.341C244.799 518.341 244.736 517.624 245.095 516.399C245.566 514.665 246.608 513.141 248.051 512.071C249.031 511.335 250.17 510.84 251.376 510.625C252.756 510.379 254.177 510.503 255.493 510.984C256.965 511.505 258.245 512.458 259.167 513.718C260.154 515.057 260.687 516.677 260.687 518.341C260.687 520.006 260.154 521.626 259.167 522.965C258.254 524.219 256.991 525.174 255.535 525.71C254.219 526.19 252.798 526.314 251.418 526.069C250.212 525.853 249.073 525.358 248.093 524.623C246.652 523.55 245.612 522.027 245.137 520.294C244.81 519.07 244.842 518.341 244.778 518.341C244.751 518.516 244.751 518.694 244.778 518.869C244.781 519.367 244.842 519.863 244.958 520.347C245.315 521.884 246.111 523.285 247.248 524.379C248.385 525.473 249.816 526.214 251.366 526.512C252.908 526.814 254.504 526.671 255.968 526.099C257.432 525.527 258.702 524.55 259.631 523.282C260.694 521.854 261.268 520.121 261.268 518.341C261.268 516.562 260.694 514.829 259.631 513.401C258.654 512.066 257.296 511.058 255.736 510.509C254.428 510.035 253.02 509.901 251.646 510.121C250.272 510.341 248.977 510.906 247.882 511.765C246.37 512.906 245.308 514.543 244.884 516.389C244.768 516.873 244.708 517.369 244.704 517.866C244.691 518.025 244.702 518.186 244.736 518.341V518.341Z" fill="#E5E4E4"/>
<path d="M234.886 523.778C234.992 523.778 235.108 522.205 235.731 519.746C236.099 518.307 236.568 516.896 237.135 515.523C238.541 512.172 240.528 509.095 243.004 506.434C244.018 505.351 245.108 504.342 246.266 503.415C248.261 501.842 249.644 501.082 249.591 500.987C249.239 501.105 248.903 501.264 248.588 501.462C248.2 501.663 247.823 501.885 247.459 502.127C247.037 502.412 246.541 502.708 246.034 503.109C244.821 504.002 243.687 504.998 242.645 506.086C240.066 508.746 238.036 511.888 236.67 515.333C236.112 516.733 235.671 518.178 235.351 519.651C235.192 520.273 235.129 520.854 235.045 521.361C234.974 521.791 234.929 522.224 234.907 522.659C234.846 523.029 234.839 523.406 234.886 523.778V523.778Z" fill="#E5E4E4"/>
<path d="M237.063 524.898C237.168 524.898 237.295 523.304 237.928 520.802C238.304 519.342 238.78 517.91 239.354 516.516C240.073 514.816 240.931 513.178 241.919 511.618C242.925 510.072 244.055 508.611 245.297 507.247C246.326 506.138 247.434 505.105 248.612 504.154C250.628 502.539 252.032 501.758 251.979 501.663C251.608 501.784 251.254 501.951 250.923 502.159C250.533 502.365 250.156 502.594 249.794 502.845C249.361 503.13 248.854 503.447 248.348 503.901C247.131 504.806 245.988 505.805 244.927 506.889C243.64 508.256 242.478 509.737 241.454 511.312C240.455 512.902 239.596 514.576 238.889 516.315C238.324 517.741 237.875 519.209 237.548 520.707C237.39 521.34 237.327 521.931 237.242 522.438C237.164 522.874 237.115 523.315 237.094 523.758C237.041 524.135 237.031 524.518 237.063 524.898V524.898Z" fill="#E5E4E4"/>
</svg>
