<svg fill="none" height="187" viewBox="0 0 410 187" width="410" xmlns="http://www.w3.org/2000/svg" xmlns:xlink="http://www.w3.org/1999/xlink"><linearGradient id="a"><stop offset="0" stop-color="#d66b5f"/><stop offset=".82" stop-color="#dfbd49"/><stop offset="1" stop-color="#e1d044"/></linearGradient><linearGradient id="b" gradientUnits="userSpaceOnUse" x1="115.708" x2="284.835" xlink:href="#a" y1="191.989" y2="23.1989"/><linearGradient id="c" gradientUnits="userSpaceOnUse" x1="249.6" x2="260.617" xlink:href="#a" y1="90.0899" y2="79.0944"/><linearGradient id="d"><stop offset="0" stop-color="#c75aff"/><stop offset="1" stop-color="#693ffb"/></linearGradient><linearGradient id="e" gradientUnits="userSpaceOnUse" x1="291.611" x2="107.625" xlink:href="#d" y1="-25.129" y2="127.26"/><linearGradient id="f" gradientUnits="userSpaceOnUse" x1="138.8" x2="150.787" xlink:href="#d" y1="73.3772" y2="63.4337"/><path d="m398.065 0h-386.1298c-6.59164 0-11.9352 5.35423-11.9352 11.959v163.082c0 6.605 5.34356 11.959 11.9352 11.959h386.1298c6.591 0 11.935-5.354 11.935-11.959v-163.082c0-6.60477-5.344-11.959-11.935-11.959z" fill="#fff"/><path d="m311.979 104.064c-6.099 0-11.638-2.28-16.188-9.6301-6.891-11.1496-14.573-9.9108-23.475-8.5398-3.562.6912-7.186 1.0067-10.814.9415l.115-2.4611c3.462.0465 6.92-.2579 10.32-.9085 8.951-1.4041 18.134-2.8742 25.948 9.663 7.171 11.563 17.193 8.87 28.782 5.6656s24.481-6.7558 36.878 3.3034l-1.534 1.966c-11.424-9.2667-23.26-5.9962-34.618-2.841-4.995 1.606-10.175 2.561-15.414 2.841zm-248.034 2.197c9.5778-8.6391 13.6496-6.4918 22.5681-1.801 1.1869.628 2.4727 1.305 3.841 1.982.8474.434 1.7851.66 2.7365.661 5.9346 0 12.7764-8.3744 19.9474-17.162 6-7.3505 12.248-14.9488 16.287-15.0479.444-.0013.884.0991 1.284.2938s.75.4784 1.024.8294c2.506 3.1631 4.714 6.5529 6.594 10.1256 3.989 6.9871 7.781 13.5943 12.644 13.2144 3.709-.2478 7.072-4.4764 10.583-13.2144 2.605-6.6072 4.731-13.6439 6.594-19.9207 3.297-11.2157 6.479-21.8037 10.617-22.1506 3.478-.2808 8.621 6.4915 15.248 20.1354 5.473 11.2487 10.369 16.8979 15.414 17.7403 5.044.8424 9.083-3.1549 12.99-7.0532 3.528-3.5183 6.858-6.8219 10.567-6.6072 2.72.1983 5.522 2.3291 8.589 6.4751 2.029 2.8392 4.468 5.3609 7.237 7.4826l1.467-1.9821c-2.574-1.9769-4.841-4.3261-6.726-6.9706-3.511-4.7572-6.907-7.2019-10.369-7.4661-4.83-.3634-8.721 3.5018-12.496 7.2514-3.775 3.7495-7.056 7.0366-10.847 6.3924-4.138-.7103-8.589-6.0786-13.617-16.4189-9.512-19.5572-14.424-21.7541-17.672-21.4733-5.786.479-8.869 10.8027-12.759 23.885-1.847 6.2272-3.94 13.2143-6.594 19.7224-3.792 9.4813-6.71 11.5626-8.474 11.7443-3.297.2478-6.907-5.996-10.352-12.0086-1.909-3.7345-4.167-7.2796-6.743-10.588-.508-.618-1.147-1.114-1.872-1.4513s-1.516-.5074-2.315-.4978c-5.226.1156-11.539 7.7965-18.133 15.9398-6.973 8.5729-14.8369 18.2688-19.6835 15.8738-1.3518-.677-2.6046-1.338-3.7915-1.966-9.1163-4.7733-14.5728-7.5814-25.42 2.197-3.2883 2.881-7.1886 4.974-11.4047 6.119-4.2161 1.144-8.6371 1.312-12.9273.488l-.6099 2.396c1.9718.423 3.9841.628 6.0006.611 7.5878.078 14.929-2.698 20.5733-7.78z" fill="url(#b)"/><path d="m255.09 92.3859c-1.539 0-3.044-.4572-4.323-1.3139-1.28-.8567-2.277-2.0743-2.866-3.499-.589-1.4246-.743-2.9922-.443-4.5046.3-1.5123 1.041-2.9015 2.13-3.9919 1.088-1.0903 2.474-1.8329 3.984-2.1337 1.509-.3009 3.073-.1465 4.495.4436s2.637 1.5894 3.492 2.8716c.855 1.2821 1.312 2.7895 1.312 4.3315-.005 2.0664-.826 4.0469-2.284 5.5081-1.459 1.4612-3.435 2.284-5.497 2.2883zm0-13.2143c-1.048.0098-2.069.329-2.936.9176-.868.5886-1.542 1.4204-1.94 2.3914-.398.9709-.501 2.0378-.297 3.0672.205 1.0294.708 1.9755 1.446 2.7199s1.68 1.2541 2.706 1.4652 2.091.1143 3.063-.2783c.971-.3927 1.805-1.0636 2.398-1.929s.917-1.8867.934-2.9361c-.005-.7021-.147-1.3964-.42-2.0431-.272-.6468-.67-1.2332-1.169-1.7258s-1.091-.8816-1.74-1.1447c-.65-.2632-1.345-.3952-2.045-.3887z" fill="url(#c)"/><path d="m88.0788 44.236c6.083.5616 11.3912 3.3036 15.2322 11.1001 5.836 11.7277 13.584 11.2487 22.585 10.6706 3.635-.3633 7.298-.3412 10.929.066l-.346 2.4282c-3.442-.3551-6.911-.3551-10.353 0-9.034.5616-18.381 1.1728-24.925-12.0416-6.0831-12.2398-16.3038-10.4064-28.1566-8.259-11.8527 2.1473-24.9913 4.4598-36.4155-6.7228l1.6485-1.7509c10.5175 10.2741 22.601 8.1268 34.2725 6.0455 5.0878-1.1849 10.308-1.7013 15.5289-1.5361zm247.1772 20.7796c-10.336 7.6974-14.194 5.1866-22.634-.2973-1.138-.7433-2.341-1.5362-3.643-2.3456-.804-.4989-1.713-.8042-2.654-.892-5.919-.5616-13.502 7.1523-21.431 15.2296-6.594 6.7724-13.534 13.7595-17.606 13.4622-.445-.034-.876-.1711-1.26-.4004-.383-.2293-.708-.5446-.949-.9211-2.205-3.3773-4.087-6.9555-5.622-10.6871-3.297-7.334-6.495-14.255-11.374-14.3541-3.709-.0991-7.451 3.7991-11.771 12.2398-3.198 6.2768-5.967 13.2144-8.39 19.2269-4.369 10.8685-8.474 21.1095-12.612 21.0765-3.511 0-7.995-7.267-13.336-21.4729-4.418-11.7113-8.77-17.7899-13.699-19.1113-4.929-1.3215-9.347 2.3125-13.6 5.8308-3.841 3.1715-7.468 6.1612-11.128 5.5336-2.687-.4625-5.275-2.8246-7.945-7.2514-1.785-3.0163-4.007-5.7497-6.594-8.1104l-1.649 1.8335c2.387 2.2048 4.432 4.7547 6.067 7.5653 3.181 5.071 6.264 7.813 9.775 8.4076 4.764.8094 9.001-2.6759 13.188-6.0621s7.682-6.3429 11.391-5.3518c4.056 1.0902 7.996 6.8384 12.035 17.5916 7.665 20.3665 12.363 23.0095 15.611 23.1255 5.819 0 9.891-9.911 14.836-22.6134 2.424-6.0291 5.16-12.851 8.243-19.0287 4.649-9.0849 7.748-10.9514 9.512-10.9019 3.379 0 6.33 6.6072 9.199 12.9006 1.606 3.8888 3.577 7.6165 5.885 11.1331.454.6437 1.044 1.1799 1.728 1.5708.683.391 1.444.6272 2.228.6921 5.209.38 12.166-6.7063 19.535-14.1889 7.748-7.8791 16.485-16.7988 21.068-13.9742 1.269.7929 2.473 1.5692 3.594 2.3125 8.555 5.5666 13.732 8.9362 25.436.1982 3.537-2.5722 7.612-4.3044 11.916-5.0656s8.725-.5315 12.927.6718l.808-2.3125c-1.915-.6202-3.896-1.0138-5.902-1.1728-7.551-.7547-15.11 1.3553-21.183 5.9135z" fill="url(#e)"/><path d="m144.063 76.1488c-1.533-.1439-2.988-.7398-4.182-1.7123s-2.074-2.278-2.527-3.7514c-.454-1.4734-.462-3.0485-.022-4.5261.44-1.4777 1.307-2.7915 2.492-3.7755 1.184-.9839 2.634-1.5937 4.164-1.7523 1.531-.1586 3.074.1412 4.435.8614s2.478 1.8285 3.21 3.1847c.732 1.3563 1.046 2.8996.903 4.4348-.095 1.0196-.39 2.0104-.867 2.9158-.478.9055-1.128 1.7078-1.915 2.3612-.787.6535-1.695 1.1452-2.671 1.4471-.977.3019-2.003.4082-3.02.3126zm1.219-13.0657c-1.05-.1135-2.11.0887-3.046.5809-.935.4921-1.703 1.2519-2.206 2.1827-.503.9309-.719 1.9906-.619 3.0445s.51 2.0542 1.179 2.8737c.668.8195 1.565 1.4211 2.576 1.7284 1.011.3072 2.091.3062 3.101-.003 1.011-.3092 1.906-.9126 2.573-1.7334.668-.8208 1.076-1.822 1.174-2.876.125-1.3945-.301-2.7824-1.185-3.8663-.885-1.0838-2.158-1.7773-3.547-1.9315z" fill="url(#f)"/><g fill="#666"><path d="m33.03 149c-.383 0-.7285-.096-1.0366-.289-.3052-.193-.5471-.455-.7256-.784-.1785-.333-.2678-.707-.2678-1.12v-2.614c0-.413.0893-.785.2678-1.115.1785-.333.4204-.596.7256-.789.3081-.193.6536-.289 1.0366-.289.3829 0 .727.096 1.0323.289.308.193.5514.456.7299.789.1785.33.2678.702.2678 1.115v2.614c0 .413-.0893.787-.2678 1.12-.1785.329-.4219.591-.7299.784-.3053.193-.6494.289-1.0323.289zm0-.663c.2563 0 .4895-.067.6997-.2.2102-.137.3772-.319.501-.546s.1857-.478.1857-.752v-2.678c0-.277-.0619-.529-.1857-.756s-.2908-.408-.501-.542c-.2102-.137-.4434-.205-.6997-.205s-.4895.068-.6997.205c-.2102.134-.3772.315-.501.542s-.1858.479-.1858.756v2.678c0 .274.062.525.1858.752s.2908.409.501.546c.2102.133.4434.2.6997.2z"/><path d="m37.3565 148.86v-5.955l-1.1705.761v-.77l1.1705-.756h.6435v6.72z"/><path d="m80.4379 149c-.4599 0-.8749-.096-1.2449-.289-.3665-.193-.657-.455-.8714-.784-.2144-.333-.3216-.707-.3216-1.12v-2.614c0-.413.1072-.785.3216-1.115.2144-.333.5049-.596.8714-.789.37-.193.785-.289 1.2449-.289s.8731.096 1.2397.289c.37.193.6622.456.8765.789.2144.33.3216.702.3216 1.115v2.614c0 .413-.1072.787-.3216 1.12-.2143.329-.5065.591-.8765.784-.3666.193-.7798.289-1.2397.289zm0-.663c.3077 0 .5878-.067.8403-.2.2524-.137.453-.319.6016-.546.1487-.227.2231-.478.2231-.752v-2.678c0-.277-.0744-.529-.2231-.756-.1486-.227-.3492-.408-.6016-.542-.2525-.137-.5326-.205-.8403-.205-.3078 0-.5879.068-.8403.205-.2524.134-.453.315-.6017.542s-.223.479-.223.756v2.678c0 .274.0743.525.223.752s.3493.409.6017.546c.2524.133.5325.2.8403.2z"/><path d="m84.1243 148.855.0051-.625 3.3768-2.744c.2904-.236.4823-.46.5757-.672.0968-.215.1452-.439.1452-.672 0-.277-.0726-.527-.2178-.751s-.3406-.402-.5861-.532c-.2456-.134-.5205-.201-.8248-.201-.3181 0-.6016.068-.8506.205s-.4461.318-.5913.542c-.1418.224-.211.468-.2075.732h-.7781c0-.407.1072-.773.3216-1.096.2144-.324.5049-.577.8714-.761.3666-.187.7815-.28 1.2449-.28.453 0 .8593.096 1.2189.289.3631.19.6484.448.8559.775.2109.324.3164.684.3164 1.083 0 .28-.038.527-.1141.742-.0726.211-.1885.409-.3475.592-.1556.181-.3545.367-.5965.56l-2.9981 2.436-.1193-.28h4.1755v.658z"/><path d="m147.047 149c-.386 0-.735-.096-1.045-.289-.308-.193-.552-.455-.732-.784-.18-.333-.27-.707-.27-1.12v-2.614c0-.413.09-.785.27-1.115.18-.333.424-.596.732-.789.31-.193.659-.289 1.045-.289s.733.096 1.041.289c.31.193.555.456.735.789.18.33.27.702.27 1.115v2.614c0 .413-.09.787-.27 1.12-.18.329-.425.591-.735.784-.308.193-.655.289-1.041.289zm0-.663c.258 0 .493-.067.705-.2.212-.137.381-.319.505-.546.125-.227.188-.478.188-.752v-2.678c0-.277-.063-.529-.188-.756-.124-.227-.293-.408-.505-.542-.212-.137-.447-.205-.705-.205-.259 0-.494.068-.706.205-.212.134-.38.315-.505.542s-.187.479-.187.756v2.678c0 .274.062.525.187.752s.293.409.505.546c.212.133.447.2.706.2z"/><path d="m152.001 148.995c-.31 0-.596-.059-.858-.177-.261-.118-.486-.286-.675-.504-.188-.221-.326-.484-.413-.789l.609-.196c.105.333.276.585.514.756.241.171.513.254.814.248.279-.007.519-.073.719-.201.203-.128.359-.305.466-.532s.161-.49.161-.789c0-.457-.125-.824-.374-1.101-.247-.28-.574-.42-.98-.42-.113 0-.233.017-.357.051-.125.031-.241.077-.349.136l-.322-.546 2.439-2.413.104.28h-3.196v-.658h3.623v.667l-2.125 2.175-.009-.271c.436-.059.819-.006 1.15.159s.589.417.775.756c.189.336.283.731.283 1.185 0 .43-.087.809-.261 1.139-.172.327-.408.583-.71.77-.302.184-.645.275-1.028.275z"/><path d="m202.176 149c-.41 0-.781-.096-1.111-.289-.327-.193-.587-.455-.778-.784-.191-.333-.287-.707-.287-1.12v-2.614c0-.413.096-.785.287-1.115.191-.333.451-.596.778-.789.33-.193.701-.289 1.111-.289.411 0 .78.096 1.107.289.33.193.591.456.782.789.192.33.287.702.287 1.115v2.614c0 .413-.095.787-.287 1.12-.191.329-.452.591-.782.784-.327.193-.696.289-1.107.289zm0-.663c.275 0 .525-.067.75-.2.226-.137.405-.319.537-.546.133-.227.2-.478.2-.752v-2.678c0-.277-.067-.529-.2-.756-.132-.227-.311-.408-.537-.542-.225-.137-.475-.205-.75-.205s-.525.068-.75.205c-.225.134-.404.315-.537.542s-.199.479-.199.756v2.678c0 .274.066.525.199.752s.312.409.537.546c.225.133.475.2.75.2z"/><path d="m208.588 148.86v-1.302h-3.121v-.653l2.232-4.765h.764l-2.232 4.765h2.357v-1.96h.685v1.96h.727v.653h-.727v1.302z"/><path d="m256.981 149c-.374 0-.711-.096-1.012-.289-.298-.193-.534-.455-.708-.784-.174-.333-.261-.707-.261-1.12v-2.614c0-.413.087-.785.261-1.115.174-.333.41-.596.708-.789.301-.193.638-.289 1.012-.289.373 0 .709.096 1.007.289.3.193.538.456.712.789.174.33.261.702.261 1.115v2.614c0 .413-.087.787-.261 1.12-.174.329-.412.591-.712.784-.298.193-.634.289-1.007.289zm0-.663c.25 0 .477-.067.682-.2.205-.137.368-.319.489-.546s.181-.478.181-.752v-2.678c0-.277-.06-.529-.181-.756s-.284-.408-.489-.542c-.205-.137-.432-.205-.682-.205s-.478.068-.683.205c-.205.134-.368.315-.489.542s-.181.479-.181.756v2.678c0 .274.06.525.181.752s.284.409.489.546c.205.133.433.2.683.2z"/><path d="m261.935 149c-.315 0-.605-.072-.872-.215s-.495-.34-.683-.592-.323-.542-.404-.868l.594-.178c.053.243.15.453.291.63.14.175.304.31.493.406.191.097.39.145.598.145.27 0 .511-.072.725-.215.216-.146.387-.339.514-.578.126-.24.19-.503.19-.789 0-.296-.066-.562-.199-.798-.132-.24-.306-.429-.522-.569s-.452-.21-.708-.21c-.287 0-.534.07-.742.21-.208.137-.373.309-.497.518l-.565-.262.186-3.495h3.24v.658h-2.966l.307-.322-.164 2.982-.156-.229c.174-.221.385-.393.632-.518.247-.124.507-.186.78-.186.373 0 .711.099 1.011.298.301.196.54.462.717.798s.265.711.265 1.125c0 .411-.094.787-.282 1.129-.189.339-.439.612-.75.817-.312.205-.656.308-1.033.308z"/><path d="m310.355 149c-.445 0-.845-.096-1.203-.289-.354-.193-.634-.455-.841-.784-.207-.333-.311-.707-.311-1.12v-2.614c0-.413.104-.785.311-1.115.207-.333.487-.596.841-.789.358-.193.758-.289 1.203-.289.444 0 .843.096 1.197.289.357.193.64.456.847.789.207.33.31.702.31 1.115v2.614c0 .413-.103.787-.31 1.12-.207.329-.49.591-.847.784-.354.193-.753.289-1.197.289zm0-.663c.297 0 .567-.067.811-.2.244-.137.438-.319.581-.546.144-.227.216-.478.216-.752v-2.678c0-.277-.072-.529-.216-.756-.143-.227-.337-.408-.581-.542-.244-.137-.514-.205-.811-.205-.298 0-.568.068-.812.205-.244.134-.438.315-.581.542-.144.227-.216.479-.216.756v2.678c0 .274.072.525.216.752.143.227.337.409.581.546.244.133.514.2.812.2z"/><path d="m316.555 149c-.451 0-.861-.101-1.232-.303-.368-.206-.661-.483-.882-.831-.217-.352-.326-.747-.326-1.185v-2.329c0-.451.109-.852.326-1.204.217-.355.513-.633.887-.835.377-.206.805-.308 1.282-.308.411 0 .792.084 1.143.252.354.168.642.403.866.704l-.566.434c-.153-.224-.357-.403-.611-.536-.254-.134-.531-.201-.832-.201-.337 0-.638.076-.901.229-.264.152-.471.353-.622.602-.15.245-.225.513-.225.802v1.466l-.185-.196c.21-.308.486-.557.826-.747.344-.19.718-.285 1.122-.285.448 0 .85.1 1.208.299.357.196.641.462.851.798.211.336.316.712.316 1.129 0 .414-.112.791-.336 1.13-.22.339-.516.609-.886.812-.368.202-.775.303-1.223.303zm0-.667c.314 0 .6-.07.857-.21.26-.14.466-.33.616-.57.154-.239.231-.505.231-.798 0-.292-.077-.558-.231-.798-.15-.242-.354-.434-.611-.574-.257-.143-.543-.214-.857-.214s-.599.071-.856.214c-.258.14-.463.332-.617.574-.15.24-.225.506-.225.798 0 .29.075.554.225.794.151.239.354.431.612.574.257.14.542.21.856.21z"/><path d="m366.131 149c-.402 0-.765-.096-1.088-.289-.32-.193-.574-.455-.762-.784-.187-.333-.281-.707-.281-1.12v-2.614c0-.413.094-.785.281-1.115.188-.333.442-.596.762-.789.323-.193.686-.289 1.088-.289s.764.096 1.084.289c.324.193.579.456.766.789.188.33.282.702.282 1.115v2.614c0 .413-.094.787-.282 1.12-.187.329-.442.591-.766.784-.32.193-.682.289-1.084.289zm0-.663c.269 0 .514-.067.735-.2.221-.137.396-.319.526-.546s.195-.478.195-.752v-2.678c0-.277-.065-.529-.195-.756s-.305-.408-.526-.542c-.221-.137-.466-.205-.735-.205s-.514.068-.734.205c-.221.134-.396.315-.526.542s-.195.479-.195.756v2.678c0 .274.065.525.195.752s.305.409.526.546c.22.133.465.2.734.2z"/><path d="m369.885 148.86 2.403-6.053h-3.025v-.667h3.737v.667l-2.399 6.053z"/></g><g fill="#606060" opacity=".3"><path d="m363.824 114.156h-332.7185v.232h332.7185z" opacity=".3"/><path d="m363.824 101.254h-332.7185v.231h332.7185z" opacity=".3"/><path d="m363.824 88.3359h-332.7185v.2313h332.7185z" opacity=".3"/><path d="m363.824 75.4375h-332.7185v.2313h332.7185z" opacity=".3"/><path d="m363.824 62.5195h-332.7185v.2313h332.7185z" opacity=".3"/><path d="m363.824 49.6211h-332.7185v.2312h332.7185z" opacity=".3"/><path d="m363.824 36.7188h-332.7185v.2312h332.7185z" opacity=".3"/></g></svg>